<mxfile host="app.diagrams.net" agent="Mozilla/5.0 (Macintosh; Intel Mac OS X 10_15_7) AppleWebKit/537.36 (KHTML, like Gecko) Chrome/131.0.0.0 Safari/537.36" version="25.0.3">
  <diagram name="Page-1" id="FrBEk0znfVlt-y0wJ_wE">
    <mxGraphModel dx="1863" dy="897" grid="1" gridSize="10" guides="1" tooltips="1" connect="1" arrows="1" fold="1" page="1" pageScale="1" pageWidth="500" pageHeight="700" math="0" shadow="0">
      <root>
        <mxCell id="0" />
        <mxCell id="1" parent="0" />
        <mxCell id="3168lHL5h1D-uYm-A47y-1" value="&lt;font style=&quot;font-size: 46px;&quot; face=&quot;New Waltograph&quot;&gt;Disney&#39;s Fantasia Gardens&lt;/font&gt;&lt;div&gt;&lt;font style=&quot;font-size: 46px;&quot;&gt;&lt;font style=&quot;&quot; face=&quot;New Waltograph&quot;&gt;Father vs Son&amp;nbsp;&lt;/font&gt;&lt;span style=&quot;font-family: &amp;quot;New Waltograph&amp;quot;; background-color: initial;&quot;&gt;Classic&lt;/span&gt;&lt;/font&gt;&lt;/div&gt;" style="text;html=1;align=center;verticalAlign=middle;whiteSpace=wrap;rounded=0;" vertex="1" parent="1">
          <mxGeometry x="520" y="243" width="460" height="215" as="geometry" />
        </mxCell>
        <mxCell id="3168lHL5h1D-uYm-A47y-2" value="" style="shape=image;imageAspect=0;aspect=fixed;verticalLabelPosition=bottom;verticalAlign=top;image=data:image/webp,UklGRgAPAgBXRUJQVlA4WAoAAAAQAAAA5wMAKAQAQUxQSApfAAAB/yckSPD/eGtEpO4jsmTbjdvoDUh6ILT/BZuSQKCH34j+TwD+a02N8jRJ6J8kA/xBpkSBsUk2sfl8kfqwGSNIG5JtsoWq1Ed6kQCcSTQ1XpGM/AgAmdKhzAraJoO0nWccdsnTQ9ofsHH28qFQkke0r6NI6YTPQUd8jpoWcUL3JxjCLDLK1EUaFpimIrXhPNWkh+npv9iPNsoi9PlV5NVGNbLbXFcJyC77AiBarQpEq++SaCQCHCU4Qi8Q0Wn7BhGNUJGZreJFZrJzpvQg2X8DgIsTdQtg2hqCpQznHC2JxCTs213aRSA8Yb9AQiiSzuiDJLCKct1kVkhPtq/ywi4BFehQEsBHJgBVZAHvMhPbldhWCFGQN3j/VWBUsg7vXHMy/OKrHSKeeUI88QAgInaXZwDc47+Uw7Bt2zCW/f/VSZt0eyAiJkBfN/0aaJ+jATacMyAv4p6S8DIB0BBNZ/MRM0284tf87l67ud3JtVd8zapz7WXAb7ldMqTFy5jW1nJS/BDQW6YT7IFKOCspNrnGZ3SEg3JtLnVoOXo/rV5gon976nn7P1VS5P97vCJOJk1X4zbu7u4uq5m3rmzp+g+4u7u7O8240LQL1xsdQQZK0CqqgPJKO/FcMH0yu0bgFbGoiJgAf9j2r5PT/t91P56vmZW4CzEIJHgEt+LQ4u5tqbu7v+vUDepepBRaoIbUgPZTSglQ3J0EEkhCZJPdndfz+fhjZmdeO7vJ2vE5joiYAF/Qth17pP/ffpz388RPklbSSbpjtNO2pqc99sxr27b1WbNtLtm2bduvmee+rnOh835qkpmqXHM+VZ+KiAnwvm3bsTf+/23HeV53Xrb17G3btv4E27Ztm4PFdl+dWmknbeo2Ntq4bdKoue/rPPYHyaC3es7yUkRMABv+3/D/hv83/L/h/w3/b/h/w/8b/t/w/4b//VohK5VLpXIps5FsCmWjzlI2Uk3BoH2Xk97+0Qu+8PG3HzVLSCPQJIfycYcvnjG9jer11195ijPiXHL5Lm84YUYrEJMLCzuf/Ju/bIuNLDNonv3AMRl4kkS1J+eIa+YnG0EmMgdfe3cyXNRrZvmuPxyTRpTtecZ1wGhYWX7YWxkpLuru+x/py9koNPOPbYtGiu2+OYIbj7fGvB0bCWa568ohXMbj7pyIa+SXGD3bkzHWdMrLko34yszO4WJNxZjFaMQXg1tx1to1DxvhVdHTi1g7pjDCu0GXIdZDaYRXRX83Yl3GkV3Gg+6sS2P1iC7j0ke1TsQqfOSWWLWRpu18peRi3Tq8ScTySVKplVj1ME7Tzp0KpZbTdSfNazyMUWiLO1LwpoFPkEotbl0umnjtECqzPFv9d5pYPLxAsf2nTjVR4gCFduKmh0hNZNyHFVkprLqGRPPW4eHLlNnOlSuyZkp8YsFUYiXu+TWR5lXkcQIltvhFyryJUnj8NCqxnLt/JKeZeHQ6phILPtNhNLFaaw9ilNhhxXdo6sSJz1OXWEqtZ+NNpKTfo02JHfzMmaiJkm6+nVhkwXGlRFM9TqTEDvnOS2lq6ScIRZZx4HbJmmplF0W2InsQaeKkv6fMtjR3H6yZpPdgRVZg3qLUTHV8aFuhZSwgVzPxfQTK7LAnRvOm9rmXFFpizK6oiWruJVJojdoRax61Zv6n3Bo3MVcTceixilJrFk2ssPTXxEILZqPmgYcPVhZKrak0sfE/e7YFopVZ41Dz4Ov16Of2jtiIrBaa/SN//VRb0kgsNZfj3aP/74fjXCMfhEBVXiXAcXwLZSTy5gLK3n3uV4JrRIPJiIlCLZCSb3EUumkd1950WKnyhtcyclFmVABGjR0zpr2ltdRugG/s6uxcv2HtBkCZp7RFCTEfe/Qxe70FazaU8eXtXCMTFFKCSTtvO3vOrMkTJ48J1Nv54gurnnnmsQcf3iDPUtpCCFEpvfI0nEQfVBr/fnwEghx56z6HL541a5JR7Sm6argFozo9t/zBf137LKD+TXiVY/Ggj0HErC9gvG4nNMJASpAdcc5+00YLPEcSQvTsuLuTCfLVt/3yWuSmfkrmCUCMnrHN+KPmklKL6Kvld2C9ZSL7Kha0ZRGolvvwGYXcSzue/uo5gCcJUbi7y3Ct+eriMm7qfxTIIZs4Zbeli3dvSQApBPqsc/z4qN6wKmVAFWoxUrIthUzy6PRc8pTymODdo/d93cktLhzRhI6Y+KaPHj7OZf2Mheg+ceHOBx0yl5490IfF1OMIxVXWRiOzo5NTQ1S/+uqb9jR8S2Bm3dEdRrWXslJW7lr/Yg5ZyzKY0J0dd+6xJA80c4qc+J7jyjnqR2TJSwcfdNB+rRDdpBqiT6fyoVhRRmby0snl5V5uPf/Mt3/hnUtd/Z6pklLbwvmzZ02dOL5cbi23bl717IMP/fdRLFrmIvI9P5iIntHk5nn5wNcegbsKUU/eWwIHBLh87rnH7DLeqZiZ6B+d7chVgATi4nOOL1SwggR53p3GHzOb/l1O8jlHH7TNxi4azJ+6+wf2AZaxiNT+hSWkPIjmD6TWA96xOBmqR2ZB1B9w90IkRepf9OHDJhs5QfSfYvKs1JDMgIGnP29/j3IyE7dmWZZFWjfg/ZclGHfKK8dWAGISAgHunon+pT96LiFYrmLOy74KboE+qYC3HH7+zERQDYWSAah1bNnMUoxdmxNgITWkoNyhdezYmdPHtG1c+fTKbT92ootoop8dM5EGrCno2fclz98CGYn/sxnP3oP3U8Fz7fi6U3FILmXU746Sln9lHxbylKx79MeX4hh9VsJLpxw/yRXAyoIwY6/j3/HN3/xjWktLy6bODSufefahp5c/nxMyr8cyIu3zd9xt193nU+1aPrkFXPS/pVbqVNVsgBaf9eNfcHDE43nxSrxfyiq+5M174eAyUaSSks5+m8WQoySmLm2tIPp4DP7Pr13XnXmkdfGee+yycCyNbn7g3lv+eR+mWEuWvG3f/fbaZ4aL6KoRooz+2WsJWXI0d+Hs+VkSFY9v4B1j6I9FmvfKs1o8IVG8kXj+u7fXOQq7zMPoB1Msbbju0/fZ0rP32X4aUHFDAjm4O5ng6XuuvKJDLpcj3+HMI3cf7+SYjNrJ6Ke7NtW6tefYbcd3TTW8torHf+qRWD+UZ0edOMaj0es2qF49lp3ImLYNqD+AKHvh6h2XjBIpmolGPaVgdD/1q++8BGCHvHefyZBjxpawcyMO0tiB4yd2bRmEnCpjTU9A/Y3ElGPnkkw0oYldKTdxJrXQf7ob4ElG0QmDlZ+6uGPCKz64yEU0sUUUs762MoQp0xZsErcmSayps7Tfkdhjr+AymjQSBygnSWFSSNZ/gMsRvetK9t8rz14CjthSijGn0rODWIcTJ+bqX2LrHhPAaFozphfIR50YcLGldTeIJrasqUpi/bbMoJ8p79qa0+ynu5VyEaMTsSWOKRhbWqtq6vLUfsWZMA3R5KL7IJmoRBfyLdJWcTaaftSYOIXmI9npI4QcxGEtg5ge+xHRMpo+mfjfC+SgiSc2aRAjdfYfTpvTN9Va+Fcs/3CeWosPYnStxPsJx0uobyD+khx0+SoGNTuf7S+czojTV8ONu7MPD2sewwc1Nq0L/YPRmdOMDo5Aw8BHsczD+A/GoOYDiP4wsG4Tve2eXBk1PfYHaYg/JOYdzrLV8sEMcRupPzA2voj3iqeYGZA2bYpS6+hQtarU15OJx6myjsQjj5MY3Pw73h/QtpreTTLio/c/+exz69ZFbNSU2X/08WlilZ7MJoNZxuHMdJHIm9e0OL0v9d7mZ+lNEcLyI58+dvlSh6b9swtXnz4ArlX+aYjIYewikjXTlItoRnepd4wHCcUlsJmf/9GZVUEMQoBhOUFz5Nlv2ORKkts/dilwiK7BqKxh+esOQ73Xsvuc4OoN46GN8qIk48rv/8X4ChYk0VQiy0fe+Oi4geunaRA3i7U9ZE7j25O914z33HX3F6e6inMeX45TGIv7/27ZMMQo5fLxB+9YGuMvj6C4IXatmrKGVXY5j943TqT9/b8d7yoq8cz/SBSsyMF/momGxMir7LZnyX+dwOl2qBsnawbet4tbr8EoQveBF+EFuSo3UbTMbnz+GE+5Gl4DFjdU+P0EZQ3LZ52F0YStqJzOORwVA//cmHkxEicf7JqlpwpkIhM3E/u6zckbnLZt3ntKZID4GFaI675bcApVWPn8Kawmd3WbfQAnaxo7nkqg99OkMtWL94lWhPnVGEU6TB2uTSKDfXy6kjmc44j0vpjaAsgnnEgowPnzc3gRciZPEUQOO/f7OFlT7LckqSm2qSKxB0kNpezJ63AK9MD4dYw89v5LhfJGLO9HU4q5bQjEnG1jY3DJWivCFZ9di4ksVvotjKyZWBS8SeZlUDVjB6yRyM1/I9K4s/kpEHlstWcPyhrGjpOwJplPBEjj5qAG3Co/R14AmzeQRB5r/My8ZY3A+FGIZlTOdKoVmUGjzo1/CokCN3dg5LJN/k5GxjTe2kKTKs2agqg5hVSfq+PrOA2LrAtjuKycPaR8IXHLaBrm9CAmEFUXzocIjdGW4QybtfrQVPR8kbh5E2+eeVPpcVw79YulR6LGQguJYTScIl8q+NVE/Yr5qqhWW7kB472iUXnrGJxhtIl9oZYtYrqwavWjCgsQ1aKlVJ/i7MPxRrw8CzGMVnn0QCXlCRnz59cjdcTMnqCcoXoyzp+O6hPMRMNrmFqOyhGSOHeZRF3PXFhHg8qzI4g0OgsxzHZ+oEZ+VLIwt2cKUz2JueMq1oN7XcGPXII1smB0HGaT2UOGSGarBw56kKjnyD7UmRyvAw4aU1FdYu4cd4bZ9uyizA1uMXU+OGSIuhbjD8B6cqdO5VMPwqhXPnUhw23FwBKeFWSgo3cfI1L/4/dP9VCvseMBqb6oxWi4DfTvdmUDSRHZvr98YSNIdefsi6unrko9icXKVU/OPmPTMJzNVSIPyj0GfHbff5zdABcNeCKittPRWY+3H0KgzpTtugBj+O1OSqDkHiM+07/v4asmk2jEtiOxHmBjPWLioVg9lvZGDLt1xtGdXxkN6Dl5+lRPsuASjSgOnUTPziZXT7DT+Fz1cDUOGm4DO0oAtwYvnu0bmhYxlKJBjddR91qC9+AcjFHv2vdF4Qy/3cZGX7bw/T3VmzUI0V00quLUffGexCpEnXuiOiIffdJh3Nww7Gb0gC+GqyJgMRiNnOVnOOrBSzyP15E9N5meY/jNq22H192w2S/BNLxm1IAPfk9hNHrwdCwx9ACrN9chn3+/9eTow+vO6HKP/uiO2PCaMWhjF1tubsVodMsr563H6NG1YkNdO11FvV1WIlVS7v8qScNrSgz4r6WgwUXc+ZNr8bqeptStGg7zvlEXMYbkybvOI2N4bRzgpdKDdxEaDX/n6Tii58BfcHqUb/+2+gBPyb9GYESNuJIyjR188nchGXW6Hrm1RMhKpVJ56sJdDuhqaSjlfhnDb9PAzu2Rq6g0GNMXEC1Qr9j8lTmytrFjxrRRaOryS9rQsJtN+EZOfAaLDZWYNppYptHdD6R2ipLUSFL3N8fIGHa7joF8sgshYdZAlMZBmYZTAiQUjCI7Xl1CjKwRSw79wyMCi6ExjGgUakbxzh8/xLSXv2MxGm6zFt/QHXDKsZsv/8K3AUVhDcCGbprc9dwvntrz0ZT8T2TDbVYw0Lfdz9DpP/zWDxqhEusssXI1TV9ZM6GMu/tPCMNrxAp8g4enUqqe+fvvezsWo9VR4sUX8KaD5ErulT3Q8Bp4lgG/TKlaSuvd//JNEcDqhQ0r6YsuSLm/my2qamiob3VX8A0eSPKyKmmt9y8/C4MQ6iHwINYXgBT9/9CWRIAJNMTX8bCKgCQvXVLZ+YMfKaAo7HaJWzea9408634ntiUxxr3pb4/cd9k+2NBe65W+8XuZwoDrTz5/eo5oSbdDlbb3E7O+4DF74hQytqCWL/rH9w/dfuez/nVKsiE9vui5HGxXipYu7d7bSTDXqxfiW0kl+mDycM1HMLagivt/dEmOe8y+OTVpCM94jXtZACUKlk4//vSyydCrY90LD6cvOnrxS9/uztiCKs37PJVMUmD2eWRDeIFDvOGFAUiKVruy6z8HIOBFJM6gu7XpksQfPvAwxpZSRkp8j7xEdeQghvKN+fdbgQApgF74t65VD5kaks8+iRJNnjzw9Mcultz7MzM8eZWylCfMX4OX6HE82NCdKF1BLhGADFn//+wdSB4acc4hZk0WCSt/8aU1yOnHg3UlUIhYqFSYMm/u/Ik5oraYvbgSNGRHxkcpmE5gctehpehWH+XXEWj2zp9deL+R6M+t4gt2Ka/69yZTno856oBtx1G/+fwr3yEfuivxflQuwFNhr3z/WaWYUE+WjqHZk/3uK7d6lhL9ueIe75nUmdrbL/i773j+fpvAK5CpJ8R2376IIXRZCMHUQ+CoDVjJAHfGHvH+89sQph7ejKupnLjzI0E5/bksf//LAUYtftUth88DzxVKNJrS679OGCJTIAJYqCF2W+musgEhUdr9U2+fixMAVWZMocmTPbb/Kiyk5P2WPF4QPCGUtv8IeAoZBQbxllNjNiSmlGzu/kcfs6Qsq2L0rZ5E8ZS5fJv3vWF3SwSyeGyOmu3uty5ftxYs5F5HyEpB/Qb+hokxGIDAMaNYxdb3t+caCoMjP/GDTvc1P1+AQcZFnpwiKpJPe9ub9rBcLfFQkjUXdL609rlH7rtlGaZYywzArJ9QmvcmRM+ieGOfUwhDYGnbV5+za0uqdEd/YHss47TN7oMkgOU+/ox37ks+ajp90/Xc/ddc9qJcgCjt/66PHj8K9Q/OOcRSHb2pig4jaqhLzDqwzSspuccu/00rTL3T4yAKColJJ3x4J9uEms7dScGorLr4gpdkEkfcuT6mTfedDdYMKL+JQHMai2b7UJejUaQsyKu7/RXwCc99MAVMycceen9nH6idMFj1uTFkvNqTu3v0H42iCcr3p2mNHWYwxO2sdUxAjehXs/PTHgdZwARz6Msu160HsKjbU3JPyf3q8U3A0mHNo8qYKWhIS17+Nm70bBx205F0tzIYq4YCj9lLnz/iaHqM4bKN8j4WwyevbB5SaOPbWeUjuFF3+eB5ZAzKRwKuHjxm9+fyPpadfiPeNEbft0LnTnvjqk9vJA3SkZDo2VNcRt9W4qOr1DRqa8m35K+i0kL95VdgDNa7qDeGB5bhfchS+8kTaF6F8THkWNa9YHcCjYqhw2tfxPsOU3crRTVPCkcq14J9qbQ0NIQY8stRX3HGzaCpjYdpeVZqOxpj6NK5+fbgfQRrxZupbh87RY1fy6fs5WEIA3X9EOsTYkOFplZV/zVVcixnb+KQRuKe6/A+4Ly0Gm+mOthfKnZx7eMRQ5qOtsObLmntgzRzSps6f3aGGk+2EIKprvIh2NAGYvo0ErIQAp6ahHgnah7VrXj89yocWaJn9SDfi6HPREsEPMVIU0rArRsymtfiuT84RQt5kQyY+sov//z7H9wNVMvSiUMgiPX3lRef/4kLf5vu+Fp3cUIEwx1Y8xDeNCkc+tNLWOzixQq0Hf67zZ7ck/91KVYDjsE15IGl8n1dd/zsM6+96zffjg0IIYRIEUjQNmW3t/50EU08qH6PaAzwYoVwwB+i99x9OgEI3YeuZ0hUNms86dc7PiSBQCAEpOj0GMaOmXj4uR/54VUXHV5CTQTb55HwYtH6mdVeiT1EX7svAUI8GbehEBzn6bFny2nYxo4ZM3bcxElTJk2ePGmbiz9x0nbE6DR3NRCOHBZNzLHMqO3cczfJ+PSdSgyZ/t/XxmYltbe0tJdHlceObhszun1Me1tbW2t7+6hAzRhlMppbtoTJjWxzwox6HX6zqZStvgh86OQ5PIhgFpQpM+qPCSFJNH9gFT9WWg2i/hRu/S2VS39vkaFbdxwECNFn1e47krOcAp0vP8f3MB9C8XpU1Q96lU3djXzIYVksIs9+dnX79ZYY6k/hzJgf3f6kpQI8W/XBM3CG8BU7ANkXqfou5Ky4k2ITn7orYwg/hWVfYBDb3RM4sXE5oRgC32NIf5fvvipLhOMz1C7k+uP9eEFD+57Ki351SpnIZ2j1PMizzt8ghiFaXuaqo8vG5f0M8ODID+8hDTtwsXkD5RsOLUV+g1B7UCo99xOcYYaO8eTjxHDjnmv3/GXXajw455KbQxxekCJsvHkFKen2We++HBAuHF68AHw4QcpNm/72uy7hTue3foAfX/vVkDNs0BNlW3v19+/GnJpGciLxtadKPnwA8mVf+sZfuwM9poQfv+C5A8sEnHV/fN/rxhnK1NMQsvMBDP93B+Xjfvbte9chE0PTHyD4nyeqX92WJDFU3Xoj5n4eNqzGOOJwgjtD1OIF9+D9HnjoLf+1SvtJDGWL1wTnSzi3Xv+Km0rsOynXEBY8B9ePLr/11+tfOuQH2EzEELZ4puclD9x/2TI8vHmX77+AM7S9z/PEvT/5Tacpcv93nmeIW9yDnM4Vnrno8ucUEuBWGuqCzXi9+MtVzylEqlPFh76Cz3lk1XUrISWGzgdOx/L7MRJD586qxynz+9ciZ2h9GnM4PbDGGHK/irt7Yk0nXoAkmZmqh6DED7pbovPM78lTA2by3MGpKTMcd/ehI/iQt7ltOOc3wZ16ldGVHNrbQ1aKXXlXd4XaIXhS8qK9tbPx3DnXZJG6Q6xo9s47zJ48Kgsm39S9afPGjrVrXlz5/HMvOhBRcqH2OeRpzuq/KFK38ilnHNW6gR4zevQNa9eufuqBh45c4VaT+7z4IXM12PVXSHUYeutrEhATEjUdxy0IwDcvXX7sgftnTQSS52TxvzFc3dMZ703Wk9L4i4hEKTMadRyXAbK1B//r0NU1qpTcJus+eBH5GvDBRdF68HGXkjICvehgAP0D/3XomsWB01g+55sIZ7fK1DdZqmVc9IqU0YxKZnb07/9tLiSXEXyOhLuX4lt2QVWl9K5zUkazDixy9BfvjS5jfvypUf6GOA8HrLLg7aKZa2L6uV828xf5lK8iHN543WiqeNX2uTUTkuKv4jDwcYuZx8Gkl2NYPuvliCZXit+Hu4odP0DA6V+BEAv3iNZswOKLMGfJ0pcZqnf2BhL7kNR80j8RfSXk+x2Na2gOJk6N5q1LMfrC1ecQXCVL/0cKDNW3bYcYtQD1ATT4YSpPif13vhfD6UXrdETL9L6R4hsIngIf2TtwOwhjENlo+qR4BnKUUD/9AxiO1wJ46hvQJpmfGK966yA4XsqBfB3eNxImP6l5BzLP68TpWkkfXSPgpsbW9xFwe6drJc7mx/G+YFzHVbe91fMgbgBtvonYN2aRpzxj88D8Tj7hIxNi4D/ry6lPXMdRxcswHF/xlK9l0W77NbEAx8FrCKkA+rPIT+BZ+L5VXvMuF19/tFQp1ePVwajX8zCU6M35yh7M9ZT553aP2UPverGUuwlwd7cMoOOFjR0d3U65dezk6aLWENCb9ZUK55e3foXc/nz6vw50Udu17tEHn3j2mWfWrtkEkE2dtdM+x8Q0CldN3of5USfg4caTDt9rwWyzfPWLjz+6fM1zzyWqLUBKDtk2v1oP1b+OPOUmcj7gQ1gMq1Fbq/BKdxfVJdzdcRCSpfRTvzxUbzG6ygzuLxYfH0M0Ej2aHHcaNX7lS6jZIoafGl9E3kdqPw8jgWo4had/JTWbwVFlDz4/SN4Hi+ZXjGY8R2PjGvKUyR2HrPY++cL9aY5NzWAGRxWLH/nPOHC/nCV4U2wb5hryE0Ln3wm4v9hpTFQzbBlmGkcVx6cD/m/sMIMmsWYzyE0UJk6gDEDMmtwcW2mua/hp5GGyQFVaxtOUW4aTl4gnFkw5AM7E5tg6xGAOL02cOk8iExyDN4c1mh14SeLqYUQeKEY1hW2hqZiWl1h9H0Y2KJrRtjWCWS8xHrkSlQs4m1Az7MQaiGs4abxymHzQ2L+crPfiNprPOEmLg7J8IPNzrp2G9dr20EheEnntRVI+gDjsD3MIvSN2WCO45iLGXftJZIVxr39MxnqFYcQM5h+yzifIDgeHXBCSemdnM5jBRT83W6XcQPnrXkmvij00NpYcRDb5MBmi8bVtXb0AexspLvYcJPBxQo6QJr4P7wWxpxmzDiIOXkYZAsbrFqDiGGrOP1I1dR8iT2x9P1ac2IMawFzfPeDeXsgUnJePjSoM9tBUzPaQbyQePU4iTxRTXk7ohZ1DzPXxzcTVT5DIFVPrIVhRiu12I5jDfMM40KmULTg7EFUQvqvVSMw6hzj+kIlsUUyeVpjY1W4EN5wj8K8YOePYSRS3t5Eiy7im+L9xU8Ygtj0aU1H72tiTEddWXEPthf1kjXK+8uZKKGrvJhqK+RXkGDX/PWMpZ0DYt16bWyGwDzWAhRUcM3H4EDV5oyh/93XJilAD4qZnKNT/RlDmAI4qBDVW7t45xPwK8gse+v+YyCFzp3GF7i00n1/BLcXNvyaPFAj3RrxtC9ZAzKcgr4D/mY55BLggNWA++x6ainkiXhnn/pVs0qUyDYa0aKxRYB63NP7hOsolgFIZU13x0C3Yk8k1Sic/i8gpNYq6s3jaFpqG/k3kFBn/vByyCiVrI9VRyt/USk1YnccpRfZJanLLMsl7qnyE2p5MrMwjnzCOwZRbiHZMtbLKV2nuF4z6c0xkl05Zriop/9lwPimOdZFhOu0tripv+z3WQKzMm1yC0h3DM+SMbaXGtL80guV+xCONV7qTZ4oxY3DMt795GIIcQsZdnjINnMlTUEhLbqGpMYdLZrwxd881gAkZWXzZ7bIGgTnkEKp7n1sl8k0xdiZdx900aAJzeGSDp510CxwY47bh3D+Ipr1Z5A9qb3qMrMgBZBM+ebE1EL05l+Da7e2K4Oldb/901QCfUB58CUb4TC3TrFF/Do88fqGu4oeM5r1Z5A7O26iIoBpiNbqDOH0bCiENzmN4Y8VbiagzuGNVnzyLhxNjFnmD8ZLhrHACl4jmC1V7+TZC6que3quCK4h7J2sLKPq2g98VCY5g9c57EQHV6pf/3V/vwPwALhxsVxGFWLe+99TbCeYEyoMvwIipMUidn4gh+AAcvJCqoHKrNr3p7mQu4LwSEVhtwNPHkAOIqTuxyAKBPc9Ed/6MF/QQX/duJ97pkzcexeMLmzZxp7/Kz5hC8cUgoDt6cu5vZkKslkh38qp05gSKMaze5E5+g6sjdZARC9PYHTtj/AYizE7cCCp3R4/VFmc4OaDYN+4ChRnF7gNYmRM7H/OKOJs4fQwVOXhpf1agQXycQq/fwQi1VXcRFTixL6NYI36QqsAZzxHh9tLRZMVNzk082ChteglVcbN8Y5KAe36xbcWN+/uzoo3ywkWqwmbt0aPEWyVOUKuwcWk/CjcYJ2a8sGVOVe2QszBGWbM8eR4j3mqla5SyLvYu1xEHmCEXtcQlXBFHbMJLmhi5l4qY26awL80nCzqfRyXNuRsRcp3PUdbtnqgD/4EVNLF3Puh4xf9S0o17Rcz16qMfxwuauInHnNp/dwdWzqxemCXorvg3IRU0bmxDIcezP4sm5VycVSLkJv+tQVTOrD26iGIO/k6aFDSOzgUd51+2ooImDg/UMQd9ExXlXO2ew4TdC6ikMX8UCznOkxUlXczvaMecpK9T1BNHCbq5HYEKmhg8g4WcxKqZRQ02nfaYE+3/7VzY9nQlhRzge0XNuYQRcz0s30ZJ120o6ABfRVXQth6IO66nnUhVKTNON4m7PvwGVMrEGSIP127UjWJ2Go871K1nV7WKmOrWFJG3So9cpowZJ4ZCj5yX9OZCdrSFAg+N+t5DqISJgyRCr/F6vIBppWeS4GvcsweVL2NxDMUeqF6LlS8xPx5+nBsjSSWsq44+YuL5NEqXEgs40Tdxo0oqXXnLPBZ+jCN35KpwGdvnUfhRu+92vHBVbN+R4g8VV+eSlS1nJxHI2ruOULgzuxEBWFxv5qIl+nZhEaji/lFUsqB/CUUgpaHTeNkaWMohCPEwhXuaIGRc7S9azl5EEG7dhgoWLMQh7sGK1mIYcs7hKli2RBweOZZL1sBOFITEpvNUxUosVIThxHHKtVhSHBJzm9pWruaIRNMHUamCmUiUt+zGSpWYxsMQiQVyqXImCMRicSCpTCkN9kUiY2GcUsXOnkik3DFXM4mXqh29KA4hFsilaqwiEov5bkrVKDkSGfN9qEjBCB6JxEI/RVqZIUKx6qHhMkXdPRCLgOkyJTa3UCgSO/BCNUAsFhMU6uE+FIpgR5kSg33EYjFRpqDVG4xgwoqUGGx4LBKjKlIwSIpF0LJC1cKjUdVfpJwW4VhDqDwpMRCQhinRmT4UjgaLFM0G8bhVprqqgGSoUCkcgZcnebfRId9VddCpM65hRGSVqEoBaQUvUhaQPkmRrhSP/FOFygLSJwtVhWVHayg/GbFFduxrZOkQlR2tep7Kj8WCPjYOZvxj48QsmVq5EczkKsuNxGyuypBncpVyIzGNZam6tszImCdHi7pPXuxxZiNLcYuyIjGerQbkxWJ8E+Wpfn5UJU/Xg/yIkKcG/bxIgatYpuqirKiYn0d5qrdGVizG5snSypDG51GOgu4ayoxUyVS9VXJiFYyRq7trWRG2NIrnKUurKCMSs8MoSymwRk4srswUnqUILGVFgV6MPG0sZkV26wzKVGKJkA+Jm6fxbLVIUDYES2MxV8Fix8iGjbNka7G4Rk58GOUqWFpF+ZAfzFdifpVsWPRN5yu4sZQTHRTZWnZ9GeVCzn4sX1UskQsrbvWQsY0bWCbkduRazhLT+RD710z5inxIkTME8rWY6ZEHe+geRlnrcgflQXTPRM9aFztkwSo4TSBn2YVcyIZOkLJW7C/kQXB5tOI5C5jKg0K5D5G1xSSWAYmFp0n5Kw8+u1gob8F4FmQ8jJO7g3Iglk9ksOVOBuThSTJ4PYEyoPswZS9O5z/ecTmQw8+Q/ab4COYZ7DTKfFS5dZKQvywDSsVzHTgZbGYQlfWoYC9FLYctf9Eyn3BhGieHL32JlPUYh+m4lcOs90WU88iWnqUkh0fO5j3QRaxlscB0t62Mx/hrnCxuTJ8n5TviKCiPwcw4yncS/4DlsriS83hx+jjZPDBByHYSX/0xK2ZifC0q00nNX/txyrkYnybTceNb/7NZzpKdvpzrZP3md1OXM7UG57E8p6q/4TMNL2ckjihkOc6vfVNVU9DFkQWU44i3kinpyQ4vkONmvvnX5EVNcXA2x3GtfJjSLh7B8pusX/zP4pZ4lCy3x4qbONzNcMR4d3GDxZMow9nWVeD0cI6TBguc8RApu8EZLG9wbBCV3cD2EnfjkffWMbcR2/HSJhYfIJHfjlLeY/0Elt2oyInxieenkNnA9iI3cew7E5mtGC1xre4xMtxRlTfE8ZUxWV4jtluBSxwdf7XIbYd7C5qsYRhGdWWK/EajqJQZdZuvWvEZxezGRinjIuf+Qw8/Y9eO7WMM5nf329kNW1EJk3zbl/7IV334LjLerZRw0XXn3eNbe4AkwMwynC1FzDffHAF3IJDtbkXFy5nYRdslYu9mirfTvxmJ4OsFTHgZMQx4KypcPNuBGA68hbLtrHiYYcK9eMnyrOsGhgs3B5IKVuLPz1gaLjRMyeL+H5MzXGgTBVv8aEXZhw1tRuWK595GZHiwaG6iYPvVF2dpmBC3qFzx6qfNhw01hgqW2D+K4cMDlOzDGT7sDBYscfYwo+6mYVkKXjusqMVKWxAiwfLTucOIjMs/8LXvttrNhRovbWaWh5xjhhGJkQef+54v/fKv+6bPfEelenNunZcOwSz3iD1u07Ah8CzjJeVXBocGBybWNzZqbC9McmUbGPNieRjRqtpmvKTmR8ZGxmavL83XACrmcuUZ3b7ENbzoZQpJFgH8+uT4xPTk1OhNgEKS8guf/XgMw5R2lkuKEWBrYW5mcGCgb4WdDZRP5Pv8p1Ia1rSjtocIUK6tL/Vc6rk4I7ZbEFIeGXPNoXk27GlnCQVjR105c+7U8M3VGmCF5ModWDry+mg2PGpngbFz2XvhwsjszEICq8hdWUP4Jz8dTcV5inGY0UtKUjTgxvBQ/9Dw8AZYlCtfILIPfzLDUX1eJUAWwvCk7ZK7VYCt+ZmxM6e7q2w3UJZASsd+baELT4AcZPTom+/4yfnnpWFLO7rcCsBXVwaOHz+zyvZgrvyA8NZzz99pTJk6uzd1dq5+/LF773loz9f/4tJ78eFM2yVZYPvWhRNdZ5dXHGJwV2aolm930O7zxoVSlnd2rXr08aeeXpGoduRfJw132lFggOzW5VOnB8aXhFXcs4MpUp21dlWoaea4O8D1z4Q0HGpnyUOQbZy7dKG3d8UUo+UFMDOiu8tMXpParucvIg6fAqSkisHCRF/XEXY0ywjVotppVFz/QikNp9ou9xigXD7zd9/1FrbHYBmhaLf//ZY43AoQbgFJa/t/8fPeFcEq0fIGVb7+dBrxqqYjRh3xLX/ozzfe/3QFKwcNZsh5VSsrZtV09x3fyyO33nbbbd1YsMELqvTsy1jgSrFM8h3OY9VD/zt5PAJpkALnTU0PXJbxWNtMYOpBdDx12YltAGYajLD06j0obimWbn7dASccMWd8wN19zc+PmZGBZTb4QB58K7G702/5EDsefeCCDveUJ1/xo9N2boUs02ADPH80xS7MeOCbzDj5Szdudq/k7s9e+vqFYEGDC2L8jVjccjohYoHnxMT93v7njZ5y9/jY786fiEAaPACeObaisAVdCFIFywIwatvzrtqQ3N27nvr5QQLMNFhgvvRCGmHL6MSpTqBgAO3HXPzoenf3+OjHdx4lrKTBAYxnzNUWtUQX9UtUl4/+wbKNnpJ3//X1u5RQyQYH6l2PEbVcdDZQU5lgzAlfudWrl//83LEoaBCAipfOucUsCgKFkmD64Z++1z355js+vxMCDfisPfsoUVupEy8CUBbAxu/zpSdicl95zVEZyDSwQ7xhJGrR3UkvWhCQ7f+DRzs9+X3vm1OCzAZ2aepZYavS1RuABGLcWZc/npKv/c5RY1HJBnDA+z1FrU68V6oVhBa+/YrV7pv/+tY5WNDATez4dyxiOd2dNKOyErTt8Z7/l9zv/8o8DGmAhnjN9hUFLKg0BxBKQmP3/tLz7ut+sTNgNjAzdjyTKmZ1NQvIBLSe/qcNya/Yu4wyG4jR4O7DuYpY3Z14swASiDmf+HeX33TieKykAZjoeyYesSqdNLsF0X7ct5/1W18/lWADLxo8coQqwoGVRJj3ujv8/re2IzTQAp7f9JjlTQfKArTv8cuXHnxvG5gNsFRfPuOKVk53l+ibJsSUD953xxsnokwDKpyX4tEKKjGkvgESwIk33PieGVgYUIl9N13xCnlfqbaAHfi9H7xpFKYNFM79PbWiVTdG384y2PU1n3w5A2pj6gEsXqmPQWaEqQe/cTttoKi4dMAtVIlNeJ8DE2Z7nBusNk5KPIwrUsEm+kcBjenBjROWz58mVKkHU18DJKSNE+Lpg65QtRkHUoyxSuB9BsSAut56D5EKNoEY9fEHr/30TbdtAJC5ex8ZYIsHRuto5Yc9+NkFL/8km27/xz8eXtcBBItp8MNbD6NAFTfhHDIr4gCu9f/8z51PPbVBXsIGORDLJ7FQBZ1IAjx5ECy/595l/3kKaZADcb0vKUx5N7CC5NT2lJRB1xP3/2tbbJDD0uYbxKkwCnHDvZmnJFE7Jc+U7P/NxgY3MM7uwqJUNhFsxam3uSx5qFXdleFXjmaw07mrz4OUMxWSHj7qrB/et33ZrQ6g4ucMepC2XSNIJ2YiXOuufPORR350YbIG3jD4IS7uTApRMIMonKy0Ms3/447JenDcH5yHekXgAz686x48RInpc6LA8wpZ95G/G+2qcuFUTkMUrWDUNiUf0BkL57EYNW07RHWiVLnx4Fp0rFl5/QKMgi0TqC2E2FUBAnEAh3FipytA4ZO2x2pAiF/8MIBr8zt+6hQfjIn7vv6rvxvdtun5Z+994pHVlGIauClzGRSflLMtPVt60/er8uzS88iSClLGjPf8bYO7U3Pzf2+66n+yOGBDeewUEVpsaxX1dMbltT705XI3BYvwpgcqnrq6c8DdS+i5P37xCfmADXF0GkWo+dPpATYDeNb9OInCJ5+wQxZjqRRqZqVSTMw47miwARuZy9Qhaho9OnkVrFuJF2RM2S64MlGvMiWfceAEtwGbfNMZFJ4snzQd1erR6XiJwttH40bjpsS2U/G6zAZQiAO7sehEYj6pAUh5QU4ecYoVjBuN96BgJLOBE+JCX1J0MnYN3hAqxnl6I06DXuUATqmLmgKPO8wjDaRy9wXCs9h5NGqo6BfvpmFHeQQ51Zs2IgXhs3/5zPM3//DcUWighPncXiw4GbuOpjmNa8gacW4/vjT51OsTDjgrVuOumZ/a+PQrZ02ZesFCbMCEc3g0KzYpnzClOWRX34s3EPnd2L3+lG+45oo11H50w8QDv7jq2U+NcndmLRpI4SzjsQmxO94MJX6OqD/xxMLTNuMGy1UjMPavK2764DiEVGEeA2pvLROeFtOMkt1MrM/cvrfDU+SQAqPaEGCcf6i5GUA3GlgZ03tQAMs4flPw+kT3OW/Nuqi9TbsDVHK3kqg10Db2jbhi0+5Zc3yFnPqdF5deZnkNOfviAkqZqN2NBljAkaYrMMGEuajXxOQbS7E+uZ7b9X6lGiifuRdV9XYz4FbqOkZsskVNYOyzMXhDz8xfKa8FHLI9GuCBz+whNu/WBIHTvEJDz+66uR4P78MHfGJxaw5MzuImgE8U8fz+660O+fFLcw30gDlyXILd+Nq17ooaAEoTqb/zYuEv685cubEHKS4NTSRbI9E6uzHRPh/V4bp2H+mOD9FaJDD170FrBC3TG4O2hVgdiCPXKn7Hh9g6i4KSGNi1HmYUkNgR1eN2bhfpzg8YGyEqZ+3F1ixrjY0581RRPQUniMoAmdnuFJScGbLWynAaFnN3c6uDxNHhkANw7ccVksToSL1mJQoUcxeherwY6iELioFFovLIDGuWFVJhFxo96CEHYPSPYhFJ66KrCMTS8bnqcQ5cQzkA6NtCSGpX6yBHBQT2X0h9cfAqmdAZHoxIwAxJvZSSeWPqHrWYRg9ieQBnvN8DkpgZzvRy5SVRYODItlSXs5uMONaFwpExM4p6qfNZvADj6MmoHnFyNRvI2F4RjuUzI2u3vBDF0Qfh9cDGaZQJQOzEFY3aNsHaOp3PFoLxKhrtxLMBmS14MELsIvUKig8VIw6fVZ9xHOUDcmsID0d7eujdwLFOsdmZWD0wtBWVD6DZJBgbuwdQrxhLV5dSEc5pqL6VbvOMIHp7UShS3jtA7xozb8WLgIV7R6tDrF5CGQHR008w0uQayfghqQj5hPPI6iD4JTwn4DSaoQixjPcKJd5MKALnoCndVocxSlROwOntQqHoAL0c2HuFpSLki48h1CFmpzMDor+bULSsXpLsMbyQyOHkqmduhMyAaDVC0d4e1CuUuBUrgsBxe3odhOsjeGZAOHgUgt4lejlwzTp5EapMOBzvSZEJcmQmEOsw6h3Cv56h2MBrp7h6QExRUXbIkOIQy73Hn1Ehli84AK9ncpEsmVdQDHIO9Zq4xCk28B7qFFNLKENUfCERhXda6iW451a8EHHgEtSTTS7mB1UiM74NxaCBXWKv+fdIhYC9A+upwiyZ0RrytOmOH/rs9/RnD0CitQu9Lf72YvBCnFdsE1ULMUrICdZUrg6/9c/+90dudmfM4g90956z/BfkhYjpbyarY7y0fGDUaduNy2N4ElX1V5845go/kSXQ2hD4M8GLIHHHN4g9PbUZHxQQjvve5+9L5Hajke0vvu3Co4Tg8a41S9x+vcVCgB+sKfX0xGYGA40EXXe+uJXxla6m13/1Hbd/m4Hij9g+v2ZeWvcHrJjcrr0M1dJggKpc0z1/3/OAXFtP/o9//YXL35vBRQQanV0zIr+/z1IhLr69wWqF+OJAz6q6zc5TD83ieK4a6W/+/b+Xvx5wiQgUB2axtUrlZ/6GCiGGX/0t1sB5DA3kVLXr3gtXd0NODZfxOx+fmX8+GUPE4MQMea3I+cGL8kLc0gWoBjzMwF0O9Y5n3P5JvKZpiD/4+wfHd5NSkzgsZq29Zinc/28KdvsKXsO5e6BmZKf70svGHGpriswf/dNz9yQ8dxGJxczo2pH4JioGe2k8PdyZBmKqvE3P3CMP45CsAe3Pfexvn7Mf3M0Ixcbc6MraOTfejhcDr8dqPbG2lg+grNFu2/zp67sBXOZq/6/+4+IRB0Q0VrtvLK0d+NeIxTivocd4D141cDa169blywt4SibhtvJvwzax7G4E5cWedSD+9kiWCkHzz05ZDe4aSEmQWX76wc/jtbq41f9peELbPZuIyWJvy9fOtepC8mJSy5n0eHeVsW7gowrE0L3PA2g3mgCu/+mbaVe4jKhs7BlIa4e44YlyKsTZd/88AOJ2Uoqh63F8QKNGA9h65Tsv4Hi2LoBsn7ZJB5eIy2L/ukjhwSuIhVCZdhyi+ombSi5de5XFAYw1TQzf/v4/9wy4GYDj9RYQiMisNDju6wC4YnkpFRI4bYfcwG39W655+MU/fQB8wGIVcPJdv/B5z+0kxK0ONI0ILQ5U6yGWlt1EsVbZ4WQcSDx00itOPOFREgNS4Xje+ei1T0NqN5p8UQcRpMXBvB5I/GSDeRFkfHC2i+rsqf9gDERlOUPPjedN1FDTVRGyxRTrMmZ/X0axipPeglel3IKngYcqr7Nt2vPYPQBJXcRtrQ8iX0eFEHjXbGqn6Aw0rWontuw/d50Mjiriu/Onu/BCoP39hBoDTpnXqXn+4r4WnioQQd6/RCrGOWl81IBDOO7su/+2j+O53WgQ58VfHwmpEDHnTWQDC5knYPrh+9sZajUaBHj15HrhQvJCiJzQUtHAQaY60T9x+WljAMmaRHgrYT0gbniinAox9j6RMFCwKrW9tfv47XM4OKoI8VVd8WQ9pPDgbylGlexYogYCMq9T48SFQyOQUwUiyKveds7P35GsFvC757NUBBmn7ONbfcLxrKP3nPwczkrVMAK9vfLhH7/6G+9MoVYs3XIjxaoy+mjS1pwsJAcOPHz9kxkS1k2sbxwjq9jXz4xZDRI/3WBeBIHXTUdba7KSgW1evPEggCc1RbT3lW5KlXAgXitmf7mTYi3OOQzfOrNSgGy74y+eIQOOGRHfEIFFU6JqkPgqKgTjXWIrXCEAC1/70wcTngwhAr/YYQZ1/OlevBCx175oq0oSQFj84Wsfz90rudEg/pcz6kwXkAoBvZew9STLDjRO3nd1YsjIqTKKQPc6xF+fDKkQ52Xzc9sqkllO0Lv16F03RwGSJDoFVYez8sfEQsTU8wlbP7IqJTSycPDK2c0AjuhQNK5dU0pFkDhydEVbOWbJ0dLxI8eXe/FkRqdhZvW43XEVsRCx5/GErRfhAN1nLh2bnzZyXZnoNBStJVQPf+wseSGVcBRRWyOSsgOMXbjz9LYB8NpMdCJ6S4l6o139H1IRBI5d4lsfZqodejYtXbp+VIBnSXQoJupz44oUCrHuKYfgWxUyow1dO6b3nb+4xQU4onNR3gCRXzyBF0HG+ZNcWw2SJYdth48sH1g0PMlEp2NqxEPHlagQy3dfytaAwLm16+TFI5MzQ5CSVaIjcgJeD5ELOynWeC1beEkkB+g/cu62heGWoMYkOiPFzAbg2ctJBZ0waQsmk9rZUWt497lzu/oBPEuic1LMVAPie3gh0H42tkVSKNFO7tX4jqnlPfM4gIPotJzRQqMP3BhiIc45hC2OLGRC3r9rcXF+cAgn1xWiE1NVqstt/cWkQmDhUmxLIUlVICYf+7GDWz+ZAV8xNSo6NGs0/O8nS6kI+cSvUOr/ZBaMmmLSoe/51d0rNjpAW6q66OCUz2lrJIUH/kgsgsQt7agfU3WKAGobPWbhkkVL5mXUTEiiw1Mxm9EI4tqNJS/C2P1wQr9kkuS5A7RPnjxx9oJddp0TqO0gOg9Xr6F6Q+yGNxB17TJSEaq070v/KoRQSlSXZs2ePXvW3G3mTgSILkkU6lrFUdwTV4YbYhca9cyvJRSB2Gt8ruYR4D2pPu+hR5s2b+7cudtMnDx5QgCIUSajd1eqCg98MD7eFMj56XK8iMD+C2miBr2+mlLr9BnTZ87ZbtuJ5ba2Fqo9uqqp33GQbslO9YX/aYwoS8T+0VG8AXYLDXl48S+oCHWPWkTTto8rd3Z1dSc3LIOAzLIsy8Ko8ePGTZw+Y8b0mRPMqDM5EqJud9xdQQBf+FSqej76P83pVpaI/3NjWN3BlOkNkfgxxRpHtaVm2WHpDlPGThrduT7vjq2yUUFtbWPGjh0daNirRL2Ou+NOZlT76hUfrbrbn1zpmZ8VnYJpTIXqz5ZijTi3PIQXEThiEmoSCHPmz58/b/bMbQI9e0pdCAkh1artVQ4OQfS4bvmKZ5/qaGkfO9Dctm8McFBHgJHG52gA9kWNQPo5qQjl4+bTrDJPAO2TJk6cMWvajGnTZk5AgWbsXv3CC6tXPv/MitWaOXXGjMlT5s7qAbJLomMwTc1S/84BBYg/oCIwDsGbBCQZuVOtckvZShMnTZgwfsK4cePLo0Jqa0nZaBd5h1LH5k0dHR3r1qxds3rNxjzmuU+au90Oi+aOGTvWABKY6CT0xFVUd7Bde65G4KnrLRYhDqHJhZAn71pv4zY+VHF6VeVSudw+a/722++w3RiJmp4kRKdh2qCf0ABj98Qacdt4JamYfcY0Wc+WZl0x76GVzy5/8aXOzs2dnUmVKMdKtKjU2to2avy4idOnT5s+zajTATEyMa1zacvqTowrALhtZSkVAG37oT4BKUzdP1DtmzduTOruFoQWtVnL6BI9e0RCqhq5KNIaPauo3kgsRQ059/6DYtijzwAxd9yDtdOop5QkJCExItLXubxK/TvbtnSroVK8k4J37zsiBKrdHfAaqhJihGVax8cawNh2CdYIzh1rMy/A2bXv1ClGfqYNOIPVndKMpQUklj1GETBxcq6+1gladSd9MLKEqIbKLz3IaMdeTiiANsPtqQ8YS2enhkjc6mEExubnYOVP2gRPru4Lael8GnP+tx4NB+2nl0Bxk8j/hzedchaRGkrcuZ5RijKoW3BHHyBwcJs35FnH0yNJPIMCOGJiWV8wjpqKGsFZho0AtqHypwvgfvqg4qj98AIeYbRtkhU/HVVrV4TUdBjn0LjzxIgqRPG7qWrDXXjziSOnNwaPptG0NqXyZyM4G+8lNR+0vhJrxHmqPwqj1ab0FR04xr14H3DOQY1AvjgKUdfFD3QA4mkybz7Y/qgYGvJlNBz0u1b+bAKc5x6zPqA0+nyssSVGWtcFUEeN5x8jNR/wsj0roRFWR7NGVAHkuK17hDw1n1W2OZfGq9HcwCh+NwJkrCCoUoneXARetTRaAxobRWCaAvhNGBi7XHjTC+4ec0lNZPnUk/9Hqi/csBEYF0lfG+ooOa+qetKSkz9zY8Wp9mYhi++4Iqm+yTXDy5YuoPVkctxvybmT5ORaZoDGbHvW4fssLCNwkjcBxh23UK84hJEujZPWUYhUq9FVD3d1khyFqkAWRPWEJfsfvsPYUQTrrWhCzj+7gvcU/NOjuULVXz9KOy8cNXbsuFZrcGDbItY5ckBP1RKw9u/yMfsedGR3xHsjeRlA6vov1lMp/hcNZ3wGsX79nR+Y5aJndYz44vpqy7TxL5S2W9ErycK/dpwMOBufp8eMozbaCNAB0rqxdPy3vBuEEDI6R31BER5RsPgQveCEJz7/zKILAJw0ihxJRss//iiGlp1eQ+uHd5LKjEjdhmI9InOn8VTlWP6VK+HylvNiAHz0y0Y7jrf9auPLGD6FP2Zdt2OMSPVxBQGeKFAtVESwe98Csvi+N+4cAdH22m+fuP28E5dtPJvhVc0+gmndJC7+bm7uZOo4KRdXbOWh1O7q/NlliJTs+Y98eQrVYuJrrn7kiav2IAxl/dZvYol19Ot/7+9iBOrm0FRKXzznoPFdf1CwCKRw88Vfl9VIeYy5U2Dc/MQ5TOsH1p58/hFPLh9z3qirs6SjuZyuy29eB5ac6hh+/e8StS0LIVNjgaXfp+qxnrXqq21d+cS/HnI6SZ0Oayog81yhmx6Tfb/LahW+5TepOqxrNzoEotO0Q03mOfKcnh2x/iViKkrimXOhzzpPCETnCc3v1O2Ihx8lpGJUM4DE+nfhI4EaF6uvXSdLjUnVjQstCmFnUz9AUL7HR09x4agnR3DrB/9lcYQQdPQHGKm85IPHlwCSgwxcKz7/i44s+oihjf0CWJLPPvfMmeNaqNm17uGfXtaJcEYMd/QTCAfN3nfhNlPMXnrykRuflSNnBPGm/gKQEelZ5omRxE5HPwKYSQJ3T4mRxv3MiOb/35zTgUbEwSZGym8cMdcxYq5zhJyII+PcKoUJBwQ+Mgx1FiMlp9oBCxoJRmZFSKk0advtJ4T1jz65cT1QCiO+FNuyAkQ68FUnT3YBlQdvP3+vcRCyEV442xWAPvmRVs8FeLbbq/2lGz68GIKN7DJOxhuxdMEHvJJlVHtK3cnTiitPCCCN7MpoMMvPfl9UidqyzFOl4r7pv6ciTCO2YMaBqC7lE15vuVHtLoS7e4zu/t+jM5QpWC2NtOJMrC5jyWEpUJ0rEKNFr07Jk19zIEj0UC4FjaByDsNVj7MjebnKs7guay/jee41U/TNPz6IpTvVCKMAZaaRUjDjsGT1JLbFqNZPLt4Yxszf+0lP7im5u1eSr/7rs/shxIx//vL9L8uoljQCSj7meEI92GiqXf96WxdANmXvLz7tyWNy91Sp+E8yAPFR71r3+OWvnytGSCf2KlVUT+qsxaNd5Rx5DpRO/MtGTxV3j752L6zG1H957u7pvm8dP3dSGAFl7HSQWx3iKRIgjtj2iVKMIIGx7xUveUxe8Z8gAZR4i+fJ3T35hqv3GAGlfOL+qA7jPsyFmHX5W2634AnADI78m1eibzqRjGrRfovn7p4qfv+ZM+sx08gkYN/RuXpK3P3v/WMA0l7XXXLRIwIJCBltH17vfnMw1SDjjblXR1+zB1ZHTWkEUuCgnanDs5W//L5cYGnyu9be8vM/IhSEQuD0Dv8YJXoM3ObJ3b3bP0W9x58/PwMw0wgjdY9dQr0xcRRRVDvjj7nwgn3G4imYJ3FMx5TPqyfjRHd3SKUVP0I93f2TypPfP2ZGllyZRhQROKY9qSdXmjObWoaLKe+88I17jfIYRH7I/VPXUPeNnhxwvrICrxUOOX7ua/64YuWvXrV7izOy2Pzl06jbKUXMqZZIyff85IfPGO+5nBu/Sr3iYM+rCMt/Qs83/b2c0phzf/G/x6796Fg0kkipfCBeD2LjwzhObSNPo0945xvHuQfD62v/vedV8JUNVkNcBxbk+YSXf+K8Fh9RhHEGDRpr/v58gFQDQpZStui1RwKJugMv99wA55HvywFj364AKCt765guc0YUiyMmNkC0yp+vWCN57lWggPvC07dxr0+0XuUuQHy3K3PEqLtwqhMHk8RI49ZjsXps/+CJF751yaMxhDxVgQyx+xxUFxmnVwhA4r8/IVfwH66npthlNiOPndPrMfa7fFmEYI99+aK/davkqQpQYuposrpkXJ8lgcNPN5SCn5O/wavks/ZEI49g6cRcPZTThd88vRtw07M/+/yXnsAMrwKn40VCPWSc9jIMSPb3K6gsePqXAlCyAxhZFFOVmHIcoZYx6va3fQATpBS07v996+2/rYCSU/OJyageMt7S6gCJH6wZe+19M6jBgeOSGDnsPL8WB1L5KNRDeuWapc+sJQhIUYqr//zOz9xdoXbi3Q2Ilx2KgFi66Y/vWnckGWDsuDtiaFLmdI+tpPbuMytWpTxd8stumGlRAJ4QWvGVL9yKqar85DRUD/BOJWpet/ybBIA07hBGFjsrH0SA2PkgarH32nM8Y+wBpYSodses+5p/kgCSn9iAWHpKsirji+OpfZDSkIQwv7M/dVBVCfviVc57bm1D5OOOPITkEjVjIJ9OqvFjGnR7g1IVyakWe+zkGoIQhuOHa1cTHYwDZkYD+fj/fD2VgMCity52OcEkql/1mu4M3O9UA4E9zyVUEQQon3ggYkRlykH9m2j56CyC8gr5XjsigF3X7oEB5t52zGePnGAek7JyRvrhT/Iy4OtDA3LOH1NRVY+HldOIilhpEZByTJL6J2fd3y76y4ObPHmnf5yaP3xDd0lUO4L7/nTzE8+uB1rO/FHZVZW3NuDiF8+VUk/JH1mAMdQozDEqlX/evdOMbaYEqnMhqR9ae7XZdid+9NJ7u3zVTARj1nZOj7IqIHmA5fc+/ULXqF2OpbZvbmmAWLr1Ouq0rvPIGFHpeug7P5wyecLkmQvnz5k7ip4d0JMFVGjJgGzewW//yxUAbSc8fNKHxjuqASlaoKajKvdnrBEiX33RvJbzAzKGFoU5R/UvXpdwrL21dfqCBTss2H6cqO1ZCD0JdFKRZSUBrduLarHgSyfibjWAlNyRgqj1dxpO2f1XoxquB8Yy8jJh/zhrVbni1FaYvfNOO+0e6xnoF0BOuvWJ5HQiAFkQtQ13zvrcvBAJtRqN/sHGSNxJTSe+EY28gDy78bTVlgQ4PVcTuxZml0a2bGsBpCSZ9ARRT9VSDUD4uLefu9BiytSYe9cC1BBYraTr72QIUZibkGd/PHMTdQpJOQMMTO2cnJ6anh4H8CRJTxDvqX5TnHPKWfs4SdZId/kz9LLQ0IGv5tmP31BPbZPM2wCNzSMjYwuL+xe6Wd1B68noomiF6FP3O+70cS5wUJVDCn8ai3rHR2rgevtFITawqkzy5ABdrYGd+/fv2z/M6gkJrQcXnYWBWU5p2kEnHzHBRb0/fi9Gbw8RCPOXtUctC7GAVYVEYvXm3MHlQwutgR4BOUmmtULeiRcGRgLaDzz8wDntbWVTvqnj1m/eZGJIRIa/JrvpqG55QV9U4Kxuc3v37t4+Nj4k8LZMtiZUOullOdWjFmw7cRTrn1q2nqYcGvDZZO/7epb3zheVpJwBm1icXlyYn+tzkbNhj193r1XLlFNblnwoROY3TxzzoKVmWNVkSgnoHts+sffA8kzFqg56HCrdzQBIEuDJacrBP8ftLn/2kzS3JPMaoKc1tHT08JFxBJBdUj1OVwdupt5r9hEcrnVLnpA306qSSKxqE8eOHZ8fGKqAlGRSDVGePaobCKWgEUHE8H+fpq8KnFW79x88uDQ2MQzEaGZVEy5/8O/n7DEesHJQHxI2RCDznshPvqVhVpeknEETS4sLdth5ToCUTHIE65fddeftDybIknsfcTqHCDz4XTRBySzXwKhZ2yzYY+/dRHVMXob09GP/++dNLwEIvNnkE3Y8ERw04kMcWm0Ct0qyFIFs3Lj5Bx68VzvVeV422Lzmset+/0ACZO7eVIw5ey+XwCNJdHI6z9FMJXmiun3J/vvuNn5cGeimJFyPXnfdXWs7wEJK3jSJJ9/FgkOP2X1Se6AM6uAwjmBNpKbAqblwz6W7z5o1GqgQzNVx8423PfIsBEvJmwOIPPA9H3/gYUt3OOrsBp2bHk7P06Ql8wjM22XhDjvvOBW8Qgj4Xbfdtez2HLOUmgSkbN0fKe9+6CsewTo2EvtvoOZUbWYxApNmzV2y9/7jXZ4Hg5UP3PqX/3TIQWoKT7mCxWVfGT2FOjaMF4k0dckUE6h93Oz9DzpwigvAN6y585prVwEEU68BHlGwDjo3vRgeQs2tpqTkAC1LDnnZzmPHGYB33fLeRZMMrBTUa4BHpA4OTo+2hGqBU926ZK99t587RUDyB75x7HYZWDn0HuB0cvZ4pVXUliwlGLvbrjvutNvM5O75gz979z4ZhKDeGyT3ISkVaxcRrVZm6gbGzZ7/uRvWe/Vzf/3MARmANOiX0NAU4xfwllMtsxRBo2cdfcF/N0ZPvvH+bx9UAjDTIF6Kxu9uIHrU2EylNVVLEiAmnfKtZStzT77i+0dPKwGloEG63MPdbz31bpI/Rbpp8ZIAxJzzf3TjM9F99ffP2CmDULJBOM+z5z9/+A8YihYrJ/DWVttCAMLi137zL6vcV176jr3KEIIG11zy73/7IW/d3I27E6y8aG0BYFnZgImLzvzGfclf+tsnFlMtDZYlwT/ef08lSzkVhqIHa1FtAqBQMiCM3+F1f+zw9fddsFgAZoNgHrP4xKcuRZYjKsidjBOI9lJmVJf2/dztqzqf/95BkwQhs0GuPGRP/fxba4Un8CEpOI63GdUSNaee8f1lL6345WmzQaVMg1fJW9Ze+r37giVqVxiC3jyN2pCaCgGw3d585f13X3beFKRMg1NOSFf+7L+xlDt16JsDR4NG4vIq7ayyshBTj/z0JX+76tWjqFZpSjL++ekyIVSos4L0jS95ECQbNOpUWwMolAxoW3DcZ669+KgxAZAKUkrldN9nngdLTgN8g/cUMsWXHvnDzucmGyR6EWtzAFkQQNtO7/jBu/dP9AKmMuR52R781c0IIvX6Fk9Jrws8c9dNN2EXIwaJe2iXJUDMe+6LLu1ZqkAqQImWp396K5lFGq4k+wamVBQ2f+RfTwDMHT9I5HFsuW2qlgXEyPkzy8tjFF+HsOGiv2OlTgqs5OVvUMKguLn3uZnXQybPj2CQWFxaRW0UoEYFjEztnN3WLDpSIP3ie4Esr1BI5BuxKxrcOvBQz+shlFKXZ7wc16CQc3GT9ltmYD1dPVW5UR2t8y+fQbJuiq3kWx5PsbBy+fxjewACKQfl5d0ZJBY9xPYLkCi6A4ur9/0sAu4UFbcwSqoEpi8eO4ABJme7xUM3DqboqVDH5hVee08E/vdvDhJwp2Cnkm9R5MGYP9I5AUQXiJ0tHYbbYEni0OxT4IzOodfYZLIDf/RwJ2Zd9GYlbjGEIVvd++yF10NhqcbLVWQpadCkx9989ikQEwuvrUkYXb/ajRWJ21tLqOm5e4rR3fP/9+btWsBKgUYt7V9AFNJUXvWfh3tlfDU6mlII1bO/85wRcG5f8095Jblv+N8XdkdgJho3TkznYhL58+Ore8GYJODmZSg2j//zI2AmbnutbHqeKu4bb/v2gRmAKFSJI6RS4qX4V54pTlVnAnmZq+D5/9hHgbj9an7ulSK/9xvHTYAQRNHKkycwSgl3/JHHvTiuTTqZjKA9f3iBWFSpz1pqYsKwOPnUMXMMlQO9KOYPpWIiblwXnoyFweyUi7kF0rO/cwkrktPi5CGI9b13LwYImejVzEmyColr9cWkzWsKE3M3q+Re7h2svvCXGAGnbmtlc0reEbRy4b49GASjl+WD1zCK6Z13Z56exQsyLhFwbk8d8cr+ewAzUce11IRUho6wcfHoCwZgoglHzudiIr5DwpcXFvgK8i15UYw/eogQXdSzmpG8iAzsPnkTIo6oQ+csrkLiPHEdCZZTeOe8awlTMf0fF6BIJfVeK1ETEQZcf3L3rUDoKGvU7QVEIU38sBuqvBixOk5yKyfC4N+ej0S2qHurJZqmZAbeefe5CsRYq1G/2l1M3CpXIOAZCl89h5zKPdqtU//eDxZqNKClslkohcDaxDP3jhoEaqKeq6ViEnXJ0zjiUbyopcXKpzwVNtt53xpgLhqC1By8rFhtqPOxwwAmp67FjkHK6W8rAWAFVtQlXFoebOrRx7BgjmjMJuGKLB/c/dF5C7gQdS72WCmJ2T9vJVVtftZSIcYkcicZ0P+f+0dS4SUNK6NsNGHIeu861rdphSca0ZimlDrXvZB5jSfxQmDKmyQz2cF/PbpCZItGNlJDyYPB2qN39910K5LTmIGJUpKyp/6EA94bk3iyvJbkcw98KWCBBjfKBvJUFFruv/fNQAhGA+8oJfAvSp1UdxemKeRHqpaqnfuTTyNgRsOLasN4el3cuHziqTKAGY0sJvAi4mHDFSSqjUcLm8SNlaLWHv3Bt2PRaI5VrCFcRTH/3IlJLCYaf4xSet/K0F1DPE3mhazOIBeSAfN//VVvwiqBZlmlAWVYOHdXX8Q6aiWNrkRfIRE/wKnpPP+kFSEuDHBgeTDZhX/ZB6EINM+tunMCrD32v2+CUJRVmmAabBQSnr+JVMdjFAFT8h/3Ai0e/vfjJqLRTKtYPcmpsDL5/09jmJVOMxStQhLDhfTsYe2DpALEBN6bvLD10/vvnQGMpiq2qGOlWJTnL+8ZBDAXzbJVFRG3rquQ18K4l1DIJedJRKZ2PXt8w4KLplvF6kRgRe3po1NYNEc00VajiMTSTwNOj4l7Vpo3BjOOIwzUfVfnADGUoglXqU+ZyRb/tetNWCXVaKoaJPHA7wixnrufogAxi/mMPARYeuCBoVVCSKIp14MwzBdn/u10AZWyStMdqEpILF0/lkTPXt5wD4VO47JJRfQbFx98dA0CTnMWW7fNiVC9OPD4VbDoVZqu6KtQ8fDA7yh110HiL51WxM3bNrM8U5umpNfb+uWDuwmOIZp31W+PE+Q3nusdx8DcacpNo3x6uP1xIvVGrn8Rb0Sx07tNC8RIJW/LlIqCgT3ds1hMTnO/PW6mawuP974BiwlEk25QQI0/U+qqy7OXbkMN2dztWsx22700ZirWZgmDYmP3YyuGVcqSZn8bZFCOjD1x5A2ESi3RxBtWPlzPXUVO/ZHvUeDtWumiw8aPDoT2SiKAd9/T9XqIoazR/LdeJWFQ3TO8p+tWCkWtpKkb5VNcTWjE+ccjeAPiev92LMTvvIGt7uSFsTG66zEMAjXR/EVVr4Z7QXlj14kzF4MTUqLJ5wJC5UISDec/JDU010O3XfJx985K0taUJ3td2Ow5ta8CYLTMXgqyV1DWpOvdf/jV7wcwWmCp3OHRL6NAsc2HsfpgXc7AO8QjrhznYuvZVRSp9+CpRYjRaKW9FHj5LtfIAz/ywTdAMFqj54/c90eNAa+a1K26nI1xQLbfn8e78B60VSMDC2PPHioD1pFosd1mMoKO/PJXdxRYMFplyh65Xze6EPOd3kRWF2xkIG7poreyNSy3YDD/7KPrAWIsq7Tanuwl5NGoPnPXBwIQjNa56bmj4qdiFGm8Ym6y+jagARjYhae3WSWv5JV87ebdJri2QuReiWzNH3voMkBUTbRa0Uthh6Qi+uiTd0XDzIzWKTYSyhrJ/zYRFaJYOoa6nY0DNJiyX1iz7qWX1rvPuHrvFLY6UioqYaPv0pEzGBhKtOTuV0n+erve/fRpjBa8kcib8jdRoljzJUtRHbBhoBYiNa3U3VJia1Nulbj1YtfFRQgxgWjVvRSQV+Lo011bWCxbj7JHtv+ORQUB+09IqqeDgboMHPec3LcqhGHGyUd73wTW4TWnld9CPPv/w1AUZaIVr2UO40OUKNzZDq8nH7BtlUqKBrXe/zz0dqCgrNLSdUt5+B9qEG1LtGJxvZo1nH8ag4pTKo+j4rWEDx0krwQr56af/n8AC16j9Xev7P93DLOaaNG2VMsa4hsI9GroKnmsAWmIwMvwukD/xZOHMcBwp/WLlfcDmItWrZiqWYP//Wp6WV0fj6GSAOFDAXIrCs7sG70KoUgC0Sb2lqNLtPblnJH48o/2Fvr8ybeUiO6QBvuEYcaFhy68EaPDa4m20kpa/lzG8OoT34F6i/CnE9/1THA0uCcRDPzC3YfeYVDgt2g3RasX01i2qPnyv6f3Y/bChXu96t8RNGinRDRqS5cf2wVgUVWRH8UU2TI3/+X7sN4jN1741UHbvPLXa/DBOHevGBvDfcdOYYDhTqbMGXzXn1a5CUhJsOqys28nDbpJirB64cWu49ewIpA3p5UrjIf2pIrmtSAG1QUGMLPvaP/YoqlSGLlzPFeYz74Q46lJScEA9e/d1bNchWju5M/55UwBj+5oPyXh8sJg83rPgY/2myCYiyxaDqAcIba/EvFUo9ypQJocPXe8cwXAEPk0U8CLRhNPLUoeAqycOXfx7KCgcIm8Opgn0vALeepQYGyvnj/aPTGyAqFILjKr0Z8lxEsm0FMBEgoGUO3r7Dy/tCKIIUnk2AEsP9jKxAOUf5dUGLCxPHL8+MkbbI+SyLUrI9GzQ8UzJ9zKiMyqvCov5f2Hu6gAafHq1KXuU9fYbiDyrVi9hHKD5aN3YxTYTiv3B5IUArAyPDw8Mjx4AyjkIv9uXsIzg5xn9NQqJHMOWBK7Y0fuyEu+AutDAoyXHLh4sf/K7HwJVuAucnCkD2WGimMPU1FI28bNPOrEPUpUO6DmE0JY4CU3Bnv7L/WvrG4BVuBycrGYWu9QXvDmCymsY/c5+tBZo9tFU0tIyKKxY21tY3Wkt7evb5MdLQiJvDx5Cc8K8rOXahUUOdX5ggW7Lti1xVWf1ydAIIQUo7Gj1pZvrCzPTk8MDy7zkgYiPyvM5Qbn5TiFVcbyO+6+u/KFHWKVAw7IUD2v1G/cWL6+MD+/MD8/t1iyvUCSyNaK9BJygvzOA6i0AMGq7nP2v76ONE71QBpUdT9BWg+bmxvrt9ZWlpdXllfX19bX126K7VZBkovMnbjnxeCDB6q7HsYpsqY9P/nclUEnrS0sLy8urSwuKiWETBIoWUqeUqqJl1mYkCSyuHPXUwwiGA/MYWVmPZsZCITI6am89gEGDy3vuoFRgm1kIuMn/lGxwQLBwz21ipBLJq5fjQ8SGEdvUBHWsuUPM1jovc8gsif+hAYHxB1LtQKb8/vI4GDd/Sih3XnodnwwwHhwiyuygf+cNAigvO8sIrSLv+TmAz5l7sODm7P890oDPuPCfjeCu22+mjjQM6bvwIjvy54qpwGeczdJ4S3ZA39ggCc/eToT4I1rN2Y+oMt6kBAv532jowZyXN7qinCE+NZDCAM3y/uPIUK88jEfNB+wKXOdKIfxyblooGZcGM0iysdpb2Cgbiyewgj07x0XB2jee4VIL+a9zW1gxuVWHelw3jQqH5DlxRMo1Bl7vIk08FLiPE6sF+dMyAdgnBxCwS7EHU8kDbSM3bMY0d44zRhgy8eOIcK98vJ9+MCK6gxOwJefJQbWOjKcCPmuf5AGVC37UczTYUsq7gOnGC5FhP0b3bU2SAavih725Fuvs1EKvGyHRNivOLxMtSEyXvxsjMAvbg65NkDG7hdhhL526zIb4ZqXksj7xb45tOERr96ULPPDOdZTb3h48V6M7N+7juEbm8DuXRj5vzG6F9vIGNt3YpSAxtIM2sCw5WmIUnDfkNuGpebZJEpBZ4fyBsXEc6KsGCCznQ3rs++mJJQPj21MAjs3YyUBYuvYhoSxiFEWGqNbNh41MSBKQ2eoC7uzEK1NiBKx2YHdSRitMYwy8fWRO0ij3SZQJgoldMfAXW1EubhVojsD0a0RJWPa4I5QdDqIklHcWL0TMHp9jLLRuLna/hm9Dkb5uLQIaudkdDuUkGL5CsHbuMRqh1RC4GFzbIP2PTHTpZgU/bPWrlW9CxSUKhiYBbVjlsY7lZUTICZOeJTaLInliSTKyhQ2T88htVUquTRJcQHi7NlaUBvl+Kl5TJSXgcXdN0ztU6iPLATKzFBZP9ZFgdohGZdPdgOlphKjTy0gqe2ROHGapGIDYVv799UMb2+UwspDl0GUnCLM3v8iJrUxKfDFIymKwlPA4UcGDbUvYfmBLyBRfipY7YUHbhSGb40Izn92wYwyNEWmH3i4NDxtbSRi78DhFEUpKjef+KcHNrhS2ppIsnTkwJIlUZA6hJFvXP2CQkxbDYPA1H+eBImyVIbuvvCSp5W5bxVI1dr+/b0KUZ5KgWU//M5TMuFbOhnhf396MlCqRg/poZ995BY5ir7lksAO//hJkEoViC5ffdl7Ll+VsBh9i6Q6hPrUT/27WUgUrQnQrR/46s1rlXmetjiqaXWP/sGfgSFKV0emZ775+R/dFrPM05alDlX96b/5b4KJQtZKQUxbfNQp81zgaEsgJPX/7cPbiJVR0CoLEZu06OSTZgJESU9q8mDS7G++qoVVRmlrikC2/+mHzRwnPJfZk5TcK7DW/wP3YESjyBUOhMVHHrBgbgu0MdOTjqcQKXs6HzkJGCWvzBOat/eSgwdHXTmb9CQiJ6L+I8cOL1gIlL8WPIfB6fkTZ040WNVBTzBhbO9/4VDPtFvhiTLYgtdgreE9Z88e6WfV7BJ6AkgoGED13HN7J5cT0dz5GGJJiVv7Dx0/vn9Lq49ba5cktD603QqAW6uzJw50LpqwIOdjjwUOIJ84smv35LaRrRW31hlJQqgQx90dLyJAuTR/9fLZ05MCMMTHMEvmCdD22Z0TExMT46N9fNGUANXjgEzU1PWrs1Pj4xOji0BEzsdCm0wpATQ3bR4a3DI+MWXy5CmTR1No15q1K597bu7qwvUb19YEFMHd+Rhq3eo1q5dL5XI5C6MmjG5p1+jgQFfHpk2b1m/MK5WurorYHqIk52OyhRDZ6XULCCE+9lt1eB3qyfmU/zf8v+H/Df9v+H/D/xv+3/D/hv83/P//iQVWUDgg0K8BAJCBBJ0BKugDKQQ+MRaJQ6IhIRMZjZQgAwSm78IKcF0Rc1+h+p+VG9LUJOOf5v+DH6Res0s7pAxEDVIgifQv4h+DX6Af0PgQPwA9yL8FP0A/1WGl6aPIAc7B+Mfg1eFRCflv79/iP+X+//kVWH7f/a/8d/nf71+1ny+cS9OXh/7P/k/8h/bf2v+Tf+6+7Lx16d/5/+Z/H74CPJf1H/S/33/Nf9//Ef///1/dv+//8T/A/6T/0f3X6Hfz3+//7f/DfvF+///3/QH+U/1b/O/3//I/+X/Df///5fkz/P/9j/e/v/8iv27/6P+Q/0P/o+QP9L/tX/K/xP+g/+H+o///29f5H/j/4z96/k3/cf8d/xP8d/l//f9AX9S/tP/O/aT/6/GR/0vct/0H/J/8HuDfzP+//8r88PmD/4n/y/2f+8//H/G+0T+rf7D/2/6n/V//v/e/Y1/P/79/4P2u//f+++gD/zf//3qf4B/2v///4PcA/4v//9zfql/aP8D/jv8d72Pi/6R/ff7Z/kf9b/hP/l7M/i/0T9y/t/+W/1n94/+3+p+PT/F8aHnf8//z/9j/nfZT+K/ZX8j/bf8z/zP8L+63yb/uv8L+7f+b9D/zT+G/2P+V/z//a/yvyC/i383/xP95/an+8/ub9o/1f/a/2PcxWw/5f+d9gX3X+kf5j++f5D/qf4P4AvfP9v/jv8f7F/sv96/4f+K/zH7K/YD/VP6x/q/73+9H+K////K+LD9qfI3/Kf8r9iPgC/nX9l/5n+R/zv7nfTT/Pf+f/Pf7P9y/cZ+ef5P/xf5r/d/t79iX8w/rn+8/wH+h/9v+e////z+9z//+6H90f/5/xPhh/az/3/7L/mmOi+ZeXhBRr6L5l5eEFGvovmXl4QUa+i+ZeXhBRr6L5l5eEFGvovmXl4QUa+i+ZeXhBRr6L5l5eEFGvovmXl4QUa+i+ZeXhBRr6L5l5eEFGvovmXl4QUa98z/lvRGvovmXl4QUa+i+ZeXhBRr6L5l5eEFGvovmXl4QUa+i3yukIGGCoNvu08f4l48ZPYkvsRFfLwgo19F8y8vCCjX0XzLy8IKNfRfMvLwgo19F8y8u/nvQefZqvvLdoQEl57lb5ZEUn5zoJfMvLwgo19F8y8vCCjX0XzLy8IKNfRfMvLwgo19CcPQKf4a0p+Ep4cyLZOPjqVulCTCUwK3VOgl8y8vCCjX0XzLy8IKNfRfMvLwfixrmKTT+KVwb+OO1H4p/CM0QgaAucv9z38I4kdUirX6Hpp5mJ8/knSRoPcNaJGPktKpN7fCV2wFVNwC3tLP02f314187gPDIACwyLwTJShvv0S1rtgo19F8y8vCCjX0XzLy8IKNfRfES1s0kgvj93GMTqknoZcGQntkJeOpv6JVrrAbllL0U+1xOl9I8Tm1dSf7v7Cwl7txXkbbK4UhSQUsXlts6gX18NPJonV0VtqPOExXtxed2ci/JvrvRs7X1GZ+feYlI/s0F71yYkSQAFOMKPbtWU2sQn9aT88397+8nHb5CWeXGq8et/lZuyQUa+i+ZeXhBRr6L5l5eEFGvoLW8IxnPJGSmh+F8osYGLHWP2AIVXQUESsLuSml81asaVbgkM5je0t0Y4QeTuk0dhEFfP0G8CKyG8bJx7lK62ainLlZ9XRTB2tiun5KYo9fhZPwjedmskUsCxT7KLUYqPQre0LADdEAfALBbJlY0BdCKP+Fs5DdiUSeFs5ZFbqnQS+ZeXg/dG7wgOb6yV9WHRW4DYjp2hJ7S6fe1yONKF5JXtb2gbMao6a1jttb/uOHR7KWLtRSf5S8pADT//jNT69xkypFFfhODFiJh5VYAQhd7RFiQn9jg6Gi31P5EUf8LZyG7Eok8LZyG7Eok8Lb+gl8y8vCCjX0L76UHcsu2yUQjHLQOcl4jfyN/0XoZbzL2kaPn3ZAooTjoUsCw8qisKS5snd9hwIPZNjEDGyNJDEmKzQd/3I0UMBn817mqcu5qNUbbBzmVdz06LV8qmkCn2n3DQx/gZa5Cy7//gWzF6FViINvR3zEYjMEyglkFP/R1SCjX0XzLy8IKNfRfMUWpsBf+a8HJp6R3cSUVAYeivqb671lvj30WKVk9iv3eVg7vkz428GVw3z2gDTaNIDzp7v2yQS+R8JaXKwUgs/pEATFo6PYfb5Es2ztoHL8n1YBpRq+eVA/iwVr8wFZ3h262fWqAolcJKz9bPrZvgKHi+lcO1Cf2QMMwhtmabwV2eSjsAFk0BtVpCy8qGwBa0ar5lx4vedBL5l5eEFGvovmXl4QSX7wHPl8tnirrqBU4Kp1SzaPiF1OnRt9ZBgCtbEYpNlP25XgA4tkMw5z+g+pwdB1xc9PIZ0gVSMPFbvRCBGnQd2CFp6nqIxO16yhrX6hkt+lPmItHWM0A+xoI2GH61IzGzY2zZrPLecWDyqfo7ykwu+iGE21S6yEnQTqLUnL4G977/hrk5sNbAUy7+xHwnvTyr+xHzPl4QUa+i+GRGPRQtFxpKfSeoS5b3uFoEMTxRmeYxu2vuH2Olj7IRK9wNhK5sRbldiHB8NMDg97luEpofjXndvgYYcOzFd16kf7HK8Yvz6wZ4MAaMgH+EcFYHQ88RXFRj9GJIMO2w1xv0awIQF9/6aqR/DQg4wtfa8vXmmvcf5+Ro01NTnYC/2h5Ub0+JktWWJv2QeRe0k7DPCbHIUnhbOQ3YlEnhbOQ3ZFUKNfRfMvJUsf7CfHbKOVQvy0WT1rEz0h/wwEOCC8pMTcdLKlEgjxCwlaTcLhxgOX52dNwKND3C61ZfFFwOSfxfixF/cGNODNsxiLdCbR5TkDt3VXhtwEguzueefixPJ4dpSiMsat+OXZqsWf/ExRLErI1PEj5AVicYAtWJj5OuCCPRwKw0Lgn4E8UuzA42XzLy8IKNfRfMvLwgo17a2fpzaw0IMCXzJevpf10i9dSWucwUVIlpWCao9KOcvvIhXCEnez1rG7UXCSjF+s7j0Yr5KvnuMW5sDihSMb6PVAtm/sNN+j38uXCZ1lECBtMUrEzA0HZ1nW43XdVoq5FREJ4zs9HIIVSIv0dw3KezTm9UYbZX78F4+Ytv6MXZeRjp4+UHfBMbCfp9RUd0SC1tVRC79dJrPQpovmXl4QUa+i+ZeXhBRYFbggF0M/qYQt0qI/qk+n4RFegCwrhSfyu0CNNeYp+FJuToKydKQg8T/W2owE8X92btg5umt1Zlc248vgkoGFC5i94KHS2t+cmpGCvN6aMjRF2hCHR9g0F2qzq1a2f4E/XxPb/kI753BayhMQtEfODoPK2uJA+Vg2VOTDpkJQZBpuMDJ/PcqJXuHEOgGfQFag++khALku+lMCt1ToJfMvLwgo19Ba3gvqZXpfyoAtePfO0UMFjw4TEBIbg7VHgrrnwLybi+sxNOVnPw9skI7TJDT7L5tbWRUd1IN3dLDCcOoqxuOYNGgaZeeZBXWN+F7eya1meCY4wAtYXGp9eXcA5nOrIituQs/c4CVEzsGUTKg9bfRHddGY6l5YLv2bQPVo3D64tGn0DN5cbMJtYEpgVuqdBL5l5eD2Fqa41w9eSkCG8n3zc07lsN6t2Efb6fL05VMMX1QUH8/6hxqrQ/+qA4FhQ87+DkMl8X6Vaf/95fK+MB+NUm68bh64X4WMbKoy/sltKg/54Jj8ihtgNOhofWl1XMfMt9c+0pG5eb03hOYED5ndKm91YpXEjg+JyeaW0j0OKpiHJLsgBGfjcc0n5o4dRDWMdm+7RC40UVO9AeIgep0EvmXl4QUa+i+ZcZKFFNCeMM+c2RQwIU4XGOOc2hL9YWe4aj7uT3XI4bX6btN4gnKxlw4hh6Uv8eiKLrhroCIhLQBSNmGWCskdtuXtwlyUBi2DibUnjGE9whmht0eQnNewwccwC4WOjbGudUlV+TnU/L/xe3TuCq6zsF1/wUbAfZw851j8pZdwNfK6wftX8w/JQwVd+D5eXhBRr6L5l5eEFGveYBuvEivJV+agvJnSMr8o5YzgTkrqO1HN1EnWpDRN5uhHsAy5Le4kcQeTrG0YZHmyHBWBUC31sKNWaO4XxyCDT26dz6nZfCHsnUNw+dqnOzjqYzT2++YJ+k1Z6Gpqs8Mq+ZmzM41mUTc7RnzEHMCndeeGNj9v+tLgx6cYSu3f36+TOstoOdZLU5BLTGqSCjX0XzLy8IKNfRfFSemLUN/COFpnSpdUMfjUnhOYqgIZBJrEVbVrqL8lH/qmZs+KE4D2UCLlVKR2RaOyObCDfDzD9fLy0k7QpK7vvgoYS9556+3szZWCJzCbwWTGzwhUnY79JJnor4ik0brDeV5Vz60n0huoLsfxo1jb2XXLyDbLqSuwJERoemONa3HDfgCyI8J4jtOzRHBVBL5l5eEFGvovmXkSd7bSp7xncj0ekjo+RKPIAVkMI3rrKPbVVNA/zl/xk1CR2qoqL3F3ZLlADsIbIBYCIO0+RC+wIYRDxf0Sh31EV/yXGZc7fgolmVFTQumXnbvAE/eKL/SXZ0ALP9ZPulWI2he0bFv9XSWNE+JFsowl5mOGoPjGC9gibi/Eyr8PctIo6pBRr6L5l5eEFGqMVETsmiktzHkmDX4qs8m4iMsf25MAO9cittm6JzKTYqZzyDdxENaCuQ8v68yUwK2l3WOLC1SRsw0iQJEXuK3hD3fLeFRRKPKoJ4qNSYSCLLMW4gS23gmwhgbf7ThU8m+Lgp6sM20Lwgo19F8y8vCCjVqpOR3G7MTW5wYuXikIrXNn7UGxcdriSrIbdb/VeAigkjXdnAoMdcHVII7OGMnfHjOc6rGZpX1dP5uyhMNPr6GvG0oneDp7Rm/IveAOxx1zzw1rvRyoOAl0hXZURlgiyAvTRF5/PEh1H4jYPtOh76OqQUa+i+ZeXg/bRf7MvozehtxW/BoRVpicyIPep62igzkcKTwBL5lsDiPZ3wvMMkZdP+rCKGOpuy7z46nxzyLhKUEUDorSdpvPQ/svf4jk8CJk4V1JrPt7aTr6f5U7FCNdrNKd9eEFGvovmXl4QUazRkSppakviHnCimi5EzAYWAlsLHRF1fiXKIHq5gXit1TnrPSI47Zq18tHG2pThqNB9uYLKMJl4ygOmV+Tl1ZTGpIgaQAAfkQpvoHFyX8RJeBfuc2UX1H0zh9xJZK7D/sQzL5eEFGvovmXl0siv9QocRb9FhQHYge6DQL5vt0296f74Loozk3vaPQuR6nQQw56ctv8cajNTHr3LbN98Y7D7X5rO+blYxmXZwdBZmscLg4WqHZ9WWL43D4lTgvLX9xBISUw66UFRVq2PXMIkBDPsj5ler3rEUgo19F8y8vCCi4vLiqkRU0Uy1yLkGKeL2Fv0J95ejv5lSVcFrwvCCiblFiQbASYSAk+Dub99F9a2PtaG1KM1gAjnrIAtriwIbciMFx4hgYgoeP6tsmtAk2lAVVLai5iIvdUBEFCph/d7+acCg9CmXf2I+E96eVf5opgVuqELPL0P4XzkYuluP9MDwK+echNfnf7Qef8Pq+8tC9ntUKB3jHvDBGp/GEqx1j8Gem/G2KCNp1mPfvBnJxPlhXH//n/XblMBozvCcIH/OR5yed0zxJq1KnpI9OrNsKY+eyHCrCt66ZiXMXtKWMaul/1NgNiUSeFs5DdiUSqKoJfMuWTJa048koby9LdFKdN3rt/873oVTIRE8acpt7bAOaEjfwvhV3IEv27tH8//QzQ/iqIEwHdzKonqD2XInwkxdpH+yoY0n8KG2RmF37vz/jgFNPlpx9azGKT1PoJR3z8WCJuh+ZT+InJbGmk2xSJI+smHt9yRJVUDkmKMyWXZSNj1SI9Gw9+aK3VOgl8y8vCCjXwSs115xbQa/Fhh6vKCR4oxm9mm8Y06+9erjb5igFP8IQGOLZtn3akSQjuOv3kdZkxg7f33KXxKcyYJveugOe/ILcbGjhKMsDWzmDIT+t2n2OZ/4sRaH+Ciuury5X+fTMfVKpZdjJpdj+AlQUeUOjOTxQhyLevacqaAMEDYD+J4ZnHauwbkmyV3J1dCKP+Fs5DdiUSqKoJfMua/3m8ewNeQ2PoqcXeO4t+tss+ZV+wRF+M2i+G69qzlngkEbWZCMGlBGmd1k0RNQtIrphcIZ5ylDgSPZT90rKr3Ld1XBJHK9Jh9k/t5GGsgFF9SjPwlB5363NnrXl+umrRzTY9DBlg2ANk3DZiPQ26uKKO+t1mV2mvC8Zl8vCCjX0XzLy8ADjd0Hm6UFxSs+KnvzX33j3BHWNhzPkxEuAEq3UfXynEYg9WJcM2vr3egmPRnvYIRrmJmFu8TeRwRyyL7+vS3FGy76j34AeU6yZDE2S1lw4nHfJlSSR35yasMV93eobcqbydjyJR3Z03s7g66wNEmjaSKOq93Uk0u7h0v9jAw6g8gcdx3Ukhlzhpzr9b1FHVIKNfRfMvLwglpCNhlM3CBOOk7v7yt7ubpfgTnVYdK16x9nxUJuXYBVLrPxQI/xHk0ZMrpthTunEdABaVuL3/I2q7nUmuW0foN+0+6waKNbZQ7rTmKwFbA9wxEiCEu8YeQ/gfDBhbNaKkorIDQF9vQkRrM73iVx93oC6u8Upl/IOO1bUt9NHH/BiyGkMtsmUlUZOnWF9iYJn8d2cDnUm+SMWnqjRnckvMthNeMAyX2yQfsBjapgVuqdBL5l5eAttHpX3JWb8baCj1Sj0UMi7xRbs3ZV6BJOzix6KPRTcT8N5pNz0IrBFJU4oBASPJXAFKUU8gweKSHc63sf3jDyiYeephhWqqWjimW48mx+DqFKknOrvMv9XHN89kiIxo0qvQ6269pxAbi9NcHWbZJwtf/8kx///3gr9lHnptOycx0ZqF0sSmm/jRNBcfN936Iwb/9RqezGqhzc9/I5NnGGCfukFGvovmXl4HBYDgAFaT2ZP0Wk352PyLj5fiB8XtW7ybqIvK4MPYbj5Q0cP1vSP3csaVqFPt1IGxwBLTfVSXrpX9wEMSYUUK44tl7Xjv8soya1+LhPnyRHUisulA+g4znBUmLU8UEXisHt1Hxg4qmVQBZLQateFKqNjPdINOrT8gYX3JLC9Rbx2doIRO/oic7Yt5bMGIOE2JFpw3XLr0TGsv2B0CoJvOw7NZ/11WCIY5cJjReMKiEYSlnkniRifBBRr6L5l5cpMUpOulRUg+V2XiKOGQFej6pnDrVPZmkjo2I32WCX0pELDY0sHSbXPT5CBS269mE2IpUITCRfAZTXxV/78nT//VZgDHRHzk1biFtbBq3Cdjj7TfwtX7kc9ZMlBItMH7RzworC1HF2jcdpSpQUwAUiReyZ2QtK+hbqO5TSp6BRoriMxG0j91csk7lFIEHf17sW/sl7FZRgTHNJMpVhltHrWNovHoiCmgNjMaK4cICCjX0XzLy5pI7dH/ztimmAWcaEh4Utp7X6GBcNsietxMBKWjRamyW4HPpAXKgvt1H/yGWxi2WuH/pJ/FhlcW9POa3OC1pSQqBPy1tNMWrQXck8tZW2EfehX+M3uoLZxk7TWTQP5z0TT1TqQgo77W535xKZiW7+psf1ONiWhK8w75bGE+VkgYK6478wIfKHPcMA3RcydNK+Jz2isvznn6DMmC4+eDOjbv0TMtZXzyoOd5iljIBGusCt1ToJfMuGvYWpAzhOTkS9jmcswdZZal8//orXvN1K/XsPzGbKBfykcuMT/Tiuxw41j2FRTmQMaw7IJ8UCfdaaNGVK1oxSSFN6VFd6PO40uD1EM1e+WnfCPJjw9xaaygybJ2FXYlUri+aPSbCcBOJdYkNHJvGk+g/6smor9GLBBXqjzwrv5zET0Kgw0CdBL5l5eEEsS8HYYmw+nAvnlfI7Ggc5TrE6lRpk//zt1/u31KOmAG5CSdsORM6K8/hOXCgy0Paxg0ffH/0yWw46n1AIWd45nRsesBS2KbhXH7ruSCCnfquMtGz7cS2empbRNf1IbddRC5319FLF3ZAK7Wt5vNhnSrLzfDY+tqqCjOas50VWeGM9XUiTxgfvTuw0uag+1OEpgVuqdBL4oAvl+eRjhuZkYkv+f1zhjVa3TBXVfhEGXrQ/Ow/EBBVvA1kUdQDcLm5wGCLPWMzo+JPor+vdu5U4Hx+64Eir9V4vtEUkp9hHdBIzLhpsXEK48h/zRQSnPAyaYcRQJ1miZlGdaQYfYO0eyztmC10Fv9Tvi3Bhfy7OdWSzQu2zOFfKtMbyapPdbUUdUgo19F8NXxDFcNL22nZnJWRR9/zT++wu/rIMzbbqcEaRLcmJHf/dfIo1uEJhXcv+Y1ULZPr2ke+VPw0WbBak/WjsQIyjD0OCsHfCZFdhWTk3nm8+iD97Epo8qyQPJJtsr3NBzXnrmKw0iIlzYuG/cXRSJFgbQ0N2izenLcCxKYsV2MXSZuSb6OqQUaxfCBF3VuobzINbzRju5Ct///Ll8P6wMdKxabtMsDaWLuMxzDUsmqwuGVyupuyPkyhAQK60HLg15+6Ngtev2rbDvzbixnzm0vk5UGeaeHynldF++yajwUxYTU4OEuUv9xG1h1Yh//CJcmlV3Zw3z19On0/zY5I86Dmz1LzAzFyE0V3qTHoxnO+U4t94OqAre1HoQ7bw77B/3O6EfJBWGsSOV3m5k//1m3Uq7bAMiW4sQqQi/GWPsEWT7EUW5OvjI1XTRc/Jtyh5i89/8O9jsl8kk1ho5LWy5jR0RXz1G5Z/7HMLlLJM8xmV2qiKxntsYHuPB/vNVaEzNl6jcuU+pq4U8vjCJbUtWiKIzo049eujeausnxsddf60JmRPDPi4SL6GHwN5kRAjnOpJ8l8rShSIPFrszbIihHh/puKrrAzn7MzLo+Sa/OH2JTfyBTe110f/LGIdrlh4ZUGaVe1Y6DwSbWFYL2mItadgZPMFyQd5GeGGwm6ZgiiEMddKg0IYOgCs4M8PsRAOmLSH7eT+hUlIxipm/WAnTxm3431SwfcL+fO4XtbflPXzHQlVHqPswe3aEkiEOnxTOiWrHYVsm6hKaMKI9DOVM47YHYlgtr1obPl6xMtoAYxd1U9bSUR+TzRPpP4OlRtIKLRRg0KuTmdkav9RUjDSYhlBI//w7JdTTcqjZrBLaMJ4ea5y5x8dN40ItuOfA0H1vKgEdN0IS9wA/mVGg4Q/VpajpjjGXzy565y/MSVgxpwiLc3MhuQaqo808QavP4sWqndB/LAliRvAd2HJA6anZePVabfCLpOV2jwNuaFyla9PAfRfcLJAhIDyKx3jJijD9sVDfdBqEUj/pxoQKFH8nbMoBhN0uDjD1HCjUSUq+k6TwXbgNI15yHDROZOqZsVXMpFUS+xpn6JiJos/bN+U/uWfsyGXQRinY0wYItiljxqX+VwIdTc7jtSe0d+1rPx2QG1Tfccwr2YxiwpN55peXGWLcXs+f2JYlbOiUegZ9T1RuS0VL/kK8kWXHgM+LhZ0ki0WPCjtpS2Eco6BwFuMqOyDu7HnC0Flc1b9DyKGy7fyEIfdywgInh8B/xbMeXO+O4zo60m2Gw8TSswpN3Z4yMsrdi22RlsDLdb9tuh7senzDMfA7/wlAebGgrTc0dwjVH1hqyYY+GO1JrQlzxsCV4PcmL4tdYrmDRNxD2GuJzuZ3BYJ7nEHa6Che05O+rJOFw+aMAtCwaSvJ8v9PvlghYf/VKYplc9TE3AFRqPcFci9soUSR708AUzh/pbfl7naztzQK8thsrSznFELdSeC8NOdeuh6U/3BmZKxoiVrV4tSkXy7yaI8O8h1NK/bNPdqgI/zmFbQ+fMxvZJ6PKxYfTXich2eDVuFtsIZZRAj/upFNGQZrGmyh547nuNj0nN5rhNh6Q4KfbBQi7P5WtEoLZTvXQfPP88I94lqNNOa7cqx75iSV4wUC4PBuVjKiGyPLESMBUtNCII+ENkcEFQb4uNfgqk8xsdVtgiHOI3jfH9NdBSzwqas6d9Qgb//MxFKfoRfV1Wt9kqiT8OMRcn13bTNu5u0sau9kcFtrqjvScekLiRIOX0gtEuCvrewQTuuK1Hu2Cjlde/nnpfEQHOvH49qMDtoDDvRJqNj4ZT+xAzHeO1Ksre8Ro2/HFTuwk3+wmRUV6+U6x/E+2kq1/tr2az68asOOS+NS/T/gJ4VYD/RingEbv0IjRoYbjM/qb5nsfxyvjFFG2m/BNhe6MpFI/rBWsuL5ov15UYxRGONBxWFKztBvKGztAquyNy4eOzg5G+jyGdcy0/NIhHt/+r+9jZ5ujl42cZeh8zukf0Zd7kJCzqC6b/7rpgJ84CYTqERqtaMG/AUVDUk0WT7/wi0jtDHeYd3FSk5OIc8Cab+4W4EFShm1EMdjJNtMSE2pNAgpu8y1QpyjhIX0zAIXCGR3kGJBLvzlaGNSiGIoROuATUTnMT5riHf2AqZXvbthBwz6sAPoo76AARWMK6fpLDvTOgRBv/XIeUNBBu4FV59JJAgR6H/dQRY4eyFP4V91is/Q7bk+gnRkFuZT3QVhAgG4TYxZzyBakGDQGvFF61cqe9F/t/5eos0vDdkQbIiJSTPAZTFmNatXKjMcCLYoCRWyBlL6+YXqczAfZbdCzyxEQber1UPMmTb4jb9yKzihcM3zEd6WvFmEOoek44JgjtSpuAWet7s9Sn2bdi3WKkf83Jfg6uN8RTsJs1HeKf//4QreF8+VJeoClSbAYHsYTGh536S1PpaIM4QKAn8M7u+n5kcTQKl7vAy94Oesh/o2X3dD3V3pHUgp0dUgk25sSk2Pd+uxt1SQv24K8RvLlR7yr22lTBB4gZu9SPXKNjc+Kie4QRfDijoQbEkmuioyiDPYbQzOizRPbqmLfIY0vSnnWBiexHpMgbkd9oBq3fCk3vPoydJAXo92JBvaGzHV+TheW1Cw3jlo5+3UdnWkm/oA+MQJ/etbF6ua14d1w30vSdxm2Wv94LKrePmA7LlO1O5mdkaCnZMo/FgtqKAAJf4uOmXbXVGgTLoDB3vnYlde3VHT5y5jqg2UGqrDlHmf7k1zSFNdaFItelWZaVj+keElrMW7SS7h288KgBjDHcjm+j5KE710CiWfP/Qfbteb/gNBSyeN//gWdwcTn5PskVeg8Dmu1JqH/vsQ7fjToIi6Xn/3pyCtiP+j/YP7aqJQZcWKK5Ssml7tD7WVKLSEjGqK6APi4LcJhzlCXpOfmbcW00fMvLwfwoheYkdTKr1A2uCEvNMMvmNHSlejJHAfwJxYDwJPUwLSoetWJzz9oPH+dIacysrZ/+Hs94gf9ByBP9AVPD1w9Ev9zSKO7ggo3PE/pmLndDbE+ttodWdSxfi71ORXiTDwtG8Q/OZF2q/MPiTCUswVjkazacTRmXXrBhr3kL9ODRH4715T9eRuj86wmKpBRr6L5l5EX0g1sIurBxpyiVrXDnS7oCnJrgdXN6vgfps3qBK7Wf9nZEH/xF/fmr+qDIuTAzLM/N9sAv8SHE8Xz3X3vrzhYCO1g5HwiNojX0XFNgpxMS94AIT/UM1sn4P3feBBId351v/uUZ9202lH2xql2Cnhx5tYEpgVuqb+QfnGSJSzXxLz4PmnIVT4DdscXyEIwAodF1kdKP+Fs5DdiUPGFs5DdhE/kMtV1NV0Kopbo13hBRXZwuX9jd2CJnMDoQIG5Vn6+xtPPCert2xDD3oWPySwYoKS4xnqj5eXhBRr6L44NG2bWHMjj3g4oNZaHnrSSAvbbKNfRfMvLwgo19CA7iuStZm47CJuXhGvoQe7ll1iOzOcn3dY9OqPylcmmsKFKL5l5eEFGvovmXl4QUa+i+ZeXhBRr6L5lwXOQbLsE2fsDF44QYx5U19F8xU8dChExmK75D3KW/uIXJ5V/Yj4T3p5V/Yj4T3p5Ws6p0EvmXl4QUa+i+ZeXg/ldTWCAZRlwzxjeh0qJ3216wm1fGE/Nw8RDvJLuy4vkUf8LZyG7Eok8LZyG7Eok8SvR1SCjX0XzLy8IKNfRfMuSAH33BFQx5UnwtaYHv5Ts/8WUsf+rQP9G1qTvOdyVEAbMMvLwgo19F8y8vCCjX0XzLy8IKNfRfMvLwgo1hXuyKoq9b3MSEo6WE+FDzmxIq+N5E+WJs6jdiVBrSE2sCUwK3VOgl8y8vCCjX0XzLy8IKNfRfMvLwgmSG4FaZhRpf+qzwiBcFFssxNoeX9cfQJ23+/sR8J708q/sR8J708q/sR8J743VIKNfRfMvLwgo19F8y8vCCjWewdGJDYmXf2I+E96eVf2I+E96eVf2I+E96eVrOqdBL5l5eEFGvovmXl4QUa+i+ZeXhBRr6L5l5eEFGvovmXl4QUa+i+ZeXhBRr6L5l5eEFGvovmXl4QUa+i+ZeXhBRr6L34AD+zRiAAAAAAAAAAAAAAAABqd2aT9JrOnm6jEkHf8kPXOnOm+hE7Ju0DIig4yzDEN75RP7W8Aaa6AAAAAAdNwk/k4aGTqddsvOpChHUD0twZiHQlrobuvA6dx/He4rYTkLH44CSYyJoBKC/ufbn7KPJE+owQqsziCop5FFErSa6qd0Y5oSZQ3NRBlD4KH187nnSaztca7j2NoVh8vGftf4dtsqcXWgXaEW2nLWhIEhlIkCx2SbkF7SdvEG/jfXFmYbN8hVkANOFK8BR4/XaPqZAflZ5MdkJmA42wkcRHkFKakAWkEKAM9g8/Qe3UdoOE7swI/3Ibqx+5bV0vxSr8NQUehMUI1kSFW8F7Dh0jofqY2zjAT141izV8oQAAAAAACuoeyKdDnHK2qHS13u/rphF1BSg70YVUJn5CZ2lS3YZc1HRdSKjhrym8UUWODrCWtVcbDI5dHGWX+BHrM9BV07X64uiQKCIGRnhdmo8nHZRHUkA/GK7yj0P6OjUSVFpJRVcvq6X/KCirzPOHAJlxlYEn8XGyZse1kmYto3IFYDgTDxLWN/TnsxfaezPPg2STfwzG/+A8ZMAX8/jt2oDVauCPG9IHc1n6xJe+8bl+mwy2tN3rbzqVRyYEP7WXkCQ3TzGL9GxnbLFavfoN1+XuKELAHR+oHqMbSiDlFu14UbTez3vdS9Ii9i3Xx9oAAAAADJ8Ng9noUO9rxkLbyVw/SCMsjV++rnHRaVRNprZm3JReS/nEMxnSPFhXt+0vbHyKQkub2AFLV9HWVfj8QOlawJFhK2Sd+/1tcGVHmVPHcL6IX4AIx7yAeenbjP3vj8cgTYdY/jO4b4MwtMU3kkMlcmQi/ozUFTjaUCCQtcApXa4g+f5e+zDDqzRWHS+y6ii3WwVYOlljDVQyVz4TytkX8k60shr65u0LDLEKs2e2j32z/0kVDhz3huGQCTRprzSsCTy43Qdvns3ARVV6PLhc41sjzE2j9YKOWvB3K7D7Ka4L6LO4+1zNHLSrlxGmUTv4jW/9SBccMrbj0MUkeX6lwGV8+4ZDoF1M9ftD4MKnvtORLggo8y8ddULS1BTMTF0H9q/xpBsxrdwQzEo7G398gb7xoz9i8eKDYM9yAAAACtOGNCj7iFxJ3OOuy2bXi5wwR60znCB76RU8m1ubuMUZ9bDgK40eu2q65ZmtvxQfhguyO4e/OBpmIPKTeMBTRf7ywT39YpT/nWvdZOo1E4hZ2dZW9+UM+oJWGqocxd5mtGs2t+bojm19UTSVK+gN5qHmiN/Z6dVBQkIAHsQPHqbDTRIhxjWjGuW5ce/ub5u2gHFf+jE/mvnWqIg93U3R7eeHDHPElQrbnJN715HNCQvVHngFEK5pn4lezIpvgPLVrM3tGFv7Br4xBQz9UfHRJ5vdd6Rn3+7XQBwHQJwsQyINdvavtPJk7/0Z60gFTJvpl5bydKmSjDKX5PSUMdpPsZJMcoBdfMgeoXMaVOtF5teW10sWTBtXkg39dqV7yFb4qh4BK5rMrRBQkhsrT33jQ+Tt9lSk+8YY1qTW6qeh1WMPXnv63pbWCCoRThR0Ts1APf0W2XWc3nMIumy9R0caYjGe4lKOIeiYA/BwPamFY72WeKG9ITQALqj1RUniGGAoZk/uEg5nlM8rIoFUnNpPb7bU8GVqUlhXQXVJCPcCLaTK/H5PfA3zIviv9rXKL0xGtW1LDRNK4MxoCnnJUUP6BlHXtf84E/IUkYJ8pQbuM7wVhgIhuRzrSsu4s4l/baBq1hEyHydlfiap7cRZ39kHKyIRR89Y5CrrPW+DLPxT6o9fR0xKzLKwtyx/fWIaEGb/N3o9uJEZXv2AXp6i+JHzozKh5UhsrX1Ma/PtqNovymh81vRGyJoSedj0J469aj1cOkbgi4NGQoks8XB7qeWx5/E1FRWcPamCGbR79DFXpTFUgynsLoPW32ArFY4C4v07z5cHoNtAJvjB34hXYnu4wcf4Zq82ckUsaYY2Jii0dhRsRcEB4ocvggJIY0jyu1ravTtdSw8GGtLiX6b3dWswEwj4b9DBejC6puszP0JY57rh3DZqydlnpZp1HupvfQk36cFElmj443Rx6LYyBtrxCnIWMPLW4xm6gjyjBA0cWfKJvvIxPZi3CtvXUfOvXhmopVhbgIVQgrrVmH9ZgwF+kGFiG3z2FF1dFbK7ef27zMhV7xhq2UylNTM+68eP/KZOt6qlBQxWiGGPxXfQbwMN8f3HCHncHB6+UFi/SVo7qkbMD7BdvmiBfnZIfKESHsR88yQLtHVQyW/lvIgPBSn3iPjIlIpmlqhlgGoeZT2vDzxRWURPRzkppz+xwhCqoleaZhyhKRJa1woxZdrS3kByj/EXxCpbmlZ9Ig2d/+PuZAHL9ly4Gg+m696Fo4qlc7JCXzAWS6DWMzuYYO53cwJTQnaRy3xqU8qLCCipPooRU0ELrD0VZAd4/Es28em2vcQybwX3fEjGEOYHzVG/u6RiOvXb1eSpsv07wtvhOCqXxIcm7Q7Q6TKH93JddZhHM8CtkYwvMnU1ex/pCPR2aznvGosIlAAAIzYDxYX1BBDeUeMXhzWhqx+48Czj8YG79djccS8d9fZYhxq5ONZ8wUBkyfPPexdqD/xwjo5MbHVXJjKq0QxTJhJL4PyXHZU7ZpFLREsoWs4JjaB05fTCDib3SQczlhMAGkPpLaAARPWYXcSMOgAB4EWvaY46aGbj2D17FDRpwJcAZFRHJu+bYcNYKS/UJCtbJ6T5FMsIxXNvyO7lAskLkRB2Cjq+hxzMojIHhSAHDihje7DrL9+j69gGL/fshfOWK62bIMenO+HM8Ax/h84FcmB57QE/UEuMc9RDeEI9+WpainFpwxwlTQpFNCZrggAMlDm1mE+LCT2L1sMWZFwDIVAea8zG8WF01ciGHVFon2zvbaq8srNtlnutL7QOyXcFJN8XxCgzirQ1BaVm/5OufoqYTiYjwQ9opd8iPJEVVbOpy6GViaKIpO6vcdJs0yYMf6vxPshRXK1iOVLZKVcrIJcnV4cvU1X+qsTTxSaXJKgYMnzzohkaR7W7C/ryQBuKKXFBDoj9h8e9tDl7kRevtmvkE8+j/ab9+JZ8GHSKFmUD2U5jC3h71pZCUK1jeX/PlQv7PgbLGyw8oCqpI+SAREvh03WFXnuqpDR0xy5lFkl4gQijbspMaQf39WUmTmZYD9wO7R02h11NcvWluCtFiPEW1rwyh1RS22vJNp4eiWQstoyKDLPto1P+S+69op5ZUbCT+Fxswqbp2rtDG7Ion5K6pTwVEQvH2Sx2NejRlM+6hlcHKSSwP0q+xg5z0C9tjslxDvUXPKLb+3Ng1HrpJpTFfPO/pqGh7ae5jUa5cPZHLMetScsLkm/14bs8FglnXqXlRx9nqouWs7canahhGM2w+xmZ8kvHizjKK8b9R+3+XZGURMwZfe1L1DVJFtt2SwVHXu2FyekkkJ6Bgozbt6mAdYqR7MJy06HtI+eaWtECYcB/YdVCU/7t3P7myoQoK6/yRM71gNsQOM7Hkh2hOr3UL9+vFFv2DmiyiQ4JxMXBSpHeSzoY42M2H3amGmRyHqZhFkeb1Ighr53priF8XiOZ4bFrlVf8Cgd/5Y24N+KBF39jA4qhXA6zeQcPqFvBoLcfJ5D9S9zVBvQF+rfsRfZFewzdDpGmdr8wPQyKlc4i0bqZNWvv1+Qidbx3aU5E3zuaGedg2UALiAgdZ8AWX01RGt8WessQEQhekYrXtSRqCeQIgMWOuFzUnXdRAEPF6ilWMFd82RpvwHZguyo46EqsYAr33OnxD4q/vC2mODfqA/v8xXxf0z/D5szOv/hk54M9XqkXEqP9AjAxKAVQX6dr1elCmRpzTghrhgjCwWdnwJB2x6QRWuSfjhMNojOBfJ8VPw+rJApKpLDBlVM3btZb4qgO1VhiRA5rQPQUb0Yx5V29mcNB89R1R3iR/307LZAAuaN0s+yyvGfKUHM7se5jPtREoWLJEcb3CerXE//TObnomJq/0OXAupVSx/D9EJcM7Wj9fKxyKXjf29ksnPlKZC/T9GFyzACqgoxKKoQswdX7UhSGsmjZLBLBLYJ0/g7cdGDnbEGrjM5nqB5Lni9Nn+/QuPgdCIgoy4+e4QRr2uMAO+eP0iwflUaClXuihRM4yzaZ3b7ae7wzMHraBkSpFZ1TUsJCgJGeNuqeuZ/Z5WQhzC87K2NJL2Ko+3XekOMYukQe1a+xLUC0XBoC5mfB9qpw5OcVbzpxJRVp63L70CKhipep32Ejxdk17TznIYGnvQytSLoyz9fwgLwALEjoH4y54gMkVKLJa4j+mT0+61FVgP1SJyHsDLyoqjPJYYXaaf44kAaQ8pusy642EzTmg4Tx7XTfK90wyiwNA3Z1xobqxPZhOv2VXNv2QYqnrWvVyWRaNRo1WYHRc9pOApBlPPfm7a/s6eKaLNSe/g1FtpFAAMxWoHNnheNJBls8eLDcUR9nzhzTU0NUq37yXHJfZLPZzoWOyv0QDMgJ0mpMNLyoIDMaP3RiQOsjxe/pNBx9xAamCzwcMRaMOttwhO4gWdp44SwiuTCFwSWXlAO6sq1tunSsQ2aU7UvxOZqXoC6cJXn2TmvqFNNu+zi81M/Fj4o1YgckbFRGA8Ks03nPHERfw6pYYZUl6DIw+CFOSoBKQcDbR4+WQl9Y5Qu7TTzqAtsOwchkCpsL1PUUstGzf25Xsgby6scxGLJht1rdZITREEKxJiwkeZOKaWDxX6Blf5N0BZGf19fqD8I/ZgzgHFAfH4SNDti1n1ZWeXc6txTb1OV3JfxCGa0/pMEuOXE/kgkRAb6mG15I6/50x3PWV+2jJYKOY3N2bdO+AKeorOT4usTP5+cbVgFBYVBpsbLp5wOXZzq3VC6AjrADMGQyoRPOGkv/DPAhFdcr1ov/Uu61ZHTk2hiFqx79VQ02c6ZwHnbubt78EyRZUHmCDfWByZzN8uB65bH+JHk3HB5G3B4tDRNBZOv5ybzaJkkOWjU8qrxsHlfh0O/96vbf444ly1f7SIR+fxzPOEr77GBbZ9WmCriAVrRYq47D88cC0u1UYSMGJaqM/Yp36zDCZlNC/rl23pRYNPVe5ut1UmifggVM0u9K6vG3f9FVQIcgVTDwRJiL98R7ymUZwRiOl2rJLbkd192Ke7lNa3jabJTqERF+X0YrII8GQBHmzU+SdAsBaBUIJXIziA3cbvjwWICTBdWhR/XJpy2xY7AbS1ZPOlk7gRNXtCCaz0wEwVWXUpHkMF0RmSsTUpBy/4tzdur6l150zNEAAC5xdftCmlTJ7IHnorXdiVSnxHSBPGg6tLKL5yCT8HUXdhyOcTCFMsOTR7bjPQgQgoalAWCZxBt4QfLMtaAVwJCqmbKWOXY9oK+QGgUi6AWsoHH6joKq0YV7Zu5mWRAAA3zZ1YaiOgkpDxzcidX/yKvd2IVNwYDHtVEGu3UD/0yUpV6IKvDoUp7cBLjsNiVhOqY/BM66gvZKW6OMRDCQaHbxCmTw0sE4ZxII1GDTYYb1uTh3Nxw/u//403r/mlisXE9Svv8bC6SYW+YWZBupRUedIyxxRx6WpmSI8Nl6zXR4jX/RLec6BP4KbUMKqCZVlZoTbgFJpmQ2A68+bbSwuS5mhmB3t1yZJud9YVXHwbhjcHE7FhYzASZxvaZb7j2WlhsiCczWgebITai64EWdHfB09bvKe4er/Keqo/MBrYb7AgkHmyzWVyJrk4RlzhwexsJf7nzJXfqN9ZIbs3KDNzWKbzFmDXnBiGs7mZJAt3061tr8R+kkL2ihnCdTXH41VZ9VM/F8bQjGL1qsOeD7YWIJfYfbbck1m79PkBQm1MFs+yhaidD3Uc7vNlAcwQ9ljtsr8RHa387P1qbfYL+cup8219Fk2xeVNZpXCRHOfxcGa85Air/oX5PxU15OxnlzNaRfzSGG7U+Th/OzLRJyxX7W9bXYwJrKLQejax/T5Ozi6dy4MumnWE44NNMqOCu3FhtYY8qFCYWEvfO5j2lxhMeRlaOKWetpWeGb0mRpcGE9OPI9Ut/vSsJ5H5mb2SefxXn4v1sdn8TZtRjM1rDcfRD7AkpbrBGHEA2sPJVU12+jiIi9+ZZTbpIQMql9DvW/wWldH1+5EzbMyGemZ3waPT+WvX+7Jj1vHKpvDGXWN6RPlczfZFgZn0WEge9YHtkfTxxGqZ/4ZArxr4CjwJDHJnN60T9PAICkRYAGybuTOEIijQAIXV4qVSniuN4aa7m+Z0vpy8AebUyXSvukTDuo5YyfvnG8Cn0rvANdKuBvAIjRb/jKtj4k4GKM5dx5Kq+bGRQj0H64eCXIDwBBbDK2pkOhYpT34NdxR+V/D2b9D9t2T0zDhBLySLN/O+oI5OkekO+La1l6abJR+p2aDHj+uLlUj1POw0IPtUGDsZ8MRK+413ga59I3KNU6kLEvlEusF6UQLDCH9y4hD3myCMwgGibVdhZJicsG51LJETwsKv0ydUMKvKi2tSO8v5u8YW9rm/wzxEAE07UIxvalG3hLshECym+fF4ahNXtftSwGiaGWciG2ieQqHvNtuq4vhjOGICq6HlMU8rxrqp3enQzewFXeDmQk68eP8Z5TatuiIYdweiNw9sMq9gRrLPPjVGTFeT9RvLF54BdITz7sqieQuLfhlXy6C9DCCLdHUa4x5RI2SDjooQOGN7J7ojbwYUhQ9M0waYn1gBFBccwcE7QXgv7Rl67Ej1k67ioVHmZavRyzCHF9u58V6s2OCwYKSI3H2NgNtePAg5Alf1PUZocbbohhG8lDOGdmqtpYOoGPIhevfiT+i1Y3OCDi45o54QVvrN/okYiPDqr0miOi4mjDjPTcGwnwF4824Dt90G1oVFIDgV5sPTlcz+yHKsL67srclBjM6aQUY8qI/pLQMZrp1pIydce9xxTBiW/VfLSALRlPsxN3070VtkNaWmUMgbbhz8ydXV3zk7aOnCsMQRdApIEDOcVf3TIwB+oXvFFVvIdiOvQUqmUI3EHH1Gkk3DQtjgaeF5xx3KBPmmTpmZF9hU/pHqLP4RWg5icrZU1RVuc/I9vu+7lN5tgMCEm4II9UAi5sBPcyfGOGLa6ie7bC0KV2sOj4ukc3bDwO8qBNFL2Zps3/ctcK/U6h8KcDfHIxOHyuxcN0EQLeXCYk0x1Ym6ThIsFBlePtKUu/CXzkUMve4ft82Bq35XkS8NyE3eQsAQOjDhyzeQQ8373aAPV9lDMrMIzogeUXK6axRESpLMyNHDEig5316wDl2Idj11Gn0JqBiMjk4jbmsnGzazLdje6UzfAzBHs8zsygaRri8X37f5BhAzrCsaNYaGJd1EGWaxv9+LEHR9U6r7lxADlyLsPsthYCOj52B6MdN1jxbHHAAAAeoIoS11zEM4FxMLWjf0ZfVYsDnvkEozIWK7QceM3AKqmipdd0eUu1/JbnJooGf4ikrxTKXL1nGcIe5GvhNzgomO1YcL5ZNX1xqLvvpIrQJwlBKcxEtSnMIQN74npcSATGqEF5+fdo9m0CTQqphUgFqcpf20H9OLQzVAT6AAci8GqvSw/noduldUKx8rcoB5n6CPBjt3R5JmD0qlA8ePktUwM303QBnWRlG1pwuG8h83AJZc/ouMgHJn8hPMrvWwfnQJdcov9nUe48ZS51YjBNsAkiExH8/p7Oc0ssf2QpNlvPQy6HQDB6GH9JsudPfva4UKDHk9UGNZg40ut3A5NyDlw4WP6S9uj7C3TNN8w9ePIDZmlla6iWecmBWrUI+hezjcqubN8NaOa9UVu7nemD9zy5R8+FoblWk12GTjp+glU3CfOajsJ+F8rqmkyiyQ+tsJt4xiZaa/b8ktpEKI6amxXIolwbM13dtUt5jRsAOkf5Il+ZukoeHl2HAXcQRqUhXnGaHqvRKoEzJdZmvMJbxEky9YeG6u83g1x8VhAGkYQmWzKUdCWrFvh4tWK+w5/wZ7i9pC0+SBC1facH4NGyhP+sEZvvZot75sjWONhrYbcW/S5T7Cg0CXT1rhJmWKRFdri7ulTzMDrmPe0d0S0iSzZXY/64l4ZI65azdGnCTXfay4R/nKW1ciSrzFqcrM0sVUPh2eeRT7mmRqpDKoBmqR2ccoCyY1L8pAF+1WLUEdzNyJjog+VKTAEn/9du3ZDPoaPx7iPQRLfTpf5oRTeLrBE/G1Q+fISncVaoEylZeVlspluUFExOxkDI30bk+hkDpUSLKvKlWI4ZF/Yo2qR9/mVkCa7CQbcSjbz6GSK172zaDcTnbbk40IQ+XYtHqeXtuundhR2rOvRRE8nerCZkENzYSjrnNApo/oOpuT0CJCZV2E3SK73IxC4hO06OJyIROPJpwVkd6mC8oKxj9IxwOigGPI92fd33/ZzS7IAejpiCjQyO+FW/+iDtExkePyLnA4Dmg7Sk1ueulVNc+CtuRxMun3WP9neb8FegGQ4jYExgKWruKM9UDp3ogQ07j7euQPJOju3BJ3xdBfspAbAMAH5QPxRhofKkbZxP9CMh9nNTX80f5L01klNYkWQC5v8xhJ8oXMvsLWkyv5q5MYIfPeJF3y7Gi4f1XeYyEA/aCT2eRIBvygF74LpZglINakbPB3+/Q+UaG++1nvhwFgQuiLsNjRgdsa5H2XOp9Mq9ZiECZ0vlYaDX9yHXMn/fW02e98mnoyC26PPgwqBvL8sE4WpBzGxHWpJdHHZbPmEWbqdDiwNaptFKdlDntLjZuugoJKvqWdUKrF3c43u6c2Jx0S2qGywC+tkrDQIBZCNMVc/op4mRmQEIRbfZu0h/hdFvR/O13kO7gNlYeMU4vPo6eUpOR9pPEzruuOdObkrVY/wOuMu5XhzQOCkf/0nsrsLofsPC7Z1cdIB93UtYpmgXFSVkQAEamNO33Ec2ZJ4TRwfN8tBx35nU9JNn7IjdlN3iMfzBsgJjiVnESphtJwT5xTQCdld//EoZ9Gp6DLX1aYgdiNLy8/rB/LSL3z4MV+kjXITfx0P9vuyZOwVq49bNV0iabO5oqc+qP+LFXWri/xLH8MhiZTqVe1h0pU8ZcVyaKXEKTt+/+2AYKrYJ0+9yOUBo5pXdur1gRM1CrD/1tXgmCx0h1LuiuBxvyB21NKm0QfMDdkEKBAOKfF6VD2Mgu0JAjRYLAihfR6ELMM10ljH9PbNveQlmOqKJ6hOqyvnvm+TDFl3u88vo00+J2NdTcbGtTOA+vJzG69ujpW8gO70nnEpOh2bt79JA2xRb84D9vhHvv/m9wzcazKbVdVr8w7XL6OA/cl5z+1B3C33Pkf3IFQURGhQD55kc8QjlijIAmyaM0akovl/uoosj+PiWF3CkRKUWwsKwAAAAAAFQtnsyToFbGnzb+jyfoG0xR59FEVkdPtUCtcBxr9Vgd5/HqibB9oCeG8qDwln7wpdkA01e/BhOrK74dilp6Ojt3l6cOkOjXfrUO8R7/oXusvD5e3JNnjnh04rlHBZBF/dwQ5BE8N75nxgXwf3Cm5XJv/UGF/tEktzDGZGLLRPdzj2VcUNFL7doj813yrWUR4zYfm3sb+LaCLhDHmJaZVktNjiaNc7nvNbe0Dx3Dg5xykTETygn+jN7p/kEW1rwATnKLSJhkgd9DAjHkJBYKR1GTRpyEi4/LzFufoEPG2VLS+2bsakvZ5L50o9Y9YKDC9m895QN0wKJN3Lh2xdXK+TjfEUmXeFOYuJK8rNFkFQV5c/1JnqF13AMFqqOBqnPWCpSyeS7geCmzkZZHYcjbiADiUlRD0TmP9GR0WklnuO/keizZwUFD8yGnEM8t4xSQDuVUZ39Ov0aG6UakHMAZ89hQQr6ZB/dEdv52rWB4xRBNPJ/cfeK2E4uhMtY/y/KDU+fdt67E2HzpXamifVrcIJLrC65suSYbKa+lg2lrpDwJiBYpCrwFyc19DnRRxsezssMySLTJ/weGXIPRJPliNTjbWhCyj0cew5ZmT1gmpGBfbZcSDs9sUwwm/sUlj6X0TuiXcYhK8OTzPFOn+F8g20+r6oyckCBxKyq1tjlb39HduI2IFBJ+X/BU5oQ53E5hM5T8OpSMGBMVTKnmrGMwKpCDgCPgPVA69VlpAacsA+tO7O3vL18b2BJnZCeAofwTxw1cxFjnOYaDjSFRyU9KfVuV0dKXaNWjgtSLQMkVtR8WRXWNMe9wZHHuRQn4KRByMuv/mowCweeZoDVJ9Bf+4bnxyfKJsXreGou8UZrnvE8t6A3Bx8l00JFgHEKF1EFRVVTta5/Dt/CwS4jVJVKugGch+4u5zgfe/VA9YRWnkx+3PI1f6/PrU6BMhRshi9cNPznwGI3nkD12nwL+4Nkg8xsGlll/0UqFrPLVNxOT+Sv/MJyYCXuQbfphYtvO3CAvZY+pV1TVbBzilvGxYso/8JE+6uaTGwFm/KQQry4P8TZso3EY8e8CpXxNehE3FYEfJgZveRrXK9OEBcsMofeTSHa9o5gYmJG1LvyOzhbTsyBGzegD754r318lDZyzg7m/nj2cXT3FQHqFkwfGcRSLbwSTNbtD2eNuFEPpKs6J5u5qKqirakKcRB2HWH9KJrffRFgFeYQIkVi3oPk3oehI7XA4/cHaQQhuqQxxFQ735be26n+ytVtP0WTBo2LYaWxVBFaQ5Ij39afFq1zsJlSYiVERuwKlp7brrOqasNm5efR5AcPF4xYB1l0HGuvaJ6xImwg1Yma+o0+egx6MxVaXrwnt6dEHJ2fFrVcDajcYNMcesdTVptq8/v1psQChkqVNUYFaTG3GB2wUIZhAjJu8zuO6qQoYKYMESHrVZrgyoZSWmosZ21LWzIp/VmAO7FkT6qR5bHoR97HKKDv8sQO64s4EOS8ZgY+A3S7VLx4MwBNWVvltRbWo1zNBb5tEXH+5VZsxyLdM8CJDPwXAXa/5VVSVtSLBU9j9T6s9Fzi/tk0HfMXX/aL+XVJx2fOFN5vfEQgmTWQM/dRr49lVbo2SqywPcCqADwXjZoCQFFz4G8kdkqmdI2JttYgZJWSAUzKOXtod4QGPdNPMSeXI7fXLyxJkKEeUgFAL+5WRZya3siZsUG/bbk2u0oRAGyGaBvUTw9foHRWbGOXJtXFnj+0yJD0BOvufMjDmxioI0dBtD850dXHaLZLA323jH4zo7051VJ8IUTJnAfuUAmHdWQ634AMzW5pkSmuHLLtXfaKYC7TCyb/5ZzcfuMsTDVRhnf4vT7VL2aR5lJSdpagp8wDkvGDAnuAwXsM05xXT0jal/dqgis81YvxHXhRjMj0hTSQVERAo4pR/t4ce08IleAkrAZctT2XFMrzN/C+xNqouEoURGmxDdS1VDKbDj7s0bFlFxrLiiAmpExSH6Qt9G8bbX5J3LgXMb0yXJurY/F0tF2mkZu/2mMpa5IcFzy2HF7buWEQF1WEGtdYcWFcVLI3Lkr7MGkS3NPRz+2j9YRsBxe80Q7cgwKSiGg66Uwweam8xZjv/GNS3Gos02atVWFheIB2EFRAkJq5VqPjKuA4lMOEmgAGte+T2czGLYkvGnKrQKMpvPOFbb9rdR/b0ZJawvSYvSG1LqTrFjWoUTc5TsHTNO+4EQJJDRqh0Gib4EAsWqHbvF3qrfUqnumgLQ+BRtlOXioLg/kABPZ0tkpwqpp1F5xm+5YEJGK5tUoeqbZKAWMmOHHIdVJrkbN4aIoQgtDQXs1E7a8RsE6W82C7h+gAAkdgPXiYZNlFOCGGE5qBZr2xp3zAMtQe6olwrhG2Owxe09JwWJIZQTTvJtT8HRTVOoWir5YW2s29sUVxQeU9/s9JCBQ8sclwHCm8Ds2cqTG82GIPrNjdVd4qZqqxBPRB8LWUYMxsM0ii8FGHmvxPQzxeu+qPo5dJmFX71a57/GKpMyhBy23yJjQja6erO4uscUHYEyXY3kriMvqe2nDEjx2N7GDbAxWvXhE7Ir6nKWiLO8supDdDWncheOOsy6656LoCSqns3WuRVGUGOvY+kk4UvvoCYahYKRdNsG97a6rSjYnPhn5NX0FDyU1X6S2usCsZrQmcOH7DjxHBu106ybfI8FdJcMSFemjpD7+P82zT72L6qyOiUqcpxZTJZJ3rPASm9ahqG3GuPS3l5z5f0meh9XhYdihs82RKJykBUOvWfmN8RJ7IlCxyszySgkI0WQk4S0X1A9spVRX0OHe5bCRliUTz5ov/HTgU1/aFzJ8NEsTM9r5wAyDslqOcdaL+VH8AT+lwIt08F9BtR5hILhXGpH2Ui9okigjXFf7gbujTcdzh1jQGyvs/wK3fwg27SMrbM4GTnwqB19nFkgn3qElQoi4f2gYJ3u5U0phbr4azMLooXAQckNCmAFVCEVLs6fWhxm/Ll9PnlyvD5JL4DxfFcpYTXVfVDehD0ImmaP9KKxMQyWTn/7aPz3Xw0WEaEO7u8YeZz4cnlDOrlkfy5UmgNK7OFDZRgl4xhXV5LNECWEaNrzeAm+PcD7fK7OzU5xqp3gGUwaciRKy5I58xS8RAw8QPIwXn1dhzoQ0n/NwlMMyf3U3QRvSuKjPfLAM3a/5JAduZTmCZye88OoJSFfuE1X8X9YZUt+phX5I0xXVQ1QSgfI2y6Tz9mHo8jJ8IDmE52Ieiuyvr1wEG25FxfWKlRujDsCkdDZQDJDvriHqRk0p3cZPfqHFFNsdu11D26TNjEMLa8eVTvhkzDetVdxn4DwaF6dtevTdON60w6K/fmC5sn9Ejm5NKEfQEd5vJ3LYvupDG52RefYg54PtsvBOrgKtS4oN88OY1d29Kao0KPL0M/7y6xKE80sB1qFdg8n91QfEdKZ31LguzbVbH8NP2jvScG5nDdvrZZI2Z0YU6+oio63jwS3F0RFe7b620zfISaHijibvNAjIo9ww/rjzUc21cu6I+/6C4u8pOXAFcpplCGlf2PCkdkU17WY+m8Yx4x67uk2V+e9s0XORpS1XVp0v5aVKLTg35CKX6V/QgIWrXkUDoWA0V5sTguwLWBglO4MkD0+k00XS/Jp4gwDEhvxXt0K2z1Fez+UEJpINrFB3/h0AIdWOwGlqm6AM0lW1upyrE5YjQvUvMEKwm9QXsEFpS+Lu1yzfjEc8yEfH6R2HIbk7HIqw2FN2YHeKaMwEmG6dZnYh/OS8y14sxc9ca78JeoBTGUvmmYv1vdzmNAUXmJTtIvhjSBBVBujqyy6MDpnSCwWPtAIfYNdFcwMl763dGnNMvXVVVZnivTziU4dWtZA0JRIi0Zj0d47GHIYoYqTcSoJpa/w7oaw1Ex7nwIIUIUHXHtsV1lIjJBcptEYXMg+Cg78ih/bABW9nJ0uq+YNsXdnm5GaD5UynHHxX6uZORrJ13OuucWmwEweFyIRY2RdjkLCgTcC/l0Y5XDRMjVBUn7YfCWh787uj1w6c9dZoHlvqfMGcECOA385HC32rU1cmxm9pRjjHIq2eSoqTw7Gr3g/WonlEFAnPn5EwcuY5Y8/QwxRrQs3unykM5Mp+IBN6sz/hiZJNMS7e300GRos4NBf0I3U2T+ukosZQMfRXW9wqPpFrCYbQKSnU8LxG/aEUTXLfzq9rjsjt74ujbTVWjRaUgfOoSgCfJoPDHQvJ9UaDNMM7gyOBZBpf1Q6NwQvgTqP1TRH0JvU/ClfXEqiaXaNKVM5FSS0vMtGpqhhkmgVEpSn05BrdQmLEZIvLIera5Lj6fk4vny/lFqVHmjYagEOwQicTxAoxH5j7NFyr2vOo8LQgeSeFXd/zLKgng+qFC0D3E+kVrJbD+147GKHp+u/Wz5CN5dQzcbWRdm/GBtga9O2oYAa3gnKCLMs7zpUEEgnkkJJIczxvb8WibQyaESmfR18gwMtynkHoKXtKJXHFxVKsZFmILbumxDr9a25gAKjS3JL8rZuCoqYcEBLePciNpxYeEsrac8TCel6815gEOMnlt7VBKjcFi+P3cf96/xFt0o4H7BozqyG51a2rhc6dDIBeNl6bxsL9mtsgzdTWlaGlLqZrwM0KJZMYrhDn21ZS7qIzAiLLjOrfPdOXe1tivywAt8hDFHx0P/iFIXuVfavtfvB8CmF2TfZigz2lfTfH2YN4961RvGLA1yH+YbP+Ctr8KhQuwaemK5+NX5pxBz3yaSA6NR6Pmkl2nnlNYTKDgrwsj+65a05xUZG8BV5YQisGxBGzGp5EsodUP1nMN3Y/LkJxWZzabr2MH0pp2s92oc9DanEKonyf5WtQoV7EJqG9QYK7+1App5hyTNTTS7iAp53B/3xRuxkxr4Mx7qhG/sbb9nhEQf/HKXQvoUK6iKNzeM8mSUikfYgTy5irBOWUlMVq+qb8Pk4zByZlfXGTRt2GWnHTR+xjeRffA7u5LBZwMvX30IuzsQfT70ntDLCiQxBUqGe8d3iWpSK9AGbVWKozy/Psz9/e1HqK7gG4KWkoj8KUIO3uDYEwwNbTFXzCSY87Z0EhMQc+GXWoKYol5GhkyNL74FESO5aZYmmW2rRPSl1I+Tqkg2l0LmGkMQKxS5n1OPgxElPtpi6KYdskFYaI4Q/uokrXZSu1RaOhJibIDaPU9Dr0w18ylpuNAXBnikgC/UgdPrdrsvTh84Q4mB+jJZe+xk5NfaRJAe+LRzfLqlPluZLQieNltUqJSOa1e+9lGx73ZVY38LrA4DWPY1754WnBk1HpHFIgXoXjWJ+4KzRWvGwIa/LmOmtxqyyZmcoZ8JBBa2x0AABc4uwE3jg4m2pQu6t3Kf5+AHgkKnL3AqWFjw5awKOPnN/n0hMVoptO9ykZo91/KWxKcQjuufQ/uGVCrKAxx4rZJSmAteSxCcOupxkUgqmrdjMgcFBSOfVC/7ACZhEB+8YnmrMhnmDyGbLHkg6CJvZuRiqDdayIWa9qiYRa+bx8pnHdVAyrVD6qZ33Ip1RJZ7+omNkSBgN+tdKzD/zg0Ed2RtZzquAiBGx8x1ljPL/lyV4V8KQdEtVu/xz/PulOKhfla/WAGBv/A/XvIfdXbsAVW1AeRZrCcrUDMF4rcKWyQT7/jDW20XzD9UxYkDyocTV6rcibD9+9wdDPVgrDVeOaQJ5o5YcfBbJQ7OmqXthfVH6+d1dcBqgTz7yTa5U9JraiXPtPWlpK4GfHrjC5TE1XLecIXLZoWeEkZvq1DA/GDBO8bIgMXd7mC0Sr1VGTVTWEwfn+7uyGevuc0VsNM8FxBNPs7jkoBKlWwtJUtGHfxxoqWyqmT7mVhPwR/9WE6rnuAnXrTyc1oo4LN7MePbtjMJmWaA7lTMbUm7Grofybev2e/hziIOwBheSKjPZ89Eyas/kGB7rHXIaTXgDYX0X4QuXNiBii5LmahvcR9ZZzxAlJU6QkEnCtK2dCOeA2uWP903UonjQh9+6rwcOuJWZ2tGBhPv2IPiZ1FS2r+JnTWrgi4+mxhA9mnXAdU4dpAX99woFXImbfDp2ClU/4wJ0jMcThcSLMVZhz84zgNjeqZ58yMtH0ubBp19Y+kq/dQU9MX0OyXvep32vU7hG2EJky2fVr/ykJ12avEBvAMiYDOwVVR2+MbSDxHuGtctZV3eJCVMT7tKrj5JzORkfzEtBzQkyyQjwctJfTxekGJRxysStRZtYP05+a+a3Hg16kQCbLmLH03Y/Jq2kZkd5pX4XzYj1X3prMFq0AilIR1vW6OWyQAbwhpq6U1TKCq9D9J0BQJbab4rmCniXWuKrJzx1n6LbNv3gBg3y2iavZwiWy1Z/BNyyEIAg28GpZkv++PsFvsWCqtxKl45h3QvNFk8+xf0JDcuC9NONs9FoTpOM6qGIicXyWxEAA+vX6ztCB+jDjRy0gdO0xv8CGYhHv4pM5pMQYhSPUC1gWSjiEI1kgsF44cRuErK49ktFiibyUwxMYeBmM1Ynx4zWlGSryw8oCuTsM62ttSDFrNEpabWvrA1gM5HXOp9rzCE4gxwywkgg9I3Etr9nO3GkzC5XrUJOEF64BA1yBP3lItP9HE0nAB/qF+MkgpaxyOiOgT+rGMWC/Gn/ax72xoDOcZ07/o2cwZIUcWY5nSF+w/7CwXQ6voM600uSmJZv5zWHKXOTFMIUL9ANNwabiXtYW9LQ6d7dgs0AOoptxwv2kXnU1jIgpI8ZBbRN6rqQMZFsehh3yEa+r73ZOKO7wCQwCFaNNOUqGyijd4p/IA0go9s6OgQ+X7nn94g3/P/0Mi2WG4R6I4IJmPTujRc9qB0T6Lawb7fXu3cOAgzRddmm31voF6ZGlOTiFfzD0pgfByFsWv9qK8nIGVQJrJZ4wHvUNn/bX6IOGbAWIN4OGlxDDspNMdFozznfnF/quPcFx6Dkv1PCwvPBb+LFdM9m32nxV9MRcTgr9AtbmZdXgadtuddEFi82LewBa9UlS5ez9JhmqzEWNi1GlMR7PGc8zJ6Yf4bjtwvhRQCs4MlNxTUQX4wRsLonZLcvO8hXWVHC2+kUxAAH1tRKJbjBtSvMlzYo5eEWw6uvg3o19d97Qc4CJd3HG6muDFFHgOen+AD73VAAWhf8oHg2GyWsnNSbJ2erTA570lbOydz7LOSk5EdZ9NcNUKGYWbzbybF9H4YCLW9OFTs6LFwdZDs4ulma8tPw4ua1jzUCQ1bn8MCDYB4kM3XoCPTpgPcoGVKdogczSqjJ3NTl54h9z30/ElxEH0ozq+BjDhq0dM0lgzwU/ztQg+dCDWaad+g6GB80kiwSrpz6zz4wlroP/aek2mJfA/R9IoSodD0bb+aPVLXl+3VcVaS7bbLQdLx8dL9DdfuaPJrfxS6wURV8MXpPox8lWAKCr2UmoX3hC6ACF0Spsem3M4l8wdXZ46vvMqka2OK6FzvG3nCp8SQuOI5G7BCfqgl4NDRP+drI6csVucYkHGeQ8BCVQbvjVCAYoKvlqGKdcTQWq3uySv9iSk2sEel6Nnrk5jdyzVf6wHiwZeOF6V4bmcVCLa7FCfn8B3mPnd7/Y3Pb7neNwZUda8J3cM+Um+qwqClKk/vZz1mjZYduva7KWXEgxan/Cr7ycAXNHhDY4wNOse3NTRB8p5na5KkouSbMtF5wEFXh+UcGhi1X9DSVaKefhA74E9U2lrhNGmBdtJx0B6vUoobYqYGDcIQsYoR8nFWOGcS+nSrdxeuJLxnrCXPNLKB3/iAPwYMdci0oAWocCJOGH3ssh3doZrmTPBxbqRgt/iLrCVgkPRng7BMKpa1eAnJ5Bzbk6Du8mwKLQN9ft+0w2mQmXlEWcQi4GJ3ESZgTzyKXlYbubuNKqCyz1tP/jdHgNBFephVrtmMpMMAt7tz8TO8pu0skfzbmaY+zi15/vJsh0/+PNmMsPhrVy+WFuxMb/qOedvPqigU9crdtnmLa9VigCUGO7LxgCaFm+Y0/CYdhdEqwieB+/tI1ppfIp+hem4cKHDMoOAQdpGk37KbBmI9XzniG6wAAFRoCKzuUc8YZHH5Sbw2rkTLhqCojIAYdH47EcGrVn/+c9poruwqawKIFsX5i6nl8ooogsmS60UXHmVyaHqbqiX/XfcjcYLRnJGKTMeo+7gAYaumQDLPdgBJOGBDPqdMug4Mcrw9jw1Akm5+6kSc2SjPyHr1r9FTQnL9oMbm+AMGD93p1Y9se+/c1Rglx9bhwR3mlthYFKvpGlTAgqLa4D2ghbgEcnuRCFQ9XV0tg+Z6ytJg8JQpvRTyg26zoQTDha627yGPilDc3NOSdYUUMOwn49grz6pWcF9fmDiQapz8FZb/sjdz/ca5r/rytKPIMQIWJxmup7167SZZjUxn5SpQFIyMFgUXcnj4aOEVAMU2yRuEKzyY6ZHxplxJn0meD9QfRuA3GFXWDh57tGJdIFWf46/9JCVWPLJWAWBHBxvJ+JaYD0pz9ed/QKmHtn9p42DSkfSiuPJ4RptZ0vTZWOkwmn/1TGjyBSD8CsF1QlvwADxXR39lg7co5eb1rMpy5fg8UGKUnRYxGISNejz3Cu9FwWcND5siZLkeLWpJ1Z8Q5aWbtH17CsVNtg7kI+rdvM5VZxeg0z7sE7ZytiFvPnWpnxEeHA1Mlwm3oq1YGQCQrYJu/1U12ftLIyce+MUaHc9tc7nLHXEneiq8D1LKfFp/yAqYoXT+o5uEKmDggI+8LRzzQFyqihY62bEWYstEckNsuwJ+MN5vkbZxAfFDvq/4QzTaBcqKj0qye/Rl/u5VQbrSgu3z07dMKgnfv1Xe9hcuRLG0lPYfOZdygwbIDurq6KXhdcDNzXvR9Ss0Uuj6joYvl786q30zBaQisWI8WZrRtGymN26864/quQZSYrEYAnefPFjf3G9B1S64xt8UN6jaCS23NwtUv+VjNTU+hw4qfFFZeWDjtyN2vW8C6IIFItpivn9X2mG2EBisQTP8jBI8502cST62zUK6DGTkX5+GW5Q9y/TZl6xAH5UWfLdmpgwS3brREKqdoKQV4XKN9sFsJIjfzLZaAb3ScHodhu2AHCYMMbiozpIas75kDpE5XFNM37xd0j3v5nd4h5K5i/uE5I7jwXv2RnFFLYpp7lPTbhgiQLscCEeyhs/L3lub1Z9KNTgQEqvvFQRSa+D94tc/yF6EOH9xUF6aX5gbRyNe14fUMnWHcYo6L/B2ISIPFgaMKMerzjUiOmIb2wJ8Q41AOr1oqeiQGhZkToz+9LWtgnREQJRhIqyfuBxyLD9V1G0G81bInZ5LimjsTXjJegMSTyCZp9p2NXGjDBrmKWiz4KFuRTO0ifd2pD46LyBZ2oZ9VVyNr+0VnBQOSj+z3R2KBBSjLiewEPyn7j+gAvW9CXetSbJc/NsnHvQDpA1TM+YQuDd2QBgHsjeKTWKeNaEyNUTDfYyQ0mZ4NTI/37M4xx6F/UnB4Kn128Q3RI1mQ/Ov+95DkDu2idb7r5/Oat17UV+P46EZ9w+DkW2UrNZURDGZTUxbPCPut5egX8YW3a2mBLFqLcKX9nbwVco1hZ2pZ0FFXizLDkTMu9Y/TX+cWijN2ho1mHjcK+9RvXSV5lhAd5XgPkob+ZVBVmQGRG/7Yq9inaA0RkwyKoqM07E5R/xIutUxSjhymuHiGn1cA/CImXJNmAo4EJyjqSAlTDkzG/eftlqsxIiZMlOWc7GV8U9Phd0bRf8+eRXgTeimY0/w7Yb7XY2/TZ6zDvoKCNdtVi5OlcbWwD8tci+4LQcngxLCLrJSRylPvNk+qq/hw0tcYQQpDagJWduRipZVfyQ/5vlrT8pNOYGqC/mLPrJhnKib3VF0Oo92Ll7C1JDmFbubB9U+LoencAJFHvxZX0hzC9gwykZMVqPIQlWz8pE2EsSzDznrneHU+UGOPlwMuwcDNPZS43e1vdiZWtoNKUvYR6vG1HHX5OEkvZFNXUtSxoB0beekB6vHkpR/4Aimq9YqkRnxER5GOoEbhpbJ9icmpgcO0qGSVEsd1m0aWb/0C/Begj1yVTrUt5Sjdbn6UYlU+lFRrp91JA3Jes6c9MQkaLNs6Jkrkawx3WB+aLaQaN3o5cc9L7qx1nYBt6hSdQjSNZUVqNHEhfVwpyBeBRoeNvbMI2NfmBR+Euk8UmnJMIVImKQ5Mmzl5PhU47bySwGrBUhiR8z6vNzHLZ17pdSGx3q6QS+6Wp3hEqZtS1T91+Lph23fd0acFglDEzScjs7KydsLZJC3RB48oUDRQLur5INjD44Gfj8ivXyWe7Nu6MOIA1Ajpx/nzfN5gpCkpfw8NzH7HEZfd+NlFYf/5WVw/ks0gI2AlP7ALA9c0Wr3R0uWA5mVeFjT8mQMMHMfHgPpIPUYv/0/Y11vtRdO6QqNYBaB1iqIbGGucJeppIQJVxeussSOosWyDNYQHjXC+Q1qh/qH2nhaK42D2mp9iMw9eb+ZTJRDg2pcf038wwA/Q1BM6UPAX0levDu6KDDjn7VwmCXaOJIJu+kwr6w3AGWd5i5iPgExknCEbmFyWN6OFHQEWad5ArtIX5XR/S2GpJZPMvC+nEDrFJ9orMuM4rdzFD2bRuhaKu7OagrH6rgQMzAE4tsSZsI4qTeeL5HbVygre4GB9Zyj6ZC2akO8HX8Dw7Be8g8AgGa9IqUu2z0HpLLG7zGvkXrIifY4YLiIvLoTpFetQAz3iNJustNaNMtgyLkWUxjFnaGXZl2+eSg1Kmy7n3Mzl6IOpj15cksX2mF2KoM1sCbOI0nUP/hOGu8bP2cqcj0bhityY/ExE1ceVu/kpvfHjh9XcEGQu3c8Z8pet3slAFkBj8YaEeHTcW8b9ifduNtBqIdPctzK3RQ9IZBN7f8Uby7J01flu/lcUogx472SId7DVYThjBawzNRc7fDC8nc4Ekxa4Ol++PkmfghT1hxJzlghKtPb2VOEcyFhTpJXcvddsoxZxq1yIIAt6juWhHHtlDVW5KKcLX/0gE+tz+peJEzgIQMDV7gVNHUHHkppbaILoM1uq0Stqe+T77ymHHlKHrQi6QxlaQUC6IVqDsMRRcZukvA1oPJrgxQwUGWfXJvT60vm1QmkVD/ZL2xkSz+mGiLls0gUYTT6ruZ1lICLZWbEfGB36RA7CLlcMDJfIkJGbvYapXrpDPapf5dyXMPHlLERwzVwUPkKWaV0WbbdQKEg1sPiss6p8eMW/FkRaR6BsliWVWRAAAKrIUG43PcBeouSpMmCwkiFBOzchXcwi6qCqUCwzR+vKhKd7GZfoqNi6eSDUAaLTNv+e8qQ4fNT/n+l4jkYAmrctywbvK0ZMMUOcS4Nk9+2a7oZGfwQu2hmF7a9RKO3kZaAGJfZ3ois/uQpI7+6pzuitNxV3yi2u8MzO25kJlklKnZ5q13fBbhtoeVbyDYVSINSpA7iR9XCHNYG/uoeUn5jZFg0t3Hg+BfKmDUzQ1k6IwpMhcUb5a3hfnn3Iv0F9ZRygzB0sHNRcUnQJmF+YcTb9vBgkQQsa5MJExDwywnF+wnsN5PF83vKUpkAHG5p1qNGGs2qwGd1Wyw8nXQ7hqVqgBHF7dX8vjbAr0K8ZQYd+xJE2DKbNVmCQyxqixAjDyhpEpkyj4WNIRdcFYvFOYfHn9QgaOyH+oSZNbI9GFwVMY2GbJFUxl1DjXpGP0n8mMi8gW6P7jT0UB86WVMtwp09W6Bnbyg3DtIGb6tG4nJCWqkvsp1fjLHDlIj7vnqwlN7vsS85phwOoXbf94S5rY98ICgYOWkaG16ti68McpRLEOU3PEboW5pOqASVJPjhLTHc7WtEHU1QxEIiPBYWrtlan1Uzgaut1IGAMxnOoXNWTRhpUopRlv5G/n0zXPqUpk3D/1YpnUCLDD1BUfN0ggY/iOqOhYMqYKuGTstsmgEPxOtMsb+jkN3SFT2d58+LOD8l41qGnD9mCFBbWSS4f8fWeR6y8xURF3b3vKaKTEljerDbOA6NVWNq9VLzsMZvXKdZAz4bRqI7/RlXDzXS8XxichchWqlCuOGkHSe5KDOQw2Tqw78eyoOseOYWLaqscdJapebU9UmBqJU9D3l0K/II7+y1y3Syi9Ia3U9Hb+itcLnfYXJbe9IFgbH4vPQacfWZ669rvs6EYsVHBDaqtOkKhEjIJCL4oyVENsfwmPEq7EPh9tbRMMdJ4XF/isKrbOj7nF8OqiHGJXAVZSRgFOUTPoITnks2M9iyxxeeO3HFQcaP01h59ji5vvH6CQ65UFJOY5DWxi1cx/LZ5ZowlVC983JMVij1lzw9etwii5aLZcty7NrXNCekgsUMrTdOlyNFirf3+OgMEy/aFyfNZ+2c7l25Y0gJaPIlu3x4iZYhRHxEZFvhgQcdMixCVY/Zd1vzXrAMJsBWsBSUJKm0FI7tTX/AW0eQJ0YEqvG0eiBg7QkmikhjfUI/mnE+TywGWWoCa3R5D38uw8sKFx1tOH8tssW7Zx0VnhafBBoLrUYnhYcHiFva8GSCPy1IhPFooKUh8COW+YxtyrlHIvzNnajlsODciU6af3EpoHdia0aNeydlDwbZECx7SoNehEfOC+NohBL/SnBz4KFSjFg/ndumLcKiIITkcd0dSg34CT9c0NCEgDqWh4FInnj7hLLFqWBabGxe4c3RCOR2VhTd92wdgLeR5ENaPRJUqefl7axdi+eald62FwSEU4kRm8SrY1i8jue8gQ7xQSyiBd9AU8cvwwHAd662c8ZDnHRI2/QfcrI0W1D3xTcGboLlvk8AMqnaB3ImAQS0lbdF/HAE3/NIP9xghMTO+jKYg9jcd+gh5rMf6KWjiTJke/DLahSQPEcz+K5G4B/nIUvU3ee+Tx6BE0EbhfZaACRGgJyEGMmsKaJQpei0QH9Ap6ZnWRErnXLYgWezO1Voy3nCzDPCiz4ouOIbQcazc4Rsc0qtjpEZmvLE4Z4+AKH8zwbZGGrTKVamJRgHxlTut9R0MYGbT1I5dfq+Gq7qHTOmZT9T1ETlG8lx7K+nE09jIj+dA1CZmsdAw46PzcxcskzoOlZne0VWhuLND536KPzP7RbUY/cA5yeCbSPx/8SQVmirreaN4KOKZmbhXvp2WRAuJM5wEVhAESP7X08tvwAqqThsEVU9T+TothvJEQgHqwKdnmZTuqyNAeP75Ik1vxrg/QL64P1OoYFQPu5ymb5jVJaGGbo/Ipgp3yrJGt8gbShTMelrsmKBEae8hDmX9HD2cbYlgskQuKz9/2JtuYI5q/5obx/WBDSok05oJBhx8PwYwt1twGuVuvhMk5JFFneU7pUPTEoV84Mk33U3erfjbp99aZo1NWLecAMG8mJJZClRdbdlf2br+gK+57IPp51AkPfub6FKERPhjMjV3X+cclzqRQBBGVmhe0sfHAoNgOt7rgSoJ78Q40pO6q4nTrI2t1bEGtDDB5iuMnVzR07PyyYjb8zwji0Cb8w+7wxqQblBT4jOKHg5qpgNRgpAmX34z5Rdw2mCqhlhoW1rkAzkJJ5qlXnFTL2kc/LSfyMVu8+P94KedHCFQAJLfL0WPEP1V3s8eCnhb4yfNjR4fTJzeZP4x3uPsNaT/SROxtuhJllFvoagw1GcwiUg6HOnujNMOM7FeS7zMFWerD+J8ucH38c27VJHZVu1A0NZBpkvOvdqJRn6Zm7vzHETPtNvWFh3yE8giDVKFPObndJeP1waWT0v3qmnGD9CVof26HnAIDS4uWQO801E8rU9KaszaxM7G0wtStM2iupwKj3P265lLHZIFiDG1qD1ypXEqu69r5LceyBVbWXx4BYqItWPzbjuaq21fEJ+M44cmRdu9xr7HqiwHf1wz+JnRofZjfPRiRIqCk0RdAF7srT93c5iLv2vKjsbZLfZxVwEyrKdkGGRBlPxIrjbNwj1mNVhdd4wPoIDJhh1ZwDO6qyulHgy3D8flDhQVrSUj/pl/sxpmkepgAfN+9zQVPczY7xJwLD8JQUXVXYhQHogc6uTUkhAgKuOy4JjZlr8GxKCzxUfa/zAElO/KQQiwlr6LdAmR8OYAfD68oSJ9WmjVtmymO7Z/m6wAWLVUV7kq65zHkitMqqbNiKplsBwJyK97krAqHpiyxvO1J4a5LB/zbK7XHymM41bWB0pIDElobedDRp1NMYQY6AYa09qSOapu8+Le30qMQXfNvOqW+WUtHXiV1hOon4qWkIonSs5WnGzwjvhyWmYRWbZaSZdozQBpNMV8Lb0c4ZZtv1/Lg8qbaQXBTz4rZl45B52bPZhpVsf8Hq2i18SzqESKfwRmZ2Qn1UvKH9LZq8ReWqXY6NgAAAAGo3Ig0eKDwx4/WQWGNHhzfUbsHtXGNfNhx/45leUt9k+vjnQNmnYPPQGC8EgOgTFBXSvSxtyzK27VeNsm36lQedPUIp+pnch3kqAQFeT5vKofZ/X3jkOAQoJBhyMqZu9u587WhnI/3qQUkaHcPWutUCPKy0+7vEkpvrAP1IXUmlqZ3MIwjLU8E/Zq5tFfkerpbiJrVImf49YR68XgchhEX8IlBtVY3gZE/K6Ox0MLuH6DEfqmYBgThEvKlgdmi/qwcJtwbgKJpRfNWBCOZfKq4N4S8vTDNr12jHIhfPdx/TECNoPSXLTFMQb6rRABmH5sWApe7SFSDNAjcKr5ZA+Jd4v0tuJ54lX+RDGRfknxyaAS9P+OHx8WFJzGSwXZ+2ZsANBxso1BNNAG+m45kbE8eyT7IgeaWXFC5yOsc/OBD1pLw71hTqLUXlyiDyLE7xuNMrlfZeSPoDlHGrV72+q917thIURyeXRLdU+f22yRkepBqyaCzav4ODIllUcpGqBbdgAQehXYAkHJmfef1qxuNLQvnXRe6YI4uWVyRNQs0Vv5FRnD7aGwmCbxXjOjXwS19md6FhCh1N0BvRH1xxS9MbCn/P7+DEhQGJyekaOFWmo3i0L7alsyb2tJphbvZAOe9PE8t1SUtHdbnBrzV28CXpRb3gx6IN4x0DWaFEYTdV6S5X37i/GIaA3tF0NI6MiQR+yWleBxH/aAJNKu4jY0tttQMwChoNYwvsrlXQzbQYSQQyT2ve+8nbZ7XVHTTXU8Yw6ciE21SaXtnT3g4zPpNf0i7NN58eCwiipjnkBE67yavwj733qY0/9dfN17JMlnBwuwPdfJ9L2LdQex88FF1Rz9v7LJ/Dn4ex2CGN8nPNKmTw7u+8tuoeBEsjC/6eWlSgCH8Laa0JSNU2El9HjTgJcKZZOfKAwYpqQ9uzljRvjWJ7pEvrBqJXTTPQoIWstB87X4OO03F+GPolF+xS2JlGZ3yQBFemzRWgWmHVD1cP83W7Zlv4rbjnQokm1sTB2zxJ2tP7y+5md4hno6J+KL2tPNR6f6MyGek0WEsV5ipN9vP8UqRwvauUzfIotovWIhNsyJp8JaIYYnmvA1u+y70lZXn6NoCW+oIcE9ZY+bfMmHH9Mtv3qWvrkGeCFTtOlOX9kS07PW/0hg8Z6nJYoO6QzUDB4rU1/Xfp3knjXkSg7K8a210EiHRNfaDvyw+KqFPeX+MImX0GimeJQ1oC8YZqZwWO3G2g/pWA0kJfcwgtkV71l4aQVRO5XkalelGcpgEJNmJ50PXe/54++gL4vWzxvnhueb6UsbsgmKcJMDJGhBb8I6bWOXsBHPstGlPs+6sq1Cyim/AIdKZoadropVDTFOrB0W7C2sphPlOsykzjb7at7PLxT2cEFzfszTy/QNvomwTqgV4m+gGfTwz2jec8EfwquXkaEsW4DYQ3LT5Jyxme+LGMJzcRfHqoQgZhBI9jmF6/0bM7h8dRTFAuCi0Q6PRogapIHZYV+MsrYHROeujHyLf7++GZNEWRgMsOrfaJM2MFMNC6CBlylFVU3/JkG3X3pX0djo8K1ZRvdejS5vadN0igiepZw/8kYvir61hgz1qLqFbAJAkYKIBGGDWs29QNbyW2L5llxgzi53nL7qqY+MAqYQPEyTrssYi7iOtbpUT9zDPQD0ukwxgTq/0cKx4OCZlj1kETk9KIXxlTt4GfyQGXMgrD8aqhMmX3J5YQD2EWHOGeGRZTYQwDFceBMM9rYVn+tuPxfk9sz1mPwWAPSSXGGp+IZTXZ4iYVQNR7z4vVGN+3j2YDBPGk5KTmo/EeVnL7tmj/6OHhUHWEJcS7l6cnyTOFjzUHnzjWQT7RRddk90BhRUY4DlsZYDLxbx2oKXz6Ik2QbDBnGQUO7U79h8Hmr/MaO75+rDbhYo3zjsL1PiKE0/SWxixhl4fx7DAxF2QsVC6zHEselK0atK7z5sSkYREr9mmWvJQdYnF4zEWbZ92E5OUE+NgyrsEgbqb5z0fDOkSNyhTaTziz2Epz/pxgzMRlRjGgH3KWdVskP2xA0uQy/haTqHLN0+YF65NTY4HtMAJuZYDmwDYItiawnLPy+Uo3GXkvuMWXhU30z8BA9YsTTrJD9a499R7XFL6RyYfFGWb8iT4i3iRCOIK7WWYQ5c7a94WjL1YPVMuYxH9RZM60qPUXnb8XsuDCdVr2Pu1EdMdZ/8SWpNs8Z/Q88u7A7Pc9jR+lU8io/VRzYqpnFZUy3tMGXsys+yIzT1IUOwiPm05wgj95qb/bf6CQq7PBHKzmYEVyMzh3fhkQPvNUWMUZ985ErVgtM9ysR6S11CcslhWkQ1I8KkmAKhTurRAVDRpx28yOamiyBw/SPKy8fgHiZ+ywSGjvD8xFGMUhlfPORN/eQiplSrQBi1LEd0xya0+19xHkWplGrWeOt0+26KI0osk29JZ2DKrzPcmUVlDBXUat1Vgzqtx1OeqOj8yTlJzsCvW7PRswINqjTyGawMft2OIUnlqaiLoEFIh59Pz2nHhJ/fg+4cBZVCdT6Iytf9PRGFPbc39rY4z4TLT999PlD/1PSJR233oVZ58YwOXhYCXs0pE34YuOsgx7G4KSaJ4DJPf73B6bkl4FLkKT+ALe95oi6EOVibUbRh8ekjmhg0JPkzr/bH62Hc0fxcp2vQcYxQYe4ADojJ/bQnt+I/EHO6QSEkYwjUAJTHbvKSv9MvO9ep0am+7zDY5t+JgosaJAavl3qo4xm3cXbgOS4vXoPGmz/KDyLjzUvmken66eBQpmJnLBUk3OwcucecfQ+z0dFTYNWgIesbw9uwmRH9gzzJUPQ6ojDg5IyFHrDlt/x/ImXJ97iEN9HKSgQyYWS9H0tIAHI0skEqhcc5VYj0LvhAvgx8isFpFcon75TFK7PHvdWDLC7Hy11Hf2CnGVQp8W8t5RANL+rflEGsEMlflT2cPfVBAvZ/P7JsRRo7nmBj17EIsCC1ZF31uKrHOVq74q1B8JNt1k/QTbXmjyAfGlIhZg5a7Ku8btEmZglTJE9MN0+hrbCN2R+gidn8WLVwiLdS8G8c/o9giDrLBDukpGixf/E8yBW02NMevZ9GEo5zs+rOBohtVyAueE4bAvxP8Xsu0Yn0lIKuvX58Ll04fu74MR2EcZINDmrYjCbhsllWidPfAHY232zZArh8jKXIZ/IYUXVQonCRnnKqscdk6jTyurdC+KS00WQoaACL0zXfWx7GWRl7Zi2I7n9M80tkSf9r9ZipylW1hhojG8SUn8ymw4KRH791S/I57YB4V2b4GVKgEECu8ggzLPDezFo79ZP9zjgGF+KtxAKZVs6NFeFSTyb2EUEiimo9/hAzt6gfWWfmZIXmn7RXED7OKOvDegySGChczlXf0FTF79KlPxua/TnIvf8qbziHA5uY6/9U5sKf/rxV7xUGa11Grl4nigMJ9/qPkj3qKadDb1G+l3LjF5sjH3nsmregkHi7IJ0rJOywDQW1BIqHWqc3nar67aiD2c8mSqUqfFJ83Bav2Ttf+YGYiWiYUBcWPMxVcMbNBZAEbmayDrdTRM5XhimAuC1W+e8LVPXaQZRWK91EL50ytF/XNmH1f7M5DSfXIfr1BMABiVyBLypFh1Kj38m33OyG/P1wRTmkgLxZC7kinrWmGhMP612vR1OzRWNzTvGkJeNEeOdPJKijwbXe8c4CYzySOC1opSVSx7sl3PXjuSWtVZgSbo9kQXLo8emV5nhqqFJ2cTZQeWeoLh/WHDJ0ySe2YHgYMt/vncgl6GuoWXH1fljwo46B+cr1O6fpgWuCyOUzoKyOAOHwpF/vF6+4a7XLt+k7aN6tu506ElyWWplxjhCKCgLife+eXdy13FVt1Mus5kupSCtmememNKS3J8IG0i2Kh+tmOt9JXascNNbLVrhUvo3j8mHVrua1xlUuT2hybtGhVxrESJtVxWAP2VVzJHoe/H65uU8eIzPvoNu4ipZmlpLiLgKkG26jv1pqPpHPhT6kdTbt6TICmA4w+3mdq2Jh804OV+ZUC9lGV4iTdMWDuvKcRTtPExIZClMZiFpu+IGSXcO2G7KBIDwK+GOKC/oeQovvNQipvdI8x1QP3ZcIlVMoEMk9KqlX/rb++WfhlPUerB6PMRCYmwMwAUYNAcwaVS2Wt4oQpCwkj6dbutzh47Pj9KfNYfGipTusF/Sijh0enailZTp4jgvUTb+GCtqksWtXMa2ZoqMpAclN4s9Y4RDzSYsp6I3zuz5EF4KrzHV9izRKmQI8mFq3jqYlmODc11CUvV0ZDWGc4xualZiSohpvu6g/a1WRHPG9th7rGQuqR8FGUGOdKoW7hhiT3FEmS3/eCV4rTI1P1K3SvRQRE9pSHbNH0dOTDXbjqvEDIPvGn0K19eLc1uDdi0AJuSpg0SZ4DsQR0Rj8jyQ4KFxrnZPaq4wYA3k3D8ow8uEiQiGqDHKGAgZqDEZzokGsrWxQirg1Tq8uUBVeglt5rfgKr5sfW9uP1gEmfJ650uwn+2NgCP8jpNlPdSFcBOLbb9QVOLPc3PII320jH4Z8NBkgXEZ3B76GIgVmjCujcta21QwXXBWnEWtPUnPSZL6yVbAir5ZUgrGenBGR36xZciMz+SWQJQu7YDoU2X4tVODv/lOsEYnc0mx5ITEiV8zVLGOnGkmbHFcylHJrSW/kAW9XTO6x8PFIrrZKCFJ5VstdIy8fW00qZhThpAQeyEnSylpMCcEYQDotojsgdja/EmFG0hS/i6955HRv7ekqjg6Iqv7Y/u58HvZaUWMqAEHqgyrW5VjYhjBvP1gFTsqzNjULtELLHPWylCgUJ1zM1ZbCAjuUiXY1d5q3nfENKp7g/8XS79F5OMpoYZFoORgVo82kE5xCS7jZzRfXLXX2V/Ay/YmeYKJrGiWdiIX3FerN+PYxzSRQnPCwyJkNLB/UKVeTsghc1IRiC0q0QE5BxK2zMbKEvQEcIvuVLfvpnoXUpLBWt8xejrDoaETab87i50oXs+9JqxWVNOtpcC7jXkKpYdZWPGuDxsFh3vkKdI8G6vLI2/VNmvhoD7vwZHaaaR5ou46UV5XTucntLWu327ynRa+10DvdxQLt77cPq+Kygp5QhEl7wKus1kFp9f7hntHDplbYpPdaKeah2WXMHkGuTGSwp3njOB+SSeFieGHGLZ9O2hsofzDBV1a/ZUYtCyst9JC5qOAwD6DoTUj4MZYmpcthpI6Eh5s69Gh2B/TKk7ANoLkqoFQ5hnmcm+k1LEujXupH8EYBTABbLfy7Vq3RVt4wkJstAFFreh5ZUFBYRLZZsXu7fKjwXu88tDfMsIpIdIiRdcsfOt4PVIOpzM8Mfc2NoXlCXNJsQHCgkflCJ+1/BhkjtYROqYJ/Jg8s3JwBE/Rfais6ubvLYMJ4x9MEi5094Gm59i8O0W+YLM0M8lfeXg38lkYKPFdudEuSbXCXmn6/wncDr8efimVok8Dhz65AXZCZCwTC2V6ZeQ317+rUA9mKd2yOV3ywWW2G8O7n+nvLGjZ99U/Ia3PGpXsQNSNdBg/pt4yyrEMB79mqI4G2Oq8rzU3MblD7por1wF0INK8gmWlQV7bRiptKCJvdOP0Ii8qjPrzOGoMcTI9DipvTPBANV+C07OkYBj1iE5SrOemnRMhLfwJPVwZ7xzL54nPVUoIC9HYZro/MCv/VhLgAfmId60rVdU4GFL1xN05VbVajK63mcAOG8AjD2oclirB601LvXtDbOdEQWkV+LUikOBw1+oOH2RBk/2DlCvjVsMoqfLT4mHcf6fSJWI6/sfS8b1Hi83Adf71gPJgxU18K++xhST4UfrRODRwk62LTiFaj2gj4qVw9OuQB2PXXdLwYRXFoVZ40st3mNWUwa4he7bhAR52pfY9ZLCQMG1xX4gIAdbdwNzxUOtR9zE3aVQSLUIW8k3eGp+XGHrKvspsr7i4xLRamAe1uN0GYX6cRUjufmVd/gsHGRdkfdCttCJkckoNhbxbIq6Ln0yuQeVwKQXGQadtG0Dg94ce6+XYJRTL5b9oI9U/3GlB2icS+ljd6C+c9dEXPurdkEp5CmowQ1vPHbs3vdYp907TUj8z4ACS0yaTuYHIG7qLspg6eexFzNWUcDRMRAyK3FzNMdfxZOE/Qy+eYCm3sR69KFffUxJ6LRZv+ebH0YuR9tH6jIncIxOccKWCxTjMmfot1ldWa/MBSNoRayrh/Uh4cL00dYsf/qBWgHasBAtyMJ7q5xEpWZOgPGiDfRdAzaMehlNleDMVdY7RAXQk8cwmM48xy+rTBN0a+c2nK+YkeNiki9FFRfHYpcnWYSJmN8dXodHgiMKd96b95GzPGEL84jL968yryIZ9nOBCmOJtqql5NKOOXPCVUUf3f9L1wa0cNxJfYlxQdiOyXja6ybqlZsP8uUvPhGvIy9IHkVbNnpz8Andm6EecDT8O8xUYj9Y0cqES4wNFGwhf2qdusrj48yX0wr/dPvnwKTmDpeCAIjgx8twLreGy8pWfO58pMcf03OLkIqV8Bx67sSwfM+KQOGZwEoSPHoqQDq+Ri+gi/oDBeAtziBlujxRl0ry58ssvk1PEBQ8X4kIQEQVgFw4H25+ojNVPPgzTXeQdXbcCoZuNHL2G90+EfPGMAPik0vV6x2O3dhg94QWpkV+E3PmCOXmsBUCTWwcPFQytbuTN0oOXpPOdfNT8O9/hsTrpbUbI/BTl9MIg4FTzAYzlJpALoeL7mf67O4lXBHyrEorywAW2TuJGHQARwqWaURGSIMUD4/K1l7mqAaLxRU3qKALPa36SB6iZYowzsBhkQK8y6Oo1J8qj+eDoIUuYJz+21iG0UMezwKHzOBnLwdxkecPu3h0w7BjLaz4k8KOk3s+oL9o6R0vyaFsMTF5DkWgv6Z4dbv3YbTiI2uw3ppk2nYRvhUpSATX0n4g9SSS3OpXoI3xNtsfz/GSFVNd8AAuzg6Gq+oHSdEmLTXUgpcBM2gNqpa5crIvToudtXdqmmWlvIMNJqTpbLFuO8XVpoeqVkPURQRoCaL6qxZbKoLOEiASxGZFEZuY8VK/AHEgoI+QxWQW1MPGq8l/A7JJDDEqrUS9aj4B7VYIlK7oknUmv9cYjHxa18yvd7Uyw5q3IUoX3mIqVicbwNKTxH6eRWWYViA2TmUwbRoa7LB4DyQj9jXS/A2MQIennCwMnL9LSBGW4GewFL5cY+mHRCpSUh8UtH4ihtTuQzzTn0j82Cu/RKMvZt1PuOCxCH0L69PUmfZqfXq0zGZOjL+jn7WAxjUNtothjBotYgmWRY//vYR01him+5qnnLToRaPWKfGUlUiu62uTFD7iYxsnmASdaTEbWrsVHVpwMLPCK1KDlsjZgN3YIK+R3zRKfcpElO5AqULCNtSo9+QRiB6nxYhAbTlcJA+Cpxgf0zrEpuNUDY/+fuDuWouUhzr/8H2CxIDNMMJxHvbb4PLve6+DR9d8gYy7oz0LyAy3LLIDu3r7eIiFqvgNO/XNSwDGTqV3ISb4VVpokJYEei+n94j1DPdr0xrzJobSlyFNQUs4o7+N0syioRtzkWKpVIEQPW6a1K12CMxTuutrGqr+abdAKKb+F8bPeZLv5TI8Ejpj/gAGKmkN2SaAkT5UrY4UV0qfBsmpxXxWwMIk99k6qaiXkutezN5M+y3JGSV1l6UQNHifj224tIvluiw4TEgF3xIbQSknsRkxQpbSWW9m92Rbah3wcgWgWlzLdRgQTWUQyQs2ow9ytJFyipR5VBAmZ11ASNHncBr+y0f0PVyRKm0wVSYX3su4GlkA1fzK8iZEj2s6i0q7pG8pJP+AUFKOA0imarZN6vzbjF1HUtxF6RUV0ciZFtDDwwSA7BkNSs+alwj2B8r69/zFpSu4NmXn1RR2Jr2wXuat8byTXQ7P18RQuM/KoW9rzkpXIWmKATKd4DwAXPU8b6fmaz6vS0HQ8UsiDLdc3uUa4pXEM5646adrFUnKJBdskG7p2unrimRtHFhiptA0STapdAHY+cUIpH4fvVwB3yX4RYGqIVbrnR7DrrjT5Nso6IKcBtrjjViqyIe1wviVi8gt/0PkJ3lUG81bup4KUBoIHa49yuM2mXuLGu/XrQSvCOTbcvbZD3KiQ6mW/LGYVAWGKH39+7qW8zPxUDR62y1bNG7QeMD45K34BdZCeqs1r5LvKihxliAloeWOntnm4Ux3yxsNpfUusZYThgfoBHrKrWcEkOfcYgCQW07lhAD4F7A/BZjgK+9yQcLE3DBbLJA8UCbegfVQA836tNibKCgHGRmGniaSBWoyCtB5PcpaFJQts998mWQ3fA7HRmH1q1SY+t0pRIJUW24y9Q2Qd+SrKuYEv+8n0vqeFc/PN01uh4hXNe3T9+1E1kRbJqno1JNwvBc9SQGULD+wl7Pdzd/EksoPj2Swsslhau0etn3ZkbYyRwHWAuu4QEeuv2/ya3mvckJCCGScajZWTF/mw6cO5/ARDFoiJcRDBx7ALb7yH8y0NacyVXcwSOpTEDxpswK95U46q84bxKj2UrqD5dcgZrmiK20APNwOioW0NPkxQYS7iXGXEAAUtkqWxpQIPLPd+ol+cKzZRvSpdh626HpCJYL/hljL75Y/RdbIHvs2uCbsVhd075oel8dJ3RLG5yC3kWgp2vuDatnPtEtreRqX/0N42A3Pyp+cAgp0VadRouZ24eq1z5n6JObWem6MsHQhZ9J3DNFL8fmvyCcj7dbOpnza5MRUBs4ElQeakfujAj3tzIoB5oGH1g1wzrWrCOs6+qudcFjL87dvyK3Gv9b+cn8gq4cNbCsQzSv48N92Tykzml2FLjO21Y+pj0F0TT+aVCmz3FtE8PfHSVf2ZuBoESkZv1C+nnixNxbH4Z0pVpp2fPcRUg+3Ju7VY45Ti5efuK2ZX5WJMluxMSSeP4hCWha2H2Jqdb+6R6uY2kAOixnm5Ol5dsnwBIOW8Zs36j1v96FvApzALxCEYh0fXqbh7y8OYqYdJG7BND+4qi0uZgbSya0Jdktv9+QOf6FVmb+I3yJmf2PlUF0kOWqkg3Aup7Klxi5AfLWM9sruk9AlG01+OXSY5s8k+gVbiU0p61xI7TZFvsf+0cAl5UXMjpWna2E7DbHith37vBBMeMpVCtUpoMYyE60MBOJ7+UoF9+bKDt1sesbnVh/gzGkBWKMS5HjsyuGICkUiEKfazDCyuvsnzn2ajmXKGxGB4f6VbrSQHzGWb3CDIGIouKyZSg5JhxSu8MIuQqv0bdDM4tqaddIJG6A18xOJ0PgCNelps/rarOHQnyrSMsh9jstn6UgHs4DKE0e+DbDiKtSpIqfdXyrB2bGE9ueSsCllGOF1J48n6pBEKO7AOKJZ2fTzktB+MmVXbBi6ZkFJ7PQ8PMOxIWoOb/0xdhWZe09R2/Y4z9lFyEThgK8bbtxW95JbZODy3Ka0ddABR/3E43kruu7tGmVMguLs/Bxc28M/onyxFGNYaMgwFGsWekC26kPQcuhB5LxbgYeCwntWoJ+UgPHyPQsHhoCqVdORctD70IOmt0EOAY0OsWMegNBoHUeUMTMFSd5ExOg+koWW0rH62Ie7Y6MqPgMru9ZACxbjB3ZYa19h5fc3mQ0bVpjbih1TOLg+WisuhrWSMTtBEwyzkoOK9uuSAFwY14GkVU8LMbCJ64ULV/dsdHVn3wi8QnReeWinjodo7uniz93bA7BE7inOknytr8bwc6jBVK4Ojgg0ArUjtut7Zs3o0vgBWr5FiTpGisE1BGohQlGj6XMYnLHf2nPW8OqOZrtPqLp7A0kNdRiuiuehtvsUhFpobDohJFrQviwoFmAqKs66L4vqvZ0QWGqLm0cjMtNaaD8G8VoylznetIIE1dfMLDUcHeMx/yPTf6+delMAMsTtvHfyq2PtDxASUSSTp7aCyjR0oqR5ky0C/CAwa8n5nvsSu9VExZbb6jz2O3dflOAJo9l93g1zGCEVfbDjVxEiBkcCY7fAqrPjgEDKvjDsif0nFbvAUXYSfHlzK3w3s6EpQpM6YDQSMsUQNZc5pqt8WfEXh3XyoZ1GlWrnXIVnklXORKTQj3wNpYQYEy+N2rBiSGarrnj7EHP6pCJPJeVsdf9+LYGqsiRRxmxLQwxDtzC9Knq0KHPhUyEB7m/soPZ8sAigathWlkZq9Uo1abrHxswdW8Sic5DEdQjtp/mygZkzqnVOe0lCvpHizPkvSbNHqmLA5WlvyVIetOITbbFLKBQ5ciD0Bc+s0hCqbR73y2GVPAH6M5mJ5P3B47ZA7234m5vcny95CudczDaWMAKwElt31YafL6kGmz0ToHlP8fF1/GgB4nJGMvd0BhNH8/rRocudQSaa6T49/rb/vDE75d7AHCr5Uk+fiiwglfu8LwyPItM7+FH5li38/8L1NFhh9XJHEjEHnFhvZy4wPPOz7bOq22KngMWQwm9ZlMYBjZLUwLJuVDhAlamCBwsU2EmdVpwm+uQFAlcM+cLpU9MR6PuZeGOlW1d8Z2h54iBzj+T0pcorDPeb4/UO6VXNSxRiXjO7XbTOGQKata9tVK+Q5NsGA3TZX8V0Q1cAqeWBmH4hMhVtSs1+WW6lHPKunNt+yLLcpDacy3K8mr2WRswl6B6M0J4fRRJat1/3Y9DSkv185VZgpZHm2tqWXGIWXKFVUVfMMlBKTkqJzZg5G5xUaTYs05n6ON51ENsng74BhBvEUCkyMJW3dfeNpQWtqo4Sjg9QEZamZ3ZGmZU5mEpy/+oGwjqT/ijdCfBX9jJPJyiZp/9PPAYqvi8UEECl91/giWz8EMazORgbXOXkV3DR/m0bFcIk6QePQIruhmAY/Ojb1+0x07MaX5pCxMIXDQ1q6FtKgsT7f/sOXR/zMcsKyHasVBGxYtrTrKWQrzOOLG6xTfLKtM7O/lFpeRSOVp/Ao0R7HRTlnwAsj5/omSEVQjFJJJTfl2kUyO8b69nzJ0eFO1KhTsFhTVV4myN9OGlCM8+a4UcuOygSCBrX5BNMBYTdt5+dm2pDCD9hWY0PoWeeGjsOYqiYgr8Z8SMz3/lISfSa2QRMf2ZqvBtsQn7ls2dWJ1WSfMjr+t59LrCSsAwSAXxZPKRDepKbOiAld80zb7gJ7a1G2d1XfmHpLvz/LCiYZvpOVkYkERNzjgF9M5J7hbjtz/2gf1JjY5IJiuVMEyyAfu7Vr6ZqC1OnA9aarrrqrfIQobDU42DCiCz76u22QWoBGpRR7c3pH3pkhhhjFio8rY24O1My7vFV7VLxU/jkrijSppZiZNDARle7DIEl5GVY9593UEwE9f3r92Sk8UrdtIPpU4A8iRNcraLbGzLE437tpM/RpgtVBKCWTdVPkWlEJZUG5ZiDoZ57v6XSzIoPv9fX/jZ/J7D/V1vu+k0ZZScg/kcV6y4OVCymG1f7Abn+5BXUCgM85tJTUUY8w2UovzgrgHlvFZ67BL2c5WJ7/REGQKKrSpyR/mQiknyzy+gA0DBTl2XDzlvSE5Vwej7Fmz2E9odBIRZnYn1tFuyimffuLn0lFld2sLIOeSDvB152t4XZouvbDkcEVZ0l+zxgZ9miy7CCtACg4NWYzVa4hh4OtU7evMwixmdb/MydAYlkzzpygj8ghAu1/2FDrARGSoLKuIBpW7LojYEFXsbDdGNBcNMIu4Aaz2wW7IevRiRE2dL+2lCff32hCqt/ozOK2OjVCTXoqviV9dzvGJa0Fiy5za9pkTm68lZvFelH1SRMy1fU4VMM5ytPVu/slIH8DQVtdmh831JKL2xQnCSSFFPPxvkVw5SgtkqoD0Zu9AV0cesnqZ9WxSQ0obF0pyiyuWroBel8XsUvfwmuKDw4WkYjCE9fYpxZRB03w7EXz4DFLsC4V5Y8kr69U8XSPeKfMkdT58EyokQo/wMMQWOxfNWnhcotFWZF3ogvX4dJYQGTwThW0DZz6u7VRRk1csLWAXVtOlW18G0hYpWrJjD2OCUmIs+SDQt2GFz5hrQkH7jBqXg1jODgACKhiUJTQn0ZdXsLnHdTKon9tndxKIORj9Kxrnkf+hZp71f+kKJ4TJGZcVWClmymR2F479MUTBQaPlbh5eVsUQvHjJ8qXiq+3pFny8MW/sZrjwIndH81zvl+tLu9wue5XbzoymhIBx0v05Rmc1L8EqkPtoJHfBcRmeeG7KqWuKjBbwC2vFsYVj886eljF3OnhcuEL5lldI4qnvjXIDoboE1j+7+zk9woaIZ930btfM9DDOLaHQ6X0z0HzO8PaGnz7nbF/tkvqYyvxA0RWkT23hmIgGfxuusDUkS+aZgD/yruaMg6DXPNWOI7ehhEARXyUGj2VmeRU0nOUPF+u7Uqc/zJYXDzdwzH30jPIcPPYroMez2ZHl0cN3ZAVeNZaTummz+5CGaJqTUAh1Ns7UO6vuL4oAxJq6LyDIr7A6HbGeKwOaofdk32d06nnCFxGUlJ3mpiML54OugO3gZM8Oj3k4iCeItr2c5P0LkVB4qMvvFDTFBxnc448QxJ2LKc37cvWyBJgFAaXyX2YC9knfMRkuyCjdeVpBfA3f8ZuRRoJC2jx8x8+t5OsTXgm1uTs9sRRFiJAwYbjuUxrC3v4EtpAbF6iAdvs4w9laMgxr0EZiP5JAQEXpmqhq3TCSuNQw7G1u8MwKB9Sbf/X9ZnZxlkmgNYSo9b1EgGgdeQ5tJU9wK4YQHEC3nBYm3m63ceZytkLdvGdIFy073uj7OQJ3y7pIVl16YKSelvaxS1KkslrCewm85Koy6OaMSRyUyqSUwWfTN60mntrWiAcDa941xmWQTFgO948qGSJX3AnZ0vSMEISnTKk4Is/qExynJ5s7z05z7KuG9PcOgKYdnCHCzxvBgS++jAf54CCJF+7xbwUD5WDWpOlkLzROQn3LbQov1sJRBAQusMxUsn/E/+j78pSXgRdZkMNJUdi8wyiZ1Hw1QA7wxvNz52f4vwpfgU7BVhJhKSaVEEkeA9GOBcRev13ylTO02aDGoc1fL27NxVqpSi1yMlaOx/cz2hrhaVLlAmSt4VSFXF8O3oD03MgN6P4I6dHiVMkhn9TUBAVCUopshMlqRodIPJoxcERwxAZSplqsYe7bBbEuH/6OyO7Prok/1xxQwFIevbRWnWhcUbfE+OC8FnhGXPawpYU1VySu0dmnGQTQ2wu2UHFx0wXcnc+7fDf61/AhmBXJK0fZzjgejPnStFD7U8ul2BAssGqTtmvHZGR82SgFN7MEMBfRl5wrBkHACmPRuJvH3PCngfThQAAAHvxiYnvGAP5mfTsJJnD4N3o7K/5ye55nOtWlNxwAO/tY1ShrmrAKZQL0/M7gOK+eKHPMZVNtM2DKQaKNksfYKZ8mr4CS+llwzMu7xbQ1K0CJYui0S8wdvXrQQglzf8Aih3lHCgzocgc22cCqKpDGbtQiVA8iKTu++qrscUno//OwCzrKt3KEIV14M8X3w4cbI8ENAcuapVWy0JDN4BP5U3vYhZD1Y0aBOY6jfbZbRZs+5hnOKU/eDl5AJuXd2qZyrzoIdaUcVoEBCe6fsyI02okCHtjseJYiDYUgNZnhC4hOsxnc2ydt8XvMg/+06HCFBEgKh6BysuGqvnMg9979ZztaHNR+NeFzFz2+/yl/PR3cHBjtAynwylplgeWtokMrOwKyiVuxiM6M8o5hh6yrnKxS2FSchbUMu06MzzzmJERlC2gDbZzhW3V+mqWEdnxU9LeB6G3EZb5Ca7+8LtJCrY45IHWyOYc12+SQlj4c8GUWY1JnqUmmyAg7zI3JHR9Phdm4ifzGvg2By1G+SWo5zE6lFECbNxbNfaHGsziJbg6jZB9BRoxQFSJkh8tuu+ZmquejE0OEDIIIMCDY+aEZnW5yM3tzvqH8joRIc5h0o200lQvlPZuWN0ASkSE5LGBbAVu4KCnTUmUEykxfLIWgLkiDX1JbxJDvLdCjnKwFpcqrna73ub4LmTWb4wbzyD2ZLLg9XbR/jfoOItwjNRLc3sC/bBAztUG0CIrDH2ZRt+U9xSrkK7mGqkDq4zrCbPVN5NeOdeZnNyuXkvj3tawkdLR7nUmRsNgxQh2hNLxBZatMXqq2pOfDsZSHg5x9tvTsmeH5SvLt5o2QL+jjpmP4234/98dcsM6zh3onQMsbIidSA+BBir4/xvgWCC4g+yPF/A633MKKYEZ+eImZFE3wdsUkvaWVvlhMiyp68Z06iGQUEGNxux4XQhVySn0n5qp/SLnkJyiziwjyl5brq2msR05x1mu+Pv9mcsvefNWJaASuyC0YTErd5ZJAfWzE3E7aRWRek7+WUFYxEgw6khxV4W29+CEq9Z0fF5qOS0phhRY4AkDkcJAe3JJy5lRZTXbZg11C5sG6ucPS98UMvyBwtWipnIAgkFH6e8gxD0BFeWWYtXVLeFTcMCweQ2B5f1o80hznw33RG+d0N4xIRTXf4Fgd2Rq6B+jGH7qPVA021wuvhC0JZBhdq94UdXm+jEuhzjAIamiUcW9E7Ue2u2M0CADCpUNBGn55Eg+FnfcETvP/G3NeapQB5+Ra8HRHl9FSqAFHE88eMRpaAQYLw9RVMcq4I+xO1wm6gSBJs18xACC03WT+qS/GeJ71qsWBt+gzbpNFyjjkInM2u5BhjyeWf/hVwln/HXKFjM9JLQWzdGkXJofrztLmmMiHRmI47TQUuMGC4x8bwPeZHMJaVXFiEyiKhN9Z6/vWc5l3TYTsrlKvd+5axcYiW3pFwjmNvTxJynoF0Vlq0dyIZObET1fK7QJMb6P2jJGxEbFxzLmttX1CJsqwoy9XMQUXMq/TS8F/OKgY1VPWXEd96HDFtKp5YaUE0FBBZiGtboYa8msYTR+z3dNz33ifMc5xpux2ys5HeDcqK+rN/onhqqx6EzSxPpopFq076krsuXaCJyZWVoQ52MkzfN5VSbe66JrLis8Da6ojULtN7zHPckwKrldcqBVXbt/hGhVwrh3sljbu6UFMiBrlGWn2rnQYDs6Z9LsoCAtFn40JMxnWBthc2UDMLxQGq9l2CzwCW0TYgg6Y9ZhFymTNVBppmwqGRrUQi3jofHelPNzZsXMQvzvzHVLWVM0HcxpZDiIijahpWfNva1/Zh9VoxyY+R6AcZpLbAT10QKrfT7YIDbc+nTV6XvsdV/rU6VJJweWaLhtcyBk4yjG3PrFXcB7svYWCTrD3+LKWMmXccLdoNYkckfMgJiUp3IswpKF8d7WWKarLhcD1AR7gemyE6wOspbXTkT25kMlm+2ltBApyf/QBmfq+twAA2jBRO4G+Z1CACoc+Gy0R1oCkTJXZWtCBGJddrZlcwpdqL12cVdJwz7yIi7orWRul6Rac6uN6SMbTIGrcmZyKUZJ+zBZsXG+G3LWTCmItq3ZvMvhzPwWUkZy4nfPV2+XmrWkWXWchx/WJ1tvF4fp3DR2DfSd4EWzjQNv6KSy0aDqayygT7gBbR9PKudY6JbJT1yB4CNiqCtDoHB9W5wPBoTcwWiAB6Vff6oYIW34vilnYrgI5Z2la8Qar2zJ+PtKi8+E/VHGHfDYA7ykrbQ6A5I1s6v3bim/SnyrOm8QUfd628vuUcNEowns0UZnLc//nDF8jggCpAxzpyxXwUXoRBxFwnI0cnmYsGBkxQfsZUd2twal0pQ1spTk6V/YVBFY7LUBX+uV9OjxOX/9WSqmiLt5Zj+pEAFgtWAklZGEjNGKTrKADYRWtREvwAAPcDOTaOMR5WY5pOZr2jFWWUNO6crZXlxmEhH9dHc5B3c2/wKjQQXRC5gLQf7iUxZnUML2DJ5fMg37yink4akYNsA37UY8RqNciI5Mf+m1NQPkEJI1q3IISLSzAhYxdRG+rKjUfWbZYouXDWqzlicghUXbpff6/Hi0M2I5RGXWPcCbVeUxuYLsfFotYiarMoW43rqp6MgT0XOc2p8+2p8riKEmuNFYn5T2eICMgdrJZtydYibil6A1Igq2TvXY3clrGP6QUv1op29ZBd3N0k28IAIKtpTdTDXqg3xFSZBNOcpllj7EfYWvhZfduFk3dWzGHlPNvQouu1OlB59lk7p4JR6H9UfDD/YYLj1XI7wYFotuPJiu8EszEtcmtNUEbH8SNLG005i0A/Nt338zFmfprlUCxNT7b9nobGcirDtzu4DmfgQjmq53eihLip8D7sSWZ4P5VueuwjmFz1226nr3A3Cy6pfAdEA3+XaGPUtAFZi+hhrMr/uHy8iatdPMalXOP4RQttWzuykscm88NPBj3bhOcna90GxGpVlPfRyqIWBSPLh2SV4tyns6B7wNEPl0yTX5k4UNNcx7yA7H9+Q7fApXjntVCtvu0hMsBOFOOwnrGy/fsUNJFA8SEjGb7CcZqyYMQ7laoGSpVU6HC2cjysyuLojUlu7cQZyEp2aliqKh/0h9osoOhMxOehRlDefpNfnKWQITaHwRS1orkJ41RWPOi3Jnankt52anUQfTdMlCUo8o85XOpxRV1IEyBXFWkVpSl+LlukBV94sk4nhHHZAMsHsX1DtzMH9byD2gAfhagYm3b8OMl3XVx+8azi8ZOE2UvOIPoZdJup1wsP9m35QX0LDsCmLRsxttAmoHm6eCdyNAw9GwLV6+z8bkWavF08BWXdP7sWetqUiff0tV2yJFwW4RCFmNBYiQdzsGaSDjX5fQ3vo1guWZLPoI0d3oP+1lhG8BhG9lzhwbkUO405uW0i7HMPrnGAHbRkuhZrvjAlUrQSmCyMzYYyYxFgLen0MwEMpepg36INzBRwCGd5aRoXhy4QIchPmvH7DoyWaw72hWlszyjzDUQjaoU9tMAANWHgHAjm5SWvOzAvirJ9dqhBS2awUGdckwZ03bRU7LsHdWxdxza5cINICg6Z5N4UsW3qVnY72PHr4F3PKK62ZLVH3hmhpCqG7oFY7uXTcuGxKB5ceq2YZR4zwdmZ0nTGemZCpoIM43k2YI+bsGeA4LCqyZK7cTOQaG0hI7in8P9+EcA8KPBACBnJcx9/JGnGaFVhcd78z9lpvwuDHPbGb7bg2DU2sbYWZlIlKSEefajW/eqCO7USgFFCrlHjLspuJVYiccBN18boaoK+WWqlLa+9VLyeQC5HJLOwkEy9vNn1IyFxG8cic0WNBee6D4ESJEOuR8NfYUYbS/8MjV8FzJOsTbFzmkkMZhz0sK0LpWSfO5hjK8/Q4Pxj95DseZp6iqAMNmGb7lxe+YxffrXryKAuXT0sCS/4aO4RDOef7o6rUBO66teA8H8li14MsUtzewfu4BcnNf8oq+vFFMXT8a7amvLSB1Ca0mPAmX/0lNFyHMfSc8NJZpdK077scxPjf8hXQUQBWmHcM5b2SapzC76tjZ90idHQRmK9f5dan67VCGzktC6LEjvNDXfntyEyaOPz3Rl7hw+B9t181e/5mzUEHQ5GIoqDbIrADzF5qNY56J8icYk8ya5SpBIaabwhn9ECCFoNlGDLdpGSMozz4B7bR/IBpG4JDO3ZuVCb7rJpeBwBLxT1jvov2YqwYwkU6fwM5PMHlD0/xGpjTKzhjtqSXLIz8jD4TZmy/RjT31aqcqK1Z6Nl0uGFEOrqcDYEs56DaqmgfZ7KNbKccYfoF0k5cqKgoSDq8cmru40hMWm5kKMXZNahixR9c7W11W0z3V8zWP/nkxCTK1XmozIj0ipM/jjP6sBzzYIVXHDSmS/L9DdALNetQ8/TJLPf5GuB7Ty9zNdnB029CFuyh8//LtAuBg/ozaYDPGEHCzCbcOBluTx80hYYMtuV6DJsz3359GdjcV9yx345yWRjPckHbd4SekB6wCgG8K9kyV6HEdoSrhXJlGEGunjSozEZIu1Wz963f67MU17l1XsnI8vjccTKYXWk5lzva7I7+6/3UITK5bFxYG3JLgkskgcAzUmp+Sf7UgGro8/sM2jyfDa85qGJySxp74sgtjErXrfdpVQJRK0G3rAucKNfYolh/vU1wzyowZKxq7um7Kmuw6KfBkwBE9p/2UQpRVeh9YCEQ5RLzft7cHESgJvp+NHScOLetoN1LjL1cyC2M+Lia6hoBf5x33EF7kShkxyNNyx2ZKvfR76d5/QzICQq/ScUUA8CNa3HjKMrx9e6ZlsTQsZn/2ZQyd47z3ZcKFSlps0J3F6W0/7tozm3wBQaBuuBCJPGe4e9BfSQitYCEIpOc2CTNPOrZsJeg2LvyTUbGdKH3KnQDlh/lBvaJOjx+nemdwG5/hQgtb1SV/GTlBae+Qphlo960VL+g2/PQCCS6GYQK352oT5BC66vtTQWqrWwO2+KGxIOdzz2sJQ9dTWvzCj8poNei/6+tyVOn7NeQ+2Fe90+7WtbQb5F/aYqu+g+BU50j8MGNd40Njy3OtHICSZbap8i249frtP9DEAjCgSXsPz+bAXr+AAARLjL+WgOW/2aCYlbJydsPUf+ZC9Omd3FKpu6mabyG4z6hEIu9CqZamJgwIwCiAk2uuW/EfPvMDw+X06+ouM4rIbcIHMIYD2dVRDl+1J0PYVxnbXC5yvY3xHyc/I44PoBN5jgiBTWCxaYHjUr4MlCkkyT2R0nbEhWO3KHOhH5h0gVYBQjUAWp0BhoN+IIHb7u17UpCtn9g/F4SKpfsyp/Qnkdhj6xr6e9d3FgzLpOwpcF0Rmz7iEdKvwh0LPViRYkUCnSBWTuwbKHH/WMvn8vT06L53Pb9j9E/CIKteGDwCJVFTlkPoT6K5nyBD+SDQ849/VA0MPXHtEgy4sl/uzMoY70tpGFXE6OYxKGJ5B4jOuR3nQB+AM4um1QDVwcAFakgmANQ794hqm1G2EbyK/UT+xBv31MI2g8zzB6uh0iDOcNhIIVe96LgJxkE3B+C6Dz+QytiMRWKN60pDQPqO2o+ZbavhbSiDxmMmRuOqeMLBshn+MTXrSyNvNjBKY7r/FbFAz1ujZVzerx+77F7z8BP+MJACQq1O4IAbjkwgL0ngLj/RSKGjCGaL3K45624N0nuJ1Cij4nXmZ4SBO7RlDpQGhKZdTzNLLrM352RVylRLfI0GZi7tu5Fjduv6Mnme8lsinE/RTB8BeuwZXt6hEYEbCMcoLs1WfEEHaZIQhUwywSyHQCdkawuLMOXiCa0EDIjcgm/ByKRV9/BueUi3un7oVzf+T7iXz9vh+aNi3nP2lIbgg8M3x3y7TgXHYKTBhmHxojWPJxEUJ2T6GNzchg/8EOkOeRKoN74H71E8cLMbdulJjcVJBJxQKVS32SbOUncO/1XO5fGDHbdi58BDxup7gtDBXCDEOhh1C/dF3a9oLL4T0yC9KAuYYXkKgxVv0qAN7slCBGoZDbl6ZcqMw3Gu6D3pZGMNZQQsou6kKlHc5LspwjPLhlLbzzCPo3DtMQ/49E89m1V1e36rRJHBWNnqGhlwmoynx0yTyywfCi3i+ADdvVEzm6t6w4OL2cn1/EEUE33jlQmr+XucZ1gKCz106SPIjknvwb+pb3aeqj9r5nvwkd+9S89c86e3Cj6XDE+mFdrXINmlSoO28iyaWmtUhPxlBkg1GBKZ5Nk82FwA/dzAJtBbXgGtxn05xYoc2aTw1OBZT79dwNx6Bn1IQHEW1iNAXU7RQg9M1GVtEPHynTXkg5Zo3zD1xfVTmCfFxHJBftpJOVdlmfEF5AvQHHfjQZZxgMg+gIHnvsQw98w6Kaj9pKUFhebph5tp74xk/KHK1V87u4sWCNx0IZy8TFufJso09YAHzOxCejsRTjCgxhqmi8eUwJQzcPB2ckvjnGIxVz7YRpqakd6VKgciqD2Ev++I/9RzGr6jKxHFlkDnt/J1xkbxymXmIhpQvBQrrzLK6gc0rotVzfNJKIbqTqrNIfMeT4pxEmf2RB6GXj6+NlmpRctgPvfImKRGBjz8lBz4VkJVTfhDCN9Q6OH+3RSLWSS9EUoeQthstmJ2VWR5sigbxET3EGR2mykE4LRFtQ0nMTZI8atgXAClcel1frXZeGLReAOJpte0NaBO+L+9WP37t2QA5C3lLj2yK1UHLsCfG98yKAPuKQ01G2xIMbtnhigO2ZbqLxwcq2CH+v83sc7mc8ABY6AiWX0ApZ4hJrrKsJ74ptk+WCBObMUniNSfyD/YUtxz1OeoFFGjfKj4TSRSNlXVRZzIHPuoGC++bxZitNzK4nC2nRaZ1xLbDIkfyygtz1UNWtxnNP0GNRPwq2aocTCAaM8SGFmBmXznXD96sunu6Qnxl1kBxOZ+8k9P9f7Pczl/2VZRWu/0vRYOW/xZpKXDqptPaFtVZdbMGcOSTINfNreVuNli2ozOjGPIN0Y+7rWKF/oZjSc+FjB+sEUYGNp/YtXdW5StzvAFakFtWvm8UAVg2+PxhUwOvkk2szpcln8b1pZz/rDTxkrX1RXoyN47EVx7+QcmtNykXTf0SytMOeDsx22wJQ4wVsEQKka7odogsKK+EBxXX6fprnZkl9dI0EmnHZXNRiN6Sz7LLoErmzGkwWqy5SJh1hwitbumuwat7NtTxtjNVwPgBQT/fyX/1IKzl+uydrly63YwRbJdLwT9Cy/StV0JXW9XojI+e0w2kim05wqfUul12xNAwIVOqoPbHUU6KteSazEPf6iY1nBHbftDNvUSviTvCLMjFOkIOVEAS+5TqkX1ZfEZR/1/xj2yJMovxAextShezTZjHxVSBREoQENmqUe2A9d/jw3isA2P/K7E5cZQlv88pairtMSa/+LwWhtJ0CtHTpS9Q7hfRyktyGrsQPzMTs+Ufo4c69eYRsRDCWT1U+DVe08wkBfOdPBezIkKo4UTlOvu7UZ6K2B/knHaY7IwbKZZOLNn41YEM5I+ayCzJeHOwLItMjWL2sUCrhK8tvdV+70Xvq+MBeIvQkWvXGRgz14DVIrqkj9xjus9lHG7AW6+mIyW/Fz0uFVENrw7YLWmI4b3DvZf9K1XiXp19M2lAxuYpYTRX9jOwyCeRXzcPPb4cUW2uGzmIkIMK6/e5kXfpu2NBLv989EQ9DKj3i3ZgQY1EGnyVRj/9SJ45RFsOEuLcS5540K2jpI+mxtBnRJHuOKc7VGBIoyj/XzTUo1ulKubd0yS7Bm8Yz5VTYDGm/kuzFGyen7+ZYAhtgfwSObgO4ryi/Wv2GUz/OV3fCAnicPNlyYoBsE5gKri6hp/m8cVll+oWtd2hinJLZI45BeLdr5ogQ8EDNFLfXBIQT2ayUSXu0ecw/7aieguB7bNNCJ24XHGmloCGEr0AztAUqUB5V75VV6n+NVS8gVUDTbkvrdJgRiTBvcIL7TfWhLpEeH+F0PTvGwRtmqK5m8bwSUoZ4W3NA1fpTAjCvuZd7NfcBCHmfL+8e9EUZYiw8jAeeJozu+V2EGfm5lHbiH44aNpnFggZKYsrHncPruxyxAn7rq20yCup+DL9dWkXHtGai+afyb2RnavanRjFBYUQud9mpNgecg935+l8apvdckeioxthsYPpS/SHvSWhOV26Rf43BqSYzfCHUHABiY58nY+zL6wApAss5DFeuTYn722Xxip2MpMFzRQ9OfRSn/IdBfWyKEDGZRgSasNeopMZBvf5Y1bhm1sxt4FPLfbeHMLJFUhRZreYCk7zXZ/wrJQjFqhaUGsop2zkgCAp+iZlabW6bGdkAM0xuriJBJp17qVB2HsFGKOlRh4VFfj9jW6trStOOyYWkvouwSm6nhh0eBKDd2JbWpNgHLEFmSx34IpX/4F9X2lU5gF4hxGXx/tw4A44eAw8kMkCvayvx+r/651ZO1C2H9yYyc5Qt4GAjSTlwuSPpc2xfWk+PFd/uIWUwG2tjIJilQbQcKBFwcGSS+A2WIF0wzW14SQpBacSy1B3ziQZ9qu6ec/msrydooAAAgTrqfUzD7afNgoeyduRwTM6mZvzBzGL1kgLXSPRqLXeOBPStkNP8zELf8ss8EIDXvYITUFKM6rnz8m/uFLpfhqoNGGX47aV6vcV3pbkD/NWGL+4wMWB7v5IHuTRgmDluyjCg34TFpN5XslNg6Japw2JR7ERKMwerHfMeqyboAQQ4eLF5lRZpkdCcU45T9AABHBHV1ke0J0kCHfAfe7lJbF5DpkWAeDKyzLDzVVBbP6TyqZ54LSxNczTy1Oz71WcJW1A4UlJT10mdCiAawthvPMrj8oEptb4gxFrrWWhbD0r5lSiFaU8guNcpxYujal9y9kyuR6el7Jbl7r3b8NNRGx3WWGYqRMAfGF2KMRef08FVZkqphXZX19OqwuAf5oLXXq1DKwDSZNDOql1dHQnTsDQEG+lcwcLRA5No9BA/SinNg5hkp2W4LEHBOKj6H60jXDyGuTOCqIC6d/VN95oIXtRTeshIvJ8vGnPFoaKfY+r+HvL9f0di8I8UKaRUs9SnC5bNsTZMWNqd4iKlFq+xDDpiewY+b7ctPahwHVu3dnCvgbwcaDIUGLYIyG7MwLS8r2s9jNK9VVnfGkktMJULmwZjTT08CODmGt+3qQQV3W/cOEIbw0mYgibKZmTOtZ1mmkDa3l+7mcshOjHC6xrc14yufc4+Rw/N6dhDAAAL1jcDy52OEq2z8FFq7tV155qbEssUeWS90WgjqaUVBGXcsvxC8kw4b3MnbnjAlh8xUFWhqmoqwVFQqrHHmEZ/j9bf6FhQjvgIYDWoTyB/bXeFV9sKcHRqx2MsRGj0tJBZCABbg96pb+qgevZv2pq1SbQjFDXQzzKrsfAwpawSeprVRyOddRCDm0/VYKVzAubJU1T7JjgpXVRde81yACkmi/wC4usId7dKmRIfAjxmG/gOPZGjbFbdGcOsnUpWacUZSfaFygalKiA0eGXizFmPDieLpUKeeeAZ1QLvMxSmKjRK3ZssE8pr5SFL+nLBmhByhIT8KDcDt/dJ6VMOgZZ0jQ+x23eyLcPIOyYdIfg87eN7Ra1/nnVEA84mpVE4Vu2KckIC6XgM+l33FXJnTsGvGmLFH/Av1frn10pRkh32xrW9PTb71oHnSAFtjtio3ln3uCvFPS+HD/puj6O9dMEaWIXHCuzb7BCfqot6meRFM6D9zPBtLYBCnAvGkbO/jSTRijf/b3+OFt15W9bvNlLZXcoS7zNZBOYwqvAhHBCbr6V962j9MiREMA+4WZTZhP+VQiUi+Qjs6SiDdiKdmzPO48E2IhnTg15+NFG5omYjfHwdEtxbFT4kIUZ6UA8kE72JSxaFxdWLqnwLJHai9FOXIU4E6Hr834MT0rATZWu0TH6ptCyRcjryTrSXK6JrpOi0kT/OKidj2lDFixzwAqN4llSBMk39Dyy0gu/3uPVh71PHOUvWVLeOaikoSoiSGvrdUqLf8zQYj4ne/tyxuX14ohQIQ4RaB7xcUbQDBszumxX3+hrNkh6zp7qFlIevQxtI+P971zoCo2cd2usSLFc2Hf7G/N7jjHrJ3Z0nAABJFtkIe5DNPKBQjAqO5rXOQ7jZ7Z+NrDUPEAcPw9wPza3Dg5aVqjUWeytSUmpiwkGHZm0IOIkPErM3Fn9B0wwkn9hmYYrguL47u2QKwblLwoQ/a1eu3Z6ChYuqr3qgzFOz50ER1bsJHw7ltJppgeROUpUtqZ+k9JF2GVTvNLLi0wNiFfkRbQaVyx3Pn+hDFlt93vE9xbB5BBhAlXMzQg4mkZhDgwstbMuydIb/0/pz2+bZkr64Tp2PsG3f/X+p02lN+EdtZD6ZdVdTtBbBcdhbekY7iuA37MJ+WheKD6HTPLJgSCYRMvci/XX/BGs3a2k6iznUK6UpGt6maEo/EjCJCKkUlfEdIzIlD6fwc1zCCbx49nNiFEVnVjFYN8JAr2LigLbWezFX/Lh09X4QnH2FzArB9dZVoDd+IfVzyh7jFvBdmCDQwN0O05aDaQN7mmB13zgaSkGcynPA84Ct7dDyUaCl6VHiRTaYiEnMyXKN1+wxiDGSivHqdkn7mdeBq6JaDvIoi2jBpezFvo4wbaSiATP43xk79tDQa7yFZH15V3JcHzK7SOgN2dKDjQb56xieBDi2gWX800PZi/wC3rO20ZoRTHSF5T3/WwnU4NGWfuS5rO9RpEq5L/ghBFROKslwnbpF6URnEbIlFvaHE+cpL6f0bxB/M14jAe17uGzpS4IltB3+73v6NP5SjHUFM5XkiUYjbTl9ODNG25EP2KMAqlaf/5Jfw790/2HYrGp6GplBcifi3Q3QvOQiRRCQ90ddX5HgNq7MJsdY83fpJeLrcEwzjaxjyp5A4LPTaNAiLotyhL79DIBiHD1yoMQzHa6W6hOitCoa/R799vObybWH5cLBnFEhjUtfrUKanKYgFuwl1LJwilVD010VJd1KUAm6pfrJ+WDhwA595G9O2Xdpj0aQYPz8iwIspFEMVngfouUgQip+xs6umZYuT1qmE3LGN+7hQH1jh2sAdjudP7pf0YnCB7T0LI0rQMLMIZMaV5s0wMXiDH/gQIJPwi7F4UtI0ePZ4I0yskPjwuhE13Z+cinmpe6S/Qj8tR9nBd09EHCKE/hZV/Od6p6las2eITqMliRCKOT9Aeb0B715EeXWrYbygnQAktMmgK8SiGKL6roxusji+mVfdOrWjtwLqfu+L6svZrL4WBGwjGIF4TeX/dfkx2K/uqrfupAKcOCWdOQAuHtHM9GTh8J1RoOcx2RFM4XIkb3gtmcxLPgis87wDUYZS7/GKl7MorkCVvIvWZBeF+LREbo484oYR92b5ogDiD7cb+wVwbBeA+JkxzWrJeRPpQpLp63askEc1t3ig7O2fGBvFyACkYq1HkSkHgXRU8x90zO8hMmP2DL+VsJM9SwbsAV0UsYVOdvlcenIg8y/saxpjNxLm2HirQ4gl4L+TOjIk4J6gwDDokqw2QaJ2Pot6AN2AX+GDw3ZqtjP07cEctGn6Faupc/eExYzvuD3QCRGvVGvz9tKZ/sWWVxIckfLc2TMx5QYu0bt2HG4XYOPZzxtZ0z6GRATKMQJBjjrSZlkzKwxxGdQIGIhZficW/lnq/h5cGPaq84AAARJg6a3Fj4MVrNoQTHaqYZGDtzPgkfSbr/+cn1FLH/RvGGvklPnFlEgHgL62ndp7B3XfEp0Oz1d63Q894H+LLYnB8lgmdJ6f14nZjMICmAgh2uWhD8jmCeqPywpdbWxSw2gBqPiv1YSXHO6gJ7z3hjAeO1IYsDa0ATAvzaV1/kdi7POdoidITU4v4dzVAXuoDCwM87vC/R18QxogSHvHX1B4YbbCzUgjIGzcsZI9mXoaUYlxmqR4Z9FFqI8B96e1UfjnDcG+SM1/hHt2Dn9W1JZJUXDLbgr9jqftQ3Yaj949huYv+orK9bHgTWdamDRvY/NOuL62LSzecgUvQS4akQgK8d8jYSKXiYETtUL+q/S8TOtIVeidr9csy7rBifPD4bC6R3bDsZP5Fnt+spReGRhJyAAv8SsCGUUCsLjwRxeZu8ywdxsh8/rUwkJmPmNRIdkiCneAa+AAAAtu9YdRV2tzOVAab0RHqKx4DvgWspsWZPxnxHzbvulyptcAEZ5b4kSTwDOl1FHFu5jcpPBlzXz3C7BSKAF8Yxs9cgbR8Y08E63fY8iBA9K5F6Ei2zL81MwbEnpZdxI9pKt2rJwcow2PQ2fq1GPjc6o32BA5opRXfYeuL0mIpjZuPCW+mSmnf5YEgUN3bq9n+vSfH94JS7egLov3dRajA4WlnMAt/cabcZZ0OsaDv630s1efDzBneOlejODMMVg4RfRqqoGBN3Yu8dvfrkIxg53gu5c+6DshevmO9BhJ24E0WoFfF8eIW8NqdGPBnzibpftIEpaP6HY/TyYYLapKyy3ArgVBJDQqUOybixjH5tW4dHOX1ERbvI49DeevDLSELu1Lxm7x3V6jicuVGZcqEMrqmbgC/a/6u+cwTXiAKYKtwSwQcWB6/pmlHXCThQMAW22vFp3jPNpKwxGlY9nayBbsu58Wxn6qc9AThi91u4ibJSOBMvcp6T/XP5lr0PJ2/XSDU8M56hqmUCmtW1NcsB5SDjc/Qy/QHmUuje5juGO8ul5mRkFRXQzbiKlwLrYkoSRkAyCNqAJmN7eEB4tFPxjwZ8l0+K030+l8uv8QKpWjhnHMVIG5636aDQiZpOXmCtpmOT92f3NVWv8Lw51FLM4zQOHVuLR138tLwUODmFSmAcxE40u882l8JMmyHQFDsNstG6OEQmdQCuNLQopNiIF8f5JphB1kLwK+t57eBXnSTvNv9wcyzH/M954a9P3ff1UUHzw8aHD2wAthAx/w0S+qCoQwT7U8wsQwwCdX5oyuR5u8nGoXfKxNzfN4JYkJVqDPeo4YPG367kTxA/ytmPWk+igFzO+uE+B3OmseURlQ8BYvC6xRAEsv/Acicha6jvIPsmk+T6ycbgIqYyhdJHb5sqMBHBk7qaNDYqR4L479e9fp7/xUebTZlIZ2yxZehJBO2GcTKH7ncOgDDwLY1VxNPRIyPDxfevdmUD+i6wXpax9kBIi+Wd1+K76nzPdYfEpak0HMkdBPlSH8+jFnPSBmGRs2sNkc5qp7tyC5J2QBrTAf1F396g5rmgcClirleT0Qj11rxlzC+RtCGb7k9tWiAAjD6rvP7Uof3S1ni5SxuU3MeMaVEyzaP8jbxPy75SMZOHbDYCwEIPnXOhjcKdwbaR8lxvPfoIrWJwn5iMdQnKR5GNuftkr2c2007T40QRoZpg2lLOE9bNvZUQNr6xs8qL7uEXBJZTbDiJT75Sc+tPidu3BoOOLijAmy2bqtsyokHPHpz+aL0X86tsIgO5qatFr3+2JHWoUvrom8eZOlwihHIxZcershyyq4GD+avjr9mraQc2++YPRb/ZRkOWYXnpqeWclvdnQy9Ij0VlNQFRTKTZvOtJFBvvka929sl6fHdVFS1q8eoxSaw5TOJdr69ZxRGPuJSGhdsWlnobJ9wOMiQE1veAod36oaIZ8ewOsFgmbJwMw/SvOa2T0Kxt/jc40wsGwkWboU4ihJPFnG2ezqRipshUFpJMSPN9u45v8WqeOtEGJiP8GzMamTg9zCNqj3fyTwgxKTSCPaGaIMLOJwCf4eie/N96j9pcr0ZrwCgfeS7Eih7gxF+/HWuLr6H44TMJJ1NN7EF4TgBKpXgf2cuG5rCiaHhp6QUzKsKpKDIvCtScJzPugVdkK8lfVm7e+CoMmV4LmhOVV2fSsLS60WaDPaXIJoCKSci+tGzRtkmv7Bd4GBcMlDIHDB4P/ny9USPgN8e6fB6hati/LKLUdDdHvA3lLf8xltyMXnFtPul66vYCOvG+saiaRq2S9zwQNwftF+P2AahCl9NnD6EpFf+lzwkQtRelqTdGS4eeLFcn6fyZ0YCqhrLGQ1OBvsVovoM99AQyuYXoXexkpB9ADl0Z4XDQb1/mM/UQoi5n67m4Z0iPwhb2A5MRJzwYTiWXC6NPjx8LuMtRBb0fWcmuzanZ070lPHhUmggAE/tw9zxfKDMq7uVQvi0uFVoI33L3UM+d3l6k4hijJguIufHj5Wd3Sqw/uqM5+OApWP9abNrkJb7gAz2+TBBST96M7mFjUbm0wKRMKgKocnd4BbZOLBGuGDgaIc2inHNL6rU0+cVYolBtzjSl6yk8zspg+/UHNI56B2UnEVcXI+/ach5M320ado2Vi6m3AO+xZvLiu8h1IgcfKrBSeAAAUdjyMrK99Wt0O4UNX/gYeZ7n03MTwGciHnUYcxV1KaN08Fwe7hIJdipps8jodBbvjUQnO/uDYEsyRNy3D2dHHggmvh6PRuVWMfJ25ZaOHqNJbVl9XpJHa+svcr0AZCr0k6ceRap/fwC7W1jEFHLv6+ake7bu3smv80vdSpR56mseYearVxgg6tNs597aADG5OK3FrBvGVntxOzM/WegnNbNy7YKSPzdX6nyxa3DjUA/E5Lfjcd8c8bKw58BYCxjB0SsVlpeDa4e3LfSmzJtCPKD363R3L87L4l9anb1XDKyb4TwyNdWx+qK/iMwiikzdvfLhIgYGDagasuuJVzxbQD3cEYit6tU8EQryq7nvFfZ2JOGz9MsWBXJOQRjXcc/q1oXu4wtL8VfLxESPUKBYLlxujgdSBPpgDE4zhWWj3QZbPPuhyE2l12k0F1IO49JcWh8JzWuvQ8PQ6AKrAcc7JBti9ESK8/7TadW0KIeC8NH/TKpQS9vRnAFTKE4aCrxQw2SgllGL1URzLcjHmsNdth0T6TRRq2r3XGr6N9x8sDONmP6WCK8hQAZCNjBAyhfe78Lc71b3vqcVxOzS/ohEUVZFJCtOMYOn8vBUxDh5/0LmMudUL4k6Ds+1cnsEwrLaIbGqT8c/RgEX2f8ACgr8IxhWv/unrva0DiYOcIAC7pmGrBpkGd1cNdSyckDEjO/wvvlI6f2cgH1Zqw5HTxC3LX9lW0U0O49EYWwtQaZEUZaU60zDPQynh+CVkW+iOATviqZHwsfjyNjw8TXKRyyZ+987xEKFlUlwGXuzxg5RPpTyDeSP38ld8i40oYa2UMQXcvlod0s8im7dr6/fCFXiOuhCGffxoq4n6P76gP5s85Nlm5bSftckyigCsPbF3Otffh78S7JRtUZQrD/NXPRTEcYXDhRC5iZOID84Uox5PHZOLe5bUDEmRGSsE3tMMlpN+xYOHYQPWFPTUkWi9cvodmC3PjCmknEDxMeLaVpRCe0PVvshrh5xxXeh32is43xSRCwiBOd4Vhy+KatG5QNRTjNILHMvmF1K9LhJDGKPioiyJJEaZeqPqHm2P3F43qQcfAlLRKhiQn0he11IBpeeTOLXdCb8tys6dGQ6Vt8Twe4avxp8lVCr1lnfrODcVkUaPxjTNyKuE/SC4B34IYvbGEOAI5FUjKNEqOI7p/6XaCEho25UoKYsAp/Tpr4azTCN223j1I23WEhm+19koZYHRDw2YzzEJwIWmVppXbeUxOX5sU5TTo+f1KxXSPwI3Y2iwnpnNtlq3zhnS1aaaufr2xTavzd7KXJiTdCmjSv6i/EzIscTO9bg40FOeRlSa7U/bUiCx15dgOMzqYfgjGTCy1S2ZYzB2CjUCVK9GAKPggPXmPnlue6tHaK02bJ60bwmOeWYafxJ/cOOKm9nl+G4sYwZWOu2VKNH1GmZMqnVpptQjLrAUF/zNqWHe3pS1HvSV4A5dLy32T9h64TGjOFAcxtJkjp0zwRWbqhoWT4ZE12qCVl7WKmolpKVeDIcvMkI4UGPxJlBXCSVdN51DNoyW170KbexkeHg7sYSRcPNY3LrQBi0oUjG8rmCRroRlX5PTcAms6InRx7d8hdtUEAJv7eqK2YKq824b45zFLmvej/1qik26thyIGIM1jAsUIcbntANH5nwgUo2XKXkxGTVK1pnBWRVq5+zxT3ZBymI5oAgFNbQR8l56i8ago+hn4w1U71uLJ6giJrySe5DK8abbsxvVJYWCPvpVrOcTwefTfXTVHuahxwFyN4rrz5pDz/hBauBZ6ewAihY86nJEO/3EzUkLw7Q8+0D0cMCKilZuNEd+4c+fEMeJw1jfuxHju3Fj90N3cqjxxl8/s51LGdDl3IuLmL6nKSMeAxMEvN3tQqgHPyTGESrZ/hEyLgQpROX0goiRqO7MWHGXxktcWA+nZBA9HipgR7mbGlx4w/ju5dOIzy7tmg+95qkGSSJGEuhd7fYnagVD5o0f4jo3M7J9a6oL30qV/3/aY520apPK3VymVrGoh3lFCZgw3MyxMY3Oh/dvMyiTj2S3vFKX39KPLnGUZQB+jfjFdIS7otECqGO1dSyudgVjZDUQaryscaObtbgKbyglt46xf+r80vweXkIbQY/JJYOmb1c9/ZryEOmwmHynUf1KvcyaBBLMq6vtK1UPJULw+e2yuCpup9DGbliBParovu7QDianTe4Qu+zZZKbFwfKZrdvOW78nme3jQ1X2MOLCFJad/vOe240wAr1pWZlSd7n4y8MLoxuv89XZH3L5Gwo0ECrgfr9BPiEFelH+7Hz+PvjvpInPla3BcAlsXrGdZcOdviz/qKwuem8w/dX727KkZcQvMZrpluCStc0WHzwdxi0cP+TAg8G2wCm+VZS06cV5yquw7M5FhEOmLSHfTXcV1Nc9Wv1ebRE6auD6hf0tmAd7tfwkaVJPc0vQJwf2IkYOnJo5XdzVWX1a3Zdzhj2M0hb75+4oSGUQuw5X3DOg+B+bHwWwLFcBPLZS/rk6GGqM1Xjjl/O5mVOXjS5v53PiYt+POmW3EK61eDS5RZ6BNs4AIxYL/BpTOB06dsSPOgRlRD+tBT+pbqWncvZLInC1ujPJ05hk56exBiW0DjlwFiDQF4EbVJ5TEsAzHQBJxQwVNjEo7TU2BYBkhispu0HnmaDG4sGpY0TAci9Eb0ulOJ3396+S7dMZEzky3+OmMAx/0CLqPl6a41YdaxqICmaxC48dzov0KDzNjUBf0+AVx2sVt5Owtn2SBUfHDqs9nYc0YBF4xl3WNt128gjti15+s6xUHqJbKiGiTToTvQdjp6UV7qW0XwuWWmP0rZUITrZuiU9Q0mCrzPrXD1MxGwAUsbKHftqM03CQBMjGUeWcVjGDbl2igakouZL2IJiXCxjVD6W6wRam0mcQhBFDx7Gg18eCeRXe5cgexfbv4KN0HTsO5P0PMMB/0rOwp0ttczK/lKTOPUVkXLZ4C7FBhJpaa+1DiDNjy4kL8NDajsR1CRX3pCHIc3DJbbx23aRqESO8U07CUuJue1Z4s26JnBGSnDxj6PhrGgmpuPuzivG0fCzcHV/KznHb6FxDA9VnelV1l/UnrF7Dk+R4TCNYpcWQDby9S0ihSbYBmc/nmPWjgkQSxN7Zw1Me3gJCPdDdHNo4QL2QB3U405HuwJb0lAwIzI9FB2FKzwlsrHXMbS5HiR9/WFrhe+mcMRk4DSLru9pdsXp0qLtl9uO9dNHqLHuQm2oP8lEoUunxb1gDPw7ITV8TBbGl3oPOlbFq7mDTwbG0HWE0RidMQji5TS5zZFgX1szFBWRKAZVdrVZ477uvfKQc0+RyIfIqv5SkATZbLOoMMh357GdmvSORJrx/BJ/0yNXFSVMMJOrQLNWy7okrNUXIF/8mtdwATeroZdTbxKLyAqCiePuGe0DrvvNs+JSjptK646VKb8lynBfwFk+VAoay+Qso4FAJMIhdYrIktj7RBZGy3AsY09qogMAagI+MBWOyeX+NB69kyO7zS6HHyNKv7kMU33jEp+HIuquBVXXd2zvUhgo1rTdh9WAPR+bYsGjXUw6uDsNDTZZrqR4VkhiIBR3zq7XLQnr/FbimcosAEasiHEqT2ImdEQGxHHXzib9AYl7uZfWBUh41GsVs6cZ7Nq2HIJ3LZ2LkoEAJv05a+jCfTby1YfRKQEkb9tm2s3sHUOu1ooWuQY0XcOzjtMmyGmN+Aeq8hzo8p8APgHjKpwV3h2Cua1NVRHamSriT8pmwSNRuPMDhT7Eia7U0p42Eqnlhpv0TZAEzX2nCmEZbQC/K6UGHikRl1CUkFmxqa4ok4Aw51PVBkZamdK6+9pYQzNI4PW2WNqEoYUtRwfOJDfYhRcRiPQ3yvVrJAVmhWn7B14lcfzfW6QWorAi04/RH11GmtXKpZsL9BJdnW4pVO6xnl3LyDW0wHC5ocvL8nw7wDR+RzNVPmIeTewVJBXoeUuiAyqT62DIYajnKnPt8eJkwzbbYDBHvxmF4CCIJ5FMYd8lfE3/yxhPODJhHxjZ52AX9oeyDKVGbetWp3Yi4udVAWWB7CZY4LVdgO8WVNQaD6ISBqGPeSVwqI+RrqcCwm1yTxkalQlrLoya/Iv3TS2ffLXTUqfMhPYFPnK8i9LKqpFNbAtTB+HqWOdhA7Ts0i+fmLFbEDkATaP8g8Yo6uYfvTWAGD6QeaN51nQd3I4VKCYv5dmf06Tb9e7jAvvIFAJyB8WjDPCOk0g2p14PpCMumK2+rEJ/haKcCcFlbxk9wCMNC9yB4T/U2EmcuwMQQXeOjeHHtVNQOJOX9qYqfSse2E6aIj17tvhllZzksMe1JQRT/HVhmzTuoAR8oarOIRqJLQ6tD1iaUsJ32EAmm5Mz9lbenbZxTeOUvkMorpK5QOydyWugDnsftR5ArwoWzRk9SFlvZXAJ7uJ8kL/I/HQehlNlPoUE5L/2rrg7e9r0nUPlV0W5xNBYIdDU4Hkkcu3rqtkzDoZeT1SZ0UNaC1ScyMVpuOgAAEkbOkRTHVfUVLanivL0zHYoLbWVCgJ8hRsFc6ZybwI77LD7nR19Yj1qP2aknDzeechKklGvIH3CEycUpqzcrJuY53gFCcMcebszKxWc5/521aFxQIEO+CvxDA8Ou4mq4U3lh4Vf6Q1kRrXq/EFrzojsrZwV1Bzb/SbRDbYvZdlIp38BuWD67fKZwGyAqa/BQTfnxU9SMgjtBc8jMPRBxB32hjPcOKWYYldnpCcHb90OmSp5yPscnsuRNVyrRmGjK+s/IPjOKD1hCZ11NII+SIhkeqsGJzpq31JA1nrndKFBKPwehqXL4FAgT7rqt0yPoq7WGcG4/2JGZ481FKdBIGiY6S08tx4MjzG7I7fQBF1pnC1jmdx8HBcdJgikwcMUdnioNXT5nv8Wqb0INqkbMZNWv7SpFq/2Iwf8GNf9LOWfVWhFeVBIBwY12T3IQFt+LMbgSsPE8u4nQXIXIKad70bDyYPr/6CmiPjgxagj3NcOMSFBk5FZbWTeNTI3kDe9KSZRjegjmpjUMJCo+D6ULE6Ddc1uo9mEhwEAnFAiNj/YDYi2j1hyjVbXv8DN+GCGY5pyPdUk+CYfkqBHCDkSEz2LBQVMp2JtiePjr875JjThNHiHWmTGJc4cY3gEdn9/vpByN6u/H3uey5zwjKCp1nUIX5GPfo4FUsQBCxajhsYlLKzKgDXJhIpmQdFP8z2zWv5xzoIwWcy+eUht6XCJPYlijX1k0Jz6L2+NNvstQeAhMmcgcAc8pqGYwmsQxTnBHJ5wdfJo8Hlnhjr47pq614Vf2muGETk8uMcRclsdDQfyIbouLICNMMga3yHn8P+n6okGi0UeBgSgUi7jFL2RGbP9so78DWrSJnTXzAn9cAs4va/XOHGleH5MSDzwgABRKZ/gfbD141Q1RznQywW4S+iZPQRwpvOuoGpU+WuBlQ7pBmC8krpMOCvMQW+XPQvdhKCg5o35dxyRV5kUkUWu9tGKNovzNBs5oHpPEjAMUPgBeKVQzcSGlpQrGWroIF2lt8OO68xavo0so/v0JK49fHrnYp1znl5cvhjpYGq6IfZmu88IGrc6XZbcJ9lcUHx2JK8E+hqXzkzS98p/Imoa6E+pT3bg1Q0GU+9RDeo+4rUwDKoI5UJUo5H+PoSn/xsy+POzsNsrXiKc5AzaUYx5LRODOI8MOOifl0fRLaGZCtBXKItCpYiIqWqgXVvkfSUjOqMWmTNvO56uW5DbXWZ4LPaPd5FLgnEXpFVl0PmAgivF2V65QIHXTJzD5bHCVHyBtGfIo49M6B/EYSg4VCXsVRF+Ra390hy4F+Fw8rlaNzYGkTZkh8++sB2mcCeWKnINOTQ51V+aX/TgPA++tCpqvTFxVYw7YzEfzQZHAAUsaJlx0P/wQ5uVS1Q5eu4cp+igY9hblN2/ZhMltFt3am1Od8Q1EObHm4lusGgBTCAvSdifTvsHUSDcMzCcgaiuDFq7dKhyGjboxCV9gQddIbUkBA+DhO/hth4u35zuDL6Dacrztf6OSpJskBFNvfEZHUFT9ApydiM+NqEPqCOVw8mSX+Ba6vsh/3QmsVN3nT9lJeU7innaY4gAUcohjrRYZTNaHAknPFG3BO1HFbkkDknoQSRY4JD0Ysnz7LFlP4LJpAVyl9CZTvHc6cEL4PctK2oB0/jO9TSjd2VUK1yULOEXwfqie2pCPXAh+pzGUrZsZIQrvRBNt5oEO6IRfszBtmfYmD/k991gzk+FbgasPLK+8XgyPpSjg+kZALwxFXM1sFNs85KqYY52DoUMc7B0KGHA7Gmg+Ix9ylH0yaZvskQuSP6sRRFzEhQ2ipwMHbE73Dnc5ksEVf2RMW4DilqCqVeDYPWoUPK4V72F2aw/R6w9kr6nmOPQC5xP06uoq1ZEdYyfh3z/DR0NMrubMb+2ZQMxl8LI2oBHPIzjh/e3h1oJFonAWyTrgduRxqcOR8Q2Pk7L4IV4M0P7d+Xg4GbVqF5P68E3FlK38nuuDX6I/Dk4ucAGofwXupTWEp/XaMeN2ObRaiQOuBXqfim9Kx9jUBagD0dVp9Z5RmA1epLFk/7q1eimSwG2uks6bhw/rkqHm1Yg1/PdqmqzFwOE4ZwckLgnCmExORuKiZakTFGEnjJczJWD2NU51H/zX/F22l0C5XahdoXQhZESEIwX6KsvBMzkL249jZgO+WmQNswPEV6ZaXmfl+/wYxA/FLTSFF78iMnQNBM/rZ0YcbfG7Sh4J5YFcmc7mrlMCa4zd3dEvhz4gzzfTJCVq8hHGMNvN2QImrixdN1eVO7D2qh5Y33qVk4bIIhWvnWBRQUk7k2ZvTpyQhzF+WqCEchzHSnxUFqM/Jl2zypbrK6ptIzv5QK++5QgeB7sxcGYm7GCdvhW3Ne/1J1yrVqEDj5EVCjmtjZ90lJtzZYvbIyD92pb4p4KdVx8fwNleGFul4NLGOyjxQZT6oWlIhMcigUQWkEASO7x/2TpKCcgejeH7EqHBO7Fd7es6KQLFQBp0ajQxw5WQWd5cIESvIsGD6x9xbUis/pPtC2VwysYQ9bP2d5VK1gOqlON9odzlSMhJyVfobKoolhA0AYPlp3tRq7y/9z0TyPjbsiOKr7A0+rW8io4m9L5Wkp7wlWNavwkvKpBKvonpJLCoVBEYVkznDrBI3PN5Fo6jwmgncbmK+rTfSrgJgLm/9C2DfkEP2Ib8sgLpXuLryTrdIeztU+xX5Tn2qwB/KDIZOHjfhfemTd7F1gVvY6qcNBSdM0WxxjaGWM4QIPIsM9NvhF9sex1BZnQHF2VlrEj3po+ql9KihqaJCLthZGkFCFWJhMpjdOnDAeXGy/lWjOAh4ALq+nCyExN6CHZ/DfQKnWahxpV+5HcR9/WHxm3qtgIxagErtUKvoMOn5QZfRp09KXNyb7OUO/cL2JOaBkAs1Dm0uI/QMUyIWFETNPantvNu3rz0hI0vayS0f3L3nuGFikECE4KSTCGl01tEVlVDZAULNLJyKbbkZeEGeFlYODDORUJWnTLgfFdezzI0VFar5zRsvRx29Q5Gj65aImcHBBJIdiSLVrzWIMv0CcA+vPtTXr8t2nOVIH8qpWDqr9Y4DOdParLoxpP4CFABe9Q2ibE/hXLqR6QdSp4r19JRcpxNALiHkEdAFIXCmQCPbzVSn7Ewx1mYQuIOeMo/T7XgxVUpWH2GO4nL7m/+lxPjHt78x+YzvjHW3vqYDqQ5h2/a8XWiWy4+UK/gY+W5J6jj+D4kaTyLvIErQo0Y1crZvXRfx0cyeu3meDmv9aWUa1ADlzZgGVqcjmtyLZp5+DYCRrdDXrkw+acLyPK3mzn0Jkr3aQmHGHd2Aa+Oj2lvf1URlgsXj0EstEFCEM/0TijjXwfZlxqePHj8QGhVJsGiyelWhnNLB3iMAuPgLPW3FQu5qF504BJxtKHf5X/bVzUw5nW194+NaIRcElYGyxs0nAUYHcpRN1NHDTLzsLAVmMOiOefDFjyKcBeMJgeya331tafBcODskkWfdxmnjJmM0vKfw94J2ImCi0QX8jtZxGNO5JdCT2DEpFxoY7iWpLL/c1M+cCws1LU39v9SS/yM08d0NDV3hx3QDZFLWNHCVM1y1QYvCyPxERnT3GjWc+J+c9S89Wv07XxafGTb9ab1TqGnvL/F7w3dldhfnJBryPKlyz8zWmCCRg+wng7aFxuWIMUtH/nNDtxDTSbapVQ1B7+shSX6XyJXHhi5MyHKXGFz7fhlWrrL+W5mE9/tSRNEyzukDbb0vVSWSeORRF0/8fve7yyMv6dUNJTVK/ERGh6c73CC1D3gWywcRyOWulf/CRTparyEA7COW1GGKQgWMiuJBF9DTeaA6aEh3IKzY4JVYWdVNDM4zxpu34WNY5w0yCBuuGdLAg3HBl+FF4RfIKuICyPRCCnjOlwtVtwmS+RkQRx+9IJ+S9l+X+dwADIB1eDFJiyAAAAiXrAl96NyF16gll7F7q7pNtuctCL7/dkbY8Xn2u7uSM81pi2aI2EVSixdmGgq9nuVJBcs6AkYlVlpGCcCGNIgjSb/6fu8JKyOr00lH4aZZso/lRlSFHC+CzKzJeU67TBW+4R8n2fNceVk/OM7L0j3K+b2jjY0/5FHS5vt17BRmcOf9KwvDJBY4KCP8NgQ6m9m6Tt5hNtrbVQfkolC7LPuZLATFnOSWXT7GZt0BZRusGaRhi5QpH86SNjoG4S68IXtu0c7fWLYWQtDmWM9597/uz+vGWKasKmAUdASd1CA93idcSEngWpnpMnjGr5KNEA1WaL8/G0w6VX6EpgUJEdxhiM9iIDzaTXDak98jUVTpRwXmXr1p5WL9nzBlUXlEdBIKqFAquPuzg7qlkJNFA88dm5xKvVqBQDhBEglxT9N4Wc4DUP3rSArjh84kVw1TRLYvaU5XHg6/BZLZ7YXc0Zf2i9jOkhVRreYY8RHc+9QW2irRavQEOdr6Nb40H0/gtorhpEoJqcggdUxgGV5HcTqRu5QugDGewark/hTV0pwQxeGSncEC46fMsoxwFQDRzCCIpYJa5P6n8Fddz4seNLSmpbj1BHSH3UOJX6K50+g+3Syi1GTImixVEESxAIoRSxwhVaEHcgDnUZ8Vn39TJXiJd+fQn7vExfNgidMZs8EtQGJVFQ1aQ/2B3rSI+89wFIvoVlqKb3hDAG7ajjXWzh8ifXGajwSCxCcrEmK2QhGPYC6c9+8poxUI54QiLuG6H9V7Lif0nDMeF1TR0A1C0hDh7OJ/+0A5rXRH1A69vNYv9p43f5pmnSeGfcfTrVXtFiWktIoognNIGd6r9piywvLtPuCHq9IJpK8HiCovOoEf2brL3Ijr1frXio9opSLdjhyschfXgDKUlWX2ztE/eG9oy+Kpv2SVFqfGtkCvOB0JyO2ltWXJnyN933hzpqqDIFtsyB6+/T1v3XXUbcliWEooz87WRJk8vTjiJkdYJv7MWQaOcLKdp75NWSW9Tr+wyFu/JuXjX6EXyrWaupU+Y8nUW22UWQnQRYEF99bazA1D6bIoC2bj7TNZyrbccS92d5fHR78MXRscDCtafMGJsn/I7bvK9IdnNc4cZWxMEjmWYoCxyxYej58Ei8PwvB+GsR/cHwvEVPT7rX/H0sXx8O2AsSED1pUM+ntsKIiEu+j2tKwoFVLc1VoKMISyMtDVuW/ezjHMCf0J18sSMoIkPrkGgTaBlm4D6OYdl3ay45dRjm/V/V2gMLWImmiLmmc3WPMhC58fuMMMS9iSXiQsB4hX5cYpP8tF38+6pusuxhv6pLnK6w3legFcI4Q5u4iMRLiWGEv5uWd+mxRNWIa/XnXAF9G+/T7p6iBrFYU0+6bl5J8nbuBPfTrY+TewP3Obq1dmAjvDcNaebvhcoXlKcbc7QKX/zCOO0xqnmXkxSdHeZI+sYWI7pAAX3hsSoh1TRT7BHOEYS6AwppLfcyU72DqMSplP60gltee6tuOvAtAP4Edo8KBzkSs/Q08a0WTKfqb0qBLYK37pFBt3eBkfrCMaocrVxsbsAozlW2laOeCQg6Wx+0qydGrPxlRkoMsBWazBBt6n3R2UnO+68Pw6redq1pjeGs9JlbuAKyzAxxZDsvHkuEgzI0XHrrpPOU/XXauiyeNUKaeT9Z7h1PuuamVZEec8lwyRCrtcbdVGfx50w4Pei5c0xVsUS7xKM9I8ZkxkdJjmredegaS55em1SJtAe/xpDddFp9g/fBFW4zAbGblYTSWajxN0QFMaEIR2NrZlIaGoIrmRYNc+R/wug9KZLI11vicrpSd5aSjcCqu/oSmQR5jYioIurCFqsviZiMTVksvw39u8I6oiKtiAIdgQrVCdXEPHasqD2oUGAVnCY4/n/E+HUqVbsyUG4q7WI+jw/rPpmRqRGpaF7zBLEEwDvdVdBHcd1rg4sB6EhFWDPHf4IJolreeuNc8eX67qbpa5KtLeSaQHEcCL9+1yryIblJrZ0xAXaFFCXHjg4cbbFgVux0wHr3pDJIcI4Y3Iost3QBkoEHhWNbvWZb7zqi1AYMLAZhMEhsJUtNdKbW3QTDL5NnA3EBMyzI+tftdDitPxasGpL2T6h6ac+2SPTm4i3BXGlgF/99E00+DZEknJMwQ4srSqAKSJm2X5MLcWkpeNWpWG+RB0MoMGeRi+CdXO2UsfAXU/jEhcJITM0xaboT5kaz7ZW+TnG7nDEP2QPFEyiyK1X3XYH3d0fyg4UScQxzASqqYAH22+4EZgSkQZ38ywhQEzmqIW8NrbgT0dF5CQLNCaCnCPjRISjOpPlcaPusByYrvo6+b3yF5mAdJLW2oEGBp8SD24f2BJQdwd8DgDrHb3bGwN6nlm3OBQs2p7nX8yWjhexXXDf4yzlyyexOpTElCSLaFygYVu/vbBLwXcyYJcxuCgybZbC54UbglW1hHr30U+jt15EyacdbG4Du6d42xatMq5DX+9swzqq2LX7wKRsQ8lbq+hAnQCRAYI77VKqJjqoAKhdOK3zJ0cn3FzzR8cZU+kEl92JjXJwSH6G9Qf1xw8bqtJbWg84AAC73KMQJfk13CLoyitP47Dev7fQC4xjgAQz48mL1bBeheBjTb+CjcDmWdY1mhIEXxOrhItgKaWDSRD75m7hAcFZ9PXoiR8vwrJxjT6gaYuzLcJAdRVh6TBBPMgLTdtJCO4tY2pd+T97N6zWHeOadkPbXlX4RcUTRJ5v/G41yZKPwWi6EtGRspo6rFm0XqQzPsHhzrubmJ2hHi+37bdFM420eHKgCtxmIMzl/lPBjaIxPX+0uQGryT9Ia1MPh6FB2ePp3V4iWa+wfMRKC4NRSSXJDBOM7r9K2w8VCHdF7tC54VxJgH9LkxAPgk1tJQqADGnunUnISCFnmIwqyOthNA1z6jVabqqN+SBsJp5WiQM4mRolOCAkEd8C/r3Cunt9Z1I+G7Krh2R6qvxCo6M5iVmsAHrwgrNIU79kG/JVyXEqwIaHP/lhDlQ8iM7DnWC60TjteeCMR48iKEGDNpsYpU7UhIspInp6fACiJI7PElQyFyZY81ZBK6OtcJoBN50qXBwZKfdCq0XsDXt/ir2ZF+oaOm35ilAqqXG6ayr63nk1V+WahEZBiqtFZ6skeMfuy16kK7lX5Yoy9vuuJ86flPZdFTutLY9gD11kIdfxXL9x2u2517M+xzYasYWSAEbCPEjneJdAXxxD2DM1eY0BuMS1MzULxng3EQzxX8wNwN2XtCXVRVt0NSsuMNj3gIt2G6VvB3NG+Nw7aHUad6uc7PWQOZ7knOTs9i3BNvTzsuvIPpGa9phILPR0kGPYFC8ahqxe8uXHQpeglS/siUMy30QfhF17ClRZaXzDkEpf8ZmMwJzJ9yqmG9ffmfKxNC175IlDgAhQxYoEC1x8Ypgz48NyS/+XLLYCNtyKdwT1Di09O9uWHcyj0R1gOra852QX9TzpU00SAMzsCZ3iKZ6WncIgEB6f+TYInHtELW8ku931sVoKiw8HlNQTApLwLlVbAG28nOlitXgKhrh0MN8ITdVyXYdoGgM2W4ECVFGQCHSUvlD1wZTDICctWvzwDEUhxMBUCR0be4eNFomtZvHXEx3kTRzDfBQ+7vmV0xQa4iYblAyxu9DGcq6s4EmI5JzzZYYD3WHP3QXVTbBhhjjdutmldK1To7IKmBMcQDx94ZszT6S3CekNJF5kDtFwq2CYLNDOn4qmGDb7W/40OKNb7aZzOTL1ERkYigRD1HyNNZ6QKlJ7+ConO9JXC2qYVRVKF+0NTQwd5qzvCtmleQBqQfHglv/ANWDmWI4wt1qYEIRmaTJYpducfQS7zm6AfAYvcD8iSjPphu8XFzM72xPImIE1e3U4eizXtsMfVsI4+UiuqQSVD9+svAtI9f2bW907TBUDXFQ+V4nvtz3RfXU8bb4b/o8QZ7nD5EBNdJelaGLybtt4Oeleagh2niq269FyCco3B5E7Q6HZztles9jHVsxOMl6YLlBOuEjJN78PU/lLeoz+7HTOYUojeQOGusPDFUaUkB3684K2CyCeuFLp2fLA1PDId3TJ3WoWM3lySjwmDwAlNxafMtmn7kjDawXaOEtpxRtlFP9QSBKQacqwOIxVYeUBicnT6zWzX8XDHd2tYsMqeIKveRIjTM7x70Ow+wCpwOwmt8Ml3LyKQ6w9tKIztXnQ/HgWlkukBvhuQWuoTmCJkapX2+O20Mk/xpUxmU2kFXzUyi6MBRrtnJTfBgl5l5kQvmcvhGHLJ78k0lRFdo0jNkJd1WwMBsNiYGdRw2sCoJTSNOHvRbVU2RqxKasjnUk6L+2aY/VGABqv0FShHjk1NurNml+4W59dJSzbAUWLY3mnDYM1SRy3u7BDj3gJslCnZ4ukmvwcAHSWaEYPOtnlkDLo8F0bthCSkZn2bqFB6vCQH9DO5UrcPAD6WpMcsYQyCOUTdcDmYGK0eEmZdn5NN+2v8OaqjWZStP4RvAKra01jpJc8DzAbZIRIeteSinhsYf31FUI6Z5SqClQY6ojr0EqhC1LtCzXEULOWyz2XN3kaFr9thLeTLRQkVy+orw5L+tGL1LtfmntLXpCbLdfxQl9bjiVao02DN5iKYSheXpcwzvHCHHmD3GgnzxhraTvoMtLuxraSm4JYJ5y8KMlFB7sYyZEwNW0VUFWd3BbNSnUlCzsa8B+GOjm+SLUSfT/3nEZ6aPus4vzhp0zI9eHzdNZ3zMXmlOmM3YsHToPUiFzEvThmSMNk+7lA3FNn51KXNZkd1QaVTipO9SkwvPZ6VDDrH6XKa2ykKY1KkdcYizmaZ9eOVTNxrpCmclAtjo05ry+pnHcYbrNPvnOZR2cVxDOPHZu7PAYpP0RxHkNhsiqvByIDodhQn6ffdw7TXuZNOXn+HbwqJqU6f15cqjGRggTQsqAFRosuzrb98wnf/ugwHgABsof5TDtZ/c6Y3+0IZifvFckv+HYmn134iSvz/wPyWda/0xQvWNp/jTMmHkOPRWymNS+Tz0nGDLYAUcGHogk6w93rehnAf1iNXARukBU8736T/iRKW+U1um0IfGnPFV1BgEH63e5n53TM8bpY74qK1O7l/J6xyQ8sEI8TGkOM+o+EdRADGGHyi8W+5UF3yxViSW46DPx9rT7jwWayIcNBE9rHGaqStVJGWe8J3ad6N3dlGqBB4z34S7Hp/7AWhetZOgZUWLrDVh0JL0q7wwNZ0FEev6W+BKBt3Chh7C6UgIKIZ6/pG56XXN6Sbzo/y511NtTqKxZeFOJcgBNW7adCrtPXm5GEmIef4x3wHyvaqO1MkRskRD3WZadmXp2WBrPe8/w7IoZOKfTpbV+os68sHatD62R5UfjBdFEPwtEbkJ0IElTuxJLMjUevbETByxCyPYh6A/tqQfYz7Ei8HZDRgtQbHzhHLKOm23V+3JVGoaAIEdu5ox/KkLlqjJj6hb6AGHjWGlWiaf8zdUaJJ6mYvb2JU2egoDg8UJ17eoQiIaJ0zE+iKaaA2jM++xVLVvSxbb8xXWhdCZL0hmNgkxN0p5xuN8O/3fBwuYfmapgumfe5dyA7yX1NccZo3VShTz0kpv+fChFBcEHho2VMSYWVFZFt4OTHblSeb01+yjVYD/4acNoocGlOZ7y03f55WkutXJG50sOJxFqSWrJCa1NFJ99QraPJIRcbGahgS7Dv4CknNUT+fWC3icQnD5RThop5F6ILMKW4rF8u2IGJ67KVxTYIHqXawDYZyC5BZM5mgW52OG2ozg1z4FwRYzgBv03FnObYAblwmojP/+RKlFt+3pAjXeSAXHR4AOoIFExk/QYLGI7D1DJpHnekEYHxEkl4Dy/RXToi/hrq7Egdk8qK+EjcYxZwmj9akXakDNhA5KMOpAg6aFIGCMY4S8VJIjdRMFHsLf9m2OiM8bzacGJKwnZoi7OYHL4LXM5m+Bb9ZjAkK3QpG4B48yZkUvqJoOg0sF48ZJ5Zfx92AC/4rAm1p3UPv8DJc2ql7SXzldiUGp9j8408DHn7SIT1t2PbqUg30MbjH69yo8WIhPwhiFkjk0iRhc9dSUlZafu51OSsorzCnOEifoH3JFCVdFbbUKiUzH0GEDdjUbgEAjde6Nj3yKqOiDLwvIV5zoUFUIETleJ/1El0bmsks2/m5qOyMIqNZ16PW3NQnLiI555HlGimj6BddEaO1sVjcVZ9vmpYBxM+HqVkJSZIJGUgJOQEyoahxfOoOmkW2tfCXH/k+5TfihU+3AtSrXI3cAt0qoGBwlDpcD6lIFEcoLVLzlkeT0vny81G+JsnAZmZfDvBlkTOBApa0QL+2Ln8/MIr4ZjHAOK+HfVrHi/IOzjnwMZcuIJHclzc9LkX7fYD1W94wuilcx6sUjGjrPfs7YsGfdfqS/7MHYRjUQo3/yNK+hMPMwoWrSUsaLZmwar9PL7hU6CUjpFoHYtlwm6hSqpRT54RetFgR+EQ8kk1SJHby9o4AKhHMVQkmhgUm4oEuUuLt6m7dppQMtHo1JUiA1fBJtDKq7QsUullcavz1A9y4jGt7ktHJsDxytZlM5js6aNiMMNxL5cfDHbprTYo+ibjlSe3qSANpxbyaPNWW0FTjo1BB4yyMwYIJFM6Do4xt0BXGh44wJFd46yRZEBBLEwpm1zD1Nda9Uy/WGABIKyHn4OtFQKoptWgn6EXNtzYoVrc7ub6wb5JYIv06y6zql2nvL8yH02l17s5A+XUbMcUJgc+O+O98AQXvQv85B6hsGhUN9EJrIgfRS5m4oHPlXgbt9vMpVFk03mz4Y7jP+nfOP2bgY+BdnbfvOw02JprbCS+AZknQWqAZvA1eCuoN6kUHDyZtTkDS76JMx49uhdnY+eNw9Sj6TK3tZbRBeHyLp5rxlBqsKPps+3L+6O/2tiDBsfuAAAUedTtBY8g9WCxGfY7HQZht/2Rlpln351kyMG3VfQZzOgwbICIyOxbza4X0AT3lbZODlviRNp7uFazXnCF9hX9XfeojhbWB3s8vbmrOrVzHsbJozpRrzq6Dv34f8/vohN0RXAZnAnL4wYIalx3YxZCSxJAVAPLleKcFiTTz9/urkS4IOsQzSJdQG0Uy4UowddwAtx97tUbA7NAFtn3dr/mFPRRghZgAKtWvvkXzmO43CL53r4EaBW+At8CUbn3H5c10WeadjGbM0lXeqlZHK3EJdmnbPPE6EN9CgTh/ruSe2kK/fiBM/VsdIE2PbZd4JwU+qBwCCn6YnIQ2Bj5iJtKd+bYzRqZCPPbSMviWk7u838Co15dGMebAhwPAxYU/PC0/sMHvq/M5xYhAfbql97BWhoW9jsW6JGgl3T2CnaI/iMMjEuC1gqKAv+v84rUG8cLATrOhTDEGCgQK7eyHgAUKmgL0Ts6zG1tbPjAhCXJKCU5iJaM/v/xaYjdhiyswj265gsMGgjTjZ9Zy33ouRUI8ifFNtpTDPCGP/214lGz36ZWD1r724j5+by+weLCa8s2fWsOmAPZBGp09o+RYIsMHHGnjPukqd2dZ9XiDMvLtU8dePGBrjT/iM/LWYQQ3v7qceCTVnAWDf+Ub2Q58dzr+Rq9PurAD87FT1s5VHAagLsxG2xSV6GYinMR2wgpgyeTVRVdsYSjBZQTFyUcHNyp5Uz1MB8Gllt0qEC00Hxng9/x2kbbrlpcjdKf0K32mpgQGZlHSynH+vV+3KC3htylhsIEg26e+ec+5fJqqcheVuFrIfpsXZ2FOR2sjxtXSoqphHehmuA651u8R5sXwKGphDj9CRoARd7FotUtMtwNjV++75NiHg8cCABHnr3PpI+W/m+VFyiq0SKCKkYi4xgnFRSKqRb9DWzsPuxQThcdKgjYqW6cWAbkRsHR4reRzIE9hqIKJlhANsFRdfhBMJmG8N/E2cmelgVCxHHHajuNLGitQxPs6Arb3N7w4i/cASLKXQK9G2rLLjxl2UxG+dyNFgQaXZK0z7JC09vF73YKmD8FowEtCsRONwYsxMNiwO40fWTm/TuxdurYMDIt+1FJm+aFAXHdO0PiWJwMmKzr3YqyVJOb3P+4W3qB5Jx+t2IoYJC9nhXsvYmU1T+qzXOYYRxWrGzdNlHmU80xs/n0172RBkirqR5TljGA5nS+mYlgzvsXCRcg5LdIPe761gFddcwmcnrTtYlftiA3d8bsf+G0PEwlQ6uQ58c2W+3sLoPy6vpUSFTxH4M/KDlKSVnqGPDKeVpPW3XbYEZWD04v7DTyj2r5yh40DrR2FNRVxywnVjvd1cod7OTVH1qunAtjtcdvLUHdhG8f5xTMVZsftmxM7jzb5VqAzit5kL8WEKe+U49rz2X7KawFjzoCWpQb7IGcbYlvlN1ZscA7ifxQDvGXd6YbJTy3v7EzawZ/cv7EydP9ZTVhAjwAAIRSJWUztqcAOwgi1JA53c77EGsyqRuGcmrWRL9ts4Seylogrtk7yU2/i1k7r3yAE6R8znuiF/BGKVtAw3qaNdZ2tiyt1j/WFZWW9NtDXxpL2Yw2IRp0qsQeT/68yZJu6EI4/8WzSDM+A0QJfSHOYWRzbUCOPkg7ZUqrrtamDmnFMES9nGt3dUu4CjoDkQYWq6mQz28ykZEsQ9lOmevYJY6ghV/zEiMPI3udm2Pppu0vDZPoip9AGrsArbeXDpzN3WL5BZ8oadDHJltB8EwQtwv+NdfhGtBmFHHXTiuz6ZoiBp4KOznXv00/C4y7TmOPRpSE88s4MRBcRv117JeKk80TPbhSVAJOgN/fnP63E8phHAn8Yw+DcDo1EJ2P4/mXTPcPVstSLH2fHQi2Mzs6VTyxR7nqFCOXK/A85z2dpxrVxRc75QEZ+ewoIUthO4f1ER90/OF8p1Dh+1LolitRdWZOwZ59E8g55PpZMlhPBAZ0BJfk6NXCu2L8g84BV3W0F/nBAI8Uev7BUir+mVlNlJZcarmMuNV/bwBvJL3vgKb69JDe+hpIAXHosiDS0CblZKR6fcv+jnEDlEELsX9/unhLlONs+DQ/WtL1pdRaglePr2fjThC17Y9dDeqV06TKs8V7Kor6f7A3WBCVCmh6b59SNUTA7yzdyY1CJStuLU8aqzZzDysTdbszcGdSRuTcS0peigQl4Tei+z9oBnCY2g/zowo+yxpm03WfX9MK53aEVuZJZ7J0sBs3wyEomaDb/x5hH+vHS9agOu80+QKxauqYmXa+gzjgyWxK+JRsmTbmiiq+kNMcK2fYic9kxgTkg2NT7oeVpNQprlT+Fwc4uLtTmHcdoRhI8QOe+PVFWQy2o00ffKrqgsTtX9CEBICqdGJH+6+yCTYPbYlpWAh8Oy4OGmYoszbIiIcAR1GM/jZ9UG+FJl1GKabvMmM9dwWWtx2Hu6SqMcVDg82fZCa9KOxryB/wqtn1Ka4hEd8COaRa5cM4j7bExwhrGWR/GBgH5Fd5Ng3kw31v9dNiSP7/LwgCkbo9ToNN5v8N3KVCS+sIgjqA56tUcCIxJQ1qbaBZbnu03OP9A49Tun1aKIC+KjatrgBvlW4vIvLw7K1xwkT9UZA31JBGhAHWPRbdfP0AmUvrLO2fQO4C0FeEqsQCxinKkSHXLYyzCGI+0u/B8FU4qtScDNUQ+pVuCekgccRxKqnMcZBlWDWmwQQS4Pr79g/dfMmbep6+8XPYi1AC06E+bbYqVTgzMzZn1UV61e6ODplqIOScp+Vv4WTL9NRzdlwC7NhwT5SAENDEXhTR1JifSET7nx2tyg/aj/zvxZLLIJvzRNg/6j2nQlT5Sozz40xGIVY0JczmokPbEGLYvyO1nx7+GWc9SF7WRrU61Hjr27TEhfNbzfO4CRdgEgUz1IG5WBQKKdkOR64rnzRU2CHEmLlNuiG9IBIl9vsuQGgktOWO8mdIDjrTUPiSpeIsn/PyxKroqQ1y5z24L38YLUOpGhg3ebcMpPvugF90F9jUx1EPt9zh1dwopfYLUlzCyUBNlYPENaMnsTiCjyZsjBHLISWFxjHzlkw7jcnx0KLtN4fyWrE6B+SaNQDG3HU1AqLsxFIFwN4aepWOFszvPqCASq1sLdQuiC66iXWXRIb6IzxXLCfZh8IGNh3dPPTc+3ruD064e62hpXIHfD0W+mI7ccttP+WGsA3mDoI8dDVIw0eTzK042zHXvRxknrWpvwMHHzNjI/ictt7JKG47+pDbkmawMKCc3Etzs5jocwcM4nbipuN/4GjSMX4bPmPzjlwgLPoj/dUT/1RIIh+XrmGHS3zuEWDNbpV/39+h3hMiD5foMBmVrS570NTGqvw6XB6+4ceuS39SXo3V6QQapuSBaOssQ/Ifp0AQuRN9b1wQqzribkKPqNyWUUdLH0dtmSxDuYNZh/2n6BgY4CNOlB2556YYqOMAWBdNKav3WMhUKOwuI4fVGPTuIkwr/xcTSv6gsBluAcl4QtIl+Cz6rzsufPLRRk6Cd3YmQEzMhViZ6aEj17R/13+KbaUe9r5/ZlaXwcWGdzq3lF/l/mchEd0r5e6G+YPqL401/fL2NJZ/fTMKZzN6ev6mcIxjGi/UuensfHpWXhhA5VDhIYBLjRi3KfKXR+oEe5GAEWCy3HK6H+2MV2df5zAZvfG3Gg9+DJfHYRPXR9dAfE0880lkIMllN04wMFrtoAuy7c3+I1ogfA397Owtiiv0+6MwGuzMBB3f60U0e8IzJRw/qFmJrkm0UHjaL9P4DHQGD9CJxjXZnth7oCL6TIxwWbylk5sFm57kUjV04qz24zUOOHS5tAWjnTuz4o3Jkg354mu7wBI7NyVdyPiHEzFRMgczf4ThCcBzumY35RXTdtAqATIr1lDACEWP3yccu9G8iWGkdlaLJH7D6o4UJn7OTTi/ds//HmugCYo4wn7a4ashViIQUjhWs54/KZTOfqlfUTIxuf9B/SB1SyPwxtqCRgyGU5UMgxNZqwl2+pq6QH1woCI/7CJ3RJarCtwTUJJa98i8Xz5Vz4T8VAowMkJ3KnaeE5g4V6O7uQmHB/CbkC1WVswXAHn294qOHc8dnNotRwDcSqmeUr3B+CmN5a9k8/b6Mzx0YcNIE8WP3cNm6Yubxc5WwKANhbbQi5Ztb7dGLEjor9UjeA1kVrGyUkChdSNIBjuLYJL9FV3WmjbXCJmH9FUZ+ZFKBsE7BOSow7UDKF1TY0W+qAUHNt+tfQdi0F3lWGcQxmUkRS8LGWEsrNfMmJqCuM6LWxpn7H87LvoPoBqCGaO37RHAa6tFOly5HyHTozS03P7xrcZAhrlPQ9KJAI3Dyd/CjA3qSHSejV6jgyCaNJjwsXUJXtTDNv+HDcKiK/mEoS09xq7wM5TbxLJawc/2kVKRkIte4a8cYmSTAmbICTDvMINrXQEjMeqfhgCstLHsRnt2vuVgcAHTPXuKxxAJmrPzVFOTck2iK05xw4/ugSPzt8l9/quPYd/LVg5xDDBfCposN7gLbBKgm2jX6+nNW1jhvZAnUIQm6b6ZQP0kraCmoNou40IneO0GlcnDFf5xK3sMMF2A0WKhIRp+jSw5j5vcT6ByKsHF5AE6a8/Az/uQP16t0IuL8hCidFaAR7egH9cKUOn1gRADCRJCvx2YMsv1EjsYT2mqH/mdjY/bpEfAVQXAxHYMpczs+ywO4IQhA3LWNT0x/xLYqhqI33fVrgLYd0HsYjGvi0/sYBnppdVNg9My1kC03qMN7x8XMGqSBktNHtXaTYyarr+ct2jN/wiD8ZetarboUCLkT7Ya0PiNtul8vPDj958ZTPpMRr4X2cpmWXbPPFdmO+bkzjJwvcxaQgTxNPxv2O/iOEKIUt0lWeAHG+BfbXk11pFliHa3rDfRA6Xy8cJMgLZ00TtaEluqm4IANkHYhLe7+SfQE/k8H4b4WMqpz8qXwLLC7fBQSPfDr+ytJxekns1+MJEeRBxxSMVczzGFa7N/mPA92/kI+DV3GU7q2FwdaUiAY/+354sbgB5kBoiB0F+ZaYeF1p+l1N1Gv6PAzUlEEphCLh0/SqB/Qj5LBsS4T+O9ZUXv2+OdsGNP5/1J2fpekH8kxWI+oFBS0QAHhkjD169PuQq8b1DYH3UFYJpTRofDQwCCA2Av1lWHBXS52JHWmrzaNG8yLTWScKUDjd7z9aDdYaIfxJESj1NnI34ajWzQva+KDPqKaezwcWH9jGefbrTnV3u+1ZjEqRrcKzBAn0jXAMZgj9aSckHQDpVmCjGT5buLVknB+wTu0fTMKVu6t2/SNtoglbqWh9yLE9Fox7GSxz5Zw7YQu54tAtzpeXQGs3hU6cXDBUhQHZbVPXrqF1h3UtPEt2y1TKgr+57KVEftiVhybjlDsXjGyQCCWhBAuPnAxsdH3X6emrb/dGZa/xHkplXDMYa1lXwXwPWV+WGQ3bldNrZlj/lkwfDG4b9XmM3vp+uc7nCu/c43hXnrgs5Ol+zPUPRkwJhC2zrQOg2D95wZkuKpt2MtXHurffG36ab+IHDN/Czr7kQFX6YwTELhGlA6yTUpCSWAr+MfwsihPyWPR1KABrd6lEMgCDXTBNmkDZxXXly5NdSGdiov5r2Rzv6AI9UPd4BaQYPVaHRuDr+nL5+2/lzH10EE7jBh4jV9i9aCbF80Life4Syj+TqG9RuS9K1HBaOp+ZM+q7TK7bX/D0jQb+bK6F5cQyyzjpeslTZ7Dnf1QRDJZtnvAlpN8SZXPRb9p4XTPQsNVhiMbrS/5wlwNqJp6xIAqj/7amIQcioMQ+4H4nHLs2jovdC8BFmckHN/nQLpZGcekXN1tbXUYfLg23io12WN9AgT8fXNFbqe6NNXAgfFfjTKCTvmOHZmS8UoTHXnSs5p1tdDykDQIFAcEvuYX+5PNalQpN3cpoTVs8O0uJR4ItjUvdY1JHg/zPgGP5+bsY9YGgG8lNJac9o9z7nllkpHaT3r+11IuktiO5dl2I6aqfq6srwbabMe8K/VFH5kyCvUAiu1WHuKesW5yAHQtMmXmFFUeCkfqWOfa9Zh9/wO/5HdCC+YidZiySQn0fVhqNQpvikJUWTa9PNJ9S7IiOG2DCeMsvb6wBzEhZ1RBuEFQl2EZZbSZjC2JpGAY9WS267AEa0hV5GuFtotIw32P9TMeRJeCWKqRc9RKvdZcx2cTIhTLO+JUzwzZkTseGOruqGWl7EeZ1EWTOusDWZPqyJRBf6ZGhTlYUYQ0qjNC5PCMNd/XBaIAD6+AOCSosRS8hVpOZHvCeWc1Q10HMH6I1uXN0K38p+04lhT1mcWJGvMSJRMFwC7oSg7fz4qc/uL2T2tscFqgQtPOZbb+p7yAEOFe+aqSI1OA6rcGdt8+tFj5acYMhRu1uZjM2+mt9N7XM5ndbIQbO4Tbd4omoKoMGJev+rUemgXZhXzPlzq4BXBNvEWlelse29aAQH6UlqFxArQ4auBrH86f4VhXcO5PwM3j2/usXSNYkOjdMfk5LIGcSRnAyQoEC2NnmbROjO9cDdelDsPW1zUXKsQiakZgeSw4BXhuXeV8XsCRrnbRGRd+reu1Wl1pVvvLhcWepnBuPeDIaNYyjiHcb/YDDJOouq7DV8Mbqtk5N23e1sb82BwfL6LC/rUuKn6u92C5d4rwsbAdYr2YiHTkyWxMXFted945fqK8FaMYPdOM/JN7Xuw/EFNdzmEOQvrEpywCCuKR15F2ySOFBq0uSafT9nIMRChroRa4MUv+yrG4tvYMYfzyyymms72L0BgyBKlkzj54kergW5aS59CYN/YRaStQXYrc/crwjsvI5RJLBtDPWq+wV5HLfnF4I1OWbOFrGTG0i55TXEgSzA4Qfwm3p4SyeH0rOCwtjYkf45FPuCOJledHZB/qJM5u9IjXoNTfptPME2R1InCzY2wuQU7wWN49ThsOeG1FZLYW+zL3pWkkhWc4SvC80/fMiHuZsQ6K4FVHFHF9jwwRO9tg1mMX1ydjm+82BWOzbykOLTy2Mjwtx1aaOBuwUUl2gIJhqzpuRyy/haDPXgd5/jegTd/zrGYzvcFM8cxeMdrdKzSBdnhw7IiL5IfmgS5ceKCyd0/8Twd5KwzvRN/REb1WFSJZSihr0QhpiEkLe3mgMHcpGrXO92dyzv/rIhs9/t0mNm2gVq9DyACpWUIKiz+IyGeXg5NmhYnd56BQ2un9fLP47E/KrS8yDvQdkYNNksurLRZ5wbCcIVHyk/ER4SuSFIqOR2hiFg20lC/dauHWMMG6H2/9AmUXJpqbEYVV35hH3JBtboubb2cCGizUtTuRz4fzbcUUnGsvRLmPjHgb7kohVKn3gRNea0bKoE0rdOT0qHcRehLNXXE+D5O5c6xgSS321S+S7IPm6Zyk7YRIDwq+vvgWGvI/fW3KO74PMChI6lIUJwquXC0pOXF9535qTfT37vZ3HhSYerLjJQwdybq9m9C3q04CUXsAM9IxU9croux7hKES+AiSJ+6TLZBX9hss2JZDTsSTxX2Vhd9/57i+FCkQYXhuR4tlDVzOUFDnaMHoLXFrLCG2SEMDi7VkxyprIZbM3m8FQE4HfNdfvy20tH8p/WFqJ7Jc3RZGd0dogUmKahwdPvtMWt8TANF8VtQ1QEL+cbPPY94fKquLCnOBHv2jzSosz66ahQoHGJ01EowItYXq8chhTS4dYgJHZBg+oTG2v7pX4gw5wMFLPno5Ilg2qSvz31dyy7pgrMb407BCkt6Lb+Hl0h8hHGP0lR5Y5oWO3+uqr3nwmh/Ar7p55dqntgj8S+tUxKNAK9UacwTHVjDdBPNqHSLLOclQzvbVBUi6Hja6kIGyY4iAawXKfsn0aI+xYu2uEDwq38WWw3rxUPF1csnE/QXWf6wWQTR8Bj1F2aBCp2X3v8q8AjA9bx42zAp4MmMHAa2G6jrTUAAQcOKhjKH4GdpZka2k9B1hC8ahwkoSHXvJj+X1G30VTiYdBV6o93/wUBJjQDs9adwjZ7vmG+B0eCy0bMfIap5AbMflRiLV7PlnKbIBQAV0p2tCLCg5c+cdF6HMc/AhL64WldS11ntRSk7YjtATsz6PFqwEeM/w/IrPJgHLmoiYbk4oajMG4HwZAq09CAg6ZlBn51Hj00VFCUuCSujwFU6+LAvH+lK1If108EWVDDj9UJ+T7el+PI+raxEhceQdlF2E6ANaWWc3wTKuYn137wnx5g8cPhy/Sk2M30kWa8CNjV30YXHIqEpWsL5P6LTxtfjXyTCZpUSkUHSAbsfEIHbnCPnVI/g0WOyO8Eyfvubo0M+ffx6o328zlK21HLWxqzs6qwy5lvx42ROo/Y1RLRaNZ6fJXDyq8BvMgpZgav/vKhGsOJICMe4LTeMuPnygEnjuJ0AzYgxYPMoGlrKEuLknCHFNM9rdeA9YsBIOA+JRaE1CSX104qoKI2L5+MJrrnsGVOIhiLxZYv+tRPi4sVPv0bpH+uAbBZCXKOP+XgDHe9GWiTpRMZTpPsrOQ2ECF9U7zol4+9LSlfcUFMgNsA88oOUmsu2qqtm0cZ3lK8NpMeCMjWjhWA63KWLl8iym61sC8HhQIMnShpNtbdtG6Q/Uq5sKi9h8w1ZnLxc5gVfNVe0x2jz7BHdXAI5aPN2VQkVbOw7TUABRS1zcEAAAAAViuie5pb4LBvgdAcydKRaCLc7E5fKg4s3gi5jvfX4UzdU7PYWXzJYcE0E+rdLxfRZyCGgzsQM8ApfK/m9cpU/z0n0bYy5ngq+uoWwvcBM+eMWBrmYH0pKX2ukGo3xEkCJ9Ur/JAqwht+ICuDoQjhWq+KA4SOcnHPOpwzCpzmRTpYHFAYE+kj+mZkHJf1Mzg3uFB4YIVabJsqVImcdn9Rsu0+hCKp7bEpeP6hvEpwRWQVN5BkGoplCBX3q66RUv1LP8z/V3iD15/7dCeRVWdxXbY9kwSpgnx3liNEa6YrH6jIcCYEFnud2N2oUwghhU4lFd90VKxe/pyKhxobgkXsy4xLTDSSMG3yPsbgE627OPW+sKE/2J6SI35NXdK0Mk9JO8+spxbEEfGfUKdpKTKgrO7xeDL1V0QdT3ngAPhZco7KIlY4l6FOurQ1iaJuUMp/rKlROfq9O2/CghYAAB2aX05W5VpCeY5GBFcEH00AZ8CUDDGRGTnpZqWHbjdhDm+KvkUJyqTVFRZV1UXJok0DBV0La3BrWhZclQXe8l3wcA1eJ36d8+CVRfimbcvMC5a0hg9sxYx+jYiqE7qlD2EgmYhXlkZvyWjq8ogj7QVmi18EeDBu5/sdGA9qsqcHoUIIgpO7CoiSu1h5IeFZC9o0s/eHjsvRt+/WkUYN6Ht8996bZpS5oMcAYAzGryN9cRN1uth3Fc7JRVXr9iGaa2mwz5FmOOapF9asy00lHQ1XwKk9cTavAUF/a4vIEBi3gfQDSZjxGBS1/qHT53oQCI6c43sMxHTfbOcpb6PelKqbjtmZZxPRgoOQGuhyVN0jGDhw9J1Y6dVBR7/NHYgDOI9KbB9tj7q+0bL+XEDnyEDT+S7Zr/bt6h7fNje45w5Q/xcw2eql5A89KPCv6XDqZL+V7YECul7/KoJ8pj/u2m4yyFquAcxBkJlTDGgi9CkyfbKTiI/eV/kvlcPiMVK4ALLGCUkp/wEwvAhxYpbhJzEcy4ZUVyjw7jMsHOHA5iFdQGx9gK5jwvXRKgtTtWlBieKG9MSwtkDrZs3eNXakh3p5bcgA0lYSslguFn9X4SWfx4gzpddwbRtjRzX9rfyaMc829np+G3C7w+c9/6Ypjeimh8YMWZxbuPMCdWIp5vC6ySC3/5ys2Iqu+XS4jRV0sfuHfXyjmFrxBguRbWaiE1BThV8QXazSwFXJWGwt/4WrcR5aHGVXiIv7sXCmUub5PstS41ipJg2eR2oGn/gGlIjxEmU/oCtf7ojbZh2YQlbMUZyH5xAt8uj+b8X1xF7sxlt0MRKvhhSP+6L9qtH2BckzA0sBEhmpJgV5DxNu8kEIs0kxOg/HV8IWph+NFNALsEjVqArM6xOESVWsboiPvEaXj4aTeH6DPi3wzfJAltMngLJ2Q3sF2oJ2vAUWwOk22Et3y49AGgFQUXCAOLQ5J/BT8pl7/X6vAnS84/l16ldJirVqIBXcPKhczYacdFyCPsU9fQ1DAPRnNF+jBXLG5Ep0reMO7qBb3WBN4558ybIUzX/2iopSMaqD5Nn83HJCcl+4xAsqb3IcLGsNt+BRCaVDH/QHnNIb3YAp1LBCG3nfPp8weTkpTq+freGqPcTXiygh2Z7keV/9ASZTN+Z5prKrH/Xa19ZhP4QqZFdA8o++Hl8lZPj9CtuPM7wnhYdad7HmY8urYOn9thOwAK8RiPLIiGO5LInIUfGsExoduWb0dlxnadz/A7XiUOOcaQiezJQkl74fJiXIbLbVy8rOtdfqcAn8fL2tJ7Li8ADBTGgfw/sGn2gmEkRpyb7Qny9dx2yFoU4MMypxtzUJnyy0VgpgR1EMtsPURHipoVeTWRsClExnl3Alav9hDSyM28rgRRLmgbhXccskYQI/vdATJhfrT1Lurb9pEUmALT9s4VDw3L2QklbWjZ1fcYI62irR/nm4Srad9iu7EgYKkL4FyXOyblRmFOHY3cq7WFFoG8aHsTM00CLtw37NF41Hf4ZeNNcbt/bdKlre7MqL9f20rV/tjYFpxSyhrWVz6iLPhPQAEXjr52u4lk3pRbAhifWAt7ozwGekQXg2EOMs4IWMKrZdmMWhDjUgmxw+gqrATS9lS43gxj1xdrk1VRTK0rtF6iCsrVYJ+Uds5Fx42Dxyap4+iIZnba2CZ5aoUmsdIvx7z3fWRwZc60KDu64RDUrE8Q2GHCB0RXyskOFPRyfXRy48NHHdC3laYkik1S6o9pYk4PrLZ8LCXqq8pf+KdxDrVWWfh5ceiAJ9MCMFW/SHIfvFyeeiU6MODPNRX1kXPIxZbGb57vYPm88/HqzxdFxrl3Mh6Crp30MwQkvUldmgCehfBPwpfDqyAZ+LND4WIHMZ6vOIYfm2d9QEIGD+u8BQwOgNctWrq2jhjZvKmdmloA5qra/aBfL0plK/BNuPydPMGl1qbWmbdDAcc7Eg4hNAkoFnw8kwyhmx5pfXMKHjUD92wM+gHj+LszdnFTL0eoyMMkG9tql55NitKRBEJRbRpp7qm7ObcXKpzy2eYp2R91a43EQ4tc0IwfE0ab23fLwQE/HKur7DJczekqajQtzQkkECPPDeK35J9AYYBRvcq+eJ0dCMKTHFkMV26Xsz3jZHgaI7EpXCcyRQUBy6rN3VApZnril0psrSYQ1BdcxieUDC1dLzvUDA82jfSkla/l9OGJPeK9I/fuIKU9YFQPz4Q+00Lrwx0nIzK4n9shR8Ci0kEbBjTaN3hjxRVylJdYlRT46r1QPnL7jNPQqcbBI/s3zEz+CWDkw2fB4G2qfBBkNONJQnyRK7+xGvoAsY5TEht0VcGOC44QaZrecc9e8kSpF9KwsvF8QZZPn4nfUSBPUXhQ/kG6+jGGoXSiE0QG3E7pHX7mmI8yBOCDjdBhv7Y+GIFCTWNaYPrzedyzLWjSOURS+sia9kaGqgPpxy7ZGhcztuDFimhEEHIPnJKaq3pcJuchDK0htxjxH/QN6jGUf1L40JlfI+4gwsxxJs6d8y4u4hRkl/mm2sRMYurScXy7EfpJWJ6CkE4lMgd2kMU2xiEH4IaG5OkncYMXUzkLpSuDWuc/QEuQCLMpLwwbRrUXUPSorgEBTmOPkp+nCYXuINRo7ZzHPrjXP7R+F+RnC2j0DFhECGr/Vrl+BDJhjR8f7PYCjm1pHfUsGEGNXQLMGc3Bn72WoiNenJusSx1D2c9QaGta3mcgYD7nPBfS5SkEi13cRafJztvy1Xwu6ADzsK7FVGPWfiPQQu7oVruKIkpSZNIEyhtXyV2KmxDnwi46BSGaHW7jR05M0JFIRRW6K8ySBDGU6xyrVMWGb1wfJoOCyoxJC1rEmqB6BQljzmOP3sk0uXM4LfEjmxh/NQu5UDEk/7gPLlpga93rRytNAVeyzqji0zuxOpyiusP1ZKDfEbTaOP4WDMbnvPXq1jG4uOaPrRDL0NNJ3bZV/TlIHZubZBE8ocRKRF+/HFEyomgC2x6TQUXx1E8iQE5GUHsi4FXaBhpj+MFlp/pMzrAdrqKMsvCcNPdsbm/8pZg9T0Xge1P5SiVz6iIn9xmezjjLirgJb1y3N/NNulBojAzAZADx6MeA5dKQPNMdGKI5oKtUrZu3dG65ASNQCIowvQut8Fep19STY4/y1OlZx+MyZLAGyyCvlF594fe6NRuChDYGSy1mGqiZxfjSoogoUQZqbbLuUkW8knTo6XAj+0oB/uI0fsXsWTOgpME3VRx+gAxHArOeewtxoWEJNf0WVJbADv4mlHykYw6C39pP4WuPtR+15ZjJvQxGfnrmKDn4Qszu465vekaesPmNMRr85bh1kHRAu0qNVaBUWdZqQIIM7mu7YaAQE1uR4v7W4+83+od4M6nVg44RDBA16Sioc5VeiLMvNvkWESRhnFHdCAwZhzf7L7BDX4BFDcRgW7I7c3//uJgR+BBpcVzIM9zAPpQyJ5oBoYSzKAyjKclv0LVsZZXjIJqtA63ImuNNQUie1mUGiVTFOh0BAIyASTAAJx0ojPXaHxUYcNGSIzvi93FePTc3dKJto/uwR4fSziFqp4Xpxjx8su8ABJllJWSZUDj5oW91YZF7pT2i61bbCeXdjEEE66GQ/S4zv22KXdRHYe6vy77mYZ2fD0GiajGiAQyJNrCfr8nAjpLgpAuVKwZTlIroH3R3pmUdknG4RQcoZ9OJkrfZ3EKrEUmx7w6FeXmESeKuDKFWd8GPpruoBtyy0VbPJAQBOvlsR2HJHdcPYvj2zTLcmPnzystLEc63ehLoUo/YzfefZPr4vs7CjvINVshyXfkgYRqy0EhShe7ac/6Xz1fzueD8LB0vd20UOIDhbeYj/+mMcydRtfqL6NhZ5IvKKHpbQnMSc3vMYAv5xalDUs+l/+TWmkbjtLFtv8xrqz6WmVnjxyCduxrGhwwQ/siSs4OubPVRSHCaZg4GjTDjYp+xAzVo1FSuxfkoRKgjfwKOpZdvRbKu3kL5D8DBRV2DuKLiHD40rbZx2EVJawmhKZDznR97QdQhWeXUw+XvaY9HetG+3qO55HDYS3J6ViNdVF5Xq7mtXeZHAlQFh8nLpTpnojQoEDlMX478VQAhwKqnfUlu8/bbkX7/Ws1AlvtVvy4lI8wanJ6Et/LHuuXCt/XJYMtkh1BtvDAfbs50F54V8YdK5dFBVL412imBR3XFpxIRk+qPuMH+PhPNfdNdJ9KeMTLu1x8dBu6bjfzUVG5ZN0VoA2wex9UkpsjisHa8plKf2TVeElLjC7nbMbohFowzUhNN0h71llsKJbtdW+bwLpPv/kKDm0TKLUjUNo4ngRcD5+tG7CxvFS32GP4u9qQYp//yDM3Im2mMKfvoaWamKAxK4T6AW+QoLMhcPIlV+PKoqpKj7FKqXLYYEDbBbd9BZ63p0ydl9ABbMOMeSDrDKWRySShykmsaDoYZ0pvNgc5SX5fHjbHGT/MW1q9flch7NJq2vn16suT2ed32iuGPMkS9gcEqAYEfhTBWQ/DlxY1uN7J82ldFdMTbO9blIkVUcPjJuR1qYfbIhZedzg+jk4yemNW2QV9NKdMDKYle3Ln4Q7W0uG1dj2hppI2LI8Cj9LcConMh1EK0dQVF/FfkgrtrgcMCGki1MyZlbWDXp26bD0U769ml3cjpgCc8anX1NyKSy+ZmVb8JGy7WT+//TT0G5MvDluF1l2YHf+U2jcesTaYXW1VD6Z9dQlbINmtt39SGeunhrch5kpwYSa+6u5LC//mvK5Eu0LqtoudUpThG2vKxVxGYB7YBV2dC0oFJKTfEgimmRLbTVslc6B7caC6LM3z7y3DFA9xX6w8Ad6wt+ZyT92lNYCG785x1ym8zNtwjahHfhLSlfq1em18FYJSCeRlcJFr648d7sMuomCE5FImf2Wp0x8Xxe2ljtaaEbaoAicgezjJmjkkMNvER0XGUcHqObdIMWSZIm+WY+A2x8ATyPbv2ZvDCZ2DGmAm9Kbf58JbpBwcoqwcs5rpW7LZRgWZo83or3jTbLIPViy7hVdNSiwWwe6SkaoV26CiJHIAoqqVWy+DWjLzq+ran/NhBM5OJTdHuAJa1+bToeTNggLp5I0obvgtgPDV02QZ8A/i46+kkpaDOHnI0fYHJuTvE7AX8CqJq/ou0wYz2r0r8dczRQEOzsbsEizSaDqIkUMtNAODfz9tqPx5ekawbMJKS0qtlzJvtD/F68hGzAsFrvEA2xVP31jvTO+xL9628sYgzbx+Ts7X5S/+SI8BGb/hwNaMzVqA2CdCxFJKUZlYc65FJxbyM0gyIjYu0axmek/8HLSA8CBheFGWRrmEH8/k3ESV/a7259h05cJzx1p89/dBpNBEoPQrW55A+JeHhnvROeHq24uEHb31+Sm8yYgld9F/VgjOQjmiBRUYoyCVztsm2e9WsFkJAYOUeifIoL37029z8E1pi8MGeWQDkKun0AsjKhMf4GJTPw3A8thRYy/Uoe5m/g4J37/3IyggywKE8RQvlV+AmMBRw7wVBhPUQML9VvuOvWwHf5p91Mukxml5DBg6oC+3imwHbXzDbi3fHAO3wl9Wbws2QAObidlr/lPyETfHPllE4zZe+Nlp0sGFYaKfT8misE6lpOXxmqiJwt6L7frIo9jznIkkbYH8L+JcK6DnFAnLs7BAXrjg9RCTkeImgk9zwbN7L4O5bEcVmn5NXNxHimF2pI+y07m04u75HZXTys3MWuYDOBfZbuzD+JM4CcX3qlhaxehkiYyOvdU/uuJ/cqNZsgGzmrayDJxzUM6HVvM15rfH5M0a6y+GZDnbq1Nb8N2CTclcPB24a4jXY1t0ixocMdWRZTN+aX5FthLzJGCcvxnJN0k6w1TeXOHrDWlzSBuuyVR5aeCQ60I1A9RKofQUq2JSthgOOPZMPZSHO214PJHtT30ObyNSYZNiFF7rkulDL94HTomxhSgT3+j5Ye5k1u5H5zNNBzfsIM3pcQyM0jUC2/avY0qVZm976E2WXNhoe8ZwxTCb3hscmmiQ2xprITy+3XPhH2p1XW2x0hUbtqqByhip1IztwOPEV0EhnX0NyWOzCivbHadphXmblKpzwCMb4ijoI7f5L4eozUL4cqbFcGPnEviXOz9qbvQsYNmiEVbRoH739UOv0PzcvptCEu6zCUHo48ZN4X1ERUQZwH1yrKH/xudBdrMXpcqXHQPAmdIdD+YA7Cd3uw4g1to21V5TG99fhn1PxX7GvH2dd0HFdumdKbz7Tlh350dfAh86xE+vyYJwRLExRBf2bl2gJiELh5hb+FwAMRlV4IpKCyO3bxwLgE4l0K0ivOLH4NOWmlJGz1XzL2fd+MhAEpbXB6uf8N3iwl+IYlWTw0dD7dq6YimVWDNTER5ffyn3c5DaQdQ2D7JFgeio8CdToK5ee1SBDo70+SQEiuEmyYug4JTw+qM40XtFJoOcbSb1WppWPOzxYqhsHJuLaLRL2f6lxvtHBsy9cLnWTQO78E+abySlXISjWg3tL/amx2ZAvhz5aWgEh6YAjmrEtIvqJZrL2UZq/b6NdudeH8YILGRTJRMQ8gRuUSSPPC+RqNQoKBclFsXcFxOM6CbVILNDdLFw/NCQRquO37jl8DJWlilsAGYRjVfAIkhBpe+HiLJA/PeTl/0ertJU5Ot9J7dzzVWL5HDewnqO9ySkFwL0uFwLPyhU89Vr/QZjyOYhHqvGphTu0QGxvI580OxrZfXyCbanP6psEvSjABZG7byN3igTbR4T12l99UNw45uSar4OaoC8ZhoHZ85aKMtzxSexNOUU7hiwgx93X0Qgxj/NpPAa5DCLZfrdvP3gWa6O4iO9R3xwFmgIRPhQzpXHB+D1ijhiYX0SsAnKFe/8byU0gz4QM5MxFGuRGfNQQU/zCFCzp2meYuXyirETNbgXXNir8VxF9+T+gBkSJ0Pgu6YCQGD0O5TscWoFK2ovKGKVh12C8IcCq0FhyAAC6ADDjOoTqlf9oHJmemUO7g/c2l0zy35PpxaK0dzPQWhcPVsaMcp0JmMHc82gTZvjZrqJVvFtPeVedFJQn1gVdnL5oln06g9SiP2/rMJsRi48FQwu8wicCTmxgwbPiTsiLNMbKqawoIsFhTHIMtpMlQNquwGbSHiaZUcSnApmFW+MH7bOkwOm4HaBm5QiuqVDA0WhtGdV+dN+8Uvvab7NKiq2mm6kSPdgXwz5CP0Qu5wCZX9i5e2Yw+/jNTUGhnritMQG7VLH4Jtj2niTr1KZAm/lE0fokeMlTx29MJgwyWSxhVMq1bR3URy9NIgaQ5lAjJMVM05U2/Yt1uwMtVrBTybnslD0XJxil4ph61QP+aJJZjuOL7reJnVxhzBk5qH4Gm9m3tgk8KlbhaaFFTeMrretCPYH+l0k+mFlq/aK0uHGKo+Gst2hg+hIdERMtFW1QTl+7aTLYxfEBG1URXgfGWGJCaUWBgtjNORgG1nbr8WMOzC+r5Dc3JyMl8NVRTP5k+/svPB9FJ2fQ+wtdbV68SlmeztobuneHOnVruN01EelF877VFfGUzTDHXXgSZ0omhSrtywbn5c9cLrtQh8OFUnYFJ+QkEkS7huCx7VTerSSiHpjBXaAZDb1tUXHC1LTgYaUgjpawZ/GTfcvqxeIeLqGN/XvmzuvpCLw5JOzFFXNkOpKbr/lz1K/ex3txs4WEKXOs6DUANFnbZRoWkd6kBJXwZtF7JOoeE9SMoT1JZEsoUSHNFEVXE94rzkQcfrjF/4XnuX9xO0dQG5o+1jUVT6cl9mjNkmU/vZfaV78xCiqYnx3DqNF9UIJ2BqbEm+LksSF9VmH8CRmNd1SO7+kuD9hQqmOJ03Ky3alarj+AGOC3z5x/stx026RhM+bleatkrwAFKR8AmkJs/FoGTVX9E9TQmCwYVq/hj2YKfk/Q0s6Qi1ZzgNbm3GvR3j9+DPVUP4ev/NJZKmSWBMjP7ksyV6+7fp0yD4lDkCv+NQYCE+TnvOa6XFDrWCQ1wq3dkwlwygAca0/4uppsbqzStndIR0zD/Q1vkPFEOXgQj9TlMh4GxyxpEYBIjaJ3YSpPY6dDH/AgkMj6njw0QGFmIiLAUxKc33JZeNGGuLv0px6TfzuQcG8Ll8+g0+V8YSBKgR5D/Z/Nd+Sk0XEX6Wo0O3rSGN2XwHR7uJ2q3093+Rauyw3fassWmicGAWj6RJmZZJ01mSYS7ESA7HZdTvo+4O4RH/SzNHu6MTV1CFEZvDb5Ft5dnG+f9CLOQiEk3CVdmONUkvE6n1SljR9NPhsumyhCUvN6PX4EoKnWorsMZffd9y0l73YY4ajKOFXn0xo5uK9E09AcclJA8B1FGuzprW2oZV7T87WJHH8Umpg5W6xVUbTHuJfg60aLNGtZ6kYhMo6dR+cpw87zyOqwEEMXWfrvdg12tlv65qafcJ2Nz1XVEZBmuv37oIBIHI5aa3HOTL11DK8g/DcZpj5b96q6SA2hfto4+CIjJnQoSBbkkYkAeQgmVt+qd6s45qIGH3qOaeNgocixrD6tqMaIiS19lFeI3cT5U3Ky+CKadRRgs06Kekd9JGvdrqFhI7PWFpd3iuqz7RlAA09W2mUyz6nfHL5kABasbyD3LifOSwWv9a/FbBfaMQRJxXNEgrMhzt/O7yq5MIbUZUD/2G7siFGcWzzK+Dm4EhaiAp7ZHTbpix9vaNV8Dlru0qVbUqSQvYSS6ZKyk+2IrnrkmntNwgP6P3uZVUqwszd8hXI6ffTef1/qAxnFS+gfxmHAqZE0ADXa2tMtRlbCDjF/xLyGNJMl2pd10SjYQwHQVluLRWjOT7uoBtKGkN00fA5F5qdQ5VFYsB1SBjqJ47oE+jQ9VYNepcYbyRBu6IM0iQCC/dRrtZjzz1MT+PyFh5OVnXjrzmUoAQakXzLOAIii5skAoXglWIq1jXHePbEZUJk48Cq3oWwWmfyZAPd717lTUZuGjXLuX7CVsKJKCJ2/iYmncgqTfOWA04LEQ0Gt3edxBBk73Ge3M4C8foESYmDn23f7y/qUbw3sunwJAuO/d6Z76x//SepWb8aHURGaJfCSJBN6aJTLAKH2834hz09oAsFAwdwec3pfXkhNwcbbKQYPZiTEVQfKsMbQ8qYRRzEouuvlfh68JBkA6lZxmlNrlVYuUCpBNOSDWhi4Ps+28+KA3DD2codGEy4/cP9IWrcYriiPdtN4sf8vAfzXxVYfNSeMifeGxrDFq98zK7w1HDJz2ACyPXSPOUmucyJ7H7YExlK/P0OMxlzS1vI0xWSgtxhaiMyy+lG8aRCEHtVJgRXnG9fMJSb8QPddVu1tpuQvXNYbpWyf7uimsmxXhmEIF6pMAzl89de2mz2ZRS+bCrE1uNz9Vg55Ef0Nf02VfjehS/DB+sJK/iFSzYlGJte16VQPT2IcRc4g1CcmFMjFilQUXhD21mpiBwOJRXYd4EuBZxO73hVav4Ylrs/O5F4Oituzp0DzDFYuLLJnwNJr1MEqP+P3muQDLTOBCxEiIgb6gRW9nKQ2In0o3aoOBIjVAeYR7dNg/iS9c7lCcZnpiEH1m7yM4KpNLyiyn3UOTdsv1UREI0qiM9Y2RoRmHi/uJiewOThbMgRAMPojzszFYStIM2aqKyULk62cSSDE6yUna7uRtVMQ/JxASpFIr2M2hPc3OvNIaUPAoQUCN2gZNgdXwQLFsTd7K/sRnko6OSM3SJDOpTU4EctEdTvBhHghfKA3wE3r440gVzlhp1OthNvkHLanyTMNTl7P938vBKibMo2RIJ72Hi5WobUWNVdPd1FhKikcH06S0u9jHsMPh47ex8bWguwlVvlJsYaFEn95hhbuOYKxMujkDzJcYD8l1yeloWRWl6iJ63LT8ViogrbC6ctwbAV2EwKnh1t1L3mqXWkbQe4b9XKhd6sFhKohsZa0mpf9OFKj/y20zkgczoo7YcjnvW24fp0WHmlQV2uKgqojuC1Y7vHKOs6xlC4CmUX1RjMib0Asow00SkKSi2gWshfgxDs8J2MaLx8ABOKlYzQ1B/2avT66o4cJMnmgl1ZYGjSZvJCR5nQ+0IJ+CFsPMiSGlmKD/H46oBiqKAKQkxb2bJ6TWtRp942XZzFkTX93hTisTcsPRtugT2HwW14NGMFgPs9ho7VPMv9VKkr882QRGaYAmSSLKIUp97TyvvUqskIwOBJGOSEDlVlQlaylXUJYAfS3854OkWUWI6sY6o0WhnmyJa45f+YuqfdYyLw4vN08sztxc4DidO+u5mnhmxgeM8FMrMWIBsF0B7qrjEIqigEDtO52So5W3zBpNNQku0I9j+mA1EAwJ766t/FUw5xeRGNi23wkfeUQi7L/M28ngabfMZdaYyhpgdtGLiENYElbjnB5MM5o/OCC5MPWVDn93VVJt/9zWYWFbo7YlovCEIurhLc3UAhQrn7y7qUf/84uri4vsBxEBFAJZ/qxiAz7QYypRX/9XHrPWXDrgSAz7cputSblN1qTckl5m10Ziao29AkF7YB0ixp5bHhCNy9M1WjHcIjzduxNJlTojny02XW9GFWr9hAeAfhXMbWvLTENsaC/Cgs3a9yQSfk/i82PCIx7wCtqorS1LwA7vd2pxgkQSAQSSMiT5ndI4nWUzTWhAjeBy8omqohX0hSxMGSYZF+IUyZsvqo/9+UN5YwZvIjRdevfjTZgPHbnazUAk/QnAwQL/x1JT1UxI2JUpNtmYq7vLj8frFwHFXbHMHeQ273ytNe67qVd1EwshYf92WuF9Y/mJS32a2QimDnU2JD6uodiE0xWGEX3cnjCH+AHKd/AyUq/OUIox22y2QsKnaojWRuaNaMTlTBOEvat6NLCoadrgIXxKMNUXSTGbSN2ej8hXRTHr0wqq9OgGdMCdBLEqH3hzzi5aErw6Qmn8gholSLB1sqhVB1bbLiMZ7jvzPYTaYqKVN9rIzO1SJ+LCEcDRKZdLaIkaaUG3hbXs4BN3eq6RZ3LMJV1oAA98VzJyL6pIhpSbXjSVEzPVsh6Va4FtauZXCmvwTKepOHNldlqKfT7zxLOdlrf0ZdvY1njF942PWnWib9+SdasMm+jgR83DMwaWtFKdoZitD88o075PIlF9Hl1KosLuXYO7TfNBKYa1HoCAIO5y/GtponFgoiCnQY0/mdqq9/SeEYwBwnIBp61CXM6Hz3euigCMJXQvrHBCMSV57qsT0VMwvwZIrQVcBa+Tmk5aCj4MA4xdxcTRu7BCrvWrk8djyMRP+Fj5SWty6vMIcvApcKW95WwYx4q7jxSQQZXqFXLwWq6pvke/YEZVl3mCVEiAcbN674ZXClqbgokr+r0YKD2eWRUDWKoy3l4qke2oDtjdins9qeyfrPV3IdM53iEdRRnYLOjjnWjreL2IYjkZ0Pk/mEfbFdBmbO4Idlr2FG9ew5kLrRpc4125t68MVCXsfzNe87RXHpLgQ/PHn/FeheM+/6wmgPPfo0VS2nmSBS0SSkhMkR/HFGaIqDrtWOcRvetqpo4TlAjxc6sNOFyP5DyWeR+BBPf2v7WTp93qaj8RCDzS4WD2R94rLFZhDXgOgMf9mOygI+jEaK0/gOGjB+eFzKNz2adakeX80pzsCFw+QKXE6cAOABqrn2GEogxZ6tNSTgGHMq8bmVtnXOWd5b+GLKcOPd0yO1WHRLOSd6jUJ/4XY1O54Lb9mCgGWz8ScepX3Fkvy5XOrC5Mqi9xgg1v+abAKCNeocjzMPFFFxiwym8zrUEQoDjv3HpoV0np7s7FpfqCmvAJcGvx0t6eVRGRxmkSBtAcOyUvxBpS7G1kvTF58648iTVuwLaEQnPZRpCyVayv8IPGbKRjyuY6QPABGbcW2rCs1XDamgzAWxme5qS0eGBJMwPf6byLBIxYNaFYR/PSLvCUhCYGf/AIALBWCsJgdvUC4LuQFBSEZtWn3+qBGlxPvSLokSYVQ/nUC+o1csLKeOoOQ/5BisCBYH5o1GUsZyRhSG107litW2kCCz71xT4vuhh7X4Xb1uhH7YeZZSnw/mVjK1RoHvQHoYFN9p+VjnRWloGelHpmyCP3u9RjxnK76BP9sv1nKIn4VdtRouxI5txEjSYpHHpVMMT79dWLGm7kphdK3pATp4fgFNimHZ5ODjh7cAYlwtwMe/PCAYnTedRL2BP5WvbZkwG5z9/K6WNMAs957c4+qBVYtFCaJz6lmKrVRL6l0KLzT/a5OmbY3hmkzI4jjaikiM1P2yM86PGQi8UYo/F4yIkreolLUKQ05TypRu8B5TCHj/IZ/+YnJYQdEPplHMw3Il1saq+Z8YNST0kWLt/6B1q1GmCiEdqT8TNYVxhMXP+NyK45oLkkDoPZu7ucrxlnfD/zoUOvj6P5Yae5JoIxeO9xg6xiJaK8XyLyu2V8MEI4XHBWW7oVOSPdCAUkIqmp5j88w4h6Q9z7k0gl9Pr/znzQeRYGtoQBdWOBJqigb2mCQ1PggebjRcd7Mkbhldq5xjoMVXh9dlyIynhG8DiVomRxXJ2ihT5Vsfk07kLXbbJjfgbuuNqiNjw0UZI2JeE5b3VpfndwgAi4lnQkM7myXeDSPdTIZENghxR5TFIQ65UjViUVf1Psq6TdqmWH6O/31eD/NWLi0hX5vdfEOxJx1ZzjAYqIYbKWFXnRUBpNIYedPNkTWdWNBqQj+Y1suryeQYEmW0nerX+PChbGSF/qcCZvgmUCIXPhr179z5K/2d6PMxdlfuVcfLDEPj3MfcUZb2C+TQ9kHxZFrrv+St6AoiLsBuwzghsE0jm04EOLcUDSVbAy6Y9XJgZNNiw6baJC7sN7osWh4puYELzxPpYJRavwFROCZDrFevfVd0tblYlwXttBk6LymeEUTZx0ZH9GJTsRWtNh/mb6Mue46R2BEaudKwIAXLpCx2u635HWX7UsUSXU5Q75t6Mb4eRvHP22SbX+QrIr0/d8336dOhNxgZQFbtcidibxg/5i+yYpv+QP3ReOAOYbtjh8C38kuPtYBd0UAAEuPILrkJxMZDIL9uA3MYmWFVWvyKvyblJ6GX+1l8lEOvIKKgKALE6ScslPwdTGqJN2eSX0Qh4H6SOEURIN9qh6MwdcCItDIzwuyYf06fY/YbLm+4oQTdLa4nCfLIiQd0bLB8ydeKPr5JsfhfYN6YNKDIFqBBkvqX1EFSFfqpTVle7vBRnin5DJ0BFDGI0G6VX84i4zKnKlyTjHVRfpE1zrzzGciPyX4M5/giBgeti3NnRY5Lj7dUUUfOoxgvfRsdPRfq4yfD3jtV700BhxVTfPiSxQWITPjheLYYg7C4D1cAnQZx5f370AOPUrB9MeNHq6QDV9LP2A+yBOAhAPL+jOqoe1OsJe6vYtsrepdQOJSlsIB8ix6+L4Q03xTyxATrMpMq7M9U7TrqXmoWNVMSnT+L1Lrlyfh+WmYiIArLX4uj3CwAmykN0DY77sc25Esyz9L/UMDaVSvxnQKsR4ab0crqq4dA8YxreBvHCLZ2DGd+1qxcoCZ80W/XLwPlMlZV+5pBvTG2OEEAckkl2NwRyetO3D1qeMOxtN1oslnfq+S8rbtW96CWXYVOBhrOhqRnIifm4DRH0/iiLgfwxvO+LIkk0K/bUYNMU6emq2cFCMedFXlootleQiZkfvy2EWVFgI2Gp4FdHKJlGinGFG7aSdIolrERavIBOcPvdhl6f69bTVJYP/d4CJOy9dMxnWIgN88G6cXYbD1/wqsrM7A+kL6UgugRzKgRSuq20x0U1oauDgV+fv/Nga8jGmzGRMbL+ohVNVcw7YZqoDEacunh5ZlxKvCO3ioyFt94+au5wouJpA5++/vzHpV+FYFL5xK+5gznlVu2QMzMdeq7VqWcZxiom/jKK6a+YA+9M7KJqn+xGmy+4loqGslyDvHFXsGyQ3etSe8hmJANHWolLxQVzoouyIOEq2KxWSgESbZfuODMhHRdciIhTvFI9zRa9E2tgjCqdmWgWfY87iJSDVn84+NBTTOLi4+tDmUNEJruQwtibeY9gsqWydvjwvGKj4kFsurlSmJmLAfSVHHYyy6gg3bapeDZFiuzrgeYb5WRXm2mla2qDFEeUPLE4j5IVu8RYK5XfQyFMHXo3ofNyD9+/L6UZ9bVWIPnZXNBvB3QgZCQd9FAUb06XF+TlUKnVzrOvmSVwAkjomD7b+SAA9NMlvyP4EiXwm3mAU2wk+pgkt13slRTRxZnuI2OCzMB61gOuGmCo4wzXycgcifa+rGnk6E1sp62GY0X7Ab3JD8JOcf6mVcND5NAC0dC2A+8GTe3hEGgJW5yD4DdmX6pwmjPL6q0JgK9t3L+V0zH/KtFz+8eHUGit65w/uh9BaRLalB5zWUZKhO39gh9/IZfCi+pF3mlQpG/a1p5TZS8XrzYwJlS1ZwST1bjzDsVbe6fqEUMrN6zV4/kgNPAmGRhpShDtfrtgJPrg8IeCpl+TfXL7aODZCAFGPBLEYo6hiQ4XrOY+Ok2NZip71rlh/GWyuEzNcl+zZ1BjMr0IRdDUlpr6TFt2fauaUZMT8ad8InykH6uo6pSfO2xK5Noz/7VruaDZ42d4Pzfps9DxFhBwZ9AEXtwgxddPUlxnZ/eUXd/drlM9/yyrGHX+50uLoP5kLoEVygDpoHiEvzLlfvVx5aNYOm6M+TEK5PML5BguXbaHV/FSVA0/7hf2z2FSagqPKIDBeMqMZGg1Z37If1S9UFjlvflkf2YHxaUBef6UcNNm1bppMSY8qsKUPcpy4os+uWSL8zaOrypNaWVlJ8VpWxWR6uxTAuxpjzd6tKNMRmxr9MkZA7UCGIqR9aqO2LP8Bs3N1Jyl9+6WOqW6fNYDdTgwtObSgh9wyEtmAv2rHIU5ahj0cPQjv+I5PShwWs9mmrYsGpFq6W1H7AJgsmYPKA5ckfiYsS8EALC+0EgHNZfCNX9Ge4b44GCXpB706waxD8T3xpn/LYG/6mSCvVWVvhEguLGcABz4AucFhcSNSlbC/woch2ovxNgkDlK9rzuAuvGS3EFiF02J0cTltsRsqTShvblpjohQZq5Taf2iPVUCzGNCmdG8Ae+DEBtyKJupPiUwrw61pMTNZF5sFUMJO2JNK1fqfTLgX96cFnMGAoMucLKMQ/g571xquHYYLyANNuPqjo+x/00BPtv+ZOrpwivu+4CNuJudbUQ2huvwto+NIi2j2mc6kfEBZmWbQA/Bwxr86SYNukBSo5NfY+WWVZdWzS6hHyvfEDnG8OVWn87GEFtIpSDOAPTkYK6MaXKX1YfU0Z90CoFFswQE9+BDKUV6MvVlc4cSRvogssizmc7TcsXnaYgzmk+CRA2aAsApU9dX/PoXILbkzJn9XyDEtbNezh3R9sMyB0DbfGt42uRuuEqgsPI2/HuKhHwhldbK3ytH3MtU5XfRN7I8zYEfHqr/4nDyncjsJcZg2q7AMOU18KRWuaY8CZGoM6ENhTlRACI3Rz93nn23vhDxO1BJesVSc014cqKGbPm2afK/HH+uhNYvEGL6uXKIXd4vF7KOLdGbbmv3/o55VsmjCfsP2+x+pTdVo8ZWvErNdb/WXuXpZMO/ovOGL8UaRbnRwYMkIq6pVjvjrwvG3ZVzCWS3nESx9MPBg9gJD2WPIyNAl5uNvvQ9woFGvKcE3CgD+kbivo58IDgPYFRktNt28yBgLApy7hwW+VRsFnDZtE4M5/5XXlCXjfW1Tm1SrU1VtkZaOZokoJUjbConXT17tPv/7CvWVpNtDE9MCuZbcCREHNDqrYQ0DOMsPVCi1gM+gTucM3ihRAaGEGPObe/Ffp3CnC311ETmHaX32gpUxsCI2sS2EGNJ8aBLjWv5QFwwvyGOvN2L0deAnK7M8kFKwIF+T5ceVqggzvkUbH0r0ATjAo/VdX1ia0UMr0dpBsdq3FCwnq/EAtEod+9CIdN4LOEAtbD8zbchh6slFWSKcu/aLM8lVZyuzF94WCRbxHDUpjclLR5SLxRPlUeCDsnxW7ilpVDFRgFK+utE6FwXWcFsNITZQICRy9eFBQqnudw/TGVkyMN1gPivzv7uR2ceUgyvx/KMwyAmDGir3Aw5rrluMwyFahl7WUSVYXs76mht1UDmkXR6REa+938ISulvZa3VGZxL2PYwg1CrhYm6zYkEcn3cJ+2oICnV1Cu90kl5dUXu3Nw2GBp10Ik5eWvLHVlLEVCLGCuzFlbDnW1gos3tsvHkK7FBq+cENXxnfPDwvHhdfgjM/FyHc3FZTDOnPjE1/PZh7hcZGGrxDWrkcBBHbVvr+hzP6G2VuPltmBCBD1wEbXx9JB3mY7Eb7WSeCjK9g2qnexCYY1J3CvlLAIaSQzQGD1dJKcDFUFhVU8igNS23ZgV3K6bihgknBOwN9OD9Dg+O8ynzvhyDMEjbIUi86bqgt3seSkYAEPW2yZQ9tDT/mCCRl/ahq5pntMdXoZ/TQl5iqMYmKoatfK/ziKPw2qShg7XdTsQ5kGtesV9QgLMpLV7WEeZDFTRdwgK/UYmW+T77Nqwfh7cxf3QDO20liNTwslxrIqP6Kru9K3yjHE+9CogDIv9RhqEYTQLpU2zjRnVs8y0krZWqaufDWGvvi4Y8Pog+b7byoXRU00e2yf1T7Ox/58af/xAppFlqvZi68fK14VySjIq+Lpw0A0+bSh69eoF6Sr7Y0KcFEDrwDGOv1WEwMltmBujUmEH4Yg4TVlih8e1AertyK/swJfin3Xjc/z9id06oj4xGzcSzl4vJosN7lwJOfi5dyEy7kHZswtAHFAdPkXAILjn/Wrvhwq2ccXsRFaZNIpCQ5EBPjFotkRSL/78W9SflGSLKy99Wa53vbMxYSRa+SCjl2g/t2Wg0cj+Resc1PxeWzDhEAWRM5nbPTJLzVs41Ol7vyLSOw+cbwQYVAV6up7/m2P8DzQ6a53XKP9q4bUX4KQbrkcRz6BHtnM0rhkobfs9oQtaBMzfPkWPMEMjHIZ7jzUd4j2XPX13IXQBMc0Nwzrhnwx8pp5lZ5qxQTUfpv85jNoVC2wIN7RBpiouyX0CESifnwpt5MZCV/lB0FjT8W4DbNsvoEPyM+4vukr4zehw3N/Za5fdVJlE34741FT1jxHqvE9D7o1pEJl2s+mXyRaFYaU/Sq1EH8A3vcj9e3HRtzVMgfxCglBUaRiZuJ+BuLGBaeixSFj641cRqtaspk631XEAxl1Xi5aY4CNSFszb2MllKKp/03S2To9FvI4BFQ58y7XT76IHBPsf6OBypgVRjXmTVwQ1YR8VQ1XkVaAA5D9B2UrrLWYZMkVBSieqC0Yxf9AIXg6yfe7n4F1orEGoXFArWoMAIOaNWrAODWiEKZIco2C4fJvSWKQx2iOG3kW3Mbsr2tJZJiGdXI4jwIonZcPtEEbTzUT0fIbznUWSa8rV1A1WX//tACpHPKIJQuPQ55jdwvgOSYpU+dTfxsrJjKYeLmJ2dn6A7oEUh+js1WhCQuDYMjQiGjTasks4yWn3KS8sslU2ByXsg6hBohrRYcGJodTPl+0TltxJrkc/HsW6pVNR5+rk9A6UUFeVbTaVxL5LRi1SVV+z6vP4kE9UHJKmXCfcIm3GIk3NIdC9WitCpYfiLfzVC+YCKbN54lBJORvTHXeZu2VhofgK4h2Lp5ivjG7zYCYBwldOwYWXtghfkY+XRXr8kVRDcHzVwJlxSPZl/UKmrrE9r+lrj4vxz9/OGI+fHpmQlPCOXuYZzSyk5kR6mFFQWb0q4uzcDp6z2JBCii1whmQP5h/EsG0ZvSqfd90ukiM7nRRt10/tMXvwJBF2HKU0yAhLL1B45sGN6RA6WIshNvl0L3liUCKGMBlclgPWMEPn0YAEBO64PPp+h06EdISN1stkShHDIEPWZjyVMxo54SGjhhhfiQbeta0VkbIKA4ritWa7wwW7fcncjTEVqqmRrtbJxFaXlAaTI1CD/1ki+QAefrlA/TWtgRp3MeN0D89O0Ks8f0Kw9AINDnVV0ZnL+pQB6pZJoBlLU6eB/BZPKw6dbR6tdpK2//GP/pmUBHW+VQDG1Y4V/RXtSLI1GPlIIKEYUZAu/srLE5Hwoyt18p94v6+UZum7q0Dg7Cm8eFRjj8u2sZWm2MxyNl6+PMAGMLs0/mdqt2Q/STPHKr9GadYHLrABbUQZvfk5LlkTxg3JRsQlISxxOpfWwP6FFhkdQlZfLg2S/7aj0kHGFT8PgjZNTvQ4wtyVE1hB9msCGLAiX9iVIuOU2s6ZtiPFSdRqix+N8jk31cwp3KH4OtOITDA921lRnjnyhFgYtSJLjEODeTY2S/BvvhGNoDHYNDh2n1+dO9wtgPnMHL6enBcDXv8AVDWDGhJ6D6hEbjuoxPQRuxwmNptGS304Oet2+SZjncma/nixN5tKfGYk8FF6AZbHDT+4YfzcHtNhp7nv6ytGztyATzyLIiPH4lanEhwOvNqm2e+8k6Xh/THP5B+0tThqMFvsBZS07tiwqKqQSs4z310azlPIm44sKveNKtwgTZScukt41bYZl2Ge88njOgg3jTecKhAWwk2UYEAD1Rk7gkpRmV3TwDyACOqT36iiGd2MmCxMqizRWTn5VAIl0XUND6OkHhkOaqszL0M+IPnl1svIY6Yf0FG55OzcOC5HSLAJAdgxdNV+EQ0CGClBdibUDMCLGwHf9gLpiGm64k53CRzYQyzrfd+OdEhaBPgnAe96QsOLRnazAcQbjHiBPXIz4aynAj2PVbdQQYxts2Rj39sz1fllz7/2ySazDnjZVq8AYnhhu3cZz1reNXfccjICa6ZKkwdQ0LMMWoJohtBjTCc+MlN9JYeaGro/ZDEDy9MPspMWeppyPclNl1Q/KCBGPeqCWOBcETDhtkAAn+7/kUOEmyE9SOp3oWfhvIzG2DjNruCSJJeYlgQNsoYnMpbjD9GLhg0nbbObiNV/8XLF7H2zXYw0M2UUVsU+6K2iRvtH0e7vqh5v9akjG8iHGTxEy9XItE3Av0a/UWOJ+oQ0cDvmaJU2uydO7I761JNZcYBi8h7W7/WQcxjSa0cpqU/+QKGxnqlpPd//2WxeNStSFo1JabYnZPqsd4Og/niNMHfX9WVnSL7Q01cQXfr6prX+ThoR54R/N3jnPQZrDV07WRPZwsTnZJh6y0EyNnd8ijeJTIvVkquYtM2f+ZZCZ6prIe1+WpoIRd0qQTldpGVTaEyuw4YW5sgkFGjZSRLdMS1jN4Ws0/bUZslZi7KWMRlaAWOEqqn1lqMymheQUJ9Wy7T5Dcq/M+qRg73Lb+HMSHtp6/TUsnPioYf8oDoV9n6g2wbLaimxQwoWHkatgzA5IGmZhJV0lI3lQ2E+AO6Zz18amYMA4zXl+Bnu6YcISZNMjJ+Y3R+8tt//nRwHQBdD/v9pikb987u7JRguzUZtvJBezkSOXR5qV8dxtYgZ1ZYMRzfOVge52ek5zsPbA49M5jynqP9hgDct/AyNSzijglL2mXPL8u8h+C6W/1AmV5sYm8i8U9LUQSdhj5Wu16khmZBSEO6uJ/9m2TXDZ5w2tOQt2u5mlqYu3/uk8toNlGF8HPZfiWHP9K+/FodfoUc+UOMW5jcjcxotnZ3bjUVPdVajJ571Gg3rHxx91ggRJappkFBdvYfqzJyQlHlrn5uIE5u0RJBVfwxsVdJG9RIPyRpUZPe+D5S8Vu45S8mAajarVIoOnbmcPlp6ti3+ZHWb1e1HCrC4HxYG9LS77FVZGX+AQmhHgdQjmKRubXFOJzo1QMtOhBDnFAsMaFkfFP6DG808F7TwgqfNsJW6v/UWMTuKkqjWUo9Khrbmx47ygu8sFj+F7yvU9q7jWomY4OxLsWk+PDxPoakuEI00adURql0luoZx9k7XynLF+EtXUbr8XGwKV7NsxB89YfXDfF07j8FCyehJH4sZP4eRni+tcmROlVpm6Gi3EWl9XEFMG/nen+ZNNdGl0WrcfoijfTAE4m1bu0vk3TtRXxtTXFf3mK6eGM0yg7uU46fzeSNb3uFgNU7145hjcMrpuWqSZ7Mx9VvwRKw1G788o/z5xcIqjPRhE6jGt2sXUgtBvbOnyLjl3zLg3xE5tzQPDl5427AhXrt5aLghz/bo/ZiSO8S3CU7PNa9OGnVL16c3NC2jUmUaNEqXcwZdLh8liQBCoMplTGpMWDGHGFMeZ1ZyA1icwYpUZfqdRYbXnxLiKCB0oKPgw2Rc+1JTXkXL7JqdO8tYcLaBtGdzj0qKqoipTlBgS7Cc4y8ecv5CExpv44IAaOnxkTdVwwOcuDmCyjvdmBmbp7AnUTthzdpjn+w0zzyCMhP69+ULgeWEaNFi3bArj8BsLUlbX93czwU5klnD6ZFEO5dPgKwyagUOihqvVj9g+nHyQU9BBt06mEgsp5vlq199Jvw4A0Qj10cpI7djeS98azUvo2Pr9J+pWWum9VyniTLuFKde4qfiMQuAGqsne9MbzVL06F+pXxoclNRzm82kgFzMv/ZLEmRm/ui3Pp5FQVUQaA4yIvazEYHjfo9ulRjbM3T5dbzT74cCNoh7i8bjkbSwJ3CvQOFJQ5Jxwxd3CAc9qpkj4HLbAK93586OfEe7AR5sWl4Y/brS3D/RvzZZCFj8kJrDOlcTGL6lzz7SUsQ6eG0e2AhzhiAA7H3/NywV1Fkl5Pd/qF1DesVcX/IhLjZEQ2alTMKrtEoiud0cp6iziHDgJ3DOcqYzAoBSy5nDcHOqN82AHcjkTLJV5VuCld9LXyqRkZP5FFqLXl8bUqGDuhQFZbwR5kTgdN43TfvDSdpsfyTv4sQuBvKvM7W3R3/x1LBh200fDvU/bIG4WjySVxr+AmFFZjKBNtbHAt69BnY8qkbWAgE8tPuhruAd3Ay2EfhDJLRGfjbP4fzZeMmfVDDWaPaBk+zy/83v0Id5J7tyXmP3TuN041EqcKVXbF/lngpPfaCkn8tuJaWsldumvkQdvrIJfejArmaVIpLhF0HaGNkiQfXbt/d4iXWxZt06z+oEFPlApqwOW2r9VzHTZ2IrI1HkVo9eHTOTJgkBBkf9UYcqA12woWTArk2ZiRXLUDFjRbI5JJzUIRLnT+j9dE+JNT3w2r2TbHpgFImHAYAJ6glzXeP4Nfd+XkSX8j46WEgVv0KUo37nR7dMTvRNPra9fCi47+OFbbCBa0ycT7bNYDL7EtUmiKrdOIcwothoAQEMy8UaRytu/pJcPidoI9/2D3u9Xeud5Ok+fM5TsND4XiwmCU3boBf7AIkF6W/jTV3fYUh/WM3qlsOZx7Uh0yplBfqFAPHen1PhWjAOQWX/V7mbjBN9kPPChxiOf+ycTD/34K/kyicH5QeasOlLDxgEAML9GkXURuMFpQx7J/B/J3qbnCW4KL7DKQmeLdbQLW+dOPAlJZqwWwMojjYRbmDXMOyFuKeTDe1wBGrQnO3QfrUcOUJpIvDWApYls6h3LahbXwK9O7AxKo09nMopHBUtIEW7xDkTVplP1bVnRNJxZdLUdwoin7aAwzMip+lOZco0bLTZrTuLDSFMCvr99d519J1k8ECjzXcwI9EJR8ytwVXcmNw8ZKydKGi/nDGZ7nUX7zxoiVxVA2othp+eEUn74r+GUg/FbOj6qdMVYqffc8gG42Uklpzj7o0CYE8fx30f/4sHyHQQ7sUZVonE2xrSj3hoxtY6o2G9281+ZuTC825ynh3yTkI1TgHjMi2Y/NTFMaJZw9Hn44jw7BHWk7zCHC98qs2duaKmmXHoy8cyRnSsmrwuBkRzgqtyqzEKRvdn2M000EG2IERZx8U2hxALtYjrTqlPn3ZlY/Xvd7csnIS318yl/d/TejtGRYD78cPNVK9U/FebRvn2A2/aPcrEJlK1Ui/ATAWz7J1IVow2y/wPpezxyF/qD+fy/Ni0I2+1078ONEw1WGtb4sA2CKi0M2PGZkLls1T6KnDDWrj+sY5354GPhBg8zhcptSVYZDI/SFMjKx2QBPOnb0AENPbrhZA3KmsqSzyx0DyO0wZiupROvEgRdCPpBXvBaifGAm5mxhTL/4HaKDtE1K+kvPLprVmC7J3/EOvtHXh2Kmeq+PAPaR/Z58ttKC15zwNFwtcXfyvVk0fheRWYALC1I4JYjWTTXdqbOoxGVkzQRUbeVqeE46b9sJk5cazQFqUEsOpey905DajgL5L6Crs6z8L9gybixoKYs9AR3yEjm7LFFz2aCNGuDjaS5Og1dbQb8tUHxRgiopVhSEzEPltxWKwNN5qLiAJ/rI3Ud9wIjd9GS6SFvNJN6vFiihBwvolIs2gUqErQkPBYjFFnX5HxSFYyoeyEO5m1OURlN7PK7ULNYllU1rBOVFINGWsf2VXqN68Q7iKsNm0QruzUpFole5/xuSx4IlfqIcSUePyFJZA7sDw7u8OSka48lR8NBsh6103mFXnAqEY4m3pzZtQzBgkz2kDMASBfl9RYTMVC0EDC4c4DAvy/+vBotpFaLw0+NeDHM69Y8vCheGLDQMy1gIeWK+OK7jRpm4Uol93yUs/kR9fulIfVf8DYRjwLQGBLURRLP0pujc5Plk4BwRF0WdO9eH2ViXiyt9NCH3fSvIM7/R20s1iY5J1ASdIzpeDRCZoaxxEuJ4Y5M2/sVUSoYGxUPevdK1Yv/BjGQ9GY5ToPECPmcKAE36lRetbPzIN/GTKuHkdH8FBW6W5bvTPyMtjp94RRBjBmqYBYJKqUX8pfdG0ZeUdzxSM6IWCNQyR3MMA25uVK46PlDoi4bzPV3XCvv+6pcPQVwF6xpbaj4pyy2gfz3WWKb+NQbLVEBEcYOysq138+N97GMgGuCAgqYkzyUxVBFuvtCCTrNtcbzmnpV67D3RYNG7BQz17iajLVAKiQMg19WnDIAYoZrl2yljQzDdoIIjdRxuiul5elRF14Fub7V1yuPFw2bIXQjn5oXC/0mkid6uxq2ZCQyan4qLeBvfN0N+V5eWkqh6JuHkmCFvdAHxksJfE94U1bO7PBKEJCMNDSfeS8ENzuTHsnMHY9twu/UwJRth+AI0rJoxL9+XIBC/qkmKMFFUhLQtGhg86bsiUY2XCMdkYnTYgFGOE1QQmq/AA//bPpTkGy3ON6OJvBePOPkzqYeALRhMY+rfLLvyjL3+PggWvfFdnmYTTvEZx1QX/zoFL7pI+idOAy0GnVfP8S8bYHnSXj7r+cEBKpvu8ek7Bv+szbNXNWbU+AAkSzG1qzRDCcvlDFwZP+E7OU/ysxzssgQwcNC7BEDfUc4W+TUNeK+024HxReGKifQ1bA1N+zTkOli1nxSKkik0P57BJ69GI4Wk7/HtT3fWDT8aK6ye6I5Nnh8bd1xGn5A+bgXNrKVgMd3CxFB0h3mNwi6ZRFTuRzFMNKa6/EmrY604PGK71nV97vZ212G77CF61s40/fIfYeRhiVDEGdH8pR3IaEuoiPn7XZXrXoao6sg5qNQC7BOPc93B6luLK6j10TewENVSEjGaq0vIuQ6AZXa79/Kzik6bNsv3b/sj3AS1708W5+T0jNHZ6Qdiy2j+gSnMXHRH+5J/iSGGFSIf5Mpkji9s8c/87hV/GL8EWa1hZivClR9kMHhbmn59UqvD87qswLLsDdlq3yjIylckZIWxJkowtVPdBo2m9mVbfHfVgEVW97CM9QbiHXhWombJXj6txbCNxGg2HssBmX/Utwk5vd55gqFHAdLFPGtgUw/iKoUxKkQV3XLf5Ky/t522io2qnp2yegNusGVnsLw1xOlqzYQToZ5pN3UccrGU3zq0txkFhQL9ZUhYicUZ6TLNQX/Lh8L9Ed4ZArEzSqJtyIVL1RJGkPep1nf5OQmz4BiX7y1A9GsKijSb4+RSF+WNceDMxuVoHgt+M14ne85fLIGXtBZi+FFHK+Zyh16iy1Q4G+rc+Go9u6JW/I7My2/YqkszHX3vykbbssWjuQqq9FeM0eqsFheTj4dUOBC4iS4F/ETSUWPvEGyVyKzmZZUxXSXwy4DjYT+H2SnQcbNdsuwXdW33DDEvwbby3QjlUOTf3lolpBjl7nM9Kq7Wogex/81zw1AOgt2vj7d93siEsUzwL9MM6dd/dlhpj5uy7iaSNHlbm2zlDLSQuguW9H5HolpntPBQ/W+o4Z/Vva7JYAc2jiAkNgfvzj6H7FnXO3QETflDDUrNqHQsZ+B31BRxjUPuMxygwzq00EXlbVDwHVRzZEW57RxT9pcKULuDHOwtMVSuXQwe0cNTHdRF1AMXYnO0EZ/r0S2+6zNYms7Fq69zxQglgdGzRJviQAGSjbBEEO8HN5veet+5RcX0DI8/2HuzffDbySnYnpqbDbZwFRHUpuZrRpG4UmTM7COsAdPUFvP6/pqRzlPd0UhzAxUvNHEpBiZzc27SdHBLx++DvvuVTguGE4NHvupXHKFU4yDZp9asYeWiSuByIhcQFjIhDtpVDnHh9cZmslh8BWylfMFJlMf2TcClKIIWWRG8Dg1KFg5tt4b0OCLDeNWQHxvPmHELtvN82+9ERrRlmhIGWmGNOSLyoQtkfMzXXU1bc82brgGqNcxO6T1W4AYjk1obzOjMq3FNseowhNJ2iSUEN6Sp9NmzaqbOZTCS/T/w/+7gD/6G1TnkdtH0LxCBDHCtGU1LyTcwM6wtq3IIz4MStJEp6UcOMw6cmT73PHTWgnGLxcH3FFDHgry0a2VWPW5wrg4JSm0PS625y972/VLBrUHxWVpjAQIHCf2E5PGLM3HpUvuRk+AdnOzmxaA8izZX3M9eToxgUNowDyPlFQK9X4PMnqTM2EK+FLH2YceLgth2T08nlReiykY7sYYHkcI0mI6zl1ygFszre+xKZgnJBY1lkFw+iMpgyaMgBmveea/Tw/AzjB6Hj/tGgX2k2EVH4HD/v3FIGNMD6bX75qMfL5c5WZFVId+bqiAy5wUxzgZmKJK0o63h9oFpHmgs+H8Nr0Kt3IXx7Rkhi4F2cXPkD6PkzutZfG7vfJY3G9hFmJFYmHuieb+CLxDFr4U9BBF+zBMhWajeycWtjohQND/vFHUFQRjXeugeHqfpVawerMPoP4jlM8/SB8p1tKsbjXdsqRQeXMO5zdYQutoNR/Oab3LnN+km77dEEUfN22+guRbYPtpmK9wQBuZeOBuKCFKSoJK1S8XIdBx0QBKW4CC/nwEZsjuh1vEApQBQeFwWxyMIIdxZ+lcgA+6QbJVFIkTeSoAHf+6C4SnnVRGG+ydP/vVyx0XgBJqlsJCMYhtrJAcaiU/dvf3QSOZ+fNk3s25wXziaiAJhM5/e9AM+akd4plMpwtSOhHvXA0Wbfh9zp4cEqTakKvr/Vn+hF9qMdv8IGYkCdXJlrBC/emRJkdehjkrKz0MB1fqcOkWp0MdLT2bRaEt64QsaAgsQTGBSuTRMh0VyhCnNxd583vh8g+PLuSj/+fGfuLo20IwfIbQJIMMCZMoiZYBhvDm1wGoUSkREe8BY6kJ6Xqf1cFGosvjBrs7UmB0yNXuNg8AiuQ9Ol/PJ8k1ai6qjt+3ahPfla8bn8IyLPfC4OOOq1wYQmNxLP73CLnsNTm+un9veNuSCHPRctd6sAMUdFFzGkjaZ7eIWmNAK8PwhfYvDKbLK71IdqFswAmF53KrIMpprlmVxiR12ArR1Y214GuW4j1bonvHr/MSKAcNoV6BqabbJ8GAyXfffv/lm0sP1vyl7acRtokvas6D+bln5WVi2dC5PS5Yqt6aI/wjBrsAuz3CNWY0lm6otrF+ZZCzs78P8pKcbQxmTisRzSkJ4N4C2B+CoZYkXXI++gQVHxAQA2dRpjyx0CLmRrVuipU4m5bWT0cr5Aeno0PM1DKOC+17qrvYqcDzgZ3Tl5oRuG/9JCzCZI4RWznVIEHUZyA7ztS1s8yaZL3ClU9iXyDughb54h0S1fTboBij8iH63ZBb9m+NX7SWxzI2jQA/TdIxeL48cieDhHgSq2RJ+uoCSb27xkQEwaFihlTmWflHMliSkcYMhvtX0fzw7s9bcGt7HhBv2BrltDY4nXduaWb6H5+XeXxMCw63sPwIJ/4iGlg1enzbBYbTqRFM2TqsCf/f4AGTiHYL6uQyEpjzzR6/xddcelfXohZT4GFevLh1gEnD+crv/sspbU14Isxx3w4NszRUUp+kVy3oGIpoUSHatlcCCZgAV0n5Xc+u3vXqcouwaRx88eBJXId21PFGsSP79EK65SjJw5OlOVLiz4qEi0lYnJcegtOcooiVvwdoOECek/+62mfUTniAqlH7qNZjfEkH5zluXDMeR/Ug9EMPKFJR/EVWRorEz38VtJxnlRt7ommzxt2KOD4bEJUlLP0r3A1c1yqYLNzOp/s/vsBcn7jISAGjcmCj0in1KyFkKyREvsoUr7LJfRiWORo+rMYgWUaRxYnNEm+O4hULfxEyA73sfBYIiwFSOczUY2hBkcwfIJzgSVXc5pIl95xupKIsZfr+ineqL4Ibx6iiTfuZi1FuvX6UJO3lhvjDDSLJECskoVc/Ke/A4Zat35+LA2uI/vPI5qA5Np5cq1UroYU2e/QVtdSMHPs6rPyJrUnLL7/Y/c9iwkSr2rPDpeRBGnsarz2VpexAJXCrEmR8irevtlcedta0njMuO1T0exraI1cGxiIL4qHDOu7D5uhWTxwRY5eIewpxxB2ziYQDTM24Znhn8VW5iNSFdrEstoB3Grpa/lH5cXslhm5Ep2zKGffyyD3H65OPDtADDE1YzhTj9V45KuLPepWw9RnqQaM0trVCLlBY7cq7IVzduU6Ct8oZm190h50nWG9tyUkyHoboC+QCliRpey3N6kpZsEybU6951tlx9y0XSYYnxjPpPx5cWSFNuzjG59IJaS0OmvhDUCKfSZVC1oe7NcdlMffkimN1fK3TDwyXqLhRZjCngAxJ6rIb3D0bJC/rpyLFp7XNOsgCS1S5/6C7m+1Xog03vUn56jDQs3yRKF0BboCtORiAAAC7f7n1sbOZvlwcGeYbUuZACqKCn7Fw6pDT5MePt9ZHZIyo0Dso/lToMq8U3Ej0xyaOh8GBg1/XhBnmbSJZFdtZXSH9NU1gqlgengAQ2wJtv3HAwMZ6M8eyxkRMiPGr7NBtTh6Vcsh1CXbtB/eTEonYD5f63tkdNZRi+prrcQoDTW2v8AXegvo9c/tUhYR5Q7T0O05/Sx0MK0TxnaipZRoMmtNPKUZpluN3arp5dFECKKti7Atfl40RCrnR+cBMthWsJUBd2v+jSzDkQjh1I+9ZzI+CFkX6mVcjmdQgZA/PM4nsxzSdO9EUzKKKkn0RssofcRDgwV+A91KZVhM56MO9Reny/0+KyvkEyoYHha8VDblsjEhRS1T6t6sgwUBQfDWk5F+zw2Q14Mbjk4jgmDWoxGs7Mvhicwcd1vANgitYREdsk25zcdK6RW6Mh54Tyiq94d1tWg/J6wj771PR7JqO1+vrdXoSZAilqrvNsunaqlV0D6yCEByk9HRreGXsJLoiuuE8kcAiOpLkIqohR6XrsaM2A+96VWAr5Wiy4LW9/d1C6h8D8XfFVFhDblheJ2LfcF40k4rZsSRb3je4OYnIR9h6QUvlSICjI9RWcHjLGUdEvc9IMRQJ+9JJWqogICaQg1ZvLTjKVC2FV1SBy7+TsfSaypeqLXNHhhC/f36kSq8B65wX1LJ932IhcT5QduE6pfFWslNYWlmmXBCuVU+fXsarmoDSjzQ8EqUGNB4KlQgkqvZHrRNk6FDBehb2hOzt7cbuPkaiOjwuhRbevg/puGE8BzFEQEmMoxoTRnXO0MNZz9FpcXSwyKyX+PAzm3x2ccZdf5w616WOp0MRENA0IToMFwk/Pln7G1vMBo1yQyNq8uO/5lMop/98/7mZ1Jf/7R6X9b5hjEN4hX+nd2bK0WTE+2xqDECrtz2ACG49wlb+nU1C9cfx55wWL+N6lXWLlK5Xdmf/WMAcfkOA74cM0+y//WY3GDUCu409ksnkSd8Gn+x51ke7oywykh2URuegFd6+SBoJqWLSnpH7c+JoDuU2hA8F8RlOoKjmvQUPnXM0kLTfUjKZbsxRPsBt9D+uSwgdo4XIvPLr7E20NZyuZy31IaHOBkjoSpgpS9ZEFEsTHTCHemHK3N0gSrWifNd5xoMtDJGa5nE4mawvhxls6FyYw8OxSOVfweONyYv3l+1ikwsM3mjidXBzj9JAkHS1Y6kPfROKPAI3TfhiSul09G4f8rGNd1mIJiQ0yRI0Qf3uSothpIwTbBuzzQN+VlXSUjB3k6LSM5gRy7DzORC1xfhHxry77bxdv4B/cbKDmoqcQHcpAJ31WbeVFNPNXgbVh1EXAyU5GHDj0QkosEb8zHZW5RJjBMTHacUJV3eJeToJ3om/wfmdSeU/2X+8VP9wy9YzLXlMss9nJghp9pIDE9mzkLHADz5nwTQG7bm2sDaYy3XWWL5khgMZSMiuIFBSWAZAlMoEJMBtoZCvr+hRmbfBgCnuxupz0iN50TXODY2fwjg5qRH6IAE3S2C/Nje02ogDctcJdDxiEMXjBHLuGV8DTa9urfGuNBk1DjIqJ6QXyvZgP26Try7xVUeGXOQ7HOUmM72etG1JaiQmkE/Q3NqSiXV1GluIZdbprB4vyisqWIsl12U1yhRWGNdxGOckjAS6Z9wHx04H1mtMyo6JFBnwYJMXoGfgxuQKxLuiPhg8qHb3JVBrLILIZxRghYDtk62xzGwje1THJwp+4PwWW1zsbFpGQLgsb1+Rv4nrT4H4e8WPhXUZV/PC0tGt3OXcHQWWXhPfFPwttSTDhvNK8g5vT75tl1tJThnSt01oG3ZmFlO6ToNRWyqRhICjP++LLcaAP1T8KhpIo+yICyCH0SNlLd/k68Ilbvm0FimJWsJKiFmMAw4g/mlYg2iIm0DkmQv735ntV/Dq92zfB+B8Y3wAdQRfbamkDuhT26FTYL+oCHBxvkYGDBG43NyztWCtoRUVh7dtzB1K/3aJjK7JaU/9A4ocCi8C08PAnMRJjdiVwyGC+RObqjVF1zjvZQlO/zZ8TVCG++TGIvwqPGnB+Mz5Hii507SvY41OCsu+/TPyuYxFmuIXtk8FvuzbOmgsrm6Dlaxdkjesxkkk5wQHfaV2mCsYz2vC92m0VC0CQ0lz6wYKKX3WLYVrIC9PUJBLZ/hRMfgqQPm/OdbIZGv1Ux4sXnuR3Ahp8Kj+S6XuKggdqa+MOV6CaaopIqjBT3TQrJOM7Q1lqv+SyYCr0y6yADcA42P1UtNfoMsX/u2huxWY21CPn1m3x119aEeKTuwa5BK+XeFB8IiW35/dS7MbJOhdaqcfodUhWNsHATIPu3Nd9tgVqm60QMthWUadPKXZtryOkZDNvRlx4GOl8hu1EONWhNuFGrlAFmTNmiP/l8zMsAwOHu+bfyVjpZ0wCp9V7YGTOL5vKAc97934CFcztOQoaw/Hyqj9YClaIii6k1vPF4cquVvCf9+A55oZnQvzoZ+iTND5k/p7TheOCYBpB+6CfBOLtOVUo4WMWA/ELzngLHiQ62TgmEcQkPkk9Et1hKQTOgEe8gQ4r3kcqmBhjAZxjicHPzYuueLUVh1FkhlLFwKq9/kKRYgu+Tr+YHXYlDSb9WJ8/05osyYxGnSDPuK30j9lzOsZZ1dOd4rZR8/BfB+b6UG1cJAFGaPxJzqsOsL8XWG66/sJXKb6KF06okwe4KiYu0wW7SHvXgyq8CQUlEE+0UDug+e7JWKe6Bq2JVyF3gOG7PBypU2wtwO/9lhyObaw/HvGzqS551T5FFMn1Fxhj9GFZwpXC4lqlODWmB08tJ2OgW+jwjxVkxeH1q5aXWPu9sAYBX+Wpac97MqegPsW32z2H7mjFhh2OSecFcRD6hSA9qxMh3cF6ycmp7yV3afkq9///yymra7RlyN5m6zpdQ1fgrkTNIX/z3T2OMJWNumX97KQMdoyTqGSMI7q29v23lGzOeuBSF98tnYYlxmtT9amPj+9PZQC9MBvefkexQiHLvfTw4dktQnWuTmOaIksPe7ZzvHU23QD2sTj8ierd2L+LU2VxbaCFYeYe/puRMjptGQBAbMQtZFPP3sXqnhouA2XOdNscCQ3Ps5n2+sjE+lePuYrXRaeZJzvBWEhVAfGLmk2pQIp992H2i0CPNiaWCNYxoUQ/CialbxK8kfIqfC31RfPRLv3SDoEf2sGxBxzGJFuBjjDgylWgJzFFs0WR8y/8UG+nHz8EpFAtggzDHWqq+md6xncAZAUYlsqqruZbdiFPOvnbtr6Md5r+5mn28Q1ePPGc51h5X2/PnMgYDg16y3LKb357q7RXRUFUNv5Vh9sOrQ490ZuxmaA6Qn9gUTRjnB0pF3Zfl1JtioD1oOzBUJxr2GNt/d3JWQlQhuIFKSB3hcxt62wdHfUuMcKtq6VVIWxXEva1xvH74hJOBpzUf+wkOtCQXcT6rZIygyYNwPAQBYj9o/fXrYCOrjmJtx/VqLcDKo1o3hnI5fMmmNiR1tXVbG62k1Bm4GpF33zMqwt0UWWqNqL7BYXnEtBh630DAPZxf+Yo3jCbp43Cv2QhQXaZk/yKsX9n+r7n74rh83Kg/jCexwA0hMbdZnlZ981Fllkv/4WvxGuSPdEzFfwrY6gi8WiMxh/qkwrTlzqqur0jkRftgEtlZZrDHca/i6C0WT3kPmUJeNJcy7JrZvl8YlMt+VKW0OxLbZN/w8yug0jfgeQUvtUaYvw03E4Gynue/JaUqgBGYswjmSzTMSun0P2JoyRSE0+VwuOugbX/O5yie5wuAdDWkPf+VUhZlzDAOqtcCkRStElj8lPW1sZIPS1v4y6gP+dJneZRTWZ5fqDxxKd5NJhSwLkR3MGUL8XpXFglJj/PnHQjCGR9yxnhuECwSTEZAjWF2g2xBeCXcwtwW0LACw196Myth8GtruIoUFSug4t3OryArNfqM0hrq67omDb7s1SThFV+ptGlTPz1FK4Fr3q9Y9pDUXSeM2dYzhhk7gXqp5uiHDPVbqoIsBEvKuNxX2brSkSidi+NcwhLCTOGpefS0N5SSKWItWx/dATgHslU/A539kYlM/sXcaRuQeCDuFPJhyNTgOAF29fzLQ/B1KYDZ/96qpy1nJHkBy6LkMySzMGfTap2w2z+e50NrQd/BYmH4z+REKzH1GS2p3J1HqbAXkR5/UfC4ZRsmjlYhlRGUfP+h/iX7ZTG5g19mUX5kAtOdEStmbaLCulkg+3tvzFRlpkAKvjH4Df6+D5C5OcNs2i5sz3AcxFhOEXu4SCXuyER5fVulL9MJdQpFAHClHcBCdN2pVTv6gix4f4gED1D1CxyB2ubN57UpQoyjRGuH4+FJcQrOTQ20LWuEOs8XBQZ0Kh2AQH+pvHGy4anaiMWuWx7wMA5uJBT8UJ26PMZNYoOu5P38EXQS+jTC0l83XjsA8Q8J3BvTFtbc2iq+orXtH7DFIqO1eSnc4hCYz9uupkgys3DaG1QbD09qAK6rsomzRSoo5uJrqmmcPqfWOu39s6WrEB07uTjsUzoAQXpQDNNGYirOyGv/9YmyH//4x10Vf8n3KoQ8VgDZ+IkaZhP1+1Kyzk2V5IsA/GYYrr1vPSUBkUj2JVcpw/7NpZLUZ7B/yhW+8J/qrvPh5Zv5DJej0PBktj+G8/qczqLreLj4rEp3uH8D1ktkqZK/6QjFGqe0fOAf3I9RRb1blITtPsnFHt3g+s3ku+ZAoLei5GdKUKNDMGajNEH8UL0s/i5iKMqFTndHOH/u4wqOcwdrYwTRGSOh9rEwoYuYOBO4i/PmcQe3+DC+U1/Lo+jYIXqpgKY/hU0j6vrSSsQH8AWwO4r/3O3lEnelefYHggXQXyYqzpH3JahM+5OGHGbj26WC4daAyOSfSM9pqDJH69WjEwiUGwLbFj6j1qqG/teErhDdWkSHHmT4hdyYpJsuuuHklcrbX/ZedgCdytvy/hRaA6NtZpMmKEiDo5l36om2oIyFg9GxWhCud/cWP77AsrEGr6rsDc+kGwjnKPRMVKOFjy4rppTq1y2A+6+i0iqWBY5CwVJ+6X0A3dyMliwd8EJ+FlMoK7LCTWe5KFjwiIq5DHTH8xdJEktq7fGvecUmYxM65iAFv+vZ8VdAmlgBq5vp7pyLq/0exm6i0z6NrMPORIl2flkKBeFTwegIxk+YaHSwO3ZVjSDt9PbK0nkcbfGtpK02hw/JrFAO57LL/ydKs0+2YHPDy1/VBpx1lefINBZCJ1FRMkyqRnVmJoCQbNAq6pa0sMLqjJ5/jwpFGDEVUYA3qtNBXNHA8HHFcAawBV+j/S5b/ah7MdhGvRIx4BFjgXWWteii1P8b+1WTCckzlZsr+IAsbTb6YSfxKD7Ugde9XNS3D/fBp8gDjluDvQZliBEy7nbvFGVFRwHzRJkNP4v8asaGZ2Wvk9I7FKl76W6g22hLGHKKO1OQ3TVUoLMbNohM+LglJyjs7EfB2dYFdE/IlxvPppqrpMPkHWx0WsEHCsjwJ/prnLrDjYqnKSuyOIYjYL5nNRVB0a+an5O18/rPzugcks5sLY6DcoZaEoVCaqI5yn1pG5CfzvUrKkSltzsRH7VWQQyeTwbBb9vltTtTh7Qm76rNaOy+Cmaap/F9OT+sTT0i7mRKL/9M6YV1Lxkn6q+1pVmYNZPyIjOFZeI0OiFwlk1sq7cycM7ugORwcZNfHUWE4gZAn77E2BXBJQGseALQE9NXfUXJtQXIxHCkyzhyG8U47ar9EG7Pq4/vPGWB+jSNCU21MSvhc+BGhDyTgLd14jUsv+y1xyvnPVdH3pGAY95BkLVYOwFn52FxYJAEQ5hmvR8Q6Y0h2UwwfQQAIlxl1hp/oEUusi0NIic8kRpgDrsYsNq1e9G9h34FZez/tmRqIZfPN6n2kip9k0z4p+/a+Aiddu+cHNUiCReBS6mj0ZBhuephuF0uLUFx2nomWq43fW7LAmZj9Zkjc6hyAz5+DG+o2bB5Mn2pOwed1/FtSh4nTXQoJnL0s1pp0ePM0I/zKQYgjaYkfWcCMMryOiTSsAU4DPMuCHTpdslbF/A2j0GtUXXEf/qIQqmpkPCzA+e7pbDTGjvdbiRZm8p6Pq+F/ORdHmsOLBN0rzc288Ief9aDXqhNOyf3Nk8uTE/mejMmOxd5rcjzG3f9wIiOt4BEExsbb+JpgZ62pEsQGfl/AKK6yMYKdHm2PcU2Xdhn9xDt+GOkkbsSkngsD+Bk+EPbKWsZ8azIsLMYjPQzG3QEjV4JkosT2vSISoRvp7VWg0OQqYw79TKNPRUaExOysOZ7G+e1Bv2BbTalc6lqdIfjHdkC8O1ludEIorqZ5lBGxhG3LdR6JnsbPNuD4ciZbYnRBCgtI9NvseFwtFrSs2NRjDBsfgaphMQVt8AYnslDi6Gzd7grvaErfzwebmEGgLAEBcx1zIlo+ylIYCuvgHaP5vK45IXS0GZw/UPXXGl6RXEfCNFM4iDRQ8pjlSdPlSWS3/TtXosYEHiLixF+/pHHQd3sBzWnQUlG+2z+q61V36oFzZNmGeIs95jWS1G6UmWGRifVOIvsN7fTBhBRYFa4mw6aUKiXSQi360GZ5w5bes35ZFSCxr4UY/EVa+3+7g1p6HM5+bsJIcyGNvrEQ+OfhKHHpkstFsDZE7miaTh1t7y+x59Xc+k4cmGRFNrtgTqL73CbXV9Eo6ERNfY6QBsl6kGbCf80aRXhTH1CgC8gi6huOqbGDO8QI+PF9yDGbofPG+UCV9l/lP6EEt1mCuxSlrUrm2CyDdVetI7Z2IibJ4UQ8OjjRnWA3QONygoXxp3vpyoOrDKzc0AGSs6UdGZVjhbwe2iIagINuFAAydpupmlNRJ+kcUm5dC4i5vllYz9d4Wue/Rsf5cx6nICAQZRAKbWrbtzioTkkPrk9Hz2w6ioZOdvKfvWhHWwcw85ziLH8fOaCRVLkxi8F1SR70/9ix2KPgU7xz1FkynwjV9Gpm7BUtAMS8HwIQie90jUxebjW7Cl/alfkuH4XKT6FJlOrPM3RStW1WOur+1ag4Q0giad3ef8GbV78HiGkWzn0e5FslmCUMOn1NqKkKoziV94JQ+q10rNWqJkezFDorBCLCWM+aR1FsDdk2rVa0pW7oIJy75hZoeremQtwGdhZ1r/tM3o7QCyuBQ/2REOYZiTOvlRK2jKOC5ND8k7Tl2VFMdC9i0WVyCt+9wKeMl0q1uinGYg9nNyPnzJ3I+V3yBE1JaBryXEKhiDeHRhGTcPzKjCDU/dO/qYEFQsA0hMViNvlKaQqvqBLwGpaLRrNLc51oX+GJRj8EXbVRfiGv80XBW6kf6+EWPvMUyyfDG8m0GcleN3OQkUQ/Mb0yXP+ePFrXYl5kN2jIvK4/DoNToPZI+F5x28L2H1/GyhHDXDe7oIYFJxME1m9/kxE2hDzGiP3Eqsv4P/jreQxFWGec9kZlQB+LPQlC91//B+CwdmC5jdtAX4KQ0G9q4GZd+X9jF8lettu/+fRApDYmlBZ8eLZ+AgU5Chee5vCQe4LvqnWM0QQaKMYt/oVFgC3O9z8kGvC+fO7jP3F/SSwfidiYA5DuJRVuhApYVKKxqkvEjRmJv/1lRTS6W8KKYs2PyrYKMeJUtSgWpmBWYdAq7uFgjYgpxf8KKAAZSt5PfKvJo8w+ak4EsoZqJ4umlSgFZu0nDv2YAXDSx6mjjPcm2V7aFvucMx3t1QZFK7ZLrWUB4O8T3/e+6EvzT2pbH+EgOPxq/45DOMfnHWGpnrqLXmNOig2JgQz4l7hN46Oc+JxWDjbl7xqsx3+WHzCDPg5xp7/dipvZw8Zp5Sldk3A73rQrSwsifGHjCDH+sl4XeamBJMRj5UIh+TG3spaCbM6GWFRkceusqrAhHy1zrLtw9PfeS/kzyZpXs1n4cfCQl7iAz6FYMqSf/2/sTlCVbCoJyfIAhDnAt3VwwOr6ftZ7mv7Z3NkyVliBKQPqJvp+oG2zcs0Prdb+ja+fMKW29v4KHTsZGwWNzIKtSmzDMfL3Zh+Ct2GjfVfhO+sa+KYKFoiE/l7VGp/Hl7oZZCvWC8C9guicvSV6O9rlNlHhKB+xmuQh6CZ/lqcPQqnmZQ6eaTdRZiemnukyxwx9zk/aa7ZgGEmjmbbE0OXRFmrtK9fhtZdtkh+E8HrDNCcXgRkOSjMWpTGgd7D2Xfgvwtkele8xuipCnT2KkX4JPL1WQAMyXcVKFUbEkUFV49164g/Tk81YRA56Q/gTJQvCi3UKG/LZbbuLEBoJr2sJlqx2A+2mTWkCoZ4DVdNZOk37gHv7NmN31KCEf9zA5FJyB88/GPKODd0SxrsCIedxdSatfbglIOIBQ1aRkG72AawPPXWRVZtEShKtdfzY3u2S9M0fg4M2fLYKe4H5yxdEMhrPgvf04NfAc4yObubs3zp0HwIKmKZ8MkSaech1Xt/VsIXh4xuVfpev7JR1iXS7ln+vORMFUPyLdrLEAUQwsCpXwvxfChb5l5hcMPf1g5j/cdKxPl2xF96nE2RUo8tVMou4K9oLfRnBuD4HJnAxyxH0kSBr1rxTnChbuT8S7dQTmhGLMi+jEfWILWVDkO+R+2Vh18HABHuZp76A+lQ1BuXHyA3MHMcPjbXALhaQR1hNRh32Is3R+3nOFzyraDrh6QEn7di+nhde8IE1oeSJ59MokGjMH2PvaxTnFpOuVY0gDO83dYpfYoazsqYxhSonjRr3hAa/R5Q0VSINyba6ce7YhebI44g3f7A3GTbXqIl82L9lgolSYG8yyYAzeYyU2YqVoRbdXurqQRe97k2NHoJyly0bh6+lfnNfeWBjw+J3h9ySdUD+4JSZsI45gFOqUYLVlu5LQ2fUKGBvaSzpWfDwUrv0ITLG/gxYQk8cs7i4Gr16h11nRAp+vfdQYdxN+4izakGCxr/TD/Svyj0fjNuIK/pf1fpKYJrSorzW2HPhUs5Sj5T4ZqtJmA44xrrakKZev52xl1XGcXUVGJYjqbs68GG5NJKpbXYPNJ2ZTcNNktSESU5P4QPhEJnfM4XKilXIf9QyhwQVxuXIWTIJYryTBvDV2/onsMEkY0F/I99T+HDcbEt+Rry6C0IOg/bBLDjS80Z414s9WyxAkvCDatxFF3e3rSjLExuJzE58deuwkRZxXgoRTb6rqa9ZLu3VtOw4/jyc0hgZGUS2yIJG2vcz95ha46aXtZTGShkMNZ6SwbEkco3LjlPpvqLEwcBPiC7BrFrJqO7V4P01TZELO8rpPRv+0ejODIkwGLNltL3FYPCUfLA9N7weNetY30LHZCuzF0tMwoJ1Tqp6DEpIwOWH5LX788qCwCFEedYlaK/yPQP4MeLu6SsIN00mPD3V4tAc5shL2xrkRkwMD7TTO2ST9WDlCW/NfR4R4q2klxS9KirMWvMXLQ7elC3DwwFYg702k/ezzu1FtfKa51izFX1dxwgCsMbQGQmWZliaap4YMhBXnEoiaXSV/lZC26wt8U4iu8AvwDXZvk8AXLW14e909ZF9vnki36LYXDZX7OSqE49VkDIkGEQtIeez9Alg1hygJgMpWmhZmlD7l9KCi8K8HkhxU3h6FGvEljGp1aq1cnm9kmWaKKtYvMIEMQzI2InmCwHUpmX7b48POZmvlxXbHUu1oKaZcv5ifoP3RzIBV/YZiC5htwf1/tatM7LzUS0Quf7jQrI1dwFkOxGxpRSgoi++wpaqm9nCD2TziRwnm3orzCPXjQDI3io0bx6Iq+Qi/g3mpSVc/NBr5RgzrwgiiREjdJRz38SgDajmz0HBYib+F4acDee0p7DTYwX2ioKEz37bYJvWr9dgRm4iwUmzK9Qogx5F0W3kjO3wXF/G25hHdbpC04ipBm3KpTmzN62Y7eB06cz0djSdhyMZ98g4wCjMnkCk/Hb1NULz9bydQMSO1QjtGbvfkCIqHETflKxC9UtxXOTKJa1Cm135NhXXFIoshFyBC1yE6QM+jviziOuUOKnQ8SIRxAN0lO8CyvsQ+1mQ1CY6Nco65kKSMUS1NGy3twAwN9t5n0LZOxKt3MJSKFYl0Ck/v6przTYmDY7D2LocdU2dmBqZ3bhbSRf0XJ94bmRzgCrb1E4r9zYpNUudW1+SJyjlzMfWrv/cdtXjd6n95f1Jh9wBaZF3qu3NvNCSfgZ4WGqkG36/yDEcd4jBWXPXvG7HGYdYaULL+IFoI2F1R7egpzrAjAeedGA/e2l/5+c6j+zPsXpoMxy4ZkrJSqhuqQhuidEDke3y0lHYbQIpkGx6Fir0zeOn5eCHcoKJzV5KeB6IZt5SZMFmUSF+9XkDPEJn0zCzwggu+GO00YbV6i3TwvJ9zw+mzT8I6grRHSKALF/xA00JjC/5S2MklNkUf9ExkHI5koKimFoWURGGq+vNy6J+XRP6kmdteyjiS9h23Zf71cC12UTkMRzDchh80KPJSD7tTWA6keQY1YgCpn3lSweea7sKxD737ssz1GkSJdnO4B06ZgmUfxfNA7X3tm736zAiIL5g+eRc61kNra143DVAh5PNL32BFuF0HzP0zx2f5M7GVVnEqG6tTelVQiGFujJOVTkBpVpW7AsffGDJw+A7cpACz4YIG8mhPMZa2gJRs7+Acocje/ZSKvluwip6lHuC9yWJK+1AasFg2pD+PHeP0fMQ7IsSoRObP3pHYxxTWcCAgEt/Qwnx1FY76nmWODF6JfhrpYXq1qwqiN75rEKXp3ZN7pPX9u8NjuPSj5Bu3pjz/69YKev1839BdXC2MM8oehZhTQIGGdvO3JiR1pEhGxGu1AYdi8iTClCvUvasnybByorZLZZ7cEusT8RT/wwIAKnECq0+1GrA9CivIVR/xbv4pDrDFXaElwE+8ARHJMBwLC+ra+rYrjLrDT/NDmUg+Ax4cbwSG5OODQvVNc/QSUa5vJyHPKBPGDbwmJmxRiPDIhUmdqXZ4u6tEpxvwZdhUth5AWjn7hpOE5Tse5+wyPfaHE9YVsAywOHeRdfoilxFYnNRrSMmEuQhAB+5yMN13734dvNZExAB9ijI18qo2k+LyeaLj3lbhNFBBIEuYjceLTiOB0vP8xOqwP8FmYIyGz49W/ao5eRgK9c6uo3oHPPyRLVMfWfirCf13sBty3jcDmRFy4QCF90i5zDrcbQsVIzWNNqtJizp+H9092r0k9TJbImKS7hdozVDSJcNhkg7iWJUw4nGuTTncxAAJxKC9OwMrfnrsZ94ALs6QxM0QZbfkHieypzrjFNSyKpUwlAqjU0MfBJu1KmY4pWVv45Z2+bTC/tGlozNXVe6n99S0FNsAGf+/SFosB0+nGhPjLcRGvRrYtm6fIBb2mLOIONCOkYUevUaX5RNgu75l4IVNMcNslrMO4wBY7pez68n+kdEHl+R9FO/0LnPjIcbM1m52rk2SC7Lid/bPQdAH5X0QRfq2sgjFcuYKcVQlintSp4UsT9OLpMfrEFYUgSZSpFFZSflIdrJPO3Aqo6PXj87L7lcgYVkqsUXgrniJJvYOEXskxsXK2oxjjqYBLdtWgrmEZ0TBxMiVOkkCUtelVa0aNGQz8r74Xyf8nSzEIaYxkvSibj/BGyzuwxvVddyGQBz4Qxzx/tLnnPUjMD0SWFFlHglEOQvq5qMiS9D027Sm5qGOvMe+19uGbc5Pbv9uuShoDgzVvoKd27F8+QEGT8k0ujgC8HOh8u7h+OrLedk9uy5Ynwh9AoMQNZ69fm6ondUuVq8Gc7EbiSZfvyhZ2rRLm6FPdz5qx8uUrDQBFyoLOVp5AyV0WCFsEJukm9TP0Vmc55QFWfzO3ytEO2u/my2/H1x2cFr6tSymteVGEx6rWsjChIQL1U8klndYNcvLpJnfsTLCQklUYYH5mxu5613tVlMw7ECe3o/5LM08ee+CdpnM7wASZJEeO73+dLmXrdo7boaoUsUTE/de2MvsCkSJgncpcJoywCSieyr2FiqbtAVYEfNXfsDJgaf9cC9u8LouT9p/Uvdtfa21DKDjf+FvCFylL4sOtYkan2/YfJ8UJ7D6E+7i4ta4feHZoAK4ibNtWk+fn6gpQZU/t2CfDp3NFFdNgoK/Acvb00tnS6tIMoGGw4Kz9oRQDPDcuwqB5dApiYcRcIC4cTwNcRZZUT/plvp65swLUEEHUHvvJS8S8DgXZysNLHV0Hsj0knapbinRpjEPYV5Z5cEFIiNHLY8KAvl2sDQdTgSRTKerIl228FbPqXQ5Axmi5Qomd9bUiCl5pv3t911pbeLMlvyGNf6AWJ5+igd/EFzB+qgBbPmf4bj+TTZGITf8qvhdyVw8QTISI5y7KElASkUomN3BkSwnuHmDOkYR5O5rpQyZJXnrfN+65rzYlK31Nex8Jijn/lQ14TP60++J3Wl+ucZCMU+KtPV0xogNyAAoH2jROl0YdrDscQATUowirWAdb0gWl3lf/zK34AmEEs+iG4uOHkNGMOntzv8FfCh/4r4bbkK52+9Je2RFtFRwew4bHoQqJrA8xwXOtFNEJWz1GzpWo4e+fdSRACKEoeTGZk/gZ6dgPQfkX3gpDPfnPnuo5aDtuSd+Cb8OPphF/YGggkacevZhVjqQdIESCyqUflFyE3rYgOrNhPajLTA0mZ3Mz4XUNUhcPEK1ipSi5Wqv1t+C3MhvkBElLoT2GrNCh70PR0W5i8GMqMsjDs08sXuhcZrstnRUMwCoKN642MuwnBjy7VzURztosllkU8LMRA3NEq9Y4cFzhdkJqgAz96e8PMR7IhIS3E6v1wKdMtxvg0njWU2fNJbwrSIlF7Nq8f5/+DmBgV393ETzawbZ05eIG9lkvqs1KcvEue+7CAhxrP7UIbLpWWLkqJxpLCMnnCfhPwyI2KqlYBnrm9xxjQvxxXyAMDe9UMQFR7UNP1e8w4RkH44LsD2mXtbKR3WyZQEZQhEfIyzpATQ1NZozg0JwX5ebvwKeZ57HFOthbFtiHv+d/26Iq3e1iIo3jRhhqE1eSCPCbV6d+ZIjoHQ4K6Gcw5PKhwyyBlVaKCLAPIxIoec6Zp8CGwOBv40crHuPPqYA1xTwAWLbIyYEivPXcvpuOFZV9AaLf+BScmt+VnZkymzPFaIsaHQRJo+yQwSnUdCGybzcvaJcZaiC0ks2ga8ia2MfYB06jgBpKORP3pl+GHCCO2h4TtRTpWfWNLur+dVNNLMsjhgMUjAS+Flms4IE9Netsrmak01jSzhpB0kEt4708fYf4he+TaTwCl6V4vlsju1jitKbOJ/hSlTNg9alUOIehh9Fio57vmqz6WaMwMbF1Gl4RSDNdN2FwfGcjZvCfZ9SjfaSknleZrAtQ0yXT0qnELmBemRu1or+whrbpM74+LL6oAp0IKhbnGFYHVCHvtJ2L0GwvGcT0WtjengIWK9OuApwfAxuhS5u7qQl+MehagCxB/S+p4xS7nOjdlYExML0GZU3KpXmJbSdz9AKP9qpZP+J8B9e8SIpInm0q0dPiCR3p1u9Ag6lWiDlwATWmhfnXgTWxB1QPIlI3HIrt+8t6k1jKLw1kZwbOioSEz8iA0a0JHS1EiCMlK2NFhaIN7/M6v9emiYAfKTu18BzQbfrAutx5F2YBomy7UIv/Lp6JOk0wpKtiJHzyP7fvM3kxzDZeZvLX8GcQN8o3vrnzsLflJcDmSaPPrdqyukpT/uDRkNJLrQdKb963mbPRumpFM7VES8xwBr/OtHXfk5otHHefRtcWoFhM146QSHI+X17pjTHxvfFXmm1H0NLL3CZa3R/Ci6c+EhkYNVlGOl7B+qOAJX2vzz+rPXwVX/1jkh63E2UQzWxMc8dLEcKQZk/Q35jznml8lB1Q2JH6goLq2lfhtIIted39je6S478bdr3xenab0Nax5Rw2wHgiLyti3jVYL7/f1L7dmV8gq20w6zu0gWv5fkCWpNxJ4u/txA5fzZ97ytUkDvudRvHhqIS5zllwnk166bCv6K/i747zPg9vSu1fwd+EkYtqQPDjeJW4K0sxplpDr1TkTCD+w/370ed6n+zKVlnIk8STkJIasmuSh7CUUkY5VYRD+3t3S7MyI4KgUFBjNSrIqylg5ZbZfuf7WY0SvABSFI2qACDmoJDR6LExYtQ9X9/Ah3jhcgz3GgKPMgQptZxqy0K+K9D7u56XkdNDuaEiJyWyk8c5YlLDL7oB4N7V5YR3XxQXCC6akPJk1EO4Kk0X0PrnwYux/e9urbdY74GZPy3f4shgNTW6TLF/Yp/C4YXoZoI7dph0X8S5YjehGWwg+HnrEjEgR9qh7hMUgm0XNJoH1bGARxAzJ/uPrVJPj8UyPNu8VUdgTU7ely5B5ztttYDnzoaXwwjxsT16iMSJhGHA6UqyDdK4U+bEK/s/kytThQAccRBksQuq5HA7uUfg/EB1813vLULi5pIZfwBQoK02DjObwJplRJj7khZV1HC3RQodBE0bOak73S5T5/52RNwJN3m6zCLKtjHlEB+2+KVIBTtJ6xW3lE1R7GL/QFCSHa9Ybq1IaaUofzMo0KMaGZ152NyVz7sI/Y7GGxtCi67vSQOcjZPLK6Bo+0GI46rRlSh9l4NYdYxQX3nqqP0QHSnesRMDrL7GJdnuJo3GnK2jDjMzjZJSTES9qxxB7Z3azLxEKmtlvdn2QH0kQEDu7AoAwehFjZ3ZPblGM/975uGDBYqGoJ/qwQdoh/PGQUEwTrgkshDtkadC3sr11cmr87RLohIkVfMdWyCbezNTP8pegEGquuBJDuj2cW6c5g/QNvjkD3P+BFQW3Bvy99gjookVTJBPxMRr8xObfFNxnWfZIVF2/mAtLm8/1+nU6pNP6fb22v9QizfFeK3/H2RTcMopb/ikmV1OAfJZ+r6VWWI8GeysY+ccTVElPEWHKytYmxZxta09XP/33L+WA2KK919c4RNEpWIb32HL1rASjScy6kPYiJD1L958mEQ+KUppA4Bl7WC5ulQx+6q9HsK2FmUjpNW2SE8yYX5lVEMxuQKDWj8VBxwNvX84PVCc9wNX/fOSo1EoyWuqwtkxYINxpLCLhByacWQt/sZiqzx/QrVVadR1E9jCtONWDNnA2HQhGGJ2fiUQSI+uLe9wt/ojOgPSJbNDZiXmnK1O894wHGP1x/p+qnZxaBwX1NBPPOUoOZND+6/2woDNHat5uwQvYhtKPHtPxAZ4nTGdQjjKEb42/jP4PFzlKd7E6Ivqfmv4kMCZLl6GE8Ka7rjsn4zoCROKse2VBXzcsg2dPxo25kOfQ5TScrg+yaKE0qZ6joNNEFubDWv4q7AUvCSkxMGzOF0zFyRKXeNBLYqFtvrZuntsbmeZ4C/JN1XoiNNzXhHCEqpjPzK04uZJOqmR++pJAG8QxC4GbHJAvO0tGrHXsm06jz7dBoKQ2mJZc60jyFR0vGecQkwEPqwj3Tioh6hykBBk5t26QngKKXvwuzCc7tWOqHa7Reuom7i1tUzRGb7Rxd/vBXPIsh9KX5rC/ERZTv3ru+q/djWVpy1gfQ5l6gjXytXCHYNsBdzEh7099iRYl4IhUC5211iP0wO9gtxLtQK+8U0orcvRG/ZOwWk0s0F+s94BZj90cZTJ/mLQI4RRXlRCdRbpLgdR/jCAJuB4uQKLmNgCe9nW9K9kvzwHnjKRkjif+KALwbX2SEGIj+35i05JhE7ujkO75v+Dz1U/Xaxc8Gp8a2onl72sK+RRjyw9DokM8F9aNs/EYZhtEBEXKuq1nJ4fdgIFUTavyL+C9WkYQ1sE/m3QN42De3IiWGGPDi8TeC5BVOw951erHdTga3uozQamZVnxirMMdeWQ4EfG764cRFUd3u7lpdHXd4KUkiuvfe4ejnhSXNWpk3Q3dPO6GvrgKjRvkD6+CDHn8iDsL1D8TxV1YhuU303plNmVj7brzaHfd5ZkUz0775SB6bWyUwDq++cCK5Fy5PSpcgg4OAS18FsLfOc1GQvYDFFo/PLyDibIBf2B/jlRcVBrMtZPNeTNQriLLAMjQ7iqWrJoNdlZFyEpCoSrDJaWuja+bxHV5oD3wYoVCIYL4ICTwyiiekkdpcT6hTXObSKrnV7VwicyOR21kwCTqmc2t1FpHDON2fu9H47la9xda/eynGdJ/4EiaS0mmPDJLY6v+HJCmUpF5Tjg4hH3hwO6mitNjl8ut8Bvu9pKmaHzmBd4Z9m+0MSemSgeuIvCdTZL232O5MqilplZ3cqSwrOaxIYjwk6FgaFBLbHfvtL1b8EyDL9uHmfjUI4OObGYYVtaczxZJ2T2WX/KLHp13+FF40zGWpFuu5pR0D+FNegDscqh5comCvbqIkTAW6BHbbn0joCNlFIheEIOYwhMJJAgNZZIvn6pXDdmzjd6wjnC0YUt4/wTOp5lwbXPa1JJvFQRUl1srsDC2/TjFVQk1bxXLBR4Q5FHRYVCfQyFBkLBq4VfoGg822oTFH8PfZmNDKSFVoUHRnwHHka9QxMDvKbA15HexssVTab/A6Foi1ZFY6CwpFqlPgIGLZRw64EQl1859poUYi/Ugfibs9P9dnx4dbdpo6udY30VHBFJ8E7MkUTL3liF+a977pGS/oeE4xxPvFcjV6AajluGeFVixok7HF3f5wQPcil1GfsqLf5HkS1ZGDVW3ZkZlKpqjB73m2CNeWbp+3KNOGiBLB+rueCEtszR7OKOT2AMhtInKFvPRpE3qoP+L809yKBoCuu+cZfWSH1Qowtth6Ju315E5362neO3nTF3WaQCStj06m1z0JpcecY62kCG2gOApOcxBlbx+1B5/IYJ/tQasQ5xQC5rOD/wNNU5T3vPqNTeAACNeQaeN6PaaLVDxtL7m5KuW7/g1sClENzJlH6GfJjNVHosG+uIS4uG6Zp0b0G5Pdjox3rpOQ6sjkm3L10s1AgsQaRIjBF5nQHK6McsnrYrF2uMLi6DUUi9r/hU2y+ez0IrtvC/YWHubhBeH8HgCgz9EWhIBlEZoxq6wmNAlGhaEOa+9mzhYGqOHpeJsPn6en6Tewd5YOZpLSJmvUddZeHX1fmJcSV8JDuGC8eYwN3kiYqwSrNuGPdkevCqTbk5+YwMYd4dNVqKiE4WQMtG7nV60TbOkW05Sgjd6BYngqXPS82gRr1h3otfssVXd6TuGZZj8d2sAw5jtugEsztMLxgFI6eDRdOJ9cBtTpLPfsZcBUsu/qqXAmeKR00PmukjPC0HsH51133s3dHRPC0pf74IiRX9cJQiI9OEms3IfL3sLFhXwMkekyCW24ZGE7Og7ZjHFmMC+ULjS68EroKf48UPR8aja3V3mWAF8DPPYN9RplYOULcWgVbrYosDBaMD1xj3BiILMcCOUftmP3BP4KkOJCwJf6ZasfBocz0edilOmzRm9QkuegaX600ogwQTPjofe4Xy4xyCT5Mz+jIv0+hxCr67aOEw1kTNuYbsUhVwD6BkL94bXtH5PlD40eaKIoFvD3EsRaWpHkgCswEUMqDwBIclme5fMCRFdkuHIfdR+OUqTOKGEz+BiAlU1f0mjz4hzQcDs7HH9xXCkyynhrHRs2166ggmqPwzyfZEEDqYUxbhn9qyZ9g2QF9Ebm5NdmpA3Rqi6kDYJjJnfqDl32qg95eUtz8aOCrucgj241fEUO8pbf1pGZtsdhmVCIAzMWBrJGXcDlDhO/u0tv3n66czsPiWfmM9XSctnWRBSW9LGVHjTT4PgnjmgRhLx0ShaMkV1lSA9ZYYoIZPg50SG60R/IsCZ0QbKOA2dA0tOvN2eGSApcFgnEeNeYrN9cv3/Zuv7jfcwHb8y1FF1F4BUNZ7F4UjSWnBvhhic/R6fqqAiyaDt98NwvSiq6i1RNJJNlTmD0pKEip7PDM7r4PHVtNUl+20E8OBfORRJrn7+DNnRWhU+WUzVpYBL27tJqojEGoBrBlHf7dPcX4y5eLi01Jo+1PX6ZNJywlcH7+ihH97NcOhSIp1aIAhbkjknox44zetR8JniY0FfqtgvYxmjPYr6e8Jm2nK4kpO/uv4Jv+UbatVL5aEmQFUm+gYtUM9s6wWrCmXKLbHGwZX/i3a46Vr7gibE3E/Q7NtzzFkcDuCkUM3QInKV//PTutBtJNTfcSU8n6UdR0Zb7W1RhhVq8NEQhwh/UiRkKhlQzJZajaRrBvrsmJtVUldrIa7diEJ697qeHrPmb1mO2lpEA1ZTQgqWFflyXUG23vNBhfZELvxSbgX8lTm98Sg+doo7WsPLrZ+QOb0UbYpfT4rR96w0fsl4OH7h83FPadgztHeo8AK7+kqiGQEPgcOrPrtw0ORBmYVnKW67wuyUzDe/dgDaybmsIZSLyymL+Q+WH3bIrfWCT46Ya5FnRUMGGEcVBdGCZgau/1nEv6Z5JkxHUpMLJHLlIzpyUBFkGR8QX/yl/gN7by03E+3KhtL+OQCsRDZMB5bntMYkPw4/L1rep5sNvByve6bfhmIlq+mz91KX4rjXSaJ4beSzUTa3IwnlUsyri7HqbUfA3bgNv3uONHgkCCmhHhgVE2RIxIJuS4p1QBmaOLrAgqglrescZjpxQ1ECUTasfDdZ6hS7B1cGGVhWBBPJUYHZB4j/72+nDUJ1JwJwU9RDzpG+TB35AwvSDPBC0HABo/1IKXd/89bif8levvXAdY0HAeCJctQluEl3KvG4KBeOj2Nv7aC9OjHyXb6Z520Z8EPUeaXdBvcmOmkRDbbTk171ryHRVlgieQhketwWYc9b9HPcLDIKcW/FiqpICJ0xbZWSWtVVaBjVU9wqE4IP6aTIWYYz/cHzqRZROhONHD6uTvvWFYygqdDDH+CkrHbQNh5OZYT1Sp864hSwLxPUd2vBQFCYJEe/SpOoYvcek+5c9PTnQtnD+3KkEpAiujQnhNmpo3usFyDguHEiH/IO9h4It2CjJjps9n4m4NiwtzxD8luVIDeRjaj2hgI2QA8lUEAb9LKgZneIkPIbRC7PluBciKJps1FHv9TWIgZusEieTNtzupE6lwvIwCWMF17acRabODNm5c+YsE0zby8/2BpZmuco+7CC0sXC1iGIx9zeVRdMVaLyzBgnQiBKPE8xHfxpbNPhhqv4KJQ+BeZB61ZXd2Pf7X02RpKlFQZ9kQVnXZq1zgp9fAK64zIpBc884/tO/YMPpRyW3n7VhKWf8qdyJXDoc/AD4WRQCrL2M+ysE/HYTk+xtBNPOgGdoFdyRpMbWfYQl4XA1ZtavFnH7VAr1wf+CJ6fJQaN+3/l1r25YDdzEhIT+8sw/vsvJkTFgGjN2m53zNkbK5Z7W/A1/6WhDYsGaSrLFvqm71j++TtVpiqmCtTBN82kLhuYYGIbbvKgctT3FD9+ewnCGbAlW6NXPqJU9UfKIcr3rLIIGkQ8wmztyP+Hdfgs6zYBQGrWO1xvwQwbKYeL5RDpyUmJvtuGF9WdmL5t6j088rcNuxL1ZG7rBCf/06q9piU6AcUu0VL6yuAVVq3ekj/fMKBFQXNc6NpJWXyId0yxYF4FJrle03TXTGOwEx8M8KFO+AXMX8m2BJsZYWnpUh/gWidI9tAsuRs9Px0EbMY8dwQw9amkT1PeKEXZhgKpeIObaAAB3bl+KjwTalIGuedMtf28Fxy7NIGiyF0Plykw182wCICtmORguJWKosCxriC7kpDTK0456Hc46bXYefNkO9nEYqbRaXrr7B7UD6cPyZC/RvQKd2mBXCWa9+WHfN+4bmLepDXzvhZiE6pT38fFZhvMS2R6fkLUHv4aJKZ+c4QRMw7wjFduWJAGzfJ5zECBCx9oWvzwglG2krgnsFEXYcG2bZG1/KAd63WbZ3Ptcf4IWPG+1r1ZZCZb6zSCRj0RzP6zwCZqbppavDuJZkGztRA6lwdMeoAOkAAl8y3//8devr6C3gs4QLjdqksyR56lJYcjy4tQFQS4ggu4n3osWs1Iv4KlJm4LcNWL45PfhMI3SHYlrdvQR0Sse0Gh1mkPzSYLyLYyaLLnbaf/6eLyDvYlYOqUhZfJX9BQ9X9RmqXvQYYzM2LonmQyLldra/84GNYaBCEPIrPs93zLdadqJMrG2pCfAfZ89qkYEpKrysiFkZgbbdwcBZg7KVyYHxNNklJySpfIpNsHWGPe5BAWbGyRVBZjq4DmQ6/pISeMeoGlAoO8YFKFf/hZ594XFWroNTyNIGcFIiGOt8jXe2hIWsC4Uh9s10bS2FTpCqXqIdLRViwIKhqoqR13vJSzZ6Tu/g0ZeW8zRIKSQgktNK84cHwu7nJJ+ycYyX6Ds0DQ80DFnQ407Qm5UZoDaDqSXE1RblLv+uEBPJqGIaJ8bEAi9R1/SieSuf44RRgmzQnOI7o3uZXl6JJnpOlywVW93lXBzHlVCBSWc5kTIqDlL6Hk7QE41o56z3+TYgzvv0ULtSvqpjEFRX2l7k5mn/dRdTJXGsc7JT3jhje69zlSF0aJFHXY9gCOngue2rXBIbn2RsSWSCuG7v2eNPzhLcY7xmFK3mo0ElosU3UzO4MDggH243elA80lKwaPnOTghXS0w87499mjMnEj2GL31X0gyel31n9A0GNsvGuKUEyrGtfaQM/z6YobmH9pisRapRjEmrwtUkKvEB5MWbYTQLUdTzPCdu8TNbMztOxi8FKmkGktv8QqruMYA5EFElTXb7dXsBIZgjkDRv4YkytcrG1td2pJLEespKiQzGxaOcBjB0Zc6L320ndtYxvwR15+p8HP06hLApzrrL5hSQXbbWnH2co4pa7EVIgR3v+EoHmbDRpfI3FzgKrbNJ7RNhngB8HuhglgQvg5jI2vaim4TsOqdElNjOpxMu3a84f6nGVFwRZKH5hGL4qKeaZq01IxVgDNGEVOEc2kIO/+GMv10rvgA3q6Rl6DVs6tcN/E3+D6PtnsBqJ9lGEwB1i8ze9F819gLFddrJA/3kJxWXlviOvSXaRladSndoFY5Emr9iDb9Z+Oz2UFb+z/InhJAnzV3n+9vxJn0CFtR/iw8H/kbz5DQ1bDBeYM5HPe5LNWH/2dVIDhhml41P0ItZEC/eFM/+uIkQbatnw7uLKX2MOmOTf7p+WeQZBCoICJBWzG5jGrFuLufj0lrrG7F3298Lpb21l5FK3kzeR/G20re4d+A92v6JMRm06OALGV3UpBaYPxXitrhtjRHSpLQGoC2RCUKB3UGSr6bud+RzNdKmjyLuV3p0HLf99OyZVFtgP4/WwJj9JyAY+bkRvAQkeK1Xo+oWJ04zvme7iImBAhbarfrF6SYjVy9EBojVWQlHgJInv5KYzy8NKefC1VmvVPA3ljpXc4PiuATukD8Zg9yM6g8P0k5MBHfNSytYsoEfgIdUtbPWAHpmpVzwb/txi9we7qhw4+LKu6NLQGeMy3y39KO80IephjrkRQypAH6tV105QgupCfLA1YoMUfdIYLzkMVIt6c3y11kIGCxfEj4ynh6dm7bmO1+m8f/lL6NqehiCAW9yTbN7ZIlUu1MDwxewDv6sACS9+Se0xFvyioutitHAznhhdiaA0orjBTnev5B+QRdquFIedW9DzGI8tenHm2AKjw84okxfTog/8lIvKjuhRASXjHla6r2hQ+O7cZ90rh0E97/J5pEcUzMUzQE1PMKOs4dqrmPtoGnvcYRy4Ee1LSFvJSIz7tKfOygXbDO2oHWWWfPpjG77HLxT7aK7meI1Jm91AV9WLiNCTNZh8aNG29Qvsb8fQqx4NlsRdFY4DrDRbAhkVo27yyk/c1fgkAIXXn1t5gxpc70aA8Qsc5hAl3XBcP+XYfEtyhGcwKxcJgYm0hkh6y0owva+tQAonmeViAuYxHXIei+nRUiomfJRU4xzMHPAAQoWKYbbVw5JjIKaN5R4vUbbxctNWqz9c/5jg7ubT2NSO4DkVNq/PsFNeymmNRDEcvjiQoQcHrJ557CZ5z2up4EMetRI2CCsdDOvFqAUBh3RotkLly3FXY11ZbE/knKxrA0vbcQkT7FKk5cKes5EjGhECQkE4wgQydxdGzJ8lY1YC26rmWHXtcXVwaQNfa3MciLGDW/h1SLtvP+66CuMeAw02G4BmFT75vwvUve+rD7aDakm/ysW+D9LKbuFGeArHTUePykwuhdZZ2E+jZbnXK58wFC4MiSWaNnmrXfaXaW/lSEv8yhpqIo8v7tUyOcxkmgjAH2/G7v7XOvJ8mGyHZc0nHwCD0CuwnKnRUUaWq87r7vU3ZLoeOZFqqhdhw/V7opRB/BoBj2T8kBooH9XGw8ycVPjpPJUvNE8hqpG7eCDbIQZHnxYNdpdQUZdLPTYB1zeTKZjeTKpWlm24EJqtI1z/uKtqFfcxgp/d1xLptH7+2+dMOkckjmZJ7hfmT7Uy8r7qaq3/jOpTXiqVB4FsE/woHIwJ8Ej+aeTVMI2QtmfQUtLIB+9KRPxcejDWk6Ph4Zo2XISH99TcWX4+7AtCS5ivKmKywB9mNDQsXfETl4cBwr166LdfRaRfEAUfPJcmiLUzNaVi1PyTWTREqk37l3dZBnIE/sTPe2bf+4e8gHY3ElmRiEzchbZWeHVysjdMve0jD+Axc49yWkB5R5TzweFbYZ3yaorXG21z5ANaMyMQB/XjKYe03+lMqe0oc1ovPLS2Gpp2TOVz/8ZlAWzWMLSjJWc+ojVvkBHmwSzOtT5s6Akks7LgAAANnZtAQ5JWU5e5C9TC4xkulZxExU1eiWBtXCwF8t/inKpdeqCLtFBYyDOxnCJWhVewc/bw8f8lbu6dPEDKCOcyWhipDOESYEMELEGDK08UOFyZASruN7ccg0bOxM9/iI7s0w0R2GCtJk4Iky9BkziRR/FHjrADZrXhU4sF3TXeo28V3a6L9ejoImygMltVr3V+/DIkNb44SRdS7391fLzjDZBfuBVaQsmURoThVkQu8uLeJRP5PkG3fi5YoxmVQRFU9W5TlHPSKuY0DBlQsfdORxgtgPwSswn5SIYQunEAxJSNeJSVCWSHoaXYbV/PkVxrAeC5bOnMz0zomB3TVID4nK3m4Mk+NbcoXdXmZgQwXEb+NI3IOD0AumYIMYfZPSFy+PddXSzL+RHR0eU066Xo7b8FJLOcodra/NQE9jsXt7p8SGFEMV8QDFYt38uC48VKNd9Kqoibo2qHdEgTnQvwoARZX4PwLVE+7Rb90o5WztzjBigIA20aITk7tWC/6EcUtB2uLacRaXhlT9EMV/clRX5km1dMfl3NbXAvsKPERletIC9FhAnaD5Knzo0ScJ80kH3gI/gzSVUKBK2k6rN5g8hgU/y8QTaS6wMjrOQAhLaheOXDhg5/NnTAQkhy63zi9hXWTZ6MEhyAjPjIhACc/EpV+wwtHXbnKyQktyluuoJ7qoVyd7GEZSVi/stwdIT17I90jIWKoe8O/8yZI69p6oVQXLorg/EKfh2h26bIwN+ZQY+wyVR8c2SSKsnW9KpSM13QWEEGfcB6E9KQvJXe0fTegKtmQts7ZsZA7S3uBJr1ATLfGDrE0nicCtA+2vAyMKju5nAU8fqNXzTkzCUnZU8lgXzOGUJ6Tc8RzbXtfJR+uiRnUAPucSEvSzVr5Mf1RHucsabKyu4GBWG4LhvmoQng5iY98TbpV2G5qvc/FvUstwMZtaTit3p4JaP1EdZIkGpWMIVHOMYr1VfC8BebvEdR/vB1+ajOqKpygmgKhcEOoTJVlEep4laNYwZQcwmrWEG1YREsTea5fRfg9kpWmIKMm1Fl5VlqYLGKhvGO0ANeypfoEoJ5MYSvuxJ9nNkK4Vq6oJTJrx3QkWQsy7VuRwEDos7zwIS5S9ZtJSaAY9RiHepns/gDbxj2s/BigD0SOhAvaOxOxwDZQVc5ASGnxnbMuxaHRtuKF8R9jdwAjzFuv7Pwz5DnGIXqGGp6WyAhLZDLh1pI8WSnuz3BqcoUKGtVr/+zNCdgfkRmzq2MNbl2CLZdtKPGjFeAb98B9wShTHM5OkKz/YOJMRT1TcN+3Xb9iFzRaZBAYY4J+nVygBXlS6mcVRXqWRB2U40c+DJFRctRG6fZV320bEvPZaXywWcii9skrmTKYaFKRh4Vfbeilqj56mUEwqGA5TlV8J3VgU/hsZJ5uGdbXdydcQddi6nkVGv2mO3Lc1pDQ6QIfJWUJx0B7y2rI3DfYGys70yUUpQEcdhDXPG6H78UipFAliB+7EfAD8drLwalUOBTxZrXOK1j9sC4mqdkiMF/+55BA0DFZ4vq6LDR++KZcJkAGDPAZxPwvpxg3si2N5rXezxUuu/4sxoLo4O4IfzS8M03SE6u1JpY84QNFpCyvdawENcFItJRADmxu8aGg2ttIo6xxXANaDXuDwyrZpBrglc9O5IlaGakuiszBx2UKbIxRB2L8EMSYio2zJH5+BigSen6opHRXuBucz0CdIdDPAObmVSCLDNIPnZhkMJskJGk3HXdq0yWSW12HHeO+s1JPQhDnVNyuImceRIi2qsKA2x2qHPrPPktf4JVrnyXp3D3mI05pd46xEFmIMthOBbaIPiJyLssbuGCqebTFZB/WWXeefnxa6HarTkkN1HeAm/4QxTwowAEaCc3CITKJQOnuSuvLntw1MVokxQUvq+9lBKfekF2aoLe6kH5y2f4yFwX9nl2t3sDAhLUDM/kbajYgACOJ9QEpsTaounlnVDebYcCyCQTlp736C4QjStJLAc9ifbm19q8kBwGU2B67MmNja8rX5vmSnPpmtKP+X37uW1yQSM/sxOvafvJ010jruodglRYk2Hw/6ypUNQ3Nakz0enWeKjhmlWZDXXl5TJQtDop0E2PuC5XyP2u6QrpSeJ/yzN24SPZB5YAAADxvGaNZ3XGKcLUn1E/AZjxkuU31LCUD4MqfW0MFaYkpfFaJejH664FfS67KJYm+byp4ogBSDjZ54S/i9trGKgy5vO/EGm/m4ytIqc/LdGTSIYFjBdezRAd5uGxfF2RlUUUDueMYWfGxFKhkyerKuw24wdjSE32aKoJ+3u28F6xDTmsOjsoQta3bKKs2LA+fzkjKIIjIPV70C/IyzpX14wEMDSXcyjYOdgfn+/qacqEh7TrDRcFFOYdEFTwc5QA2oNZiTHxzwAAc//ZGNV2SP5RZ63ypbwpNbJcVX3y4AIq7FRmmJZpCFH22JlpYG8GQMhzVAteGD5H+mDG9gKXifiOF3ogX5/bv9ffirjqzSYrUb9iFu9aTvRszlbDqEFFqxz9u3hQAoQH06vaKzDVNiEnx5x8f25bHVZn8OJsDabLwWicHC9+b3RNYkt1F6orvKijE5rH9LAAwNyLFkq5GhxKAEXvNYW4tsBMuqzijGNXFCFZQZVTGxHwH5YYNRMHR+IuUma4C5VXOvW/f/H/C6JtCt3iK2QFE7+tisR85oyjE6tkPrY2iVrCHObF0woLF08T1nxFJuMa+GdHaD53UIe+2sgXcYKnsx26ZcWM82zUwN/5jUTdbn3/2DOPhfjQs3B2HG78tsb48lE/SOimwH6RvvNkbIDaIzP6u5GLYIb0COXcCiBlADBIcsSteYSXozqmv9e61v1HCs7FnrtvCSjp73OlR1i3U8o++3gk1efMMmthoyEmi626VjPfOmVgc/jriJZhqb8IisAssXD9QPq2DfzOp8bEJROy8m9DXA1486AbpjFqD1Zad8tUI8BCSKJGq3E+uCBHzq0cl2Mwswvmtnk9vd/W6n0IbDXHHuylHH63y1jtyvodYuQi5boE6J+3UV4RfdKW3DYk/npRbUAUQAeKh7BYiprcFggvG9gsiJvDU50wFeG2YCJrh8slX8Wf2rRkh3nwvdlNI3aO/G/M1e9iCNI29D8BBvR+hR6Lz9DZHWZVXqTeGXdTpRSZ9ezNSYCofz2B4TR9aC/eM74lP/N2ihTw1dsMdG712BJi4iFBfMvLA60EhmlBSY/D2w8CiklSkc49Wq3nmTfd9QfKziqYAzhBoN1PvzwB0M2EJvSo7CDC1tssSVBabjtIoljcFpqxc52ASb8Lns5j0JzBTyZZsyIh8BFiExtFrM90ipTZdA/Ip2xvA4vu6F68uuck4zuO/WFsLJYueE3hN1Dvt26PDyyu55uuR9nVU6OWPR/2R0H5CqIhNo86eQaQfFNymk7J/B7+8HXM8p0MQtJN9EmbWMF7fgE2GclZNMqLzNpQ71F90L6ewYuEDD5+kKjdqHDX7G3vXofddR9t+WMSCMzu73gN9tGI3OGEuRppYg4+YfSNi4VzzJcnvGYrI/sPWf1plXAtJ+LCNgARawgsjakHbEGeuzluxdveI1eGYFqox0LzgOSgOZ+eeT2uXyxD4Up+5/UeVgtOHN3WYpjL6Yq+2+Ph/UMf6HTYQwFhhH+L1Zr4r8iIYVYHOIJpQWi1cdjXdOtIUCHqO3CfFVza8xCaBqFz7/SjqrjOF8YbMTB01+3MNJRQyVJE1iy/97L7eJPy4KwiRy4iQJhjVxY4CCNgN6jqWOfZ+RAh9r+/p3ZxFSnOIfuMRPiFJP0TdOEbEwOBgvf92uznRnU3MnrNhr3jNnpPncDcQ9PaZIIaoqrW3Ar8fvNtMZt7Idawroa/FEaycb3C5r4zUp2NAWHiaQsj6pPGUm59C4nbwDdyCdGCMEnx9vPZDc96sD+h+TQhNcjOoqAHrB05nkd4AAWJQ7rWoa3revUAVEMI4fesciL1qV1/12azZNDZbYMtc8pEhLTkqh0FS56UMsGLU94OnB1QBIF8PQn3K8fBqNRA1h4yUAOQXqXRjE4qEdieTnSmaWXzr/zeVAGw+7bpTu5f7INuyKtFI47m69AiTSg/tjEMQDHyKNLPUcxwxnJT/O9QxYlrZtXOpCxnWW05iTmLRb8W/8VWzD65qkYZZHyX8AReErhtRnhsmbSW0SP0BLi5rwBhGV4viWPdonnk1vrMWTa8cyJc3uui+8snqwW07O7LkiFFYbZy7Yemfx3eZxc6+zMYaTUZ/2r3mzHM1naE1wlxWc+bZlb6pokS/BAQITMchwMaRVQaCeZyGFcN74GtaupRg9Mg+t/NR+onkxle0wVZsc6ddt8nlRmKG51snDB6LVMHx6uI+kYG6tiUFVu66mQKHjjC579gM8Uo+6JAy4BkCEwLAA0Kol6xc29B65I+atG9uwT6WkW1WO8Z6FoT0V26nq2Lxj3Hx56WT3wAAma8Df2AvMFHktNCdo9G1nxvOQbNlXQhdpKSntk3eVyJ/5Nk0sTQ2AQ+5i2oB6L3sB5/pqZDz/OYjO7b9xwLWilXiYxD3eIl1lZVyhLGgpTIYN5X1hoeR98yjG3FvfuAGIVtv5q0osMlHtMTe+mCTmcBrRsbbFdGA1PrHivFE0jHtJCcZtKLlkrL9L37Gq+3aJKuXTUQD6rRBG8Pj+iz4f92kgqzSWcoAviiScwm3Y5AI6LHfNSSyaL3umAmPFXz7Qoc7ngPqzOLUPibq5tMVdIptd8bCay7AaKImq9RvzKmJtbeiwK5CSO8iEJLOOGLLZy5cK3otEECAVK1zxhRKyM1CPmKdlirVSwumJKegE2mOm+/LPQypKB+1AHJ2dSqKOgudO5+M3wXVKglqt4qgUXVzseBCspdB9Wl2fUoikywX/oTe4pQ0mbtZc7n8/YZpxD8mtL8OpOvB9ywHTbv9N6DAGkgV/Ju0uCeN49TQJePQhc82a+wK/ojbJT3DMaGCdM1DCLKgLOJBoQNqw22JCa28/Ou4K0KPjw0I/pVPmzw7OF3g2wv59yQxdwmIkq1CWk4Ea5+vY0d978CW+jqUXXJlQfzfYKXMebT1lc4KCdjPC4rNLAi1tUgo6LIaYy3yQedTG2ICgngVNNulrzjrq+CHBF2qHbuIWnqjDyh6lIhnz3GTN7f3uGw2/ZPCgDQ+VkqyNwno+5m34LolonXybVoEXzz8m5nAHqWKZutl1o+I/0rbYeJV94gd5GEAALrPdahiOCxqzrlEcfGJFyJITdszDEEgAw2Q2GcQImgZGwqbGYe54SL/SH+YjiNoYWhng/PcHuMNkl2wP0Te/dtYIF/HVOziyVoxklTGFSj8rkZ168IbWy/rfsYS5uG0GuHQMlkRfpL63LCZS9+///93iT5eG2DBB/nCMmQhB9uEsX1aILI1++s8chP8T0c+egC4PY0kCQQiNpWNSEtuNkeZSxXhOSShZla96KOK3xA35/4bJNgTB2rjjUdK9IvQ9/F/HennPQ3V3WXQzYmaOnzfuN30eAcf8nLj373gX/uqj9uyxgsU8e8JjkvMzXOfCyy6T6uDU3l+Tz3DSbbb/2kcgIucDK1ON3aqr0GmFdbAOksxcvb+XazjdgZlDUwlLyB6QsQ0Nix1o4u80wYNgAVK3atSsgdNGI4L3O59WERoy3Qgqf+gUQBGqPOYqyiarqmjxdOsEJXfyuPKnrgnfMPgnhntx1+0uExgGx9ytcaE1OtpwXc9CVPzQR+qadeNtbzJULhBk3+7FoA4EvqG2xwyk3sgRqs4uNoEOvrI7D1mD8mLoFUpNl+UyUMUlOqqmWf/z3A54pwCgcu8xaSOcgfhwXoget2nXocvZZtKwVhEh+BbN/LMuep82oRrb6yQENiRE9Fl3z5skKpoxRxeS9jTPIdJ7sqVR4rIyWT0heoJVp2vMW5wFQfiqGFRkxLoXFoOUJpRoIMwpjbwXraQ7Z2pTz4wc9aozBKLod8V/SV3dMIiu8lgDDZBdoFIxae+zFY4vtdUomdR7SH+m0RHsDZJsHxBDU0K+ogOwyZ3+ijfLnmQnzxM5qCOe2tgKdhg9Y+wWZvZ+nJsU60t++pOOvctJABbZgcIrkva2hQTU39vsdAFj/Nbnmj6IR0/Ef1nodPS9JeFylR5736QqaY1ln/zghr4MvK2HEhWzISDks/h3rH0BpjMPedvHQTEvOcQ1g8qkGyW1b68bsv2kKLsyFBYpRfn3yMpY+kWS17u89X5ZAc/5XMFOzTUvaRQUyiygk6PHYzwxn4VRW7XgXL8xEqFdoljZcGr59HX6JtIR2RnOlXAMS8VXGaixc/YkwYK7GJoHw8SHId18+zrKdPl4wUblhN986LC+AD3xA5+JVFaYqcuYBat1RsVg8B6hmZEof+9fIvYV2JJp5PaVJSd0HshIiJLZ4VQSwkISuehiNrN7yNaCgaFjLPEb2Jr6AOTSezgqdSOaUTzTPigvWqbq6sB2fW+TELbhIG9ILeD7fw9K2eFqLu6d7KWUOIM4aRX1jNVv6J7SRQ0teIsYqM/eUxO/MtrrA5Kcc0MtYL/uL0fVHIlY0z4syOBEMBf43LryomtCRQZ0vDfJCvclLwB29ZWehNkG2M/8w6Wu59GNucrBXzSnuuH+fQqR4BKTIAAAwUP8Gf/o4w6a7WrbV5eaPLjF0S4L8eyf33Jlo7Qc99nKLefhlE1Fv6HQyM5Ou2uGe+CTY0gAtkPGSKf2K4hB73jpg/XOqItq3P9J7rF9Uj4rnxXNHDCaTRozd3px42pkOfNDGxPh50mEHzPD6XVx4POcSi0EAbi4fh1ScNZpkyef8xCXVF8eBMCz9/D6DO1GnQNBRLb4kiPNC7ZCO3U5tVKolOBF8CJ0vqnbd4ViprpL5ZNl/hLmkgKRWsmuy7Z9zaqd6vo+yPojm45WQlAp5ixUCiDjRHXrWZuU9y/rQNrswmEaQvzB1lKUHYOtD211Gi8uS9H/URhFJvonxXZcU9feVRIjzMeLBSMs435n3JiYMbdMh10quX58N1Kh9Mkp5nB1m+7deA3hpiCO7QDocxoQCxCBONYlYcPuJtCCbBI+jQu8ijRtCu5tsb4gLRhqmK9AVt2ZzQHqi6m4dURi5kPn2R4ggING+r2eKcspGzyB1Et9/7ooeryxh5Q8JSSK5dBLTpCskp1ZI7bT8AMNu4QGBwo5Ef4ewBl7XxiOAAKeGqj/nmi2YwSWRZHd+M47zr1a2QKep5ZpQwYD5M/y4d1NVj/e2/LFX+UayuSgC6IpFgyTrIELiW4dntjj7SnfjrBciEP7lNj1guMSR/iG7Gicfkobj/wgRcYoFjG7AIhcB47k3e6C4ZjPSl4057PN5tJQ4KDlc6MY3KhoyfDGrxqQCSV3gfRsAAAAjoDdV/Dq9WDF9u2RGcrp/AOCMAw3X7SNRJllghLORxpdIoRomaHNlTG8Z2kaRpdH32NI9wgnOzyfTaY9thCX+gj7YvneMj5ilOnf+fzoxGEUzemDyhNqrerrf+buddS3X4Hxrhcm2t6tYUvvQGjdEATMBfUpBZaIJ+ShergHL8MHw8/WsLcIXTntcz6gz6WWEEFOQIvfowebszZij4StaDfhXQ1S0C7bqY31g791kErBFgdjNo8oZ6bdvEbs+gVQFoojP9yQPQzNePhGz15x8UbpnpsnEGfuvwSm7GIRX1L+ewNF0cr/5sVREfFlCO0T61GeGqpHteIqZKnMP5z8eXIAAAAAABS2m9Z8ur9uwUS7fIujoFJ9WzlYcO98VQNGQ41FFQovQ2bSrL5RBOH78i7IxPTM+Mukk+T9z58XUTV4Ulv6mW8r+RHu00ttqEYWXdDiex7SNgDrqvn0dQ4mmE53ag3u3mCWCXisBi9H7HiaH4OWTuH9yADWMfnqz8af/tpqHZgRsH3kGw+6kDlyaKSWFZQDrvw6MrhBp9QLxi436MWDkzoActQ5xYrTPPMXtdk+J3ImvnIUKpxdvnC9264i9HpPFzHaE0rJTvGCgrpEnZK0JLqMhNsz57qTPjkhrDP92viNmggAAAAASa2dyDEp7tSKRgLVFHaDBuwEv6EzbBvEgDc90cipVgVlAYOFpZJdQXCfnPcLAOFWil3MTy8jd5ysN5D0x0mz1OIC3e6tiyx102CstyUEFZ7alzVeDTw3GDd7eqbGqPhdpkWIneA3kzs3wBXgKiwnRyFK08E8kX/kW7SFSZgtQNOD949GtSbFvhruJMOO15r6iWwhn5+iBssox8z3tyqdqAeFCrQfnjshaQtoxwMqE6HsFB2sO+c0eYSVCEHFaAaLlfLAxvc/znoTIHeGJlGxEWmt8js6Bf0/XKcVoHOyZ7sFe7TFOj8ngUVRLYY/fuFwUzZNCtEHKCAAAAIX60X3TX6WYQoTcvKDGt5dD2UnW8MW1GN597lo5YTZG2wh7fakW41tY1lyXwR2IqJcKmZDumMiYuynFHhZDG19eM6nBCE9ERed6DZ2Vlf7TWXfdoKY3L4HIPoAtMPj5lIu7bMo9O45aVUUi49yEnL6yhre8Hf2+LOsVRFXU3as2X3X0q6sjmj0BI2KjyIGjlDi+u+XPmLeOVRpFJP5rwd2IrYabMNdWaIWl9RJtuUk4OmtbFttlQvrUzygsFL2ItJrk25y8hGJpq4/lB0ApoKtlHFR8uIgbxvdc6B0Oef+gr+OmGo4keNlkTeOYB2frEOfCNGx7UihxXXm5M5v2EZso+n67xoBwrm6fMU+zACMMrQ9odqGlwbtRK89cWtNkAhMOoU0ArK8jl1+tiXxch2rixGcjhAdOPH4ZyIxQGpYXhwunxioYD3/fO9DsF6uiHhEhJfExxzemqjE68/mrOyiYGoJOgAAAAAAAO/sLs13g75mHqORSqfarRNA6dhhLFXnmyb5xfUn+3BeDakxPDMS6Lml2Fsw75Kbbj+0QO5Ll20PIKy3JUWeYVJ2IEzsPKhDWiXmdP/IjCxt+1rfffDg5585GM7gzOGHoU13Y93Jb+rkNDVEy+q9jZrwZrAQGksQrNDXJvByhM0BQ/IVFFl+vTEWxqciA8W4QN+XlsYHQFj+mxz/aqLOsZMK6hXg5j+4t8mSyB1xzzEuoipeoWtFIMmBlbWQIxfW8EmT0ZStyEjR3tj9ddHj19PAs/EnmjsREmbHUAqoWvjwwGm9K6EDcz6LsgCvzeCKVqzYPWRTWNzbNpTgGZptqhAQYc9b+i2baK68PDxCZoCIqopLPnNOrgV2vXQyPYcJHS4nfEUJNn6YuwyxePVv7jhrUdAQfGkAAAAAAACqlARbg7737hR0iJU3r7sWQfUeA1z3ekN55yj6BKlY/YURrISljC+UeJBb7gp6oeTHU0KQnhYoPN+6NAiH6pkSHkr/9ax3KHaszCGUgijId5BGVS7QQfZyLtSpMD2GMb3ioywFs8X633eWNpnAVIUPxrLRtzVqqMJFzfq8sjth1oHDUCP0y5GQkNzKhLNj3iPW1bJm0WDkUnlntAs0mjLnHfVwuokelI3U0Acyypmt1uviJj7UujT3AXfHt/JXz2Zs/gfpScyJhLeIaI4F/LDm6rTyxPixmM6q/ZvrA4SsY46MKJEDYb6Jyxx0eZQJOguv8pE/LLnQ/L1ox+yzH1xoQ7LfpZw0Nt+wQN3b+sOprIlYjkkNIjmsH3IY8Rfx6EecrdGI9eJRUQlnBBFYNzmIhx/mlizWL3IVN75k1I/3ywEJmRdHA3bvLmq43dCeylGkJQW5JZoZg4fy7RyHZwcHS/DBw/l2jkOzg4OlkAAAAAAAAAAAAAAAAAAAAAAAAAAAAAAA==;" vertex="1" parent="1">
          <mxGeometry x="643" y="43" width="213.69" height="227.71" as="geometry" />
        </mxCell>
        <mxCell id="3168lHL5h1D-uYm-A47y-3" value="2017" style="shape=table;startSize=30;container=1;collapsible=0;childLayout=tableLayout;strokeColor=default;fontSize=20;fontFamily=New Waltograph;" vertex="1" parent="1">
          <mxGeometry x="570" y="450" width="140" height="130" as="geometry" />
        </mxCell>
        <mxCell id="3168lHL5h1D-uYm-A47y-4" value="" style="shape=tableRow;horizontal=0;startSize=0;swimlaneHead=0;swimlaneBody=0;strokeColor=inherit;top=0;left=0;bottom=0;right=0;collapsible=0;dropTarget=0;fillColor=none;points=[[0,0.5],[1,0.5]];portConstraint=eastwest;fontSize=16;" vertex="1" parent="3168lHL5h1D-uYm-A47y-3">
          <mxGeometry y="30" width="140" height="50" as="geometry" />
        </mxCell>
        <mxCell id="3168lHL5h1D-uYm-A47y-5" value="&lt;font style=&quot;font-size: 20px;&quot; face=&quot;New Waltograph&quot;&gt;Craig&lt;/font&gt;" style="shape=partialRectangle;html=1;whiteSpace=wrap;connectable=0;strokeColor=inherit;overflow=hidden;fillColor=none;top=0;left=0;bottom=0;right=0;pointerEvents=1;fontSize=16;" vertex="1" parent="3168lHL5h1D-uYm-A47y-4">
          <mxGeometry width="70" height="50" as="geometry">
            <mxRectangle width="70" height="50" as="alternateBounds" />
          </mxGeometry>
        </mxCell>
        <mxCell id="3168lHL5h1D-uYm-A47y-6" value="&lt;font style=&quot;font-size: 20px;&quot; face=&quot;New Waltograph&quot;&gt;+2&lt;/font&gt;" style="shape=partialRectangle;html=1;whiteSpace=wrap;connectable=0;strokeColor=inherit;overflow=hidden;fillColor=none;top=0;left=0;bottom=0;right=0;pointerEvents=1;fontSize=16;" vertex="1" parent="3168lHL5h1D-uYm-A47y-4">
          <mxGeometry x="70" width="70" height="50" as="geometry">
            <mxRectangle width="70" height="50" as="alternateBounds" />
          </mxGeometry>
        </mxCell>
        <mxCell id="3168lHL5h1D-uYm-A47y-8" value="" style="shape=tableRow;horizontal=0;startSize=0;swimlaneHead=0;swimlaneBody=0;strokeColor=inherit;top=0;left=0;bottom=0;right=0;collapsible=0;dropTarget=0;fillColor=none;points=[[0,0.5],[1,0.5]];portConstraint=eastwest;fontSize=16;" vertex="1" parent="3168lHL5h1D-uYm-A47y-3">
          <mxGeometry y="80" width="140" height="50" as="geometry" />
        </mxCell>
        <mxCell id="3168lHL5h1D-uYm-A47y-9" value="&lt;font style=&quot;font-size: 20px;&quot; face=&quot;New Waltograph&quot;&gt;Sandy&lt;/font&gt;" style="shape=partialRectangle;html=1;whiteSpace=wrap;connectable=0;strokeColor=inherit;overflow=hidden;fillColor=none;top=0;left=0;bottom=0;right=0;pointerEvents=1;fontSize=16;" vertex="1" parent="3168lHL5h1D-uYm-A47y-8">
          <mxGeometry width="70" height="50" as="geometry">
            <mxRectangle width="70" height="50" as="alternateBounds" />
          </mxGeometry>
        </mxCell>
        <mxCell id="3168lHL5h1D-uYm-A47y-10" value="&lt;font style=&quot;font-size: 20px;&quot; face=&quot;New Waltograph&quot;&gt;+3&lt;/font&gt;" style="shape=partialRectangle;html=1;whiteSpace=wrap;connectable=0;strokeColor=inherit;overflow=hidden;fillColor=none;top=0;left=0;bottom=0;right=0;pointerEvents=1;fontSize=16;" vertex="1" parent="3168lHL5h1D-uYm-A47y-8">
          <mxGeometry x="70" width="70" height="50" as="geometry">
            <mxRectangle width="70" height="50" as="alternateBounds" />
          </mxGeometry>
        </mxCell>
        <mxCell id="3168lHL5h1D-uYm-A47y-16" value="2022" style="shape=table;startSize=30;container=1;collapsible=0;childLayout=tableLayout;strokeColor=default;fontSize=20;fontFamily=New Waltograph;" vertex="1" parent="1">
          <mxGeometry x="790" y="450" width="140" height="130" as="geometry" />
        </mxCell>
        <mxCell id="3168lHL5h1D-uYm-A47y-17" value="" style="shape=tableRow;horizontal=0;startSize=0;swimlaneHead=0;swimlaneBody=0;strokeColor=inherit;top=0;left=0;bottom=0;right=0;collapsible=0;dropTarget=0;fillColor=none;points=[[0,0.5],[1,0.5]];portConstraint=eastwest;fontSize=16;" vertex="1" parent="3168lHL5h1D-uYm-A47y-16">
          <mxGeometry y="30" width="140" height="50" as="geometry" />
        </mxCell>
        <mxCell id="3168lHL5h1D-uYm-A47y-18" value="&lt;font style=&quot;font-size: 20px;&quot; face=&quot;New Waltograph&quot;&gt;Sandy&lt;/font&gt;" style="shape=partialRectangle;html=1;whiteSpace=wrap;connectable=0;strokeColor=inherit;overflow=hidden;fillColor=none;top=0;left=0;bottom=0;right=0;pointerEvents=1;fontSize=16;" vertex="1" parent="3168lHL5h1D-uYm-A47y-17">
          <mxGeometry width="70" height="50" as="geometry">
            <mxRectangle width="70" height="50" as="alternateBounds" />
          </mxGeometry>
        </mxCell>
        <mxCell id="3168lHL5h1D-uYm-A47y-19" value="&lt;font style=&quot;font-size: 20px;&quot; face=&quot;New Waltograph&quot;&gt;-8&lt;/font&gt;" style="shape=partialRectangle;html=1;whiteSpace=wrap;connectable=0;strokeColor=inherit;overflow=hidden;fillColor=none;top=0;left=0;bottom=0;right=0;pointerEvents=1;fontSize=16;" vertex="1" parent="3168lHL5h1D-uYm-A47y-17">
          <mxGeometry x="70" width="70" height="50" as="geometry">
            <mxRectangle width="70" height="50" as="alternateBounds" />
          </mxGeometry>
        </mxCell>
        <mxCell id="3168lHL5h1D-uYm-A47y-20" value="" style="shape=tableRow;horizontal=0;startSize=0;swimlaneHead=0;swimlaneBody=0;strokeColor=inherit;top=0;left=0;bottom=0;right=0;collapsible=0;dropTarget=0;fillColor=none;points=[[0,0.5],[1,0.5]];portConstraint=eastwest;fontSize=16;" vertex="1" parent="3168lHL5h1D-uYm-A47y-16">
          <mxGeometry y="80" width="140" height="50" as="geometry" />
        </mxCell>
        <mxCell id="3168lHL5h1D-uYm-A47y-21" value="&lt;font style=&quot;font-size: 20px;&quot; face=&quot;New Waltograph&quot;&gt;Craig&lt;/font&gt;" style="shape=partialRectangle;html=1;whiteSpace=wrap;connectable=0;strokeColor=inherit;overflow=hidden;fillColor=none;top=0;left=0;bottom=0;right=0;pointerEvents=1;fontSize=16;" vertex="1" parent="3168lHL5h1D-uYm-A47y-20">
          <mxGeometry width="70" height="50" as="geometry">
            <mxRectangle width="70" height="50" as="alternateBounds" />
          </mxGeometry>
        </mxCell>
        <mxCell id="3168lHL5h1D-uYm-A47y-22" value="&lt;font style=&quot;font-size: 20px;&quot; face=&quot;New Waltograph&quot;&gt;+5&lt;/font&gt;" style="shape=partialRectangle;html=1;whiteSpace=wrap;connectable=0;strokeColor=inherit;overflow=hidden;fillColor=none;top=0;left=0;bottom=0;right=0;pointerEvents=1;fontSize=16;" vertex="1" parent="3168lHL5h1D-uYm-A47y-20">
          <mxGeometry x="70" width="70" height="50" as="geometry">
            <mxRectangle width="70" height="50" as="alternateBounds" />
          </mxGeometry>
        </mxCell>
      </root>
    </mxGraphModel>
  </diagram>
</mxfile>
